<?xml version="1.0" encoding="UTF-8" standalone="no"?>
<svg
   xmlns:dc="http://purl.org/dc/elements/1.1/"
   xmlns:cc="http://creativecommons.org/ns#"
   xmlns:rdf="http://www.w3.org/1999/02/22-rdf-syntax-ns#"
   xmlns:svg="http://www.w3.org/2000/svg"
   xmlns="http://www.w3.org/2000/svg"
   xmlns:sodipodi="http://sodipodi.sourceforge.net/DTD/sodipodi-0.dtd"
   xmlns:inkscape="http://www.inkscape.org/namespaces/inkscape"
   version="1.1"
   id="svg1729"
   width="1111.7618"
   height="1103.8939"
   viewBox="0 0 1111.7619 1103.8939"
   sodipodi:docname="atat.svg"
   inkscape:version="1.0 (4035a4fb49, 2020-05-01)">
  <metadata
     id="metadata1735">
    <rdf:RDF>
      <cc:Work
         rdf:about="">
        <dc:format>image/svg+xml</dc:format>
        <dc:type
           rdf:resource="http://purl.org/dc/dcmitype/StillImage" />
        <dc:title />
      </cc:Work>
    </rdf:RDF>
  </metadata>
  <defs
     id="defs1733">
    <pattern
       id="EMFhbasepattern"
       patternUnits="userSpaceOnUse"
       width="6"
       height="6"
       x="0"
       y="0" />
  </defs>
  <sodipodi:namedview
     inkscape:document-rotation="0"
     pagecolor="#ffffff"
     bordercolor="#666666"
     borderopacity="1"
     objecttolerance="10"
     gridtolerance="10"
     guidetolerance="10"
     inkscape:pageopacity="0"
     inkscape:pageshadow="2"
     inkscape:window-width="1194"
     inkscape:window-height="668"
     id="namedview1731"
     showgrid="false"
     inkscape:zoom="0.18680556"
     inkscape:cx="572.7074"
     inkscape:cy="530.04409"
     inkscape:window-x="43"
     inkscape:window-y="19"
     inkscape:window-maximized="0"
     inkscape:current-layer="g1737" />
  <g
     inkscape:groupmode="layer"
     inkscape:label="Image"
     id="g1737"
     transform="translate(368.29004,-114.07051)">
    <path
       id="path124"
       d="m -83.352042,1217.7519 c -5.71787,-0.2508 -9.38702,-0.7659 -12.36031,-1.7351 -16.885478,-5.504 -18.802668,-5.9165 -26.997548,-5.8065 -4.29358,0.057 -8.19117,0.3502 -8.66132,0.6502 -1.13814,0.7263 -52.92975,-0.2219 -53.88676,-0.9865 -1.07393,-0.8581 -22.99835,-1.4851 -22.99835,-0.6578 0,0.7958 -4.67718,-0.3641 -5.26947,-1.3068 -0.69521,-1.1065 -2.72402,-0.9985 -3.93194,0.2094 -0.67823,0.6783 -1.62576,1.006 -2.234,0.7725 -0.58092,-0.2229 -1.24623,-0.098 -1.47847,0.2775 -0.45651,0.7381 -8.25556,2.1629 -18.63747,3.4046 -3.57798,0.4279 -7.18604,1.0471 -8.0179,1.3759 -0.83186,0.3287 -1.78328,0.4303 -2.11427,0.2258 -0.33098,-0.2046 -0.96772,-0.142 -1.41497,0.139 -1.09068,0.6854 -3.52735,0.846 -15.67467,1.0333 -5.66924,0.087 -10.44362,-0.06 -10.60973,-0.329 -0.16611,-0.2683 -1.04792,-0.4879 -1.95959,-0.4879 -1.69218,0 -1.68769,0.034 -0.41054,-3.0901 0.18286,-0.4472 0.0279,-0.8132 -0.34417,-0.8132 -0.37215,0 -0.65166,-0.8782 -0.62114,-1.9516 0.0458,-1.6125 0.32755,-1.9516 1.62125,-1.9516 0.87817,0 1.38918,-0.2857 1.16369,-0.6506 -0.22114,-0.3578 0.0978,-0.6505 0.70864,-0.6505 1.15708,0 18.0846,-6.4767 21.30065,-8.1499 1.59465,-0.8296 10.04703,-2.0659 11.2497,-1.6453 0.23308,0.082 0.65137,-0.2201 0.92954,-0.6702 0.31587,-0.511 1.80861,-0.7867 3.97599,-0.7343 4.18525,0.1012 8.80559,-2.384 7.98429,-4.2948 -0.93773,-2.1816 -0.70785,-6.9474 0.69215,-14.3498 0.17757,-0.9389 0.77835,-5.5127 1.33509,-10.1641 1.20123,-10.0361 2.04413,-16.9449 2.64233,-21.6579 0.32544,-2.564 0.78658,-3.627 1.80683,-4.1649 0.75343,-0.3971 2.87991,-2.0952 4.72552,-3.7735 2.53086,-2.3012 4.36969,-3.3327 7.48125,-4.1965 2.26907,-0.6298 6.17481,-2.1744 8.6794,-3.4323 2.50459,-1.2579 6.20086,-3.1108 8.21392,-4.1175 l 3.66013,-1.8305 0.4731,-4.1099 c 0.62651,-5.4427 0.70078,-5.8181 1.86924,-9.4484 0.55207,-1.7153 1.15918,-4.875 1.34914,-7.0219 0.18998,-2.1468 0.63843,-5.8061 0.99655,-8.1318 0.35814,-2.3256 0.65704,-5.0164 0.66423,-5.9794 0.0127,-1.7058 -0.0724,-1.7445 -3.30815,-1.5036 -3.68023,0.274 -4.01318,0.4484 -4.13991,2.1685 -0.0482,0.6546 -0.87955,2.045 -1.84738,3.0897 l -1.7597,1.8996 -10.06294,0.2082 c -9.84441,0.2036 -10.09632,0.1748 -11.60068,-1.3296 -1.42152,-1.4215 -2.83341,-6.4294 -2.13243,-7.5636 0.16119,-0.2608 0.36507,-3.6095 0.45307,-7.4417 0.088,-3.8322 0.36603,-6.9676 0.61783,-6.9676 0.67739,0 1.77897,-3.1723 2.25901,-6.5055 0.6911,-4.7984 2.77163,-12.5046 4.12642,-15.2839 0.69664,-1.4292 1.13019,-2.8192 0.96345,-3.089 -0.16673,-0.2698 0.15292,-1.1417 0.71035,-1.9375 0.55742,-0.7958 1.0135,-2.1137 1.0135,-2.9286 0,-0.8149 0.26096,-1.4816 0.57991,-1.4816 0.31894,0 1.03847,-1.1461 1.59894,-2.5468 0.56048,-1.4008 1.32413,-2.7354 1.697,-2.9659 0.37288,-0.2304 0.67795,-0.9971 0.67795,-1.7036 0,-0.7594 0.86441,-1.7952 2.11427,-2.5337 1.16284,-0.687 2.84001,-2.5799 3.72703,-4.2066 0.88703,-1.6266 1.80671,-2.9575 2.04375,-2.9575 0.23703,0 0.61465,-0.7319 0.83915,-1.6263 0.22452,-0.8945 0.71264,-1.6264 1.08474,-1.6264 0.37209,0 0.50412,-0.2789 0.29339,-0.62 -0.53369,-0.8635 13.12937,-15.6436 14.46132,-15.6436 1.03687,0 6.68147,-4.31792 6.23208,-4.76732 -0.24038,-0.2404 0.12405,-0.4436 0.80983,-0.4515 0.68578,-0.01 1.93549,-0.5441 2.77712,-1.1914 l 1.53025,-1.177 -1.68394,-3.3231 -1.68394,-3.3231 1.61741,-1.9222 c 1.70783,-2.0296 2.12947,-4.3827 0.86108,-4.8055 -1.26225,-0.4207 -1.15442,-2.3838 0.15373,-2.799 0.6747,-0.2141 1.198,-0.591 1.1629,-0.8375 -0.18739,-1.3162 0.19398,-2.0747 1.04318,-2.0747 0.52411,0 1.25405,-0.5626 1.6221,-1.2503 0.36804,-0.6877 1.03702,-1.6471 1.48661,-2.1319 1.45399,-1.5678 3.74488,-5.0054 3.74488,-5.6194 0,-0.3284 0.43304,-0.9566 0.96232,-1.3959 1.07541,-0.8925 2.94094,-4.3736 2.94094,-5.4877 0,-0.3976 1.24416,-1.9332 2.76481,-3.4126 1.52064,-1.4793 3.64304,-4.3703 4.71644,-6.4244 2.78791,-5.335 4.34985,-6.8079 8.87126,-8.3648 3.84823,-1.3251 4.04184,-1.4993 5.14066,-4.625 1.31995,-3.7547 3.39876,-10.6473 4.90378,-16.2589 1.90313,-7.0961 3.69916,-12.9821 4.59562,-15.0608 0.48622,-1.1275 0.88404,-2.7865 0.88404,-3.6867 0,-0.9002 0.5855,-3.0027 1.30109,-4.6721 0.7156,-1.6694 1.30109,-3.6843 1.30109,-4.4776 0,-0.7933 0.28436,-1.7267 0.63193,-2.0742 0.34756,-0.3476 0.7278,-1.2112 0.84499,-1.9192 0.11718,-0.7079 0.53189,-1.8726 0.92158,-2.5882 0.38969,-0.7156 1.05481,-2.9844 1.47804,-5.0417 0.42323,-2.0574 1.04708,-3.7406 1.38632,-3.7406 0.33925,0 0.43313,-0.7319 0.20862,-1.6264 -0.2245,-0.8945 -0.15498,-1.6264 0.15449,-1.6264 0.30947,0 0.93546,-1.2441 1.39108,-2.7648 2.44583,-8.1629 6.41575,-20.2733 8.05039,-24.558 l 1.8614,-4.879 -1.01506,-6.7876 c -0.90155,-6.0285 -0.8905,-10.0579 0.0421,-15.3309 0.51384,-2.9055 3.04,-11.0827 3.65127,-11.8192 0.36005,-0.4339 0.56063,-1.3438 0.44572,-2.022 -0.36585,-2.1596 3.14767,-7.4506 8.872138,-13.3605 3.0546,-3.1536 5.55381,-5.984 5.55381,-6.2897 0,-0.3058 0.9917,-1.1689 2.20376,-1.918 1.21208,-0.7491 2.60261,-1.8538 3.09009,-2.4548 0.61029,-0.7526 0.63306,-0.9407 0.0731,-0.6043 -1.16652,0.7007 -1.00482,0.1812 0.4744,-1.5244 0.70818,-0.8165 1.13512,-1.7313 0.94878,-2.0327 -0.30798,-0.4984 1.38517,-3.7038 2.37078,-4.4883 0.22477,-0.1789 0.78822,-1.4962 1.25211,-2.9274 0.46391,-1.4312 1.24483,-3.2196 1.73539,-3.9742 0.49056,-0.7547 0.7076,-1.8525 0.48231,-2.4396 -0.23516,-0.6128 -0.0871,-1.0675 0.34752,-1.0675 0.41644,0 1.7905,-2.2687 3.05347,-5.0417 1.26297,-2.7729 3.52429,-7.53 5.02513,-10.5713 1.50084,-3.0413 3.1455,-6.847 3.65478,-8.4571 0.50928,-1.6101 1.58282,-4.1869 2.38565,-5.7262 0.80283,-1.5393 1.27863,-3.2706 1.05732,-3.8473 -0.24832,-0.6472 -0.13888,-0.8857 0.28587,-0.6232 0.40476,0.2501 1.2874,-1.0509 2.14296,-3.1589 0.8001,-1.9713 1.87176,-3.8176 2.38145,-4.1029 0.5097,-0.2852 1.01592,-1.2308 1.12494,-2.1013 0.10904,-0.8706 0.57034,-2.4611 1.02514,-3.5344 0.45479,-1.0734 1.04249,-2.5372 1.30599,-3.2528 1.0503,-2.8523 6.17033,-13.1457 7.59848,-15.2761 0.83522,-1.24591 1.51857,-2.64261 1.51857,-3.10377 0,-0.76289 2.5878,-6.75067 4.96487,-11.48797 0.52284,-1.04197 0.70081,-2.06657 0.39548,-2.2769 -1.02671,-0.70722 -2.25986,-4.57697 -1.82206,-5.71785 0.23855,-0.62167 0.2117,-0.90828 -0.0597,-0.6369 -0.4853,0.48529 -1.17303,-1.58596 -4.60507,-13.8692 -0.94974,-3.39909 -1.96304,-6.27775 -2.2518,-6.39701 -0.28879,-0.11927 -0.52505,-0.76067 -0.52505,-1.42533 0,-0.66466 -0.259,-1.36855 -0.57553,-1.56419 -0.31655,-0.19563 -0.73216,-1.16433 -0.92359,-2.15265 -0.84774,-4.37678 -3.11721,-13.31728 -3.63953,-14.33781 -0.92588,-1.80899 -3.267,-9.99236 -3.72119,-13.00739 -0.23027,-1.52858 -0.64589,-2.91966 -0.92359,-3.09129 -0.27771,-0.17163 -1.0004,-1.9948 -1.60597,-4.05148 -0.60559,-2.05668 -1.39905,-4.37017 -1.76326,-5.14111 -0.36422,-0.77092 -0.43437,-1.79553 -0.15591,-2.2769 0.27847,-0.48136 0.26464,-0.65608 -0.0307,-0.38826 -1.11063,1.00705 -6.44756,-16.31464 -5.85621,-19.00706 0.26136,-1.18994 -0.0384,-2.52946 -0.89422,-3.99532 -0.70807,-1.21286 -2.23743,-4.83991 -3.39855,-8.0601 -2.09957,-5.8228 -2.1114,-5.92441 -2.15966,-18.54048 -0.0311,-8.13514 0.22063,-13.38566 0.70179,-14.63723 0.41267,-1.07339 1.69467,-5.31819 2.84891,-9.43287 1.15423,-4.11469 2.94871,-9.21416 3.98772,-11.33216 1.834,-3.73855 6.86143,-11.31369 8.94821,-13.48282 0.56623,-0.58859 2.63961,-2.74491 4.6075,-4.79182 13.15417,-13.68238 32.90765,-20.05688 58.3842502,-18.84076 l 9.2682398,0.44242 1.17588,-2.76875 c 1.3409,-3.15728 1.14256,-6.27789 -0.42939,-6.75561 -0.58726,-0.17847 -6.1907798,-0.90539 -12.4522598,-1.61536 -14.5367002,-1.6483 -59.7245702,-6.90889 -69.9333902,-8.14137 -4.29359,-0.51836 -11.31946,-1.14183 -15.61304,-1.38548 -8.55791,-0.48567 -9.17555,-0.56353 -12.22582,-1.54118 -1.76233,-0.56486 -18.077318,-2.51888 -30.212478,-3.61852 -3.27794,-0.29704 -3.42115,-0.24191 -3.81714,1.46943 -0.22629,0.97792 -0.93056,2.94901 -1.56504,4.38021 -0.63449,1.43119 -1.64179,3.77314 -2.23847,5.20434 -1.67695,4.0224 -3.75969,5.98077 -7.56117,7.10969 -3.83415,1.13861 -7.82609,1.33339 -8.76781,0.4278 -1.15223,-1.10801 -3.28428,-1.02756 -5.14906,0.19429 -1.08565,0.71134 -3.5038,1.34448 -5.81923,1.52362 -3.64382,0.28193 -4.18352,0.14442 -6.72649,-1.71371 -1.52065,-1.11113 -2.76481,-2.45751 -2.76481,-2.99196 0,-0.74919 -0.8567,-0.97195 -3.74062,-0.97263 -5.51586,-0.001 -24.23274,1.46907 -24.23274,1.90373 0,0.20573 -1.39054,0.38764 -3.09008,0.40423 -1.69954,0.0166 -5.87115,0.26368 -9.27024,0.54909 l -6.18016,0.51893 -1.77002,2.7589 c -1.20916,1.8847 -2.65212,3.12329 -4.55381,3.90886 -1.53107,0.63247 -3.24643,1.38412 -3.81191,1.67033 -1.13426,0.5741 -6.40889,-0.23633 -8.37036,-1.28608 -1.01039,-0.54075 -1.32673,-0.42025 -1.66089,0.63262 -0.22706,0.71534 -0.83221,1.3006 -1.3448,1.3006 -0.51258,0 -0.93197,0.31002 -0.93197,0.68894 0,0.37892 -0.34488,0.47578 -0.7664,0.21528 -0.42152,-0.26051 -3.05622,-0.4435 -5.85489,-0.40663 -2.97963,0.0393 -5.08849,-0.20069 -5.08849,-0.57895 0,-0.35528 -0.33798,-0.43709 -0.75106,-0.18179 -0.43024,0.2659 -0.57574,0.1805 -0.34061,-0.19993 0.41763,-0.67574 -1.95103,-3.24925 -2.71726,-2.95227 -0.23078,0.0894 -0.44414,-0.0569 -0.47411,-0.32527 -0.03,-0.26835 -0.39592,-1.31201 -0.81318,-2.31925 -0.41728,-1.00724 -0.75867,-2.30019 -0.75867,-2.87324 0,-0.57304 -0.19331,-0.84859 -0.42956,-0.61233 -0.48009,0.4801 -2.39708,-1.99728 -2.59641,-3.35544 -0.3321,-2.26275 -2.09856,-3.07673 -6.99379,-3.2227 -2.67956,-0.0799 -5.64327,-0.43855 -6.58602,-0.79698 -0.94275,-0.35844 -4.72896,-0.91348 -8.41378,-1.23344 -3.68482,-0.31996 -7.39377,-0.94032 -8.24209,-1.37859 -2.22163,-1.14773 -4.46986,-3.32342 -4.46986,-4.32563 0,-0.47433 -0.43911,-0.86242 -0.97581,-0.86242 -0.5367,0 -0.97582,-0.43912 -0.97582,-0.97581 0,-0.55022 -0.58195,-0.97582 -1.33428,-0.97582 -0.89787,0 -1.63129,-0.71084 -2.24236,-2.17335 -0.49945,-1.19534 -1.97881,-2.99003 -3.28748,-3.98819 -2.16927,-1.65459 -3.22078,-1.89719 -11.90695,-2.74713 -11.2753,-1.10327 -15.07156,-0.80421 -19.59741,1.54389 -3.17339,1.64641 -3.55873,1.70116 -6.73153,0.95638 -1.851,-0.43451 -4.09732,-0.94889 -4.99182,-1.14307 -0.89449,-0.19418 -2.21184,-0.5972 -2.92744,-0.89561 -0.71559,-0.2984 -1.84636,-0.71892 -2.5128,-0.93451 -0.87831,-0.2841 -1.02736,-0.6141 -0.5417,-1.19928 0.46911,-0.56524 0.39354,-1.18544 -0.252,-2.06827 -1.02694,-1.40441 -1.22819,-6.67709 -0.31024,-8.12782 0.38572,-0.6096 0.26896,-1.39641 -0.33523,-2.25902 -0.50991,-0.72799 -0.9271,-1.68434 -0.9271,-2.1252 0,-1.07151 4.44344,-1.88167 5.34971,-0.97541 0.49793,0.49794 1.18511,0.44721 2.3913,-0.17654 1.25473,-0.64885 2.7864,-0.73898 5.92076,-0.34843 5.78829,0.72126 6.36638,0.88247 7.91296,2.20668 0.81881,0.7011 1.98285,1.03625 2.95416,0.85057 1.31548,-0.25147 1.54563,-0.0874 1.2835,0.91499 -0.19591,0.74915 0.0343,1.25283 0.59551,1.30271 1.44138,0.12811 1.84575,0.23547 2.54127,0.67472 0.3578,0.22596 2.85825,0.61608 5.55656,0.86693 l 4.90601,0.45609 3.13738,-2.96354 c 1.89265,-1.78776 4.40971,-3.38613 6.34429,-4.0287 2.21305,-0.73505 3.0328,-1.29804 2.64511,-1.81661 -0.30899,-0.41331 -0.95635,-2.00236 -1.43858,-3.53125 -0.58231,-1.84611 -1.3318,-2.89389 -2.23145,-3.11951 -0.74506,-0.18684 -4.2821,-1.00956 -7.86009,-1.82825 l -6.50543,-1.48853 0.18192,-2.22266 c 0.54801,-6.69567 0.59533,-10.35445 0.13392,-10.35445 -0.28562,0 -0.37683,-0.54481 -0.20271,-1.21068 0.39709,-1.51845 -4.02392,-5.37585 -5.50843,-4.80619 -0.58281,0.22364 -0.8289,0.10898 -0.59127,-0.2755 0.22386,-0.36221 -1.15389,-2.00616 -3.06166,-3.65322 -3.23639,-2.79409 -3.54619,-3.32376 -4.62601,-7.90904 -0.63652,-2.70291 -1.4161,-4.91439 -1.73238,-4.91439 -0.31628,0 -1.59966,-1.02461 -2.85196,-2.2769 -1.25229,-1.2523 -2.54958,-2.2769 -2.88287,-2.2769 -0.33328,0 -0.91931,-0.5855 -1.30229,-1.30109 -0.49912,-0.93262 -0.49473,-1.30109 0.0155,-1.30109 0.3915,0 0.51514,-0.31824 0.27474,-0.70722 -0.2404,-0.38896 -0.98924,-0.56282 -1.6641,-0.38634 -0.67487,0.17648 -1.40672,0.0301 -1.62636,-0.32527 -0.21964,-0.35538 -0.95219,-0.50157 -1.62791,-0.32487 -0.67571,0.1767 -1.07753,0.0769 -0.89294,-0.22175 0.4243,-0.68655 -1.6506,-1.35892 -4.39858,-1.42537 -1.16348,-0.0281 -2.26445,-0.27769 -2.44663,-0.55457 -0.18217,-0.27688 -2.78944,-0.67554 -5.79392,-0.88591 -6.10087,-0.42718 -7.21099,-0.99571 -7.21099,-3.69302 0,-1.39139 0.37223,-1.953 1.47845,-2.23064 1.68999,-0.42417 5.42541,-0.0707 7.21617,0.68291 0.66736,0.28084 3.96013,0.53954 7.31727,0.57489 3.35714,0.0353 6.1045,0.25644 6.10524,0.49129 6.5e-4,0.23486 0.60339,0.26957 1.33922,0.0771 0.75161,-0.19655 1.19616,-0.71916 1.01448,-1.19262 -0.42877,-1.11736 1.27708,-2.48324 2.51031,-2.01001 0.54921,0.21076 1.73648,-0.3303 2.71523,-1.23737 0.95659,-0.88654 2.84285,-1.78836 4.19167,-2.00405 2.28633,-0.3656 2.41141,-0.50003 1.84686,-1.98491 -0.33306,-0.87601 -0.60557,-2.45193 -0.60557,-3.50204 0,-1.89862 -0.0216,-1.90928 -3.88037,-1.90928 -5.31322,0 -5.02602,0.65152 -6.92378,-15.70626 -0.40974,-3.5317 0.24779,-9.55272 0.85964,-7.87188 0.16362,0.44948 0.57786,0.64396 0.92053,0.43217 1.15919,-0.71642 19.63506,-2.20808 22.3084,-1.80108 3.42188,0.52095 4.28025,1.24685 4.28025,3.61968 0,1.38578 0.36828,2.02919 1.30108,2.27312 0.7156,0.18714 1.30195,0.52566 1.30301,0.75228 10e-4,0.22661 0.97775,0.432 2.17045,0.45641 1.77434,0.0363 2.31634,-0.28957 2.98168,-1.79269 0.45338,-1.02425 1.12149,-1.64649 1.51002,-1.40636 0.46654,0.28833 0.53991,-0.0867 0.22199,-1.13477 -0.63705,-2.10009 -0.63338,-2.25848 0.1609,-6.94473 0.64872,-3.82737 2.04944,-6.45013 2.95902,-5.54055 0.22149,0.22149 0.40271,0.0704 0.40271,-0.33583 0,-0.4062 0.43912,-0.57005 0.97582,-0.3641 0.61791,0.23712 0.97581,-0.009 0.97581,-0.67095 0,-0.61173 -0.53976,-1.04543 -1.30108,-1.04543 -0.7156,0 -1.30109,-0.29274 -1.30109,-0.65053 0,-0.35781 0.36593,-0.65336 0.81318,-0.6568 0.44725,-0.003 2.83119,-1.52192 5.29765,-3.3744 3.80376,-2.8569 4.86618,-3.34562 6.99928,-3.21976 2.07573,0.12248 2.62744,-0.11184 3.15982,-1.34204 0.35476,-0.81974 1.97125,-3.83238 3.59221,-6.69477 1.62097,-2.86239 3.36911,-6.12685 3.88475,-7.25436 0.85103,-1.8609 2.57926,-3.24543 7.58597,-6.0773 7.09875,-4.01518 7.01567,-3.99026 15.41101,-4.62304 4.52487,-0.34105 9.23867,-0.89814 10.47512,-1.238 1.23644,-0.33984 2.40741,-0.37466 2.60217,-0.0774 0.4504,0.68753 9.97612,-0.56937 10.5149,-1.38742 0.22147,-0.33625 1.97793,-0.59226 3.90326,-0.5689 1.92533,0.0234 8.62362,-0.53301 14.8851,-1.23638 6.26148,-0.70338 16.06842,-1.72689 21.7932,-2.27448 26.93665,-2.57656 47.79643,-4.79577 49.23903,-5.23839 0.68024,-0.20871 1.37045,0.1704 1.81188,0.99521 0.39218,0.73279 1.14187,1.33235 1.66597,1.33235 0.52411,0 0.95293,0.41097 0.95293,0.91326 0,0.50229 1.75538,2.33195 3.90083,4.06589 2.14546,1.73395 3.90192,3.50827 3.90327,3.94293 0.005,1.3909 2.40777,2.13758 5.64211,1.7528 6.28156,-0.74731 6.40812,-0.87995 7.58593,-7.9508 0.57736,-3.46614 1.49813,-9.52226 2.04615,-13.45805 0.54801,-3.93578 1.161,-7.88783 1.36218,-8.78233 0.20118,-0.8945 1.06943,-6.89576 1.92945,-13.33614 0.86001,-6.44038 2.16738,-14.18234 2.90526,-17.20436 0.73789,-3.02202 1.20262,-5.85684 1.03272,-6.29959 -0.17245,-0.44939 0.17763,-0.79219 0.79254,-0.77601 0.6058,0.0159 3.44341,-0.62367 6.3058,-1.42135 2.862388,-0.79767 6.032628,-1.59865 7.044998,-1.77996 1.01236,-0.18131 1.99445,-0.73045 2.18243,-1.22032 0.18798,-0.48986 0.58082,-0.74291 0.873,-0.56234 1.3026,0.80505 15.62998,-3.2967 21.95405,-6.28516 3.67582,-1.73703 6.84027,-3.15823 7.03211,-3.15823 0.19184,0 2.7465,-1.13575 5.67702,-2.5239 2.93052,-1.38814 5.98689,-2.72521 6.79193,-2.97128 1.37002,-0.41875 2.08171,-1.6608 0.95162,-1.6608 -0.28165,0 -0.55621,-0.58549 -0.61011,-1.30109 -0.056,-0.74327 0.30302,-1.30108 0.83738,-1.30108 0.51446,0 0.93538,-0.59022 0.93538,-1.31161 0,-0.88142 0.80013,-1.68155 2.43954,-2.43954 1.34174,-0.62036 2.7971,-1.46458 3.23413,-1.87605 0.43702,-0.41147 1.77775,-0.74813 2.97937,-0.74813 2.46954,0 12.16342,-2.54849 13.10763,-3.44594 0.33991,-0.32309 1.65726,-0.59698 2.92744,-0.60866 1.27019,-0.0116 3.91953,-0.58762 5.88742,-1.27985 1.96789,-0.69223 4.3372,-1.26817 5.26514,-1.27985 2.1515002,-0.027 8.6223702,-2.24446 11.49359021,-3.93853 1.21506,-0.7169 3.28398999,-1.57588 4.59764999,-1.90885 1.31365,-0.33297 3.55426,-0.89928 4.97915,-1.25847 1.4248898,-0.35919 2.6940498,-0.96313 2.8203798,-1.34209 0.12631,-0.37895 0.49741,-0.52354 0.82464,-0.32129 0.32724,0.20224 0.95577,0.14474 1.39673,-0.12779 0.44095,-0.27252 1.246,-0.5416 1.78899,-0.59793 0.87876,-0.0912 9.42521,-2.18207 18.55191,-4.53874 8.46724,-2.18637 11.2558,-3.18777 13.03645,-4.68149 1.05932,-0.88863 1.56012,-1.41992 1.11287,-1.18063 -0.44725,0.23928 -0.81318,0.10776 -0.81318,-0.29227 0,-0.40003 -0.33798,-0.51845 -0.75105,-0.26315 -0.45094,0.2787 -0.57504,0.17936 -0.31055,-0.2486 0.24229,-0.39203 1.75125,-1.36738 3.35324,-2.16746 1.60198,-0.80007 2.91271,-1.66001 2.91271,-1.91098 0,-0.25097 0.95142,-0.82288 2.11426,-1.27091 4.13853,-1.59452 7.97632,-3.49247 8.44711,-4.17746 0.31758,-0.46208 0.48128,-0.41696 0.4879,0.13448 0.008,0.64672 0.41179,0.62209 1.83055,-0.11158 1.00133,-0.5178 3.70921,-1.57215 6.01753,-2.34299 2.30831,-0.77084 6.28596,-2.69666 8.83922,-4.27959 2.55326,-1.58293 5.04159,-2.87961 5.52962,-2.88151 1.45435,-0.006 12.92238,-5.76054 12.92238,-6.48471 0,-0.36729 0.571712,-0.66781 1.270482,-0.66781 1.22106,0 4.56055,-1.23655 5.23495,-1.93839 0.17889,-0.18619 0.76439,-0.41888 1.30108,-0.51711 1.20117,-0.21985 3.81479,-1.26019 15.61304,-6.21469 3.04129,-1.27715 6.40785,-2.50732 7.48125,-2.73372 2.97169,-0.62678 5.48279,-1.67229 9.65801,-4.0212 2.09171,-1.17676 4.12205,-2.13956 4.51187,-2.13956 0.38981,0 1.34123,-0.59418 2.11425,-1.3204 1.37436,-1.29114 1.58427,-1.29917 9.47481,-0.3623 4.43811,0.52695 12.46047,1.28661 17.82745,1.68814 15.56182,1.16423 52.59883,4.47826 61.47634,5.50083 4.47248,0.51516 12.39961,1.22557 17.61585,1.57868 5.21623,0.3531 12.82759,1.22487 16.91411,1.93724 4.0865,0.71238 11.6017,1.80536 16.7003,2.42884 5.0986,0.62348 9.2702,1.35911 9.2702,1.63474 0,0.27562 1.3906,0.50309 3.0901,0.50549 2.7087,0.004 32.013,4.10387 42.7732,5.98455 2.1468,0.37521 4.9279,0.79518 6.1802,0.93327 1.2523,0.13809 5.2043,0.70095 8.7823,1.25082 3.578,0.54988 7.5301,1.1482 8.7824,1.32962 1.2523,0.18142 7.3999,1.06867 13.6614,1.97166 6.2614,0.90299 12.0048,1.77722 12.7629,1.94271 1.1807,0.25773 1.478,1.02555 2.0728,5.35162 1.0077,7.3295 3.2419,19.58959 3.7071,20.34238 0.2199,0.35566 2.143,0.64666 4.2737,0.64666 3.4473,0 4.0702,-0.21029 5.6539,-1.90914 l 1.7798,-1.90914 12.6856,7.75148 c 6.9771,4.26332 13.1247,7.95756 13.6614,8.20944 0.5367,0.25187 3.4641,1.98025 6.5055,3.84083 3.0413,1.86058 34.804,20.86473 70.5839,42.23146 35.7799,21.36672 65.5324,39.33106 66.1167,39.92075 0.9537,0.9624 3.4526,8.16136 10.534,30.34661 1.2563,3.93579 2.4882,8.18058 2.7376,9.43288 0.2495,1.25229 0.7066,2.59262 1.016,2.9785 0.3093,0.38588 0.669,1.26412 0.7994,1.95163 0.5248,2.76778 1.3406,5.2224 2.1533,6.47933 0.4717,0.72932 1.2997,3.63711 1.8402,6.46173 0.5404,2.82464 1.3262,5.34802 1.746,5.60753 0.4199,0.25951 0.8036,1.01618 0.8526,1.6815 0.049,0.66531 0.3151,1.57527 0.5913,2.02213 0.2761,0.44686 0.646,1.60588 0.8218,2.5756 0.1759,0.9697 0.7181,2.64816 1.2051,3.72989 0.4869,1.08172 1.3636,3.72323 1.9483,5.87003 0.5846,2.14679 1.4858,4.82574 2.0026,5.9532 0.5168,1.12747 0.9397,2.74696 0.9397,3.59886 0,0.8519 0.3966,3.00324 0.8814,4.78076 2.8239,10.35441 4.8799,18.78676 5.6258,23.07342 0.4668,2.68348 1.0966,5.15717 1.3993,5.49708 0.3028,0.33991 0.5506,1.58408 0.5506,2.76481 0,1.18074 0.2439,2.1468 0.5421,2.1468 0.2982,0 0.543,0.36592 0.5443,0.81318 0.01,1.39049 1.6598,7.93457 2.1813,8.61969 0.6121,0.80423 2.9692,9.5609 10.7288,39.85701 5.8521,22.84894 6.0022,23.61516 4.7562,24.28196 -1.4146,0.75709 -19.9128,0.50554 -21.1972,-0.28825 -0.4141,-0.25589 -2.6405,-0.11746 -4.9476,0.30765 l -4.1946,0.7729 0.932,2.98897 c 1.6616,5.32868 1.8033,6.56696 0.7513,6.56696 -0.8837,0 -2.5096,2.9776 -3.4049,6.23552 -0.4727,1.72031 -0.7955,5.47588 -1.7568,20.43676 -0.4252,6.61928 -1.0553,12.22347 -1.4002,12.45376 -0.3449,0.23029 -0.481,1.18261 -0.3025,2.11626 0.3798,1.98691 -0.4781,12.80206 -1.4244,17.95714 -0.3612,1.9679 -0.8217,5.70611 -1.0234,8.30714 -0.3026,3.90333 -1.0425,6.25276 -4.2369,13.45438 -2.1287,4.79889 -3.8704,9.12838 -3.8704,9.62111 0,0.49272 -0.4298,1.46411 -0.9551,2.15865 -0.5253,0.69453 -0.9645,1.92146 -0.9758,2.72651 -0.012,0.8582 -0.4244,1.46372 -0.9965,1.46372 -0.5367,0 -0.9759,0.24005 -0.9759,0.53345 0,0.29339 -1.0143,1.71854 -2.2541,3.16699 -1.2398,1.44843 -2.0693,2.81848 -1.8433,3.04453 0.2261,0.22606 0.07,0.41101 -0.3477,0.41101 -0.54,0 -0.6836,1.64109 -0.4982,5.69225 0.1432,3.13074 0.2894,7.52191 0.3249,9.75815 0.05,3.15173 0.2841,4.0659 1.0405,4.0659 0.796,0 0.9883,1.16861 1.0436,6.34279 0.1099,10.26571 1.343,21.49739 2.9695,27.04685 0.5426,1.85133 1.2172,6.31483 1.4991,9.91889 0.6214,7.94224 2.5422,19.83896 3.3691,20.86655 0.3306,0.41091 0.5541,1.72826 0.4964,2.92745 -0.057,1.19918 0.5278,6.96508 1.3007,12.81312 1.4174,10.72506 1.3689,13.32556 -0.2372,12.70922 -0.4822,-0.18503 -1.07,-0.0237 -1.3062,0.35846 -0.2362,0.3822 -1.1441,0.6949 -2.0175,0.6949 -0.8733,0 -1.5879,0.29274 -1.5879,0.65054 0,0.3578 -0.411,0.65054 -0.9134,0.65054 -1.2297,0 -1.305,6.14576 -0.09,7.36058 0.4803,0.4804 0.8749,1.87505 0.8767,3.09922 0.01,2.9027 1.3924,10.49879 2.0708,11.33339 0.2908,0.3578 0.6715,2.116 0.8459,3.9072 0.5446,5.594 3.2189,18.8416 3.8915,19.277 0.3526,0.2283 0.4508,0.7232 0.2181,1.0998 -0.2328,0.3766 0.1603,3.7027 0.8735,7.3914 4.3394,22.4452 5.8564,29.6907 6.5798,31.4273 0.4472,1.0734 0.7448,2.4877 0.6615,3.1429 -0.2334,1.8357 1.2928,10.1385 2.3122,12.5783 0.5009,1.1988 0.7319,2.8922 0.5134,3.7631 -0.2917,1.1618 0.052,2.0677 1.29,3.4031 0.9281,1.001 1.6875,2.465 1.6875,3.2534 0,0.7884 0.6505,1.8892 1.4458,2.4462 0.7952,0.557 1.2251,1.0127 0.9553,1.0127 -0.2698,0 0.6666,1.5664 2.0809,3.4808 1.4143,1.9145 2.9145,4.7688 3.3338,6.3428 0.4193,1.5741 1.2007,3.3535 1.7365,3.9542 0.8225,0.9219 1.002,4.9765 1.152,26.0217 0.1374,19.2613 0.388,25.625 1.1022,27.9881 0.5084,1.6822 1.1338,3.2679 1.3897,3.5238 0.2559,0.2558 0.4755,1.6605 0.488,3.1216 0.028,3.2261 1.4204,9.9352 2.4669,11.8838 0.4196,0.7816 0.763,2.2941 0.763,3.3611 0,1.0671 0.2703,2.0378 0.6005,2.1571 0.3303,0.1192 0.7481,2.4125 0.9284,5.0959 0.1803,2.6835 0.7847,6.4892 1.3433,8.4571 0.5587,1.9679 1.0191,4.5294 1.0233,5.6922 0.01,1.1629 0.3005,2.1143 0.6583,2.1143 0.3578,0 0.6505,1.5719 0.6505,3.493 0,3.8698 2.7616,18.0622 4.1607,21.3831 0.4916,1.1668 1.1555,2.9997 1.4751,4.0731 0.5255,1.7644 0.8605,1.9624 3.4903,2.0643 1.5999,0.062 3.2749,0.1352 3.7222,0.1627 0.4472,0.027 0.8132,0.4963 0.8132,1.042 0,1.6258 4.2075,9.3785 8.0863,14.8996 1.9929,2.8368 3.6234,5.6737 3.6234,6.3044 0,0.6307 0.2928,1.3277 0.6506,1.5488 0.3578,0.221 0.6505,1.0957 0.6505,1.9435 0,0.8478 0.4391,1.9806 0.9758,2.5173 0.5367,0.5367 0.9759,1.1587 0.9759,1.382 0,0.2235 0.7318,1.4834 1.6263,2.7997 1.1481,1.6896 1.6263,3.2673 1.6263,5.365 0,1.6344 0.3299,3.3015 0.7331,3.7046 0.5437,0.5437 0.386,1.2947 -0.6105,2.90702 -2.1388,3.4606 -2.2353,5.5465 -0.4015,8.6757 0.8909,1.5202 2.8623,3.7476 4.3808,4.9498 3.9426,3.1213 8.4899,8.2866 9.7989,11.1307 0.6175,1.3418 1.5482,2.4396 2.0681,2.4396 0.5199,0 0.9453,0.5958 0.9453,1.324 0,0.7281 0.5008,2.0883 1.1129,3.0225 0.6121,0.9343 1.1986,2.2594 1.3032,2.9447 0.1046,0.6855 0.7816,2.5445 1.5045,4.1314 1.95,4.2807 2.6233,6.1835 3.2085,9.0695 0.2902,1.4312 1.0251,4.3586 1.6332,6.5055 0.608,2.1467 1.2191,5.0742 1.3581,6.5053 0.1389,1.4312 0.5546,4.5051 0.9237,6.8308 1.5502,9.768 1.9246,15.6961 1.192,18.8702 l -0.7281,3.1539 -3.2345,0.4448 c -1.7792,0.2447 -6.7836,0.3392 -11.1211,0.2099 l -7.8864,-0.2351 0.1905,2.9274 c 0.1047,1.6101 0.5908,4.3912 1.0803,6.1802 0.4893,1.789 1.2353,5.9786 1.6578,9.3103 0.4225,3.3317 1.1788,6.8447 1.6806,7.8065 0.5018,0.962 0.9142,1.5388 0.9164,1.282 0,-0.2569 2.4504,0.8341 5.4404,2.4244 2.99,1.5901 5.6247,2.703 5.8549,2.4728 0.2302,-0.2302 0.4185,-0.086 0.4185,0.32 0,0.4062 0.4072,0.5823 0.9049,0.3913 0.4977,-0.191 1.8882,0.5007 3.0901,1.537 2.1786,1.8787 4.1372,2.9631 5.5124,3.0523 0.3986,0.026 1.1739,0.4195 1.7225,0.8748 0.5488,0.4554 1.6521,0.9541 2.4521,1.1081 0.7999,0.154 1.871,0.8749 2.3801,1.6018 0.5092,0.7269 1.3483,1.3217 1.8647,1.3217 0.7334,0 0.9389,1.0507 0.9389,4.7995 0,3.5311 0.2652,5.0194 1.0034,5.6321 0.5519,0.458 0.7552,1.0809 0.452,1.3841 -0.6709,0.6709 0.49,9.0017 1.2544,9.0017 0.2986,0 0.543,2.3592 0.543,5.2427 0,2.8836 0.23,5.1006 0.5111,4.9268 0.2812,-0.1737 0.5442,0.1749 0.5845,0.7748 0.432,6.4186 1.1567,11.9338 1.6047,12.2106 0.3038,0.1878 0.5524,0.8609 0.5524,1.4957 0,1.1371 0.3558,1.2923 3.5779,1.5609 0.8946,0.074 1.6264,0.3475 1.6264,0.6067 0,0.7041 3.6508,2.4562 5.1178,2.4562 0.7036,0 1.3791,0.2996 1.5012,0.6659 0.122,0.3662 1.3632,0.8511 2.7579,1.0774 1.3949,0.2264 3.0865,0.962 3.7593,1.6348 1.2984,1.2984 2.4768,1.0658 2.4768,-0.489 0,-0.5156 0.5687,-0.9375 1.2637,-0.9375 1.0216,0 1.302,0.5296 1.4637,2.7649 0.1824,2.5204 0.3539,2.7628 1.9405,2.7429 0.9572,-0.012 1.5986,0.2075 1.4253,0.4879 -0.1733,0.2804 0.1205,0.5098 0.6528,0.5098 1.2581,0 3.1325,1.8811 2.6509,2.6604 -0.5988,0.969 0.3633,3.1945 1.381,3.1945 1.1429,0 1.2529,1.2727 0.1187,1.3731 -0.4472,0.04 -1.545,0.027 -2.4395,-0.029 -1.2255,-0.076 -1.3996,0.052 -0.7063,0.5203 1.2996,0.8778 -21.9207,0.1145 -25.3555,-0.8334 -1.6448,-0.454 -1.6657,-0.4141 -1.6089,3.0802 l 0.057,3.54 -5.2218,0.3933 c -2.8719,0.2165 -10.243,0.3918 -16.3802,0.3898 -12.6884,-0.01 -11.5956,0.212 -34.318,-6.7911 -7.5603,-2.3301 -7.9324,-2.3788 -15.613,-2.0437 -4.3275,0.1887 -8.3072,0.3743 -8.8439,0.4123 -6.1885,0.438 -52.3558,-0.1331 -53.34,-0.6598 -0.6927,-0.3708 -3.8315,-0.6891 -6.9749,-0.7074 -8.0684,-0.047 -8.6107,0 -12.0225,1.1023 -2.371,0.7643 -3.608,0.8308 -5.5296,0.2972 -3.0914,-0.8584 -10.3989,-0.907 -10.9146,-0.072 -0.2115,0.3422 -0.8143,0.4573 -1.3395,0.2557 -0.5252,-0.2015 -0.955,-0.073 -0.955,0.2849 0,0.3582 -0.6586,0.6409 -1.4637,0.6283 -1.7454,-0.027 -5.6802,0.6401 -9.2639,1.5718 -1.4277,0.3711 -3.385,0.7747 -4.3495,0.8967 -4.2046,0.5322 -10.0216,1.7514 -10.6193,2.2259 -0.3578,0.2841 -1.451,0.4252 -2.4293,0.3137 -0.9783,-0.1115 -1.947,0.07 -2.1527,0.4024 -0.4853,0.7854 -5.5015,0.7912 -5.5015,0.01 0,-0.3293 -2.4151,-0.623 -5.367,-0.6529 -7.8151,-0.079 -8.3223,-0.1286 -7.9233,-0.7742 0.1993,-0.3225 -0.069,-1.0182 -0.597,-1.5458 -0.5276,-0.5277 -0.8353,-1.4768 -0.6835,-2.1093 0.1517,-0.6324 0.033,-1.5197 -0.2643,-1.9717 -0.5293,-0.8053 -8.0176,-1.645 -13.4635,-1.5096 -1.4312,0.036 -4.9049,-0.3404 -7.7195,-0.8356 -2.8146,-0.4951 -5.6987,-0.7481 -6.4094,-0.5623 -0.7106,0.1859 -1.5094,-0.014 -1.7751,-0.4437 -0.2999,-0.4852 -1.1361,-0.6176 -2.2058,-0.3491 -0.9475,0.2378 -1.5632,0.6905 -1.3682,1.006 0.195,0.3156 -0.1035,0.398 -0.6634,0.1831 -0.7231,-0.2775 -1.2227,0.1961 -1.7239,1.6338 -0.4806,1.3785 -1.1525,2.0452 -2.1058,2.0894 -1.2629,0.059 -1.2406,0.1113 0.2263,0.5392 1.4652,0.4274 1.3686,0.5094 -0.9759,0.8277 -1.4312,0.1942 -8.7617,0.3594 -16.2901,0.3668 l -13.6881,0.014 -10.0568,-2.9094 c -16.8691,-4.8802 -17.0117,-4.9032 -26.0747,-4.2111 -9.5897,0.7324 -51.7576,0.8194 -55.7045,0.1149 -1.5206,-0.2714 -2.7648,-0.2386 -2.7648,0.073 0,0.3116 -0.31,0.5666 -0.6889,0.5666 -0.3789,0 -0.508,-0.2928 -0.2869,-0.6506 0.6405,-1.0363 -2.0331,-0.7524 -2.9144,0.3095 -0.6402,0.7715 -2.6684,0.949 -10.3256,0.9037 -18.053,-0.1069 -26.8554,0.2678 -27.7698,1.1822 -0.4715,0.4715 -1.3905,0.8673 -2.0422,0.8796 -0.6517,0.012 -3.5269,0.6093 -6.3893,1.3269 -2.8624,0.7176 -6.5217,1.4628 -8.1318,1.656 -4.00239,0.4805 -17.09486,0.3236 -21.46787,-0.2571 l -3.57799,-0.4752 -0.0446,-2.6001 c -0.0377,-2.1983 -0.25867,-2.6032 -1.42905,-2.6197 -0.76142,-0.011 -1.55791,-0.1931 -1.76997,-0.4052 -0.56235,-0.5623 -6.37492,0.1589 -7.31996,0.9083 -0.55945,0.4436 -0.92493,0.3275 -1.19653,-0.3803 -0.32085,-0.8362 -1.5778,-1.0125 -7.00104,-0.982 -3.63549,0.02 -6.90273,0.2558 -7.26053,0.5231 -0.3578,0.2673 -2.84612,0.2552 -5.52962,-0.027 -8.67992,-0.9125 -9.67879,-0.8108 -10.14154,1.033 -0.22451,0.8945 -0.82476,1.6263 -1.3339,1.6263 -0.50914,0 -1.091,0.4308 -1.29301,0.9572 -0.30737,0.801 -2.22231,0.9301 -11.73584,0.7913 -9.50289,-0.1385 -11.45735,-0.01 -11.90965,0.8011 -0.4286,0.766 -0.73742,0.804 -1.48536,0.1833 -0.9976,-0.8279 -9.21911,-1.0932 -29.43192,-0.9496 -44.84327,0.3186 -73.436732,0.1649 -73.783832,-0.3967 -0.35972,-0.582 -6.31522,-0.8298 -18.88522,-0.7854 -3.05376,0.011 -5.21891,-0.2963 -5.85488,-0.8303 -1.35226,-1.1355 -7.77808,-1.3392 -8.19267,-0.2597 -0.24206,0.6303 -4.75443,0.7899 -19.97906,0.7073 -10.8165198,-0.058 -20.0750698,0.122 -20.5745698,0.4014 -0.60324,0.3377 0.2142,0.7776 2.43445001,1.3101 1.83844999,0.4411 3.34263999,1.0398 3.34263999,1.3304 0,0.6136 4.56591,1.5499 7.6438798,1.5675 1.16284,0.01 2.11426,0.2313 2.11426,0.4992 0,0.2678 0.43912,0.3185 0.97582,0.1125 1.06321,-0.4079 1.40664,1.3734 0.38634,2.0039 -0.3242,0.2004 -0.43758,0.9452 -0.25193,1.6551 0.18564,0.7099 0.1017,1.8073 -0.18654,2.4389 -0.28823,0.6315 -0.54079,1.5873 -0.56124,2.124 -0.0204,0.5367 -0.72834,1.0736 -1.5731,1.1931 -0.97779,0.1384 -1.37754,-0.039 -1.10005,-0.4879 0.23972,-0.3879 0.14311,-0.7052 -0.21468,-0.7052 -0.35781,0 -0.85171,0.3255 -1.0975898,0.7233 -0.53469,0.8651 -17.79889,0.01 -26.6272802,-1.3178 -2.14679,-0.323 -5.22061,-0.7444 -6.83071,-0.9365 -11.64207,-1.3883 -18.88736,-2.4643 -20.96377,-3.1134 -2.89343,-0.9044 -6.5704,-0.083 -6.88248,1.5373 -0.1139,0.5915 0.43037,1.7128 1.2095,2.492 1.15273,1.1528 1.34977,1.915 1.05779,4.0919 -0.19736,1.4714 -0.67229,2.7798 -1.05539,2.9075 -0.38311,0.1277 -0.54571,0.4763 -0.36133,0.7746 0.67709,1.0956 -19.24397,1.8636 -32.85429,1.2668 z m 578.069962,-24.0388 c -0.2677,0.5367 0.095,0.3171 0.8056,-0.4879 0.7108,-0.8051 1.9041,-1.4637 2.6517,-1.4637 0.7477,0 1.3595,-0.31 1.3595,-0.6889 0,-0.379 0.2348,-0.5438 0.5219,-0.3665 0.565,0.3493 9.7256,-3.9665 11.4408,-5.39 0.5765,-0.4785 1.0481,-0.6708 1.0481,-0.4275 0,0.2434 1.4634,-0.3794 3.2521,-1.384 1.7886,-1.0046 3.2523,-2.0461 3.2527,-2.3144 3e-4,-0.2684 0.815,-0.488 1.8103,-0.488 1.575,0 1.9183,-0.3685 2.6492,-2.8437 0.4618,-1.5641 1.3859,-7.4922 2.0537,-13.1735 0.6676,-5.6814 1.5257,-12.9644 1.9067,-16.1847 0.381,-3.2201 0.9113,-8.014 1.1785,-10.6531 l 0.4857,-4.7983 3.578,-1.9226 c 1.9678,-1.0576 3.4975,-2.2135 3.3992,-2.5688 -0.098,-0.3552 0.1096,-0.4678 0.4621,-0.2499 0.6795,0.4199 7.2825,-2.7219 9.4748,-4.5082 1.3165,-1.0728 4.6416,-2.9185 10.2102,-5.6678 2.9487,-1.4558 3.0698,-1.6292 3.502,-5.0169 0.4375,-3.4281 -0.055,-15.8813 -0.7938,-20.0553 l -0.3709,-2.0963 -8.8512,-0.1806 -8.8511,-0.1805 -1.4886,-2.2105 c -2.4473,-3.6345 -1.9029,-11.3231 2.3945,-33.8133 0.938,-4.9093 4.3115,-14.5569 6.9221,-19.796 1.2132,-2.4349 2.2058,-4.5893 2.2058,-4.7877 0,-0.1983 -0.9958,-0.2444 -2.2129,-0.1023 -1.9195,0.2241 -2.18,0.088 -1.9648,-1.0306 0.2662,-1.382 -1.3792,-3.6392 -2.6529,-3.6392 -0.4258,0 -1.2575,-0.5341 -1.8483,-1.1869 -1.1824,-1.3065 -1.0331,-5.0314 1.3996,-34.91832 l 1.1119,-13.6613 2.138,-0.2061 c 1.7527,-0.169 2.0684,-0.4254 1.7516,-1.4231 -0.4034,-1.2714 0.6763,-3.6993 2.1801,-4.902 0.7344,-0.5874 0.7023,-1.6008 -0.1963,-6.1931 -0.591,-3.0201 -1.2087,-6.2229 -1.3726,-7.1173 -1.2238,-6.6807 -3.5027,-18.5246 -6.446,-33.503 -4.9001,-24.9366 -6.7819,-35.2581 -7.1682,-39.3181 -0.1851,-1.9461 -0.7789,-4.1417 -1.3193,-4.8791 -0.5404,-0.7375 -1.6372,-2.2843 -2.4372,-3.4375 -0.8001,-1.1531 -2.2598,-2.4328 -3.2437,-2.8437 -0.984,-0.411 -1.8211,-1.0775 -1.8603,-1.4814 -0.039,-0.4038 -0.15,-1.6571 -0.246,-2.785 -0.096,-1.1279 -0.6531,-3.0099 -1.2378,-4.182 -0.5849,-1.1722 -1.5564,-4.527 -2.1591,-7.4551 -0.9404,-4.5685 -0.988,-6.1903 -0.3359,-11.431 0.4181,-3.359 0.7876,-8.2296 0.8212,-10.8236 0.034,-2.5941 0.071,-5.5215 0.082,-6.5055 0.012,-0.9839 -0.8626,-6.3378 -1.9426,-11.8974 -1.08,-5.5596 -2.985,-15.3665 -4.2336,-21.7932 -1.2484,-6.4266 -2.7648,-14.4658 -3.3696,-17.8649 -0.6049,-3.3991 -1.4835,-7.6439 -1.9525,-9.4329 -0.4691,-1.789 -1.0426,-4.5701 -1.2744,-6.1802 -0.2319,-1.6101 -0.8356,-4.9766 -1.3415,-7.4812 -1.0296,-5.0961 -4.7522,-24.6958 -5.2189,-27.477 -0.1659,-0.9886 -0.681,-3.7003 -1.1447,-6.026 -0.8319,-4.1725 -0.8717,-4.229 -3,-4.2644 -1.2425,-0.021 -2.4986,-0.5033 -2.963,-1.1385 -0.4434,-0.6064 -1.1343,-1.1025 -1.5353,-1.1025 -0.7882,0 -0.9307,-0.4575 -2.4321,-7.80655 -0.5481,-2.6835 -1.2613,-5.90369 -1.5847,-7.15598 -2.3023,-8.91439 -3.2249,-12.63655 -4.1923,-16.91412 -0.607,-2.6835 -1.5188,-6.3428 -2.0264,-8.13179 -0.5074,-1.789 -2.3839,-9.34465 -4.1699,-16.79034 -1.786,-7.4457 -3.669,-13.95926 -4.1843,-14.47459 -1.3803,-1.38028 -3.6918,-1.17471 -4.0942,0.36412 -0.2923,1.11812 -0.9013,1.30539 -4.3302,1.33168 -2.1945,0.0168 -5.5616,0.0967 -7.4824,0.17756 -1.9229,0.0809 -3.6049,-0.15211 -3.7425,-0.5185 -0.5704,-1.51799 -3.6858,-16.81208 -4.8399,-23.75975 -2.0815,-12.53021 -1.6749,-11.50676 -5.0235,-12.64771 -1.6362,-0.55753 -3.1554,-1.0137 -3.3757,-1.0137 -0.2204,0 -2.0357,1.53691 -4.0338,3.41535 l -3.633,3.41535 -1.0812,13.66141 c -1.1269,14.23866 -1.9077,23.26413 -3.0109,34.80407 -0.3591,3.75688 -0.9339,11.36824 -1.2774,16.91412 -0.3435,5.54588 -0.7664,10.96166 -0.9398,12.03505 -0.1734,1.0734 -0.6187,5.46456 -0.9897,9.75815 -1.0011,11.58724 -1.311,13.25417 -2.525,13.57957 -0.5873,0.1574 -1.8898,0.4696 -2.8945,0.6938 l -1.8268,0.4076 0.1203,11.2912 c 0.066,6.2101 -0.031,11.5428 -0.2146,11.8505 -0.1843,0.3077 -0.5259,6.707 -0.759,14.2208 -0.8539,27.5142 -1.5291,36.7412 -2.722,37.199 -1.0831,0.4155 -1.3256,10.6159 -0.2524,10.6159 0.4064,0 0.6505,3.8895 0.6505,10.3673 0,8.7918 0.2434,11.3727 1.6022,16.984 0.8812,3.6392 2.2305,7.9148 2.9984,9.5012 1.2603,2.6032 1.3596,3.5954 1.0191,10.1761 -0.2074,4.0105 -0.4178,7.7309 -0.4675,8.2676 -0.1928,2.0854 -1.5174,6.8737 -2.3344,8.4392 -0.472,0.9043 -0.86,3.202 -0.8621,5.106 -0.01,3.3174 -0.9511,5.3206 -2.516,5.3206 -1.054,0 -1.3081,1.7431 -1.7068,11.7097 -0.2076,5.1881 -0.6615,13.6777 -1.0085,18.8658 -0.347,5.1881 -0.7784,17.5859 -0.9586,27.5506 -0.3257,18.015 -0.5825,21.2401 -1.6912,21.2401 -0.319,0 -0.58,0.7319 -0.58,1.6264 0,0.8945 0.2954,1.6264 0.6566,1.6264 0.3612,0 0.6187,1.2441 0.5722,2.7648 -0.046,1.5206 0.1357,4.009 0.4048,5.5296 l 0.4893,2.7648 h 3.737 3.7371 l 0.3919,3.4154 c 0.2156,1.8784 0.7167,5.0254 1.1137,6.9933 0.397,1.9679 0.7816,5.0417 0.8546,6.8307 0.1314,3.2187 1.5635,7.4812 2.5135,7.4812 0.2705,0 0.4918,0.8783 0.4918,1.9517 0,1.0734 0.2649,1.9517 0.5886,1.9517 0.3237,0 0.4416,1.0977 0.2619,2.4394 -0.2122,1.5857 0.1666,3.80582 1.0824,6.34282 1.6822,4.6604 2.3691,8.3454 2.0917,11.2219 -0.1672,1.7348 -0.4812,2.1143 -1.7491,2.1143 -1.3436,0 -1.6054,0.4011 -2.0063,3.0742 -0.3701,2.4677 -0.2029,3.5266 0.8474,5.367 0.7197,1.261 1.9338,2.5817 2.6981,2.9349 0.7642,0.3532 1.4113,1.0851 1.4379,1.6264 0.1108,2.2555 0.6805,4.2508 1.2716,4.4537 0.3475,0.1193 0.6317,0.5944 0.6317,1.0558 0,0.4614 0.6045,2.2666 1.3432,4.0117 2.2331,5.2753 2.4041,5.7025 3.0928,7.7266 1.3231,3.8892 2.7504,11.1865 3.3397,17.0746 0.3311,3.3084 0.7518,6.2578 0.9349,6.5541 0.1831,0.2963 0.5229,3.2746 0.7548,6.6186 0.2872,4.1395 0.7405,6.3986 1.4203,7.0782 0.6675,0.6676 0.7539,1.0799 0.2607,1.2443 -0.4057,0.1352 -0.7376,0.6815 -0.7376,1.214 0,2.1991 -1.5023,2.5006 -12.8483,2.5787 -9.1004,0.062 -11.2219,-0.091 -11.2219,-0.8132 0,-0.4897 -0.4492,-0.8904 -0.9982,-0.8904 -0.8218,0 -0.9268,0.6035 -0.594,3.4154 0.2222,1.8784 0.6545,4.2935 0.9605,5.367 0.3059,1.0734 0.7523,4.0008 0.9917,6.5053 0.5904,6.1734 1.9835,11.3772 3.3042,12.343 0.6003,0.4389 4.7785,2.6716 9.285,4.9615 4.5064,2.2899 8.3399,4.3418 8.5188,4.5597 0.1789,0.218 1.423,0.7891 2.7647,1.2692 1.3418,0.4801 2.4396,1.0782 2.4396,1.3291 0,0.2509 0.8821,0.7637 1.9602,1.1396 1.0781,0.3758 2.1292,1.2095 2.3359,1.8526 0.2066,0.6431 0.6363,1.7547 0.9549,2.4703 0.3186,0.7156 0.8644,3.0576 1.2128,5.2044 0.3484,2.1468 0.9183,5.6597 1.2664,7.8065 0.348,2.1468 0.9759,6.8307 1.3952,10.4087 0.4194,3.578 0.9528,6.7982 1.1855,7.156 0.2327,0.3578 0.7158,2.8461 1.0736,5.5296 0.5774,4.3305 0.8152,4.9024 2.1143,5.087 0.805,0.1143 1.4637,0.4803 1.4637,0.8132 0,0.3329 0.4194,0.6052 0.932,0.6052 0.5125,0 1.1091,0.5581 1.3256,1.2403 0.4151,1.3079 4.622,3.3135 6.9503,3.3135 2.4255,0 6.4051,1.4788 6.4051,2.3799 0,0.5672 0.8137,0.8729 2.3234,0.8729 2.0648,0 4.1821,1.1449 4.1821,2.2616 0,1.0384 3.7707,3.5543 5.3545,3.5727 1.3055,0.015 1.8769,0.4198 2.1546,1.5262 0.2078,0.8281 0.3251,1.7795 0.2606,2.1143 -0.2942,1.5264 0.1443,1.6917 1.4497,0.5468 0.9439,-0.828 1.2514,-0.9155 0.9263,-0.2635 z m -510.493002,-3.0976 c -0.272,-1.753 0.23085,-2.7573 1.38062,-2.7573 0.7156,0 1.30109,-0.2544 1.30109,-0.5654 0,-0.311 0.95142,-0.7366 2.11427,-0.9458 1.1628402,-0.2091 7.0699702,-1.5648 13.1269402,-3.0125 6.05698,-1.4478 11.8213998,-2.6323 12.8098398,-2.6323 0.98843,0 1.97808,-0.2927 2.19921,-0.6505 0.22113,-0.3578 1.62895,-0.655 3.12847,-0.6605 1.49954,-0.01 3.13306,-0.2675 3.63007,-0.5822 0.79395,-0.5028 1.81387,-6.5378 2.2362,-13.2319 0.0621,-0.9839 0.29803,-1.789 0.52434,-1.789 0.22631,0 0.61741,-2.1224 0.86908,-4.7164 0.25169,-2.5941 0.55899,-5.4483 0.6829,-6.3428 0.41129,-2.9694 2.26507,-18.5244 2.26507,-19.0062 0,-0.5958 17.35795,-8.9671 18.59342,-8.9671 0.21582,0 1.13672,-0.5856 2.04645,-1.3012 0.90974,-0.7156 1.39959,-1.301 1.08858,-1.301 -0.60735,0 2.29629,-1.7433 6.6754,-4.0078 2.97634,-1.5391 2.66613,-0.6114 4.09112,-12.2349 0.37144,-3.0297 0.94928,-6.3963 1.28411,-7.4812 0.71346,-2.3119 1.64949,-7.6089 1.47044,-8.3212 -0.0682,-0.2716 0.13841,-1.6622 0.45925,-3.0901 l 0.58335,-2.5963 h -2.20775 c -1.21426,0 -2.21881,0.073 -2.23232,0.1626 -0.0135,0.09 -0.19047,1.3336 -0.39325,2.7648 -0.20278,1.4312 -0.50872,2.7485 -0.67988,2.9274 -0.64771,0.677 -21.53234,0.7707 -22.78138,0.1023 -2.0392,-1.0913 -2.82709,-5.0568 -2.42462,-12.203 0.19948,-3.5418 0.75362,-7.318 1.23142,-8.3913 0.47781,-1.0735 1.0704,-3.5618 1.31689,-5.5297 0.48782,-3.8946 2.55903,-12.821 3.6982,-15.9383 0.67741,-1.8536 3.60534,-8.7982 5.48559,-13.0108 0.7626,-1.7086 0.73651,-2.053 -0.20951,-2.7649 -0.59433,-0.4472 -0.80509,-0.8225 -0.46836,-0.8338 0.33674,-0.011 0.0863,-0.4196 -0.55644,-0.907 -0.64277,-0.4876 -1.74056,-0.7368 -2.43953,-0.554 -0.88112,0.2304 -1.27085,0.01 -1.27085,-0.7398 0,-0.5897 -0.43912,-1.2406 -0.97582,-1.4466 -0.5367,-0.206 -0.97581,-1.0749 -0.97581,-1.9312 0,-1.1807 -0.35353,-1.5567 -1.46373,-1.5566 l -1.46372,2e-4 1.1633,-18.0528 c 1.26845,-19.68452 1.88675,-23.13582 4.20368,-23.46492 1.53141,-0.2175 1.92323,-1.0577 0.81318,-1.7438 -1.19841,-0.7406 -0.66698,-1.6263 0.97582,-1.6263 1.25749,0 1.62284,-0.332 1.61083,-1.4638 -0.0161,-1.5206 -0.0869,-1.8254 -2.90665,-12.5229 -2.45997,-9.3325 -7.89389,-30.4907 -9.10555,-35.4546 -0.56768,-2.3258 -1.58305,-6.1314 -2.25636,-8.4571 -0.67332,-2.3257 -1.98821,-7.4487 -2.922,-11.3845 -0.93377,-3.9358 -2.11203,-8.4733 -2.61834,-10.0834 -1.70175,-5.4117 -3.09466,-12.9749 -2.68798,-14.5953 0.30812,-1.2276 -0.0185,-1.9981 -1.38372,-3.264 -0.98286,-0.9114 -1.97857,-1.657 -2.21267,-1.657 -0.71424,0 -6.71074,-10.4679 -8.5712,-14.9625 -2.2161998,-5.354 -3.7020498,-12.5492 -3.7020498,-17.927 0,-3.4759 0.21927,-4.3174 1.30108,-4.993 0.7155998,-0.4469 1.3010898,-1.1812 1.3010898,-1.6318 0,-0.4507 0.58549,-0.8194 1.30109,-0.8194 0.95413,0 1.30108,-0.4337 1.30108,-1.6264 0,-0.8945 -0.26948,-1.6263 -0.59885,-1.6263 -0.32937,0 -0.7961,-0.898 -1.03716,-1.9956 -0.24107,-1.0976 -0.8734,-2.1626 -1.40519,-2.3666 -0.5969598,-0.2291 -0.8353598,-0.874 -0.6231298,-1.6856 0.1950998,-0.746 -0.16727,-1.9642 -0.83788,-2.8167 -0.6499,-0.8262 -1.87079,-4.4391 -2.71309,-8.0286 -0.84231,-3.5896 -1.73632,-6.5265 -1.9867,-6.5265 -0.25039,0 -0.77019,0.9514 -1.15512,2.1143 -0.38493,1.1628 -1.43224,2.9648 -2.32734999,4.0044 -1.21659,1.413 -1.62748,2.6314 -1.62748,4.8258 0,1.6146 -0.27385001,4.716 -0.60855001,6.8922 -0.33471,2.176 -0.93257,6.137 -1.32857,8.802 -0.39601,2.6651 -0.95497,5.1534 -1.24214,5.5296 -0.28716,0.3763 -0.89833,2.0747 -1.35814,3.7742 -0.45982,1.6996 -1.09073,3.0901 -1.40203,3.0901 -0.3113,0 -0.566,0.4391 -0.566,0.9758 0,0.5367 -0.24622,0.9758 -0.54715,0.9758 -0.30094,0 -1.36906,1.5369 -2.3736102,3.4154 -1.00455,1.8784 -2.80754,4.6356 -4.00665,6.127 -1.56271,1.9436 -2.1802,3.3716 -2.1802,5.0417 0,1.8964 -0.24217,2.3301 -1.30108,2.3301 -0.85421,0 -1.30109,0.4337 -1.30109,1.2627 0,0.6944 -0.29752,1.4465 -0.66115,1.6713 -0.36364,0.2247 -0.48347,0.6961 -0.26629,1.0475 0.21718,0.3514 -0.5014,2.4536 -1.59684,4.6715 -1.09544,2.2179 -2.42898,5.789 -2.96343,7.9358 -0.53445,2.1468 -1.48447,5.9525 -2.11116,8.4571 -0.6267,2.5046 -1.34572,4.7031 -1.59779,4.8856 -0.25208,0.1825 -0.65389,1.2071 -0.89291,2.2769 -0.52216,2.3371 -2.16835,7.9425 -2.86383,9.7516 -1.55965,4.057 -3.26875,10.3662 -3.96501,14.6372 -0.43748,2.6835 -1.16841,5.7573 -1.62429,6.8308 -1.09206,2.5713 -1.55341,4.156 -1.89608,6.5131 -0.15545,1.0691 -0.86748,3.554 -1.58233,5.5219 -2.61318,7.1939 -4.68625,14.7646 -4.31084,15.7429 0.21177,0.5519 -0.10068,1.4892 -0.69435,2.0828 -1.09286,1.0929 -1.70747,4.3776 -1.18634,6.3402 0.19256,0.7252 0.72447,0.9566 1.64528,0.7158 1.29333,-0.3382 2.7173,1.027 2.88541,2.7664 0.0346,0.3578 0.22966,1.0897 0.4335,1.6264 0.20384,0.5366 0.53571,7.7086 0.73747,15.9376 0.31498,12.84632 0.51786,15.07222 1.43485,15.74282 0.98504,0.7203 0.98604,0.8629 0.0128,1.8361 -0.981,0.981 -1.31995,3.9461 -1.17786,10.304 0.0298,1.3322 -0.3268,1.9568 -1.25575,2.1998 -0.80212,0.2097 -1.15934,0.6988 -0.93585,1.2813 0.19882,0.5181 0.18309,1.6527 -0.0349,2.5215 -0.30978,1.2343 -0.78043,1.5503 -2.15342,1.4457 -2.71979,-0.2073 -6.55658,2.462 -6.55658,4.5615 0,2.253 2.06981,7.2668 3.00119,7.2699 0.39835,0 1.0895,1.8321 1.53588,4.0684 0.44637,2.2362 1.05854,4.9441 1.36036,6.0175 0.30183,1.0734 0.89667,3.7898 1.32187,6.0366 0.4252,2.2467 1.02401,4.24 1.3307,4.4295 0.30668,0.1895 0.5576,2.5229 0.5576,5.1853 0,3.7016 0.21305,4.8407 0.90529,4.8407 1.36607,0 1.63068,2.1448 1.35982,11.0222 -0.35779,11.7268 0.0341,11.3727 -12.83617,11.6004 -9.55946,0.169 -10.23371,0.099 -12.43732,-1.3011 -1.95072,-1.2391 -2.27344,-1.761 -1.98299,-3.207 0.40727,-2.0276 -0.49089,-2.7779 -2.67037,-2.2309 -1.16397,0.2921 -1.75484,1.0941 -2.30128,3.1235 -0.83292,3.0931 -0.24792,10.9179 0.81624,10.9179 0.37105,0 0.5105,0.6276 0.30988,1.3947 -0.44283,1.6935 1.56846,15.7565 2.2971,16.0615 0.28495,0.1193 0.51808,1.0349 0.51808,2.0347 0,1.8672 1.30982,3.4329 3.09059,3.6943 0.55423,0.081 1.18336,0.3896 1.39808,0.6851 1.19279,1.6414 12.14486,7.3557 14.0981,7.3557 0.47568,0 1.09898,0.366 1.3851,0.8132 0.75658,1.1826 8.34758,5.0418 9.91723,5.0418 0.73534,0 1.33697,0.3415 1.33697,0.7589 0,0.4174 0.18271,0.5763 0.40603,0.353 0.22332,-0.2233 0.8932,0.1956 1.48864,0.9309 0.79858,0.9862 1.06104,2.5149 1.00042,5.8273 -0.0453,2.4695 0.15397,4.4902 0.44258,4.4902 0.28862,0 0.35625,0.4391 0.1503,0.9758 -0.20595,0.5367 -0.11307,0.9758 0.2064,0.9758 0.31947,0 0.58251,1.8297 0.58454,4.0659 0.006,6.3664 0.77943,13.5148 1.56517,14.4616 0.41706,0.5024 0.46051,0.9565 0.10417,1.0882 -0.80233,0.2964 0.28668,7.3655 1.55319,10.0823 1.1252,2.4137 1.23403,4.1302 0.26187,4.1302 -0.38156,0 -0.60112,0.8051 -0.4879,1.789 0.14985,1.3025 0.54318,1.7599 1.4462,1.6817 1.23968,-0.1073 9.42414,1.4474 9.84728,1.8705 0.46246,0.4625 3.54148,0.4788 3.47005,0.018 z m 270.953242,-4.8344 c -0.27198,-0.44 -0.15392,-0.5439 0.2997,-0.2635 0.75302,0.4653 9.34823,-3.8569 9.75284,-4.9045 0.11927,-0.3087 0.77794,-0.5614 1.46372,-0.5614 0.6858,0 1.2469,-0.2464 1.2469,-0.5476 0,-0.8605 7.5107,-2.9133 9.3635,-2.5591 1.1677,0.2232 1.7506,0.01 1.9462,-0.7269 0.6882,-2.5778 1.0485,-4.7071 1.6663,-9.8493 0.364,-3.0294 1.2472,-10.3384 1.9627,-16.2421 0.7154,-5.9037 1.3062,-12.1438 1.3128,-13.8668 0.01,-1.7231 0.3001,-3.6712 0.6523,-4.329 0.871,-1.6277 10.371,-6.6825 11.6422,-6.1946 0.5577,0.214 0.8137,0.1887 0.5688,-0.056 -0.6964,-0.6965 0.8128,-3.0146 1.7328,-2.6616 0.4525,0.1737 2.6989,-0.6898 4.9918,-1.9191 2.2929,-1.2291 5.6559,-2.9572 7.4733,-3.8401 l 3.3044,-1.6053 1.4284,-9.5987 c 0.7856,-5.2792 1.7137,-11.3888 2.0626,-13.5768 0.8487,-5.3237 0.805,-6.1052 -0.3416,-6.1052 -0.5367,0 -0.9758,0.2479 -0.9758,0.551 0,0.303 -0.5201,1.1507 -1.1557,1.8836 -1.0559,1.2175 -1.9606,1.3412 -10.4752,1.4319 -10.8737,0.1159 -11.8642,-0.2449 -12.9943,-4.7327 -0.7918,-3.1447 -0.2579,-9.3705 1.5157,-17.6743 3.0656,-14.3521 3.6842,-17.8302 3.6162,-20.3295 -0.058,-2.1264 0.1641,-2.7648 0.9606,-2.7648 0.5697,0 1.3228,-0.805 1.6737,-1.7889 0.3509,-0.984 1.6146,-3.8383 2.8085,-6.3428 1.4894,-3.1251 1.9966,-4.891 1.6163,-5.6284 -0.4279,-0.83 -0.2975,-1.0096 0.5731,-0.7889 0.783,0.1985 1.6683,-0.5787 2.8999,-2.546 0.975,-1.5574 2.5311,-3.6908 3.458,-4.7407 0.9269,-1.05 2.5726,-3.174 3.6572,-4.72 l 1.972,-2.8109 -2.7215,-3.2275 c -2.5265,-2.9962 -2.671,-3.3726 -2.0164,-5.2505 0.5799,-1.6634 0.5194,-2.1587 -0.3406,-2.7876 -0.9419,-0.6887 -0.81,-1.407 1.3272,-7.22642 1.3051,-3.5539 2.7854,-7.4864 3.2895,-8.7386 0.5042,-1.2523 1.1159,-3.2919 1.3595,-4.5325 0.2436,-1.2405 0.685,-2.7042 0.981,-3.2527 1.1698,-2.1674 3.1997,-7.3923 3.1997,-8.2358 0,-0.4912 0.2927,-0.8932 0.6505,-0.8932 0.3578,0 0.6525,-0.6586 0.6548,-1.4637 0,-0.805 0.5806,-2.3419 1.2849,-3.4154 1.0049,-1.5314 1.8792,-2.0216 4.0616,-2.2768 l 2.781,-0.3253 0.4359,-8.7824 c 0.6446,-12.9878 1.8611,-46.5949 2.2253,-61.4763 0.1751,-7.156 0.6092,-15.4183 0.9648,-18.3607 0.5719,-4.7324 0.5061,-5.6335 -0.5698,-7.8066 -6.856,-13.8472 -6.783,-32.3497 0.18,-45.6004 l 2.2968,-4.3708 0.3085,-13.649 c 0.1696,-7.5068 0.5958,-19.7965 0.9472,-27.3103 1.0229,-21.8777 2.1614,-60.1832 1.9044,-64.0785 l -0.236,-3.57799 -3.2402,-0.20441 c -1.782,-0.11243 -3.4089,-0.4776 -3.6153,-0.81149 -0.3845,-0.62224 -0.4707,-4.28934 -1.1866,-50.48612 -0.2282,-14.72975 -0.5613,-26.92282 -0.7402,-27.09571 -0.1789,-0.17289 -3.5455,-0.1238 -7.4813,0.1091 -3.9358,0.23289 -8.0804,0.33372 -9.2102,0.22406 -1.945,-0.18877 -2.0426,-0.32704 -1.835,-2.60216 0.1205,-1.32155 0.4023,-7.41624 0.6262,-13.54376 l 0.4072,-11.14095 -5.0775,-1.36684 c -2.7927,-0.75176 -5.7362,-1.19315 -6.5412,-0.98086 -0.8051,0.21229 -1.4638,0.0932 -1.4638,-0.2646 0,-0.35782 -0.6586,-0.80577 -1.4637,-0.99546 -0.805,-0.18969 -3.0738,-0.9348 -5.0417,-1.65581 -1.9679,-0.72102 -8.8474,-2.68533 -15.2878,-4.36513 -6.4403,-1.67981 -12.29523,-3.28062 -13.01083,-3.55737 -2.1677,-0.83831 -14.88385,-4.2417 -20.49211,-5.48457 -0.89449,-0.19823 -3.5292,-0.82154 -5.85489,-1.38513 -2.32569,-0.56359 -4.74083,-1.02013 -5.36698,-1.01452 -0.62615,0.006 -1.13845,-0.23862 -1.13845,-0.54273 0,-0.30411 -1.16944,-0.75051 -2.59876,-0.99198 -1.42932,-0.24149 -2.76653,-0.71052 -2.97159,-1.0423 -0.20505,-0.33178 -1.45075,-1.17094 -2.76821,-1.8648 -1.31747,-0.69385 -4.14423,-2.90238 -6.28167,-4.90783 -3.60862,-3.38576 -4.0037,-3.59095 -5.52962,-2.87187 -0.90384,0.42593 -2.22883,0.86116 -2.94443,0.96718 -2.38756,0.35373 -14.5391,5.40711 -17.13835,7.12721 -1.41058,0.93348 -4.0061,2.07747 -5.76783,2.5422 -1.76172,0.46474 -5.52538,1.7515 -8.36369,2.85946 -2.8383,1.10798 -6.3506,2.31627 -7.80509,2.6851 -3.69209,0.93625 -5.57247,3.08677 -5.18754,5.93278 0.16616,1.22854 0.63994,5.74663 1.05283,10.04021 0.4129,4.29359 1.11066,9.15271 1.55058,10.79804 l 0.79987,2.99154 -8.70747,1.69479 c -4.7891,0.93215 -9.06203,1.5386 -9.49538,1.34767 -0.43335,-0.19093 -2.66307,-2.65485 -4.95494,-5.47539 -2.29187,-2.82054 -4.4595,-4.9475 -4.81696,-4.72658 -0.35745,0.22091 -0.47287,0.11521 -0.25648,-0.23491 0.21639,-0.35013 -0.94056,-2.16154 -2.571,-4.02537 l -2.96442,-3.38878 -4.16439,2.28904 c -2.29042,1.25897 -4.23524,2.22557 -4.32184,2.148 -0.24032,-0.21531 -6.29781,2.07946 -9.59031,3.63311 -1.61009,0.75977 -3.10165,1.32884 -3.31457,1.26461 -0.21292,-0.0642 -1.0596,1.40501 -1.8815,3.26497 -0.82192,1.85997 -2.00523,3.96725 -2.62959,4.68285 -1.14725,1.31476 -5.18521,10.08657 -5.18521,11.26388 0,0.59029 -2.08873,3.2866 -4.659412,6.01475 -0.59479,0.63123 -1.76577,2.92551 -2.60217,5.09841 -0.83641,2.1729 -1.87749,3.95503 -2.31351,3.96028 -0.43602,0.005 -0.63675,0.41612 -0.44606,0.91303 0.19068,0.49691 -1.03711,3.49755 -2.72844,6.66807 -1.69132,3.17052 -4.95553,9.42389 -7.25379,13.89637 -2.29825,4.47249 -4.69759,9.01003 -5.33186,10.08343 -0.63428,1.07339 -2.69851,4.87907 -4.58719,8.45706 -1.88869,3.57799 -3.83288,7.08287 -4.32044,7.78864 -1.03962,1.50491 -1.16398,2.54309 -0.23591,1.96951 0.36896,-0.22803 0.65054,0.31852 0.65054,1.26269 0,1.21486 -0.34164,1.66475 -1.2642,1.66475 -1.38848,0 -3.73299,2.77965 -2.64921,3.14091 0.36338,0.12112 0.6607,0.60134 0.6607,1.06713 0,0.4658 0.41834,2.27106 0.92963,4.01169 0.8061,2.74418 2.19522,8.1031 4.27732,16.5009 0.31049,1.2523 1.00423,4.0334 1.54165,6.1802 0.53744,2.1468 1.17943,5.6597 1.42667,7.8065 0.24723,2.1468 1.28291,6.2452 2.30152,9.1076 1.76991,4.9736 4.96476,16.4324 7.89005,28.2986 0.74974,3.0413 1.54558,5.676 1.76854,5.8549 0.22295,0.1789 0.75524,2.2281 1.18287,4.5538 0.42762,2.3257 1.51798,7.0096 2.42302,10.4087 0.90504,3.3991 1.82568,7.7903 2.04588,9.7582 0.26317,2.3519 0.89595,4.1353 1.84661,5.2043 3.67675,4.1346 9.510882,13.521 10.786402,17.354 0.77009,2.3141 1.8084,4.3641 2.30738,4.5555 0.73386,0.2816 0.90722,2.8211 0.90722,13.2895 0,7.4491 -0.25415,12.9412 -0.59885,12.9412 -1.08895,0 -1.59382,4.0664 -0.59988,4.8315 0.81765,0.6295 1.93553,4.2853 3.89349,12.7332 0.37318,1.6101 1.64661,6.4404 2.82985,10.7339 1.18325,4.2936 2.35284,9.0508 2.59909,10.5714 0.24625,1.5206 0.64155,2.7648 0.87845,2.7648 0.2369,0 0.48411,0.6587 0.54935,1.4637 0.93882,11.584 1.94812,16.1923 3.90009,17.8073 0.48562,0.4018 0.70896,1.1839 0.4963,1.7381 -0.21267,0.5542 -0.0201,1.6893 0.42787,2.5223 0.44799,0.8329 1.06157,2.6855 1.36349,4.1167 0.73076,3.4639 0.82258,3.7942 1.26586,4.5538 0.20882,0.3578 0.5751,1.4675 0.81396,2.4661 0.25252,1.0558 0.72573,1.6355 1.13066,1.3852 0.48416,-0.2992 0.48006,-0.026 -0.0134,0.896 -0.39042,0.7295 -0.53404,2.3017 -0.31917,3.4939 0.5772,3.2024 2.94542,9.6487 3.54469,9.6487 0.28574,0 0.72427,0.645 0.97447,1.4334 0.52151,1.6431 1.91934,3.2074 2.68798,3.0081 0.28751,-0.074 1.45265,0.085 2.58919,0.3549 2.25651,0.5355 3.28184,1.81 5.02842,6.2504 0.6306,1.6032 2.14923,4.2808 3.37473,5.9503 1.2255,1.6695 2.92303,4.6025 3.77229,6.518 0.84926,1.9154 3.68928,6.3894 6.31114,9.9422 2.86589,3.8835 4.45293,6.5645 3.97943,6.7223 -1.14889,0.383 -0.98275,1.172 0.86218,4.0945 0.93961,1.4885 1.43775,2.9531 1.15721,3.4024 -0.27093,0.434 -0.55383,2.2224 -0.6287,3.97442 -0.11673,2.7322 0.12805,3.4496 1.7202,5.0417 1.02096,1.021 2.09837,1.8627 2.39425,1.8705 0.57137,0.015 10.71811,10.2506 14.49615,14.6231 1.23665,1.4312 2.1775,2.8534 2.0908,3.1605 -0.0867,0.307 0.54265,1.478 1.39858,2.6022 0.85592,1.124 1.76936,2.718 2.02985,3.5419 0.26049,0.8239 1.44922,3.224 2.64162,5.3336 2.24444,3.9709 2.7184,5.2373 4.62525,12.3593 0.62269,2.3257 1.3217,4.5213 1.55338,4.8791 0.23166,0.3578 0.48177,1.6557 0.55578,2.8842 0.074,1.2285 0.39066,2.5458 0.70368,2.9274 0.313,0.3816 0.72778,2.5966 0.92173,4.9224 0.45599,5.4677 0.53407,5.8548 1.18089,5.8548 0.7939,0 0.66265,8.968 -0.15356,10.4931 -0.45751,0.8548 -0.47717,1.564 -0.0575,2.0715 0.72749,0.8795 0.67958,4.3484 -0.0601,4.3491 -0.26835,3e-4 -0.48791,0.4169 -0.48791,0.9258 0,1.9491 -4.39896,2.538 -15.75428,2.1093 -12.45516,-0.4703 -11.3799,-1.1084 -10.23262,6.073 0.37155,2.3257 0.81634,5.1067 0.98845,6.1801 0.17209,1.0734 0.6222,3.5618 1.00026,5.5296 0.37804,1.9679 0.76345,4.3099 0.85644,5.2044 0.25503,2.4531 0.31653,2.6021 1.07332,2.6021 0.38532,0 1.60121,0.9007 2.70198,2.0014 1.26909,1.2691 2.44095,1.8865 3.20268,1.6873 0.73495,-0.1921 1.20128,0.031 1.20128,0.5744 0,0.4886 2.1224,1.9687 4.71644,3.2892 2.59403,1.3203 5.50635,2.8099 6.47181,3.31 0.96547,0.5001 2.38587,1.0307 3.15646,1.1791 0.77059,0.1484 1.76407,0.5711 2.20773,0.9393 0.44367,0.3682 0.99928,0.4769 1.23471,0.2415 0.23543,-0.2355 0.42805,-0.085 0.42805,0.3336 0,0.4189 1.46373,1.4008 3.25272,2.182 2.94183,1.2845 3.25686,1.6262 3.29609,3.5752 0.13826,6.8703 0.0931,8.5638 -0.24281,9.1074 -0.20509,0.3318 -0.0944,2.3431 0.24599,4.4694 0.3404,2.1263 1.0792,7.5253 1.64177,11.9977 1.21071,9.6252 2.19375,13.6615 3.32726,13.6615 0.45556,0 1.18204,0.5665 1.61442,1.2588 0.56514,0.905 1.26272,1.1634 2.48149,0.9197 1.09093,-0.2182 2.00067,0.029 2.55175,0.6928 0.47102,0.5676 1.49385,1.0319 2.27298,1.0319 0.77913,0 1.6947,0.2419 2.03462,0.5377 0.98731,0.859 13.84102,2.7907 19.32113,2.9037 1.34174,0.028 2.43953,0.2893 2.43953,0.5814 0,0.292 0.56155,0.531 1.24788,0.531 2.10845,0 3.30593,0.7321 3.30593,2.0212 0,0.6774 0.27302,1.2316 0.6067,1.2316 0.33369,0 0.79141,0.5819 1.01716,1.2932 0.40884,1.2881 0.4206,1.288 2.99426,-0.025 1.54722,-0.7894 2.40377,-1.6096 2.13504,-2.0444 z m -326.192572,-118.436 c -0.0816,-7.5983 -4.21307,-19.5639 -7.49831,-21.7165 -1.26799,-0.8308 -3.66613,-1.0634 -11.83447,-1.1481 -11.760118,-0.122 -11.726818,-0.1143 -33.988228,-7.8487 -15.87691,-5.5162 -15.15644,-5.5472 -16.67676,0.718 -1.70389,7.0215 -4.16022,19.9473 -3.84968,20.2578 0.90587,0.9059 7.24689,1.3897 18.57397,1.417 14.14733,0.034 36.325978,1.2256 44.068898,2.3674 2.57522,0.3797 2.80764,0.5867 3.48208,3.0987 1.21981,4.5435 1.63402,4.9687 4.84064,4.9687 2.84789,0 2.90411,-0.041 2.88186,-2.1143 z m 140.14181,-2.1509 c 1.09458,-2.3519 1.69593,-2.8031 5.52962,-4.1495 2.57857,-0.9056 5.60431,-1.4744 7.55419,-1.42 1.789,0.05 14.2028,0.2504 27.586232,0.4459 24.4297,0.3569 28.04006,0.1107 28.03245,-1.9121 -0.001,-0.4038 -1.06003,-4.8326 -2.35225,-9.8418 -1.29221,-5.0092 -2.38876,-9.7791 -2.43677,-10.5998 -0.19098,-3.2647 -4.54191,-2.5957 -23.02317,3.5401 -14.798502,4.9131 -18.882382,5.556 -29.963582,4.7173 -4.48488,-0.3396 -8.36175,-0.3905 -8.61528,-0.1133 -0.25353,0.2773 -1.68585,3.5779 -3.18295,7.3348 -3.74297,9.3928 -4.34607,15.3743 -1.49705,14.8479 0.62723,-0.1159 1.69308,-1.3981 2.36856,-2.8495 z m 100.717012,2.6121 c 0.65382,-0.6538 -2.6983,-13.2889 -5.00212,-18.8543 -3.17244,-7.6638 -8.88236,-16.6423 -13.99005,-21.9987 -3.91511,-4.1056 -4.43559,-4.4468 -5.72788,-3.7552 -2.80053,1.4989 -2.58822,4.235 1.8281,23.5597 2.17996,9.5389 3.56271,13.3268 5.08006,13.916 0.59835,0.2325 3.13711,0.5878 5.6417,0.7895 5.20078,0.4191 6.83071,1.0562 6.83071,2.6698 0,2.6534 3.76755,5.2451 5.33948,3.6732 z m -353.98788,-0.972 c 0.69208,-0.3704 1.25833,-1.2384 1.25833,-1.9287 0,-1.7959 1.77778,-2.5104 6.55388,-2.6339 2.29905,-0.059 5.79017,-0.5003 7.75806,-0.9797 1.9679,-0.4793 5.12255,-1.0721 7.01033,-1.3172 3.77092,-0.4897 5.50672,-2.1181 6.18608,-5.8032 0.19787,-1.0734 1.11532,-6.0432 2.03875,-11.0439 0.92343,-5.0008 1.67897,-10.1881 1.67897,-11.5271 0,-2.8688 -1.72571,-6.4211 -4.94836,-10.1861 -3.75755,-4.3898 -4.06709,-4.414 -8.97357,-0.6996 -8.59631,6.5075 -19.03739,21.8611 -22.47407,33.0479 -2.93831,9.5646 -3.50518,12.5549 -2.50084,13.192 1.18331,0.7508 4.91556,0.6806 6.41244,-0.1205 z m 516.90459,-5.4786 c 6.0008,-1.1122 50.1486,-1.6203 64.6383,-0.744 l 8.7823,0.5312 -0.1637,-6.7384 c -0.1988,-8.1835 -1.1684,-13.3665 -2.6483,-14.156 -0.6002,-0.3201 -11.0446,-0.9076 -23.2097,-1.3055 -31.6862,-1.0363 -39.7295,-1.7242 -42.7029,-3.6525 l -2.3692,-1.5364 -2.5916,3.0736 c -2.5509,3.0252 -5.7466,9.0379 -5.131,9.6536 0.1732,0.1732 -0.3399,1.2798 -1.1402,2.459 -0.8003,1.1793 -2.129,4.2798 -2.9528,6.89 -1.4391,4.5597 -1.4515,4.7796 -0.3167,5.6094 1.5109,1.1049 3.4817,1.088 9.8055,-0.084 z m 328.3942,-1.4919 c -0.6469,-3.726 -3.9516,-13.397 -5.888,-17.231 -2.3557,-4.6642 -7.7619,-13.0362 -9.3405,-14.4649 -1.2581,-1.1387 -1.3667,-1.0838 -4.2937,2.1717 -1.6515,1.8369 -3.5378,3.3399 -4.1917,3.3399 -0.6539,0 -3.7739,0.9214 -6.9331,2.0474 -3.1592,1.1261 -6.9151,2.1661 -8.3463,2.3112 -3.7481,0.3797 -7.1005,1.3082 -13.0108,3.6036 l -5.2043,2.0212 -14.4503,0.036 -14.4502,0.036 -2.6324,5.7465 c -2.2564,4.9256 -3.8477,9.7134 -3.9059,11.7519 -0.01,0.3087 6.1474,0.3139 13.8082,0.012 18.6677,-0.7366 67.4482,-0.5778 72.6982,0.2367 6.9361,1.0761 6.623,1.1586 6.1408,-1.6185 z"
       style="fill:#000000;stroke-width:0.650545" />
  </g>
</svg>
