<?xml version="1.0" encoding="UTF-8" standalone="no"?>
<svg
   xmlns:dc="http://purl.org/dc/elements/1.1/"
   xmlns:cc="http://creativecommons.org/ns#"
   xmlns:rdf="http://www.w3.org/1999/02/22-rdf-syntax-ns#"
   xmlns:svg="http://www.w3.org/2000/svg"
   xmlns="http://www.w3.org/2000/svg"
   xmlns:sodipodi="http://sodipodi.sourceforge.net/DTD/sodipodi-0.dtd"
   xmlns:inkscape="http://www.inkscape.org/namespaces/inkscape"
   inkscape:version="1.0 (4035a4fb49, 2020-05-01)"
   sodipodi:docname="atat.svg"
   viewBox="0 0 634.75857 537.46386"
   height="537.46387"
   width="634.75854"
   id="svg1729"
   version="1.1">
  <metadata
     id="metadata1735">
    <rdf:RDF>
      <cc:Work
         rdf:about="">
        <dc:format>image/svg+xml</dc:format>
        <dc:type
           rdf:resource="http://purl.org/dc/dcmitype/StillImage" />
        <dc:title></dc:title>
      </cc:Work>
    </rdf:RDF>
  </metadata>
  <defs
     id="defs1733" />
  <sodipodi:namedview
     inkscape:current-layer="g1737"
     inkscape:window-maximized="0"
     inkscape:window-y="57"
     inkscape:window-x="115"
     inkscape:cy="280.28421"
     inkscape:cx="621.23164"
     inkscape:zoom="0.37361112"
     showgrid="false"
     id="namedview1731"
     inkscape:window-height="651"
     inkscape:window-width="1072"
     inkscape:pageshadow="2"
     inkscape:pageopacity="0"
     guidetolerance="10"
     gridtolerance="10"
     objecttolerance="10"
     borderopacity="1"
     bordercolor="#666666"
     pagecolor="#ffffff"
     inkscape:document-rotation="0" />
  <g
     transform="translate(195.08973,-413.40607)"
     id="g1737"
     inkscape:label="Image"
     inkscape:groupmode="layer">
    <path
       id="path140"
       d="m 26.202258,461.69821 v 52.41126 c -18.600472,0 -50.944914,9.76275 -61.146466,-8.73522 l -61.146484,13.10283 -40.278918,2.91173 -43.67613,31.54372 -6.30877,19.41167 v 2.91174 h 8.7352 l -17.47042,14.55868 v 5.82347 c 21.33255,0 33.78284,8.12288 52.71467,11.21776 31.74986,5.19046 88.373818,-1.75258 116.166054,-17.04123 -0.789365,-24.29757 49.263955,-22.81143 55.322998,-2.91175 H 58.23135 l -36.740578,110.646 -23.594959,64.0582 15.385602,37.89625 -13.284798,55.27932 v 2.91174 c -15.125888,11.87988 -17.417413,25.25639 -17.470422,43.67604 h 17.470422 c -9.354523,16.36978 -25.028998,21.36342 -20.382156,43.67606 l -11.646935,2.91174 v 2.91173 H 87.34871 v -2.91173 l -14.55867,-2.91174 -20.38216,-46.58779 14.55869,2.91173 2.91173,-23.29389 h 2.91174 L 90.26046,895.54695 96.08392,883.9 h 5.82347 l 17.47042,58.23473 h 2.91174 l 36.94121,-41.51844 35.85221,-42.92191 v -2.91174 l -61.14647,-11.64695 8.7352,-17.47042 c -21.15084,-11.08498 -62.6361,-29.1261 -71.76672,-52.41125 -4.44825,-11.34412 3.13332,-24.32756 6.67516,-34.94084 8.46294,-25.35832 17.06248,-49.91008 24.32725,-75.70516 l 8.73522,2.91174 c 7.50646,-21.37506 32.45713,-22.98233 52.41125,-26.43855 18.17798,-3.1505 40.29261,-14.10796 58.23473,-13.63364 23.46861,0.61992 48.73083,16.44928 72.79342,19.69003 l -50.56523,110.646 -5.71573,55.323 -13.60073,46.58778 c -15.79033,9.18944 -17.32774,23.66659 -17.47042,40.76431 h 17.47042 c -9.19234,16.04366 -23.71317,22.88625 -20.38215,43.67604 l -14.55867,5.82349 v 2.91173 h 250.40933 v -2.91173 l -14.55869,-5.82349 c 3.88135,-22.2544 -11.03838,-27.07331 -20.38215,-43.67604 h 17.47042 c -0.0495,-17.0948 -0.93757,-32.16887 -17.47042,-40.76431 l -13.72592,-58.23474 -15.39144,-160.1455 c 28.64566,-0.33485 34.49534,-15.84771 41.20398,-40.76431 3.50282,-13.00907 11.14322,-30.10736 9.78927,-43.67605 -2.903,-29.13892 -21.78852,-52.63664 -21.87589,-84.44035 -46.01708,-12.586 -87.5064,-39.31427 -133.93987,-50.92832 -35.67169,-8.92302 -97.4733,-6.97711 -133.82341,-1.05172 -11.36743,1.85332 -16.33776,12.52483 -26.5929,16.65048 -26.44876,10.6386 -56.40091,20.17018 -84.169552,26.59434 m 302.820592,250.40934 16.85022,107.73425 -10.46187,68.88005 16.90554,9.73684 -20.38215,43.67604 -34.94085,2.91175 c 1.53158,-17.93921 -5.0868,-28.77087 -20.38215,-37.85257 v -5.82349 l 17.47042,-2.91173 -8.73522,-32.02909 v -2.91176 c 7.37253,-15.10899 -0.52119,-30.21507 0.11653,-46.58777 1.4413,-37.00818 14.1161,-80.42799 43.55959,-104.82252 m -203.82157,119.3812 v 2.91174 l -23.29389,11.64695 c 3.73576,-12.8728 10.12701,-16.70755 23.29389,-14.55869 m -26.20563,14.55869 2.91174,2.91173 -11.64694,26.20563 -11.64695,-17.47042 20.38215,-11.64694 m -34.94082,14.55867 5.82347,17.47042 h -2.91174 l -2.91173,-17.47042 m 189.26286,8.73522 c -4.43457,13.36195 -19.65714,13.60944 -32.02911,17.47042 4.45497,-18.52157 14.73048,-20.62384 32.02911,-17.47042 M 404.72804,883.9 375.61068,869.34133 c 14.70137,-4.17252 24.70318,-0.65807 29.11736,14.55867 M 29.114046,872.25306 26.202312,883.9 -2.915063,886.81175 c 5.986535,-17.03658 15.914382,-16.53867 32.029109,-14.55869 m 343.584904,-2.91173 v 11.64693 L 349.40506,883.9 c 4.48115,-11.25968 11.77506,-12.9514 23.29389,-14.55867 m -323.20275,2.91173 2.91173,17.47042 H 49.4962 L 32.02578,883.9 V 872.25306 H 49.4962 m 227.11544,14.55869 -20.38215,-5.82349 v -8.7352 c 11.909,0.38726 19.77651,1.44423 20.38215,14.55869 z"
       style="fill:#090909;stroke:none;stroke-width:2.91173" />
  </g>
</svg>
