<?xml version="1.0" encoding="UTF-8" standalone="no"?>
<svg
   xmlns:dc="http://purl.org/dc/elements/1.1/"
   xmlns:cc="http://creativecommons.org/ns#"
   xmlns:rdf="http://www.w3.org/1999/02/22-rdf-syntax-ns#"
   xmlns:svg="http://www.w3.org/2000/svg"
   xmlns="http://www.w3.org/2000/svg"
   xmlns:sodipodi="http://sodipodi.sourceforge.net/DTD/sodipodi-0.dtd"
   xmlns:inkscape="http://www.inkscape.org/namespaces/inkscape"
   sodipodi:docname="burj.svg"
   inkscape:version="1.0 (4035a4fb49, 2020-05-01)"
   id="svg111"
   version="1.1"
   viewBox="0 0 92.074388 401.29114"
   height="401.29114mm"
   width="92.074387mm">
  <defs
     id="defs105" />
  <sodipodi:namedview
     inkscape:window-maximized="0"
     inkscape:window-y="14"
     inkscape:window-x="67"
     inkscape:window-height="728"
     inkscape:window-width="1274"
     showgrid="false"
     inkscape:document-rotation="0"
     inkscape:current-layer="layer1"
     inkscape:document-units="mm"
     inkscape:cy="878.10335"
     inkscape:cx="78.456917"
     inkscape:zoom="0.24748737"
     inkscape:pageshadow="2"
     inkscape:pageopacity="0.0"
     borderopacity="1.0"
     bordercolor="#666666"
     pagecolor="#ffffff"
     id="base" />
  <metadata
     id="metadata108">
    <rdf:RDF>
      <cc:Work
         rdf:about="">
        <dc:format>image/svg+xml</dc:format>
        <dc:type
           rdf:resource="http://purl.org/dc/dcmitype/StillImage" />
        <dc:title></dc:title>
      </cc:Work>
    </rdf:RDF>
  </metadata>
  <g
     transform="translate(-97.415663,43.338648)"
     id="layer1"
     inkscape:groupmode="layer"
     inkscape:label="Layer 1">
    <path
       sodipodi:nodetypes="zcsccccsscssccssssssssccsscccccccccssssssssssssssssssssssssccsssscscccscssszz"
       transform="matrix(0.26458333,0,0,0.26458333,83.517803,-162.5631)"
       d="m 204.41288,470.72228 c -0.22306,6.41975 -0.78095,18.11833 -0.78095,21.54571 -2.22824,1.90789 -6.20156,6.45747 -6.20156,11.2832 0,4.66574 -0.67898,10.12628 -0.67898,14.04876 -4.67195,0.88388 -8.38374,9.27518 -8.60295,27.00943 -1.8528,13.96635 -1.18181,60.80716 -6.73438,61.2726 -4.6097,2.57267 -2.79443,16.92773 -3.95117,19.37332 -2.58716,5.25228 -3.02438,26.30907 -3.53906,58.33064 -0.62127,38.65319 -1.15075,48.81478 -2.6211,50.28515 -1.01351,1.01354 -1.84986,2.15169 -1.85742,2.5293 -0.008,0.3776 -1.1206,3.24894 -2.47265,6.38086 -2.25449,5.22245 -2.63827,14.53503 -4.62891,112.36133 -1.1938,58.66666 -2.1616,108.61667 -2.14648,111 0.0206,3.60635 -0.47793,4.33462 -2.97461,4.35351 -4.64792,0.0316 -6.08268,1.56403 -7.5,8.01368 -0.7211,3.28149 -1.94574,31.16673 -2.72266,61.96683 -0.77696,30.7999 -1.70779,64.3993 -2.06836,74.666 -0.36042,10.2666 -1.31342,47.1666 -2.11914,82 -0.80576,34.8333 -1.70022,64.0833 -1.98633,65 -0.28615,0.9167 -2.22378,1.6679 -4.30664,1.6679 -2.08286,0 -4.93091,0.8358 -6.32812,1.8575 -2.82792,2.0678 -2.48381,-5.699 -8.52735,192.8086 -1.50701,49.5 -3.10808,96.75 -3.55664,105 l -0.81445,15 h -6.45703 c -3.55106,0 -6.87646,0.6797 -7.39063,1.5117 -0.84495,1.3671 -4.745309,95.2202 -8.607419,207.1543 -0.0888,29.8338 -1.495288,60.1238 -3.28125,85.334 -17.030455,0 -27.101977,9.991 -27.101977,22.2991 -3.181915,-0.089 -11.324561,-0.7622 -11.92732,0 v 72.5273 c 119.079166,-0.3967 240.382796,-0.4252 347.997676,0 v -72.5273 c -5.40648,-0.5063 -8.11324,0 -14.47813,0 -3.03046,-17.7588 -14.39523,-22.2991 -29.85939,-22.2991 0.20725,-39.0609 1.25967,-144.9601 -6.92076,-164.24 -3.16438,-7.4579 -7.26486,-14.9663 -24.88783,-17.1953 -0.67568,-0.086 -1.77716,-25.4603 -3.4375,-67.2324 -0.45185,-11.3667 -1.07567,-26.066 -1.38672,-32.666 -0.3111,-6.6 -0.92526,-20.3994 -1.36524,-30.666 -0.43997,-10.2667 -1.02689,-23.4673 -1.30468,-29.334 -0.2778,-5.8667 -0.85616,-20.8673 -1.28321,-33.334 -0.42708,-12.4667 -1.04668,-27.7667 -1.3789,-34 -0.60484,-11.3536 -2.42789,-51.4718 -2.58399,-56.8711 -0.0457,-1.58 -0.5585,-2.5786 -1.14062,-2.2187 -0.58213,0.3596 -1.78345,0.095 -2.66797,-0.5879 -0.88456,-0.6827 -4.48115,-2.0181 -7.99414,-2.9688 -3.51296,-0.9507 -6.88381,-2.6952 -7.49024,-3.875 -0.60642,-1.1797 -1.49464,-18.0452 -1.97461,-37.4785 -0.47992,-19.4334 -1.17036,-41.632 -1.5332,-49.332 -0.36272,-7.7 -1.25385,-32.0001 -1.98047,-54 -0.72657,-22 -2.25018,-66.1 -3.38672,-98 -1.1365,-31.9 -2.12343,-59.6513 -2.19336,-61.668 -0.0698,-2.0166 -0.7815,-3.666 -1.58007,-3.666 -2.52972,0 -21.00066,-9.6033 -21.48047,-11.168 -0.25278,-0.8242 -0.81296,-20.6993 -1.2461,-44.166 -0.43309,-23.4666 -1.08235,-51.06537 -1.4414,-61.33204 -0.35891,-10.26667 -1.30879,-47.76732 -2.11133,-83.33398 -1.59001,-70.46654 -1.20167,-67.46179 -9.62695,-74.58203 -2.22395,-1.87945 -5.7374,-4.13827 -7.80664,-5.01953 l -3.76172,-1.60352 -0.041,-34.39648 c -0.0226,-18.91874 -0.30538,-39.49909 -0.62891,-45.73243 -0.32356,-6.23333 -0.90982,-27.91995 -1.30078,-48.19336 -0.55888,-28.98405 -1.13448,-37.67336 -2.69531,-40.66601 -1.43989,-2.76086 -1.98841,-8.27543 -1.99219,-20.08399 -0.006,-12.81617 -0.50475,-17.27733 -2.34179,-20.96875 -1.28334,-2.57875 -3.05692,-4.70256 -3.94141,-4.7207 -1.20726,-0.0246 -1.70595,-9.45131 -2,-37.8164 l -0.39258,-37.78321 c 0,0 0.18739,-5.37031 -1.76506,-8.2525 -1.16703,-1.72275 -2.30258,-3.24421 -4.43634,-4.07503 0,-4.532 -0.0151,-13.47852 -0.36332,-24.17366 -0.14972,-4.59859 -3.3564,-3.9327 -3.41667,-7.75294 -0.14765,-9.35831 0.70372,-23.57416 -0.0264,-25.52712 -2.24677,-6.00956 -2.24494,12.50731 -2.468,18.92706 z"
       style="fill:#000000;stroke-width:1.33333"
       id="path143" />
  </g>
</svg>
