<?xml version="1.0" encoding="UTF-8" standalone="no"?>
<svg
   xmlns:dc="http://purl.org/dc/elements/1.1/"
   xmlns:cc="http://creativecommons.org/ns#"
   xmlns:rdf="http://www.w3.org/1999/02/22-rdf-syntax-ns#"
   xmlns:svg="http://www.w3.org/2000/svg"
   xmlns="http://www.w3.org/2000/svg"
   xmlns:sodipodi="http://sodipodi.sourceforge.net/DTD/sodipodi-0.dtd"
   xmlns:inkscape="http://www.inkscape.org/namespaces/inkscape"
   inkscape:version="1.0 (4035a4fb49, 2020-05-01)"
   sodipodi:docname="button-info.svg"
   viewBox="0 0 325.39963 325.39962"
   height="325.39963"
   width="325.39963"
   id="svg70"
   version="1.1">
  <metadata
     id="metadata76">
    <rdf:RDF>
      <cc:Work
         rdf:about="">
        <dc:format>image/svg+xml</dc:format>
        <dc:type
           rdf:resource="http://purl.org/dc/dcmitype/StillImage" />
        <dc:title />
      </cc:Work>
    </rdf:RDF>
  </metadata>
  <defs
     id="defs74" />
  <sodipodi:namedview
     inkscape:current-layer="text920"
     inkscape:window-maximized="0"
     inkscape:window-y="0"
     inkscape:window-x="119"
     inkscape:cy="184.56968"
     inkscape:cx="95.655795"
     inkscape:zoom="0.6601227"
     showgrid="false"
     id="namedview72"
     inkscape:window-height="685"
     inkscape:window-width="1186"
     inkscape:pageshadow="2"
     inkscape:pageopacity="0"
     guidetolerance="10"
     gridtolerance="10"
     objecttolerance="10"
     borderopacity="1"
     bordercolor="#666666"
     pagecolor="#ffffff"
     inkscape:document-rotation="0" />
  <g
     transform="translate(-165.28287,-248.68311)"
     id="g78"
     inkscape:label="Image"
     inkscape:groupmode="layer">
    <g
       transform="translate(-15.148699,-7.5743493)"
       style="opacity:1"
       id="g89">
      <path
         id="path91"
         d="m 504.3606,416.5813 c 0,87.84715 -71.21419,159.06134 -159.06134,159.06134 -87.84715,0 -159.06134,-71.21419 -159.06134,-159.06134 0,-87.84715 71.21419,-159.06134 159.06134,-159.06134 87.84715,0 159.06134,71.21419 159.06134,159.06134 z"
         style="color:#000000;font-style:normal;font-variant:normal;font-weight:normal;font-stretch:normal;font-size:medium;line-height:normal;font-family:sans-serif;font-variant-ligatures:normal;font-variant-position:normal;font-variant-caps:normal;font-variant-numeric:normal;font-variant-alternates:normal;font-variant-east-asian:normal;font-feature-settings:normal;font-variation-settings:normal;text-indent:0;text-align:start;text-decoration:none;text-decoration-line:none;text-decoration-style:solid;text-decoration-color:#000000;letter-spacing:normal;word-spacing:normal;text-transform:none;writing-mode:lr-tb;direction:ltr;text-orientation:mixed;dominant-baseline:auto;baseline-shift:baseline;text-anchor:start;white-space:normal;shape-padding:0;shape-margin:0;inline-size:0;clip-rule:nonzero;display:inline;overflow:visible;visibility:visible;opacity:0.99;isolation:auto;mix-blend-mode:normal;color-interpolation:sRGB;color-interpolation-filters:linearRGB;solid-color:#000000;solid-opacity:1;vector-effect:none;fill:none;fill-opacity:1;fill-rule:evenodd;stroke:none;stroke-width:1;stroke-linecap:butt;stroke-linejoin:miter;stroke-miterlimit:4;stroke-dasharray:none;stroke-dashoffset:0;stroke-opacity:1;color-rendering:auto;image-rendering:auto;shape-rendering:auto;text-rendering:auto;enable-background:accumulate;stop-color:#000000;stop-opacity:1" />
      <g
         style="font-style:normal;font-weight:normal;font-size:294.54px;line-height:1.25;font-family:sans-serif;fill:#000000;fill-opacity:1;stroke:none;stroke-width:2.4545"
         id="text920"
         aria-label="i">
        <g
           id="g1667"
           transform="matrix(0.8627452,0,0,0.8627452,50.911389,58.589392)">
          <path
             sodipodi:nodetypes="cscsccccccccccsssccscccc"
             style="font-style:normal;font-variant:normal;font-weight:normal;font-stretch:normal;font-size:294.54px;font-family:'Mongolian Baiti';-inkscape-font-specification:'Mongolian Baiti';stroke-width:3.54234"
             d="m 357.49358,372.34016 v 112.7634 c 0,6.08839 0.20756,11.06981 0.62267,14.94424 0.41512,3.73607 1.0378,6.78026 1.86804,9.13259 0.83023,2.35234 1.86803,4.15119 3.11338,5.39654 1.38373,1.10699 2.90583,2.14478 4.5663,3.11338 3.59768,1.93722 9.82445,2.90583 18.68031,2.90583 v 7.47212 h -92.36374 v -7.47212 c 4.70467,0 8.50991,-0.20756 11.41574,-0.62267 3.04419,-0.41513 5.46571,-1.10699 7.26456,-2.0756 1.93721,-0.96861 3.39013,-2.14477 4.35874,-3.5285 1.10697,-1.52209 2.14477,-3.32094 3.11338,-5.39653 1.93723,-4.28955 2.90584,-12.24598 2.90584,-23.86928 v -33.26831 c 0,-12.03843 -0.20757,-21.51696 -0.6227,-28.43559 -0.41511,-6.91863 -1.17616,-12.1076 -2.28314,-15.56692 -0.96861,-3.45931 -2.49071,-5.60409 -4.5663,-6.43432 -1.93721,-0.96861 -4.42792,-1.45292 -7.47212,-1.45292 -3.87443,0 -8.5791,1.03779 -14.114,3.11338 l -2.90583,-7.47212 57.28628,-23.2466 z"
             id="path927" />
          <path
             style="font-style:normal;font-variant:normal;font-weight:normal;font-stretch:normal;font-size:294.54px;font-family:'Mongolian Baiti';-inkscape-font-specification:'Mongolian Baiti';stroke-width:4.40292"
             d="m 338.83848,307.32992 q 5.41768,0 10.06138,2.06387 4.90168,2.06385 8.25547,5.67564 3.61177,3.35379 5.67564,8.25549 2.06387,4.6437 2.06387,10.06134 0,5.41766 -2.06387,10.31937 -2.06387,4.6437 -5.67564,8.25547 -3.35379,3.61177 -8.25547,5.67564 -4.6437,2.06387 -10.06138,2.06387 -5.41764,0 -10.31933,-2.06387 -4.6437,-2.06387 -8.25549,-5.67564 -3.61178,-3.61177 -5.67564,-8.25547 -2.06387,-4.90171 -2.06387,-10.31937 0,-5.41764 2.06387,-10.06134 2.06386,-4.9017 5.41766,-8.25549 3.61177,-3.61179 8.51347,-5.67564 4.90169,-2.06387 10.31933,-2.06387 z"
             id="path922" />
        </g>
      </g>
      <circle
         style="opacity:1;fill:none;stroke:#000000;stroke-width:30;stroke-miterlimit:4;stroke-dasharray:none"
         id="path994"
         cx="343.13138"
         cy="418.95728"
         r="147.69981" />
    </g>
  </g>
</svg>
