<?xml version="1.0" encoding="UTF-8" standalone="no"?>
<svg
   xmlns:dc="http://purl.org/dc/elements/1.1/"
   xmlns:cc="http://creativecommons.org/ns#"
   xmlns:rdf="http://www.w3.org/1999/02/22-rdf-syntax-ns#"
   xmlns:svg="http://www.w3.org/2000/svg"
   xmlns="http://www.w3.org/2000/svg"
   xmlns:sodipodi="http://sodipodi.sourceforge.net/DTD/sodipodi-0.dtd"
   xmlns:inkscape="http://www.inkscape.org/namespaces/inkscape"
   version="1.1"
   id="svg1729"
   width="555.84583"
   height="732.7774"
   viewBox="0 0 555.84584 732.77739"
   sodipodi:docname="cat.svg"
   inkscape:version="1.0 (4035a4fb49, 2020-05-01)">
  <metadata
     id="metadata1735">
    <rdf:RDF>
      <cc:Work
         rdf:about="">
        <dc:format>image/svg+xml</dc:format>
        <dc:type
           rdf:resource="http://purl.org/dc/dcmitype/StillImage" />
        <dc:title />
      </cc:Work>
    </rdf:RDF>
  </metadata>
  <defs
     id="defs1733" />
  <sodipodi:namedview
     inkscape:document-rotation="0"
     pagecolor="#ffffff"
     bordercolor="#666666"
     borderopacity="1"
     objecttolerance="10"
     gridtolerance="10"
     guidetolerance="10"
     inkscape:pageopacity="0"
     inkscape:pageshadow="2"
     inkscape:window-width="1117"
     inkscape:window-height="667"
     id="namedview1731"
     showgrid="false"
     inkscape:zoom="0.37361112"
     inkscape:cx="265.75291"
     inkscape:cy="255.34746"
     inkscape:window-x="92"
     inkscape:window-y="15"
     inkscape:window-maximized="0"
     inkscape:current-layer="g1737" />
  <g
     inkscape:groupmode="layer"
     inkscape:label="Image"
     id="g1737"
     transform="translate(131.55499,-287.71669)">
    <path
       id="path36"
       d="m 291.34972,1016.8821 c -11.40407,0.1669 -15.44195,-0.2805 -19.5445,-2.1663 -4.41032,-2.0268 -7.64021,-2.2781 -21.96105,-1.7101 -15.32437,0.6083 -17.1595,0.9211 -21.01934,3.5824 -8.52596,5.8784 -42.60749,5.0018 -70.81489,-1.8216 -11.12262,-2.6906 -15.74217,-3.0572 -54.50239,-4.3232 -14.389813,-0.4702 -19.09505,-1.1171 -23.992988,-3.3007 -3.350997,-1.4942 -7.549631,-2.6146 -9.330281,-2.4901 -1.780644,0.1248 -11.406204,-0.5867 -21.390156,-1.5807 -9.983951,-0.994 -26.618692,-2.1018 -36.966017,-2.4626 -10.3473394,-0.3602 -26.714985,-0.9336 -36.372644,-1.27155 -9.657644,-0.33855 -26.30326,-0.85969 -36.990116,-1.16242 -57.632318,-1.60735 -67.988178,-5.59339 -69.805648,-26.86861 -0.53302,-6.23991 -0.11372,-9.74384 1.71148,-14.2999 6.87656,-17.16544 32.262446,-32.70227 71.01423,-43.46249 16.229781,-4.50652 24.30668,-4.97169 29.955151,-1.72517 9.012286,5.17988 6.408187,13.09661 -7.863003,23.90424 l -8.567476,6.48817 18.971039,0.86589 c 10.434072,0.47625 27.7595067,1.6138 38.500949,2.52797 31.831756,2.70913 42.883365,0.84697 45.745811,-7.70797 1.511554,-4.51757 0.908054,-8.02614 -6.268038,-36.44105 -5.88482,-23.30191 -6.109053,-44.89489 -0.666025,-64.13703 7.08544,-25.04841 8.183214,-33.51789 8.081166,-62.34734 -0.128005,-36.1616 2.901923,-52.15654 15.929609,-84.09231 15.372706,-37.68431 24.611038,-53.87177 43.400947,-76.04733 17.16728,-20.26051 31.52021,-32.53011 60.73529,-51.91944 14.41269,-9.56538 17.89068,-13.67862 20.89286,-24.70894 1.329,-4.88293 4.48841,-14.04932 7.02096,-20.3697 5.38639,-13.44288 5.45831,-18.08752 0.51882,-33.51644 -4.90674,-15.32679 -6.33394,-28.58836 -5.25392,-48.82003 0.59004,-11.05435 0.29454,-28.22072 -0.79686,-46.23736 -1.79072,-29.56944 -1.9284,-58.5254 -0.33604,-70.66719 1.06077,-8.08884 4.91347,-17.90722 8.5592,-21.81316 3.04843,-3.266 7.90683,-3.81402 14.39874,-1.62419 6.57572,2.21815 12.07579,7.07413 23.16187,20.44942 5.22373,6.30243 14.64009,15.68721 20.92519,20.85506 l 11.42753,9.39603 5.6647,-1.12734 c 17.49316,-3.48112 28.71747,-4.27403 37.46486,-2.64635 8.36719,1.55685 9.07825,1.51447 13.14085,-0.78357 8.19063,-4.63311 17.25169,-13.73729 25.54794,-25.66959 12.71004,-18.28069 22.60602,-27.22839 30.84653,-27.89066 6.57517,-0.5285 13.80473,8.4531 16.71605,20.76702 2.34029,9.89862 9.84061,115.47309 9.10522,128.16508 -0.79967,13.8005 -4.27139,31.33002 -8.8571,44.72041 -5.38549,15.72591 -4.74071,23.99881 4.09774,52.57755 3.64549,11.7875 7.16751,24.22394 7.82668,27.63645 2.38376,12.34023 3.65936,39.58922 2.35979,50.40849 -1.90882,15.89102 -9.97021,50.13846 -23.07244,98.01899 -6.4313,23.50238 -13.1034,49.32838 -14.82691,57.39104 -3.80725,17.81024 -6.79196,44.86044 -7.6466,69.29862 -0.9119,26.07535 -2.88541,53.51869 -5.13029,71.33985 -2.63995,20.96117 -1.74012,32.951 3.09038,41.15539 4.16484,7.07395 8.97302,10.88326 13.35053,10.57716 11.04421,-0.7723 28.96345,14.60363 29.72588,25.50684 0.35138,5.02521 -2.90496,11.63479 -7.78859,15.80866 -2.6836,2.2935 -5.93925,2.919 -25.30881,4.8626 -13.21545,1.326 -25.68134,1.931 -30.74294,1.4921 -7.81913,-0.678 -9.23096,-0.4295 -17.30319,3.0476 -9.94342,4.2823 -22.6483,6.0114 -46.76952,6.3641 z"
       style="fill:#000000;stroke-width:1.24811" />
  </g>
</svg>
