<?xml version="1.0" encoding="UTF-8" standalone="no"?>
<svg
   xmlns:dc="http://purl.org/dc/elements/1.1/"
   xmlns:cc="http://creativecommons.org/ns#"
   xmlns:rdf="http://www.w3.org/1999/02/22-rdf-syntax-ns#"
   xmlns:svg="http://www.w3.org/2000/svg"
   xmlns="http://www.w3.org/2000/svg"
   xmlns:sodipodi="http://sodipodi.sourceforge.net/DTD/sodipodi-0.dtd"
   xmlns:inkscape="http://www.inkscape.org/namespaces/inkscape"
   inkscape:version="1.0 (4035a4fb49, 2020-05-01)"
   sodipodi:docname="cat.svg"
   viewBox="0 0 981.53885 765.79045"
   height="765.79047"
   width="981.53882"
   id="svg1729"
   version="1.1">
  <metadata
     id="metadata1735">
    <rdf:RDF>
      <cc:Work
         rdf:about="">
        <dc:format>image/svg+xml</dc:format>
        <dc:type
           rdf:resource="http://purl.org/dc/dcmitype/StillImage" />
        <dc:title />
      </cc:Work>
    </rdf:RDF>
  </metadata>
  <defs
     id="defs1733" />
  <sodipodi:namedview
     inkscape:current-layer="g1737"
     inkscape:window-maximized="0"
     inkscape:window-y="15"
     inkscape:window-x="137"
     inkscape:cy="257.41112"
     inkscape:cx="472.37978"
     inkscape:zoom="0.37361112"
     showgrid="false"
     id="namedview1731"
     inkscape:window-height="651"
     inkscape:window-width="1072"
     inkscape:pageshadow="2"
     inkscape:pageopacity="0"
     guidetolerance="10"
     gridtolerance="10"
     objecttolerance="10"
     borderopacity="1"
     bordercolor="#666666"
     pagecolor="#ffffff"
     inkscape:document-rotation="0" />
  <g
     transform="translate(249.85472,-285.65303)"
     id="g1737"
     inkscape:label="Image"
     inkscape:groupmode="layer">
    <path
       sodipodi:nodetypes="csssssscsssssssssssssssssssssssssssscsssssssssssssccssscsssssscsssssscsscsscssssssssssssssssssssssscc"
       id="path1741"
       d="m -32.189417,1050.1837 c 9.9387,-1.4508 17.33505,-5.7925 25.97742,-15.2486 6.08814998,-6.6614 7.33512,-9.1113 11.39164,-22.3811 2.50532,-8.1956 13.27503,-43.101 23.93268,-77.5676 20.02523,-64.76126 29.45371,-96.76551 33.57191,-113.95719 1.5995,-6.67722 4.29488,-12.90922 8.18253,-18.91892 3.18853,-4.92898 8.64187,-14.54826 12.11852,-21.37618 l 6.32119,-12.41441 8.66666,0.132 c 4.766667,0.0725 18.974547,0.84611 31.573057,1.71892 29.26854,2.02772 78.47279,2.10556 91.98259,0.14551 9.04823,-1.31276 12.93955,-1.13595 29.11102,1.3227 22.45678,3.41427 70.82365,5.0527 85.89521,2.90972 7.73661,-1.10004 10.8118,-1.02398 14.09696,0.34864 10.60977,4.43306 21.39221,18.08058 34.07909,43.13448 6.28037,12.4024 10.61019,18.91015 18.15512,27.28732 40.02281,44.43746 45.04426,79.31301 17.32592,120.33411 -6.14552,9.0949 -24.16141,27.4843 -32.41195,33.084 -5.1705,3.5093 -6.50106,3.7691 -20.66666,4.0361 -13.17798,0.2484 -15.86706,0.697 -20.74699,3.4611 -10.20351,5.7794 -13.20879,21.3601 -5.75705,29.8472 2.1833,2.4866 3.59781,4.893 3.14333,5.3475 -0.45448,0.4544 -0.0673,1.7408 0.86027,2.8585 2.36357,2.8479 64.41906,3.0183 71.17517,0.1954 8.92862,-3.7306 60.23652,-66.4329 82.78208,-101.1663 15.16202,-23.3584 24.77298,-49.00409 22.63521,-60.39941 -0.46644,-2.48633 -2.58455,-7.25874 -4.70689,-10.60534 -4.58699,-7.23294 -5.32895,-15.32548 -1.40512,-15.32548 4.70289,0 18.6225,8.10321 25.42934,14.80353 10.39904,10.23631 15.11804,20.56428 15.83827,34.6636 1.04934,20.5419 -5.23551,59.135 -11.85784,72.8149 -2.74809,5.6768 -2.81937,5.718 -9.89563,5.718 -9.66249,0 -12.47934,1.3045 -20.57409,9.5279 -10.186,10.3479 -11.40508,13.9174 -7.38555,21.6245 1.09548,2.1005 1.99179,4.6164 1.99179,5.591 0,0.9746 1.33351,2.706 2.96335,3.8476 2.42057,1.6955 7.36582,2.0698 27,2.0438 28.44307,-0.038 33.38829,-0.9138 38.33001,-6.7915 9.93118,-11.812 26.25716,-64.1523 33.17186,-106.3474 1.51684,-9.25609 3.98968,-22.52927 5.49519,-29.49593 1.77484,-8.21299 2.96241,-19.73334 3.37757,-32.76492 0.77571,-24.34883 0.39623,-25.35748 -13.46496,-35.78971 -16.59592,-12.49045 -24.60426,-22.56733 -31.04509,-39.06393 -1.94297,-4.97646 -5.21613,-12.66479 -7.27369,-17.08519 -4.77342,-10.25505 -6.48083,-17.76444 -6.52164,-28.68279 -0.0449,-12.02041 2.29928,-19.99178 13.1333,-44.65914 19.92392,-45.36355 21.10219,-58.48219 12.03127,-133.95432 -1.45428,-12.1 -2.34291,-23.2 -1.97471,-24.66667 0.36819,-1.46667 3.72174,-7.35903 7.45234,-13.09415 20.93117,-32.17789 102.35818,92.62885 109.62418,57.47141 2.62609,-12.7067 59.24971,4.47942 11.98301,-18.38966 0,0 26.57221,-41.95088 -64.20282,-92.48574 -3.28022,11.73333 -98.52564,-21.6005 -99.63912,-18.46182 -2.98736,8.42073 -13.26301,18.22685 -24.73142,23.60135 -19.44642,9.11328 -40.59998,10.69826 -81.37932,6.09754 -60.71827,-6.8502 -112.20799,-9.78797 -171.66264,-9.7943 -59.54438,-0.007 -94.8565,2.70068 -133.99999,10.27237 -11.62392,2.24847 -18.82994,2.92108 -26.34691,2.45923 -12.708037,-0.7808 -32.565247,1.44165 -42.672127,4.77593 -6.93186,2.28683 -8.33523,2.33685 -17.2631,0.61533 -5.34482,-1.03062 -15.41786,-1.84033 -22.38453,-1.79936 -6.96667,0.0409 -17.14056,-0.14078 -22.60865,-0.40393 l -9.94199,-0.47845 -4.23121,-6.26446 c -8.43633,-12.49026 -17.09016,-39.7399 -23.10071,-72.7407 -3.51729,-19.3116 -3.49008,-21.21683 0.51686,-36.18943 8.99566,-33.61389 6.77009,-58.88197 -5.94746,-67.52449 -4.66716,-3.17168 -13.2258,-3.99699 -18.93337,-1.82574 -1.69775,0.64586 -12.6594,10.8515 -24.35925,22.67923 -22.470343,22.71592 -24.596663,24.12368 -36.460433,24.13907 -8.62461,0.0107 -13.19181,-2.99784 -16.76931,-11.04823 -1.6973,-3.81939 -8.4286,-15.34433 -14.9586,-25.611 l -11.8725,-18.66667 -0.3929,6.00215 c -0.2161,3.30117 1.3052,14.43903 3.3806,24.75077 l 3.7734,18.74864 -12.0472,2.09395 c -21.8161,3.79191 -36.6169,11.28729 -43.3957,21.97635 -3.1601,4.98305 -5.4685,6.88038 -11.2154,9.21849 -14.1469,5.75556 -23.5282,14.08097 -25.4938,22.62431 -0.4959,2.15528 -1.7357,6.48965 -2.7553,9.63194 -3.9025,12.02747 -0.883,28.44724 7.7118,41.93706 5.6334,8.84169 17.0228,18.84297 25.4236,22.32492 6.7579,2.80098 7.3432,3.446 11.9332,13.15177 2.6548,5.61347 7.0705,13.13465 9.8129,16.71373 7.052,9.2037 9.0506,16.95374 15.9377,61.80223 8.5399,55.61079 11.4943,69.75268 20.2696,97.02369 7.8652,24.44296 19.3875,45.14636 35.1933,63.2362 18.26846,20.90826 27.445093,35.90363 35.145403,57.43047 7.72909,21.60735 8.69946,28.66533 8.70741,63.33333 0.0184,80.50897 -5.2738,128.88477 -16.52757,151.07667 -5.26404,10.3804 -7.250643,11.4927 -21.930583,12.2791 -21.28046,1.14 -28.05496,6.3474 -29.20716,22.4508 -0.6522,9.1151 -0.5523,9.5029 3.4879,13.5431 2.2876,2.2876 4.7483,3.7953 5.4682,3.3503 0.7199,-0.4449 3.0967,0.1156 5.2819,1.2455 4.6292,2.3939 23.58379,2.7521 37.686903,0.7123 8.78074,-1.2701 8.9723,-1.2321 12.72878,2.5244 2.4785,2.4785 6.26607,4.3398 10.81739,5.3158 7.97245,1.7098 26.44589,1.7257 38.04303,0.033 z"
       style="fill:#000000;stroke-width:1.33333" />
  </g>
</svg>
