<?xml version="1.0" encoding="UTF-8" standalone="no"?>
<svg
   xmlns:dc="http://purl.org/dc/elements/1.1/"
   xmlns:cc="http://creativecommons.org/ns#"
   xmlns:rdf="http://www.w3.org/1999/02/22-rdf-syntax-ns#"
   xmlns:svg="http://www.w3.org/2000/svg"
   xmlns="http://www.w3.org/2000/svg"
   xmlns:sodipodi="http://sodipodi.sourceforge.net/DTD/sodipodi-0.dtd"
   xmlns:inkscape="http://www.inkscape.org/namespaces/inkscape"
   sodipodi:docname="christ.svg"
   inkscape:version="1.0 (4035a4fb49, 2020-05-01)"
   id="svg8"
   version="1.1"
   viewBox="0 0 577.14448 724.66075"
   height="724.66077mm"
   width="577.14447mm">
  <defs
     id="defs2" />
  <sodipodi:namedview
     inkscape:window-maximized="0"
     inkscape:window-y="36"
     inkscape:window-x="81"
     inkscape:window-height="653"
     inkscape:window-width="1207"
     showgrid="false"
     inkscape:document-rotation="0"
     inkscape:current-layer="layer1"
     inkscape:document-units="mm"
     inkscape:cy="2317.3392"
     inkscape:cx="405.39173"
     inkscape:zoom="0.0875"
     inkscape:pageshadow="2"
     inkscape:pageopacity="0.0"
     borderopacity="1.0"
     bordercolor="#666666"
     pagecolor="#ffffff"
     id="base" />
  <metadata
     id="metadata5">
    <rdf:RDF>
      <cc:Work
         rdf:about="">
        <dc:format>image/svg+xml</dc:format>
        <dc:type
           rdf:resource="http://purl.org/dc/dcmitype/StillImage" />
        <dc:title />
      </cc:Work>
    </rdf:RDF>
  </metadata>
  <g
     transform="translate(244.51154,-19.697544)"
     id="layer1"
     inkscape:groupmode="layer"
     inkscape:label="Layer 1">
    <path
       id="path57"
       d="m 17.602356,38.017478 c 1.3462,0 0.12982,1.9177 -0.0589,2.822222 -0.508,2.4384 0.75283,4.253089 -1.70498,5.997222 0.9264,5.065184 -1.46438,10.864498 -2.0701,15.876417 -0.95038,7.86412 -0.41945,15.81608 -1.9819,23.6347 -0.60114,3.00813 1.10137,8.77182 -1.39277,11.08992 -1.7296701,1.60796 -5.0969301,1.19168 -7.2552341,1.71732 -1.87501,0.45685 -3.31787004,1.597031 -5.29166,1.857021 -2.09586,0.27623 -4.20829,-0.57996 -6.35,-0.55174 -3.6357299,0.0476 -7.2234799,0.70273 -10.9361199,0.70414 -4.3755,0.002 -8.741483,0.7994 -13.052773,1.4725 -1.39947,0.21837 -3.32246,1.57797 -4.58611,0.64417 -2.02142,1.17933 -4.16525,0.97896 -6.29003,1.70709 -8.68892,2.97744 -17.038456,3.30024 -26.165526,3.9691 -2.73473,0.20073 -5.14033,1.88101 -7.76111,2.08492 -2.15054,2.42076 -4.83976,2.77177 -7.7611,3.71087 -7.50747,2.4137 -15.409693,2.4444 -23.193383,3.13337 -13.21188,1.16981 -26.66118,3.00108 -39.95385,2.67547 -5.95559,-0.1457 -12.03219,-1.52012 -17.99131,-2.05105 -2.58128,-0.23001 -4.37056,1.70568 -7.05591,1.23472 -2.64019,-0.46284 -3.71898,-2.47826 -5.80496,-3.76167 -3.14289,-1.93322 -8.22148,-3.16583 -11.83393,-4.08129 -3.22051,-0.81597 -6.59944,-0.39193 -9.87774,-0.46672 -4.71,-0.1076 -9.4979,-0.65864 -14.2117,-0.18944 -3.557,0.35419 -5.4504,2.27365 -4.1328,5.79296 l -16.2278,0.87066 -9.1722,4.42101 0.2127,4.21957 2.2568,3.89432 c 2.1664,0.94791 7.5589,3.20005 8.4666,5.29166 3.591,0.0296 6.7518,1.22873 10.2306,1.84962 8.1975,1.46332 16.7234,3.06352 25.0472,3.42829 9.90354,0.43357 22.02886,-2.73826 31.39723,1.42487 v 0.35278 l -1.76389,1.05833 v 0.35278 c 4.56671,0.25012 4.81119,5.77462 6.96313,8.72808 4.81683,6.61211 9.90529,13.45071 14.68579,20.21346 2.0073,2.83951 4.34834,7.20407 7.28415,9.14611 14.04514,9.29041 31.14569,2.8635 46.561383,1.80764 11.18551,-0.76588 22.33012,3.43006 32.80832,7.07707 3.67559,1.27953 7.301796,2.36256 10.967506,3.7465 1.77659,0.67063 3.54436,0.76906 4.90749,2.19781 l 1.41111,-0.35278 -0.35277,0.70556 h 0.35277 l 1.05834,-0.35278 5.29166,1.76389 -1.05833,2.11666 1.05833,0.35278 c -1.59949,5.26521 -0.2226,12.11581 -0.35807,17.6389 -0.31997,13.07253 -0.4004,26.20292 -1.23437,39.15833 -0.36406,5.6582 -0.63041,11.32628 -1.29469,16.93333 -0.48154,4.06118 -1.21179,9.43434 0.0649,13.40556 2.8889,-0.0339 7.1755,0.024 6.35,3.88055 h 0.70556 c -0.81527,2.83775 0.62688,7.40693 2.11666,9.87778 l 0.70556,-0.35278 0.70555,2.46945 1.41112,1.76389 0.0586,6.35 -0.0586,12.7 c -1.74096,0.28857 -0.5581,5.2832 -0.83115,6.70278 -0.92428,4.8006 -0.46919,11.51113 0.40816,16.22777 0.50024,2.6917 2.011903,6.1595 1.834103,8.81945 h 0.35277 l 0.35278,-0.70556 1.05834,7.05556 c 5.9122,5.5245 0.39969,16.63347 2.46944,23.63611 -1.29223,1.12889 -0.70309,4.02872 -0.70556,5.64444 -0.006,3.41136 0.29704,11.04195 -1.76388,13.75834 v 0.35278 c 1.8923,2.49766 0.14569,8.28675 0.0137,11.28888 -0.3623,8.26206 -0.38241,16.4465 -0.72601,24.69445 -0.0878,2.09903 -1.10067,3.78178 -1.04634,5.99722 0.39123,16.01964 -1.402293,31.98636 -1.509893,47.99189 -0.13653,20.28825 -0.21802,41.21856 -2.62784,61.36922 -0.36231,3.02684 -0.0642,6.14186 -0.50447,9.1687 -0.44944,3.08328 -1.55364,5.84905 -1.69934,9.17575 -0.2547,5.82083 0.56092,13.25739 -2.4832,18.34444 l -0.70555,-0.35277 c -1.21144,2.42358 1.47143,5.5245 0.35277,7.76111 -0.90593,1.81327 -3.5627,1.45697 -4.58611,1.76389 -0.73483,0.21872 -1.64712,1.3723 -2.82222,1.76388 -3.84316,1.28059 -7.29474,0.8502 -10.58333,2.82223 -1.496836,0.89958 -4.603746,-0.58561 -5.997226,-0.35278 -0.60007,0.0988 -3.12349,0.24342 -3.52777,0.70555 -0.76059,0.86784 0.18132,1.72156 -1.05834,1.41112 l -0.34748,6.35 -0.005,12.34722 -3.88056,0.35278 c -3.54058,-7.2501 -4.88968,8.91123 -5.18457,10.52664 -5.26405,67.02303 -10.59066,104.55862 4.41436,104.55862 H 28.928026 183.76094 V 633.1536 l -1.05833,0.35278 v -0.70556 l -1.05834,0.35278 c -1.8168,-2.11314 -9.21104,-2.46944 -11.99445,-2.82222 l -1.05834,-20.81389 h -0.35277 l -0.35278,0.70556 -0.70556,-3.88056 -1.41111,0.70556 h -3.175 -4.93889 -1.05833 -0.35278 l -4.93889,-1.63689 -13.40554,-2.59645 c -5.24228,-15.75505 -4.83659,-33.33044 -6.40997,-49.74167 -0.82903,-8.66069 -3.63009,-19.16641 -0.99837,-27.51666 l -1.41111,0.70555 c -0.0106,-4.13455 -1.09361,-8.22325 -1.37936,-12.34722 -0.62441,-8.9288 -0.77964,-17.89642 -1.55222,-26.81111 -0.43392,-5.02708 -2.4765,-11.28536 -1.30175,-16.22778 -1.09008,0 -0.83608,-2.81517 -0.99836,-3.88055 -0.54328,-3.556 -1.05128,-7.64823 -1.23472,-11.17248 -0.06,-1.12536 1.31939,-1.98261 2.23308,-1.8803 0,-1.38642 3.18558,-0.91017 4.17336,-1.88031 1.55575,-1.52753 2.46945,-4.84011 2.52942,-6.93914 0.11994,-4.08516 -1.016,-8.61836 -1.41111,-12.7 -1.09009,-11.22539 -2.1202,-22.78239 -2.52942,-33.98308 -0.11289,-3.13972 -0.33867,-6.60753 -0.64558,-9.76136 -0.19756,-2.02495 -0.92075,-4.44853 0,-6.35 -1.06539,0 -0.57503,-0.58914 0,-1.05834 0.19402,-2.25072 1.60514,-5.10116 3.175,-6.70277 -0.21873,-3.45017 1.20297,-6.97442 1.04422,-10.58334 -0.80081,-18.26683 -2.93511,-36.52696 -4.50145,-54.68055 -0.55738,-6.46748 -1.16769,-13.10076 -1.98613,-19.55236 -0.45862,-3.63326 -1.52753,-7.90716 -0.55387,-11.49209 -1.00894,0 -0.95602,-6.65974 -1.1183,-8.05497 -0.94192,-8.23137 -3.57364,-17.92217 -2.0567,-26.16447 l -1.05833,-2.82222 1.05833,-0.35278 c -2.26483,-4.49792 -1.83444,-10.57804 -2.21544,-15.53598 -0.49389,-6.41985 -1.94028,-12.93742 -2.01789,-19.38903 -0.0459,-3.68547 -2.19781,-9.85872 2.82222,-10.58333 0.77259,1.09114 1.73214,1.12571 2.46945,0 h -2.46945 l 2.46945,-2.11667 0.70555,1.76389 1.76389,-0.35278 v -0.35277 l -1.05833,-0.35278 v -1.05833 l 12.7,-3.88056 c 1.62278,-1.75225 4.51555,-2.06304 6.70278,-2.87761 5.58446,-2.08103 11.23243,-5.08282 17.24024,-5.28038 3.11855,-0.10265 5.80319,-0.95885 8.8653,-1.31797 1.24178,-0.1457 3.11503,0.34007 3.88057,-0.7546 5.66914,0.38912 12.73175,-1.45944 18.34444,-2.37807 6.20184,-1.01459 12.65767,-1.11055 18.90184,-1.96321 2.97744,-0.4071 10.44575,-0.52246 12.49539,-2.71427 3.41136,0.65299 5.55272,-2.50472 8.46666,-3.52778 0.65617,-2.44369 3.85234,-5.36187 5.41161,-7.4683 4.13456,-5.58412 9.92011,-13.68179 10.81617,-20.75392 l 1.41111,-0.70556 c -0.0706,-3.27624 1.28411,-6.71689 2.02142,-9.87778 0.28575,-1.23048 0.39158,-3.13337 1.29469,-4.08058 4.49439,-4.71311 15.12711,-3.06387 21.02556,-3.34186 2.39536,-0.11289 4.64961,-1.16099 7.05555,-0.69144 l 2.82199,-1.17581 8.46666,-1.29364 c 0,-1.32362 7.37659,-2.68287 8.81945,-2.46944 3.64066,-2.99438 10.41047,-3.64773 14.81666,-5.32413 1.95087,-0.74224 4.17336,-1.26612 5.29167,-3.14254 l 1.41111,0.35278 c 0,-2.10785 3.84881,-2.96651 5.29167,-4.11586 1.2453,-0.99166 2.24719,-3.24661 2.82222,-4.703591 l 0.70555,0.35278 h 0.35278 v -0.35278 l -0.70555,-0.35277 1.05833,-1.76389 1.41111,-1.76389 c -2.68464,-2.23802 -5.93372,-5.04649 -9.55675,-5.56542 -3.70417,-0.53058 -7.32719,1.03575 -10.90436,-0.079 -1.37583,1.57656 -4.72369,2.7185 -6.70278,1.76388 l -1.76388,-0.35277 v -0.35278 l 1.41111,-1.41111 -3.175,-2.70475 -6.35,0.58808 -6.35,-0.2353 -10.23056,2.52836 -6.70278,1.23472 c -2.09903,2.44122 -6.36411,3.35915 -9.17222,4.94559 -3.60892,2.038 -5.67267,5.680071 -10.23056,6.211711 -1.92969,0.22472 -3.0233,-1.65947 -4.93536,-1.50742 -2.72697,0.21696 -5.46452,2.032 -8.11741,1.63901 -2.19075,1.73355 -5.49981,1.90359 -8.11389,2.73226 -5.22111,1.657 -11.44059,3.0928 -16.93334,3.25226 -5.08,0.14711 -10.1988,-0.77258 -15.25764,-0.58385 -8.001,0.29775 -16.35477,1.55999 -24.25347,2.81058 -2.97392,0.47096 -5.34459,2.08563 -8.46667,2.01401 -3.46781,-0.0794 -6.54403,-1.60655 -9.87778,-2.04505 -8.49136,-1.1176 -17.36724,-1.49296 -25.75277,-3.42759 -8.71008,-2.00907 -17.46956,-4.9844 -26.10556,-7.262991 -8.113894,-2.13995 -17.120304,-2.35479 -25.400005,-2.42746 -2.08844,-0.0184 -8.87589,0.55774 -10.32228,-0.91934 -1.36842,-1.39877 -0.33161,-4.47181 -0.29986,-6.19196 0.0882,-4.87856 -1.3723,-9.75536 -1.3723,-14.76198 0,-7.0485 -0.54575,-14.14498 -1.02694,-21.166671 -0.72319,-10.562167 -0.48119,-20.648084 -8.337899,-28.767264 -8.27723,-8.554263 -25.59121,-6.947641 -34.02154,0.461786 -3.17923,2.794 -5.05495,8.251825 -6.70807,12.0777 m -1.05833,9.172222 -0.35278,0.352778 0.35278,-0.352778 m -3.88056,21.519447 v 1.41111 h 0.35278 l -0.35278,-1.41111 m 311.855564,18.69722 0.35278,0.35278 -0.35278,-0.35278 m 0.35278,1.41111 0.35278,0.35278 -0.35278,-0.35278 m -16.22778,0.35278 1.41112,0.70556 v -0.35278 l -1.41112,-0.35278 m -2.23308,0.47025 0.23283,0.11783 -0.23283,-0.11783 m -81.49167,16.227781 0.23284,0.11783 -0.23284,-0.11783 m -1.29469,0.2353 0.35278,0.35278 -0.35278,-0.35278 m -463.66743,13.17025 0.2349,0.11783 -0.2349,-0.11783 m 518.70076,1.9992 0.35278,0.35277 -0.35278,-0.35277 m -1.41111,0.35277 0.35278,0.35278 -0.35278,-0.35278 m -29.98611,19.75556 0.35278,0.35278 -0.35278,-0.35278 m -416.98334,2.46944 0.35278,0.35278 -0.35278,-0.35278 m 415.57223,0.35278 0.35278,0.35278 -0.35278,-0.35278 m -5.99722,14.11111 0.35277,0.35278 -0.35277,-0.35278 m -87.13613,25.04723 0.35278,0.35277 -0.35278,-0.35277 m -26.45832,11.28888 v 0.35278 h 1.05833 l -1.05833,-0.35278 m -165.100011,5.64445 v 0.70555 l 0.70555,-0.70555 h -0.70555 m 0.70555,9.17222 v 3.175 h 0.35278 l -0.35278,-3.175 m 0.11748,6.93809 0.11782,0.23495 -0.11782,-0.23495 m 158.279761,2.23414 v 3.52778 h 0.35278 l -0.35278,-3.52778 m -158.397241,7.05555 v 3.52778 h 0.35278 l -0.35278,-3.52778 m 158.397241,0.70556 -0.35278,1.41111 0.35278,-1.41111 m -160.513901,45.86111 v 1.76389 h 0.35277 l -0.35277,-1.76389 m -0.58809,2.35197 0.11783,0.23495 -0.11783,-0.23495 m 164.629771,0.47025 0.35277,0.35278 -0.35277,-0.35278 m -164.394461,1.05834 0.35278,0.35277 -0.35278,-0.35277 m -0.35278,1.05833 0.35278,0.35278 -0.35278,-0.35278 m 165.100011,3.52778 0.35278,0.35277 -0.35278,-0.35277 m -164.747231,2.11666 0.35278,0.35278 -0.35278,-0.35278 m 10.58333,18.69723 -0.35278,0.35277 0.35278,-0.35277 m 159.571991,38.3353 0.11994,0.23495 -0.11994,-0.23495 m -158.043401,4.23439 0.11782,0.23283 -0.11782,-0.23283 m 158.279761,31.51364 0.35278,0.35278 -0.35278,-0.35278 m -3.05858,113.83081 0.11994,0.23283 -0.11994,-0.23283 m 0.35277,4.58611 0.11995,0.23283 -0.11995,-0.23283 m 2.35303,30.4553 v 1.05834 h 0.35278 l -0.35278,-1.05834 m 3.175,16.22778 v 3.52778 h 0.35278 l -0.35278,-3.52778 m -0.35278,16.93334 0.35278,0.35277 -0.35278,-0.35277 m 0.70556,10.93611 0.35278,0.35277 -0.35278,-0.35277 m -168.627791,17.63889 v 1.41111 h 0.35277 l -0.35277,-1.41111 m -26.458336,21.51944 0.35278,0.35278 -0.35278,-0.35278"
       style="fill:#010101;stroke:none;stroke-width:0.352778"
       sodipodi:nodetypes="cccssccccccccccccccccccccccccccccccccccccccccccccccccccccccccccccccccccccccccccccccsccccccccccccccccccccccccccccccccccccccccccccccccccccccccccccccccccsccccccccccsccccsccccccccccsccccccccccccccccccccccsccsccccccccccccccccccccccccccccccccccccccccccccccccccccccccccccccccccccccccccccccccccccccccccccccccccccccccccccccccccccccccccccccccccccccccccccc" />
  </g>
</svg>
