<?xml version="1.0" encoding="UTF-8" standalone="no"?>
<svg
   xmlns:dc="http://purl.org/dc/elements/1.1/"
   xmlns:cc="http://creativecommons.org/ns#"
   xmlns:rdf="http://www.w3.org/1999/02/22-rdf-syntax-ns#"
   xmlns:svg="http://www.w3.org/2000/svg"
   xmlns="http://www.w3.org/2000/svg"
   xmlns:sodipodi="http://sodipodi.sourceforge.net/DTD/sodipodi-0.dtd"
   xmlns:inkscape="http://www.inkscape.org/namespaces/inkscape"
   inkscape:version="1.0 (4035a4fb49, 2020-05-01)"
   height="259.99329"
   width="270.93201"
   sodipodi:docname="godzilla.svg"
   xml:space="preserve"
   viewBox="0 0 270.93201 259.99329"
   y="0px"
   x="0px"
   id="Calque_1"
   version="1.1"><metadata
   id="metadata154"><rdf:RDF><cc:Work
       rdf:about=""><dc:format>image/svg+xml</dc:format><dc:type
         rdf:resource="http://purl.org/dc/dcmitype/StillImage" /></cc:Work></rdf:RDF></metadata><defs
   id="defs152" /><sodipodi:namedview
   inkscape:current-layer="g147"
   inkscape:window-maximized="0"
   inkscape:window-y="20"
   inkscape:window-x="35"
   inkscape:cy="73.438116"
   inkscape:cx="149.80453"
   inkscape:zoom="1.2453704"
   showgrid="false"
   id="namedview150"
   inkscape:window-height="663"
   inkscape:window-width="1256"
   inkscape:pageshadow="2"
   inkscape:pageopacity="0"
   guidetolerance="10"
   gridtolerance="10"
   objecttolerance="10"
   borderopacity="1"
   bordercolor="#666666"
   pagecolor="#ffffff" />
<style
   id="style83"
   type="text/css">
	.st0{fill:#8CC63F;}
	.st1{fill:#F7931E;}
	.st2{fill:#39B54A;}
	.st3{fill:#61C46E;}
	.st4{fill:#0071BC;}
	.st5{fill:#CCCCCC;}
	.st6{fill:#999999;}
	.st7{fill:#FFFFFF;}
	.st8{fill:#666666;}
	.st9{fill:#BDCCD4;}
	.st10{fill:none;}
	.st11{fill:#29ABE2;}
	.st12{fill:#005D9C;}
	.st13{fill:#A38161;}
	.st14{fill:#D1B08A;}
	.st15{fill:#FBB03B;}
	.st16{fill:#ED1C24;}
	.st17{fill:#D44A50;}
	.st18{fill:#FF3333;}
	.st19{fill:#F15A24;}
	.st20{fill:#FBB80D;}
	.st21{fill:#FBC53B;}
	.st22{fill:#42210B;}
	.st23{fill:#E6E6E6;}
	.st24{fill:#D6D0D0;}
	.st25{fill:#C1E8E8;}
	.st26{fill:#1A1A1A;}
	.st27{fill:#99FFFF;}
	.st28{fill:#FCEE21;}
	.st29{fill:#00A99D;}
	.st30{fill:#22B573;}
	.st31{fill:#DBC0A2;}
	.st32{fill:#B5926B;}
	.st33{fill:#A67C52;}
	.st34{fill:#754C24;}
	.st35{fill:#FFADAD;}
	.st36{fill:#C7B299;}
	.st37{fill:#998675;}
	.st38{fill:#534741;}
	.st39{fill:#FF8C8C;}
	.st40{fill:#EBFCFC;}
	.st41{fill:#D4145A;}
	.st42{fill:#FF00FF;}
	.st43{fill:#FFCCCC;}
	.st44{fill:#FBDECE;}
	.st45{fill:#FF9EC2;}
	.st46{fill:#FF7BAC;}
	.st47{fill:#9E005D;}
	.st48{fill:#FFC600;}
	.st49{fill:#B1337D;}
	.st50{fill:#ED1E79;}
	.st51{fill:#662D91;}
	.st52{fill:#BA9BC9;}
	.st53{fill:#FFD133;}
	.st54{fill:#F79C7C;}
	.st55{fill:#FFDD66;}
	.st56{fill:#F2F2F2;}
	.st57{fill:#C1272D;}
	.st58{fill:#E8FDFF;}
	.st59{fill:#64AB05;}
	.st60{fill:#CCFFFF;}
	.st61{fill:#A9DDF3;}
	.st62{fill:#FFFF00;}
	.st63{fill:#B3B3B3;}
	.st64{fill:#009245;}
	.st65{fill:#FBD3A8;}
	.st66{fill:#FFD6E5;}
	.st67{fill:#FF2B7A;}
	.st68{fill:#785E42;}
	.st69{fill:#D99443;}
	.st70{fill:#66CBC4;}
	.st71{fill:#4D4D4D;}
	.st72{fill:#6B3310;}
	.st73{fill:#FEEFD8;}
	.st74{fill:#D10008;}
	.st75{fill:#FABE78;}
	.st76{fill:#E6ECF0;}
	.st77{fill:#D9E021;}
	.st78{fill:#FDD089;}
	.st79{fill:#FBB400;}
	.st80{fill:#FDDFB1;}
	.st81{fill:#FCC062;}
	.st82{fill:#DAE2E7;}
	.st83{fill:#DEE6EA;}
	.st84{fill:#F9A94B;}
	.st85{fill:#8C6239;}
	.st86{fill:#FF5258;}
	.st87{fill:#FBCB2D;}
	.st88{fill:#F3E3FF;}
	.st89{fill:#00877E;}
	.st90{fill:#CFEDD3;}
	.st91{fill:#ED9396;}
	.st92{fill:#ED454B;}
	.st93{fill:#F56E00;}
	.st94{fill:#CC5C00;}
	.st95{fill:#FFAA00;}
	.st96{fill:#D17100;}
	.st97{fill:#A10006;}
	.st98{fill:#7D0005;}
	.st99{fill:#333333;}
	.st100{fill:#CA5300;}
	.st101{fill:#C96D00;}
	.st102{fill:#006837;}
	.st103{fill:#CDAE78;}
	.st104{fill:#C96F06;}
	.st105{fill:#E0640D;}
	.st106{fill:#FFD26A;}
	.st107{fill:#7B9600;}
	.st108{fill:#CEDEDE;}
	.st109{fill:#5C3303;}
</style>
<g
   transform="translate(-66.371711,-78.27026)"
   id="g147">
	<g
   transform="translate(-52.996289,-8.0297398)"
   id="g133">
		<path
   id="path85"
   d="m 383.9,241.8 c 0,0 0,0 0,0 1.8,-3 3.8,-6.3 6.4,-8.6 -1.6,-1.5 -3.2,-3.2 -3.7,-5.3 -0.5,-2.1 0.4,-4.7 2.4,-5.6 -2.5,-0.9 -4.9,-2.2 -6.3,-4.4 -1.4,-2.2 -1.5,-5.4 0.5,-7.2 -2.7,0.3 -5.6,0.3 -8.2,-0.7 -2.6,-1 -4.8,-3.1 -5.4,-5.8 -2,2 -4.6,3.4 -7.4,3.3 -2.8,-0.1 -5.6,-1.9 -6.2,-4.6 -0.7,1.5 -0.7,2.3 -1.8,3.6 -1,1.5 -2.8,2.4 -4.6,2.3 -1.8,-0.1 -3.5,-1.3 -4.2,-2.9 -2.8,5.1 -9.7,7.4 -15.1,5.1 -0.2,3.6 -2.1,7 -5.1,9 -1.3,0.9 -2.8,1.5 -4.3,1.4 -1.5,-0.1 -3.5,-0.1 -4.1,-1.5 2.2,5.4 -3.1,11.5 -8.8,12 1,2.6 1.4,5.5 0.4,8.1 -1,2.6 -3.9,4.5 -6.6,3.8 1.4,2.9 0.6,6.8 -1.9,8.9 -2.5,2.1 -6.4,2.2 -9.1,0.3 -0.1,2.9 -2.6,5.5 -5.4,5.9 -2.9,0.5 -5.9,-1.1 -7.3,-3.6 -1.4,-2.5 -1.2,-5.8 0.3,-8.3 -1.5,1.5 -4.2,1.4 -5.9,0 -1.6,-1.4 -2.3,-3.7 -2,-5.8 0.2,-1.8 1,-3.5 2.2,-4.8 -2.5,1.9 -6.9,0.3 -8.5,-2.4 -1.5,-2.7 -1.3,-6 -0.9,-9.1 -3.3,1.6 -7.6,1 -10.4,-1.4 -1.9,-1.7 -3,-4.2 -3.1,-6.8 7.6,0.9 15.9,3.7 22.4,7.4 0.2,0.5 0.4,0.9 0.5,1.4 0.5,1.5 2.5,1.4 2.7,-0.2 0.2,-1.4 0,-2.8 -0.4,-4.2 1.6,-5.4 4.6,-10.4 8.7,-14.4 4.5,-4.4 12.4,-8.1 19.1,-9.5 0.5,0.2 1,0.5 1.5,0.7 1,0.6 2.4,-0.2 2.1,-1.4 -0.3,-1.6 -0.9,-2.4 -1.9,-2.9 -0.4,-2.9 -0.5,-5.8 -0.1,-8.6 0.6,-3.9 2.2,-7.8 4.9,-10.6 4.2,-4.3 12.1,-5.7 18.7,-6 0.8,0.4 1.5,0.7 2.3,1.1 1,0.5 2.4,-0.1 2.1,-1.4 -0.3,-1.3 -1,-2.1 -2,-2.7 -1.2,-7.1 -0.6,-14.4 1.8,-21.2 2.5,-6.8 5.2,-17.6 13.5,-26.9 1.2,-0.1 2.2,-0.4 3.4,-1.6 0.8,-0.8 0.5,-2.4 -0.8,-2.4 -9,0 -18,-1.2 -27,-0.8 -13.1,0.6 -25.8,3.6 -37.8,9.1 -6.8,3.2 -13.3,7.2 -19.3,11.8 -3.1,2.4 -6.1,5.1 -8.7,8.1 -1,1.2 -1.7,2.2 -2.2,3 -0.5,-1.5 -0.9,-3.1 -1,-4.6 -0.1,-1.3 0,-2.6 0.3,-3.8 1.2,-5.7 7.8,-10.9 12.8,-14 -5,-4.7 -17.4,-16.5 -8.3,-35.7 -11.1,7.3 -19,11.5 -26.5,16.9 -6.2,4.5 -11.6,10.1 -15.9,16.4 -0.6,0.9 -1.2,1.9 -1.8,2.9 -3.5,0.1 -7.2,0.2 -10.3,-1.5 -3.1,-1.6 -5.3,-5.6 -3.8,-8.8 -2.6,1.9 -6.2,2.3 -9.2,1.2 -3,-1.1 -5.4,-3.9 -6.1,-7 -1.8,3.1 -7.6,5.3 -12.9,3.3 0.4,-6.4 3.1,-18.5 3.1,-18.5 0.6,-4 -2.4,-1.5 -2.4,-1.5 0,0 -6.3,8.6 -9.1,14 -0.4,-0.3 -0.7,-0.6 -1.1,-0.9 -5.5,7 -10.7,4.7 -14.8,1.2 0.4,2.2 0.4,4.2 0.3,6 -1.2,-0.2 -2.7,-0.2 -4.1,-0.2 -2.8,-5.2 -5.9,-15.3 -5.9,-15.3 -1.5,-3.3 -2.6,0 -2.6,0 0,0 -0.6,10.1 0,15.5 0.1,1.4 0.4,2.4 0.8,3.2 1.1,2.4 2.7,2.5 2.7,2.5 0.7,0.4 1.6,0.3 2.6,-0.1 -1,0.4 -1.9,0.6 -2.6,0.1 0,0 -1.7,-0.1 -2.7,-2.5 0,0 0,0 0,0.1 -0.5,0.8 -0.8,1.7 -0.9,2.8 0,0 0,0.1 0,0.1 0,0.1 0,0.2 0,0.3 0,2.2 0.2,6.1 3,6.3 -1.4,4.2 0.7,11.4 2.6,15.4 -4.1,4.3 -10.5,5.2 -15.7,8.1 -1.4,0.8 -2.8,1.8 -3.6,3.2 -0.8,1.5 -0.9,3.4 -0.8,5.1 0.6,7 7.8,15.9 16.1,18.5 0,0 12.5,1 9.2,5.7 -1.3,-0.1 -1.9,3.9 -0.2,4.7 1.7,0.8 6.4,1.9 10.9,0.5 0.3,-0.1 0.7,-0.2 1,-0.4 3.6,-0.8 12.2,-3.8 20.9,-13.8 0.3,-0.5 2,-2.8 3.7,-5 1.6,-2.1 3.2,-4.1 3.7,-4.4 1,-0.7 2.3,-0.9 3.3,-0.3 0.9,0.5 1.4,1.6 1.6,2.7 0.8,3 0.6,6.3 -0.5,9.2 -1.4,3.8 -4.2,6.9 -6.6,10.2 -2.4,3.3 -4.4,7.2 -3.8,11.3 -3.4,2.4 -6.5,5.5 -9,9 -8.5,3.9 -19.8,8.8 -27,10.2 -12.6,2.6 -6.1,13.3 -2.9,14.8 3.1,1.5 5.3,-2.1 4.3,-3.3 -1,-1.3 -0.4,-6 0.4,-5.6 0.8,0.4 1.4,3.4 2.3,2.5 1,-0.9 1,-3.3 2.2,-3.4 0.9,-0.1 9.5,-0.9 14.8,-1.4 -0.2,1.2 -0.3,2.4 -0.2,3.6 0,3.1 0.8,6.5 3.1,8.6 -1.8,3.5 -3.3,7.9 -4,12.2 -4.7,-0.5 -9.2,3.5 -11.1,7.1 -2.2,4.1 -2.6,8.9 -2.3,13.6 0.3,5.8 1.8,11.7 5.3,16.4 4.3,5.7 11.1,8.8 16.3,13.6 2.7,2.4 5.1,6.2 3.5,9.4 -1.8,3.5 -6.9,3.3 -10.5,2 -4.6,-1.6 -8.8,-4.3 -13.6,-4.9 -4.8,-0.6 -10.6,1.9 -11.2,6.7 -0.5,3.4 2,6.8 5.2,7.9 3.2,1.1 6.9,0.3 9.7,-1.8 -1,3.6 -0.4,7.6 1.2,11 0.5,1 1.1,2 1.9,2.6 1,0.7 2.2,0.9 3.3,0.9 2.2,0 4.5,-1 5.6,-2.8 1.5,-2.5 0.8,-6.2 3,-8 -0.7,3 0.8,6 3.3,7.7 0.9,0.6 1.9,1 3,1 1.8,0 3.4,-1.1 4.3,-2.6 0.9,-1.5 1.3,-3.3 1.3,-5 0,-1 -0.1,-2 0.1,-2.9 0.7,-3.1 4.2,-4.6 7.4,-4.7 3.1,0 6.2,1 9.4,1 2.6,0 5.5,0.2 5,-9.7 4.3,3.4 8.8,6.7 12.5,10.7 1.9,2.1 3.7,4.7 3.6,7.5 -0.3,4.6 -5.3,7.4 -9.8,8 -4.5,0.6 -9.3,-0.1 -13.6,1.6 -0.9,0.4 -1.9,0.9 -2.6,1.6 -2.3,2.5 -0.8,6.9 2.2,8.6 2.9,1.7 6.6,1.4 9.9,0.7 2.9,-0.6 5.8,-1.5 8.6,-2.7 -1,1.7 -2,3.4 -2.2,5.4 -0.2,1.9 0.5,4.1 2.2,5.1 2.9,1.6 6.3,-1 8.6,-3.4 2.2,-2.3 4.4,-4.6 6.5,-6.9 0.2,1.6 -0.6,3.1 -1.1,4.6 -0.5,1.5 -0.6,3.5 0.7,4.4 1.2,0.9 3,0.4 4.1,-0.6 1.1,-1.1 1.6,-2.5 2.3,-3.9 2.7,-5.6 7.9,-9.9 13.9,-11.7 1.9,-0.6 4.4,-1.8 3.7,-3.7 -0.3,-0.7 -1,-1.1 -1.7,-1.4 -4.1,-1.6 -9.1,0.8 -13,-1.2 -2,-1 -3.3,-3 -4.5,-5 -0.2,-0.3 -0.4,-0.6 -0.6,-0.9 0.3,0.1 0.7,0.2 1,0.3 11.3,4.5 24,5.7 35.9,2.8 11.8,-2.9 22.7,-9.7 30.5,-19.2 3.5,-0.2 7,-1.2 9.9,-3.1 7.6,-4.8 12.3,-13.1 15.3,-21.5 3,-8.5 4.6,-17.4 7.7,-25.8 1.2,-3.2 2.6,-6.4 4.4,-9.3 0.8,-1.3 1.6,-2.6 2.5,-3.8 2.4,-3.2 5.3,-6.1 8.8,-8.1 3.3,-2 7.2,-3.2 11,-2.8 3.8,0.4 9.2,1.7 10.5,8.9 -4.7,3 -9.5,5.9 -14.2,8.9 -1.2,0.7 -2.4,1.5 -3.1,2.7 -0.8,1.2 -0.9,2.8 -1,4.2 -0.6,11.1 -0.2,22.2 0.2,33.2 l -0.2,0.7 c 10.6,-4 20.8,-9 30.5,-14.9 1.3,-0.8 2.7,-1.7 3.5,-3 1,-1.7 0.9,-3.8 0.7,-5.8 -0.3,-6.5 -0.9,-14.4 -2.5,-18.7 z M 249,170.3 c 0.5,-2.2 1.6,-4.6 2.9,-6.9 0.8,-1.4 1.7,-2.7 2.7,-4 2.3,4.5 6.3,10.1 6.3,15.2 -0.1,1.2 -0.3,2.5 -0.6,3.7 -0.1,0.7 -0.3,1.3 -0.5,1.9 -1.5,4.6 -4.2,8.3 -7.5,11.7 -0.3,0.3 -0.5,0.5 -0.8,0.8 -5.4,5.3 -10.8,9.8 -17,12.7 -0.2,0.1 -0.3,0.2 -0.5,0.2 -0.6,0.3 -1.2,0.5 -1.9,0.8 -2.4,0.8 -5,0.7 -7.1,-0.7 -2.7,-1.9 -3.5,-6.4 -1,-8.6 -0.6,-0.2 -1.1,-0.5 -1.7,-0.8 1.2,-0.8 2.4,-1.6 3.6,-2.4 6.8,-3.9 16.4,-6.4 24.2,-6.3 -2,-5.4 -2.5,-11.6 -1.1,-17.3 z"
   class="st0" />
		<path
   id="path87"
   d="m 157,177.5 c 1.2,-0.4 2.1,-0.8 4,-1.7 3.3,-1.6 6.2,-4.3 7.1,-7.8 0.4,-1.5 0,-3.5 -1.5,-3.8 -0.8,-0.2 -1.7,0.3 -2.4,0.8 -2.5,1.8 -4.5,4.1 -7,5.8 -3.2,2.2 -7.2,3.2 -11.1,2.9 -3.5,-0.3 -7,-1.6 -10.4,-0.7 0,0 12.5,1 9.2,5.7 1.3,0 6.5,0.6 12.1,-1.2 z" />
		<g
   id="g97">
			<g
   id="g91">
				<path
   id="path89"
   d="m 317.3,272.4 c -15.3,19.4 -36.1,33.4 -63.4,35.8 -13.5,1.1 -20.5,0.7 -24.2,0 0.3,2.7 1.7,5.3 3.1,7.7 0.3,0.1 0.7,0.2 1,0.3 11.3,4.5 24,5.7 35.9,2.8 11.8,-2.9 22.7,-9.7 30.5,-19.2 3.5,-0.2 7,-1.2 9.9,-3.1 7.6,-4.8 12.3,-13.1 15.3,-21.6 3,-8.5 4.6,-17.4 7.7,-25.8 1.2,-3.2 2.6,-6.4 4.4,-9.3 -6.4,7.5 -14.2,24.8 -20.2,32.4 z"
   class="st64" />
			</g>
			<g
   id="g95">
				<path
   id="path93"
   d="m 190.6,271.2 c -5.5,-7.9 -13.1,-22.3 -14.9,-30.7 -1.5,-6.9 -1.9,-14.2 0,-21 2.6,-9.3 9.1,-17.1 11.8,-26.3 0.9,-3 1.3,-6.1 2,-9.2 1.5,-7 4.2,-13.6 6.8,-20.3 1.6,-3.9 2.5,-6.2 1.8,-10.4 -0.4,-2.5 -1.3,-4.9 -3,-6.7 -1.8,-1.7 -4.6,-2.5 -6.8,-1.4 -2.7,1.4 -3.4,4.8 -4.1,7.7 -1.3,5.8 -3.5,11.4 -6.4,16.6 0.3,-0.5 2,-2.8 3.7,-5 1.6,-2.1 3.2,-4.1 3.7,-4.4 1,-0.7 2.3,-0.9 3.3,-0.3 0.9,0.5 1.4,1.6 1.6,2.7 0.8,3 0.6,6.3 -0.5,9.2 -1.4,3.8 -4.2,6.9 -6.6,10.2 -2.4,3.3 -4.4,7.2 -3.8,11.3 -3.4,2.4 -6.5,5.5 -9,9 -3,4.2 -5.2,8.9 -5.9,13.8 -0.2,1.2 -0.3,2.4 -0.2,3.6 0,3.1 0.8,6.5 3.1,8.6 -1.8,3.5 -3.3,7.9 -4,12.2 -0.5,3.5 -0.5,7.1 0.3,10.2 1.8,7 6.7,13.2 13.4,16 0,0 4.9,14.7 14.8,18.9 -1.5,-3.5 -1.9,-7.3 -1.5,-11.1 -0.1,-1.1 0.1,-2.1 0.4,-3.2 z"
   class="st64" />
			</g>
		</g>
		<path
   id="path99"
   d="m 348.6,113.2 c -9,0 -18,-1.2 -27,-0.8 -13.1,0.6 -25.8,3.6 -37.8,9.1 -6.8,3.2 -13.3,7.2 -19.3,11.8 -3.1,2.4 -6.1,5.1 -8.7,8.1 -1,1.2 -1.7,2.2 -2.2,3 -0.5,-1.5 -0.9,-3.1 -1,-4.6 -0.1,-1.3 0,-2.6 0.3,-3.8 1.2,-5.7 7.8,-10.9 12.8,-14 -5,-4.7 -17.4,-16.5 -8.3,-35.7 -11.1,7.3 -19,11.5 -26.5,16.9 -6.2,4.5 -11.6,10.1 -15.9,16.4 -0.6,0.9 -1.2,1.9 -1.8,2.9 0,0 0,0 0.1,0 -1.1,3.4 -0.6,7.3 1.5,10.2 2,2.9 5.5,4.8 9,5 -2.7,3.4 -4.7,7.5 -4.7,11.8 0,4.3 2.6,8.8 6.6,10.2 -2.4,3.2 -4.9,6.6 -5.3,10.6 -0.4,4 2.3,8.6 6.3,8.7 -4.7,2.1 -7.9,7.4 -7.4,12.6 0.2,2 1.5,3.8 3.2,4.9 1.2,-0.8 2.4,-1.6 3.6,-2.4 6.8,-3.9 16.4,-6.4 24.2,-6.3 -2.3,-5.5 -2.7,-11.6 -1.3,-17.4 0.5,-2.2 1.6,-4.6 2.9,-6.9 0.8,-1.4 1.7,-2.7 2.7,-4 2.3,4.5 6.3,10.1 6.3,15.2 -0.1,1.2 -0.3,2.5 -0.6,3.7 -0.1,0.7 -0.3,1.3 -0.5,1.9 -1.5,4.6 -4.2,8.3 -7.5,11.7 -0.3,0.3 -0.5,0.5 -0.8,0.8 -5.4,5.3 -10.8,9.8 -17,12.7 -0.2,0.1 -0.3,0.2 -0.5,0.2 -0.6,0.3 -1.2,0.5 -1.9,0.8 -3.4,1.3 -7,2.2 -11,2.6 -0.3,0 -0.7,0 -1,0 0,0 0,0 -0.1,0 -0.4,0 -0.7,0.1 -1,0.1 -2.6,0 -5.1,-0.3 -7.7,-0.8 -0.2,0 -0.4,0 -0.6,0.1 -0.5,-4.5 -1.4,-9 -2.7,-11 -3,-4.4 -8.4,-3.8 -10,0.5 l 1.4,16.8 c 0,0 -7.5,0.5 -16,21.8 -0.8,1.9 -1.1,3.5 -1.2,4.9 -0.6,0.3 -1.1,0.7 -1.3,1.1 -0.4,0.9 0.4,2 1.5,1.5 1.3,5.1 7.4,5.7 9.8,4.8 3.3,-1.2 2.1,-5.3 0.5,-5.4 -1.6,-0.2 -3.2,-2.8 -3.1,-3.6 0.3,-2.6 1.5,-3.2 2.2,-4.2 2.9,-4.5 7,-7 9.9,-8.4 2.4,-1.1 4.7,-1.7 6.1,-1.9 3.8,-0.4 3.7,-5.8 3.7,-5.8 0,0 -0.1,-3.3 -0.5,-7.4 0.6,0.6 1.3,0.9 2.4,1.2 3,0.8 6.1,0.9 9.3,0.7 0.3,0.1 0.6,0.1 0.9,-0.1 0.1,0 0.1,0 0.2,-0.1 0.6,0 1.3,-0.1 2.3,-0.2 0,0 0,0 0.1,0 3.6,-0.6 7.1,-1.7 10.4,-3.1 6.5,-2.6 12.3,-7.6 17.3,-12.4 6.7,7.8 14.6,16.5 18.2,26.2 0.2,0.5 0.4,0.9 0.5,1.4 0.5,1.5 2.5,1.4 2.7,-0.2 0.2,-1.4 0,-2.8 -0.4,-4.2 -1.2,-3.6 -4.1,-7.3 -5.8,-10.1 -3.6,-5.8 -7.7,-11.2 -12.2,-16.2 3.2,-3.5 6,-7.4 7.9,-11.8 12.9,3.7 25.9,8 37.9,14.2 0.5,0.2 1,0.5 1.5,0.7 1,0.6 2.4,-0.2 2.1,-1.4 -0.3,-1.6 -0.9,-2.4 -1.9,-2.9 -0.8,-0.5 -1.9,-0.8 -3.1,-1.4 -3.6,-1.6 -7.2,-3.1 -10.8,-4.7 -8,-3.4 -16,-6.6 -24.3,-9.1 1.6,-8.7 -3.8,-14.8 -7.3,-22.4 0.5,-0.5 1,-0.9 1.5,-1.4 0.3,-0.2 0.4,-0.6 0.4,-0.9 2.2,0.1 4.4,0.2 6.6,0.4 5.9,0.4 11.8,1 17.6,1.9 14.7,2.2 29.4,5.8 42.9,12.2 0.8,0.4 1.5,0.7 2.3,1.1 1,0.5 2.4,-0.1 2.1,-1.4 -0.3,-1.3 -1,-2.1 -2,-2.7 -0.9,-0.5 -1.9,-0.9 -3,-1.4 -5.1,-2.1 -10.2,-4 -15.5,-5.7 -17.5,-5.6 -35.9,-9 -54.3,-9 0,0 0,-0.1 -0.1,-0.1 0.9,-3.4 5.2,-6.3 7.7,-8.4 3,-2.6 6.1,-5.1 9.4,-7.4 8.7,-6.1 18.3,-10.7 28.7,-12.9 9.3,-2 18.9,-2.7 28.4,-3.1 3.7,-0.1 7.4,-0.2 11,-0.2 1.2,0 2.1,0.1 3,0 1.2,-0.1 2.2,-0.4 3.4,-1.6 1.2,-0.9 0.9,-2.5 -0.4,-2.5 z"
   class="st2" />
		<path
   id="path101"
   d="m 173.9,91.2 c 0.6,-4 -2.4,-1.6 -2.4,-1.6 0,0 -6.3,8.6 -9.1,14 -0.1,0.1 -0.1,0.2 -0.2,0.3 -0.8,1.7 -1.1,3 -1.2,4.1 -0.1,2.4 1.1,3.3 1.1,3.3 1,2.2 6.7,2.2 8.7,1.2 -0.1,-0.7 -0.1,-1.7 0,-2.9 0,0 0,0 0,0 0,0 0,0 0,0 0,0 0,0 0,0 0.4,-6.3 3.1,-18.4 3.1,-18.4 z" />
		<path
   id="path103"
   d="m 142.7,109.7 c -2.8,-5.2 -5.9,-15.3 -5.9,-15.3 -1.5,-3.3 -2.6,0 -2.6,0 0,0 -0.6,10.1 0,15.5 0.1,1.4 0.4,2.4 0.8,3.2 1.1,2.4 2.7,2.5 2.7,2.5 1.9,1.1 5.5,-1.7 6.5,-3.5 -0.3,-0.5 -0.9,-1.4 -1.5,-2.4 z" />
		<g
   id="g111">
			<path
   id="path105"
   d="m 146.6,104.2 c 0.4,2.2 0.4,4.2 0.3,6 0,0 0,0 0,0 0,0 -0.3,3.7 0.8,7.5 0.5,1.6 1.2,3.2 2.3,4.6 0,-1.5 0.3,-2.8 0.7,-4 1.5,-4.4 4.9,-7.3 5.1,-7.5 1.6,-1.1 3.3,-2.1 5.3,-2.4 0.1,-1.1 0.4,-2.4 1.2,-4.1 0.1,-0.1 0.1,-0.2 0.2,-0.3 -0.4,-0.3 -0.7,-0.6 -1.1,-0.9 -5.6,6.9 -10.7,4.6 -14.8,1.1 z"
   class="st64" />
			<path
   id="path107"
   d="m 390.3,233.4 c -1.6,-1.5 -3.2,-3.2 -3.7,-5.3 -0.5,-2.1 0.4,-4.7 2.4,-5.6 -2.5,-0.9 -4.9,-2.2 -6.3,-4.4 -1.4,-2.2 -1.5,-5.4 0.5,-7.2 -2.7,0.3 -5.6,0.3 -8.2,-0.7 -2.6,-1 -4.8,-3.1 -5.4,-5.8 -2,2 -4.6,3.4 -7.4,3.3 -2.8,-0.1 -5.6,-1.9 -6.2,-4.6 -0.7,1.5 -0.7,2.3 -1.8,3.6 -1,1.5 -2.8,2.4 -4.6,2.3 -1.8,-0.1 -3.5,-1.3 -4.2,-2.9 -2.8,5.1 -9.7,7.4 -15.1,5.1 -0.2,3.6 -2.1,7 -5.1,9 -1.3,0.9 -2.8,1.5 -4.3,1.4 -1.5,-0.1 -3.5,-0.1 -4.1,-1.5 2.2,5.4 -3.1,11.5 -8.8,12 1,2.6 1.4,5.5 0.4,8.1 -1,2.6 -3.9,4.5 -6.6,3.8 1.4,2.9 0.6,6.8 -1.9,8.9 -2.5,2.1 -6.4,2.2 -9.1,0.3 -0.1,2.9 -2.6,5.5 -5.4,5.9 -2.9,0.5 -5.9,-1.1 -7.3,-3.6 -1.4,-2.5 -1.2,-5.8 0.3,-8.3 -1.5,1.5 -4.2,1.4 -5.9,0 -1.6,-1.4 -2.3,-3.7 -2,-5.8 0.2,-1.8 1,-3.5 2.2,-4.8 -2.5,1.9 -6.9,0.3 -8.5,-2.4 -1.5,-2.7 -1.3,-6 -0.9,-9.1 -3.3,1.6 -7.6,1 -10.4,-1.4 -1.9,-1.7 -3,-4.2 -3.1,-6.8 -1.4,-0.2 -2.9,-0.3 -4.2,-0.3 -4.3,-0.1 -8.5,0.2 -12.7,0.9 3.4,1.2 7,2.2 10.3,3.5 10.9,4.4 19.7,13.7 23.6,24.7 1.6,4.5 2.5,9.5 5.5,13.2 4.7,5.7 13.6,6.6 20.5,3.7 6.8,-2.9 11.9,-8.8 16,-15 4.1,-6.2 7.5,-12.9 12.4,-18.5 8.5,-9.9 21.2,-16 34.2,-16.3 10.1,-0.3 21.2,3.4 26.2,12.2 0,0 3.8,9 2.4,17 1.7,-2.9 3.7,-6.3 6.3,-8.6 z"
   class="st64" />
			<path
   id="path109"
   d="m 225.1,206 c -2.7,-1.9 -3.5,-6.4 -1,-8.6 -0.6,-0.2 -1.1,-0.5 -1.7,-0.8 -1.7,-1.1 -3,-2.9 -3.2,-4.9 -0.5,-5.2 2.6,-10.5 7.4,-12.6 -4,-0.1 -6.7,-4.7 -6.3,-8.7 0.4,-4 2.9,-7.4 5.3,-10.6 -4.1,-1.4 -6.6,-5.9 -6.6,-10.2 0,-4.3 2,-8.4 4.7,-11.8 -3.6,-0.1 -7,-2 -9,-5 -2,-2.9 -2.6,-6.8 -1.5,-10.2 0,0 0,0 -0.1,0 -3.5,0.1 -7.2,0.2 -10.3,-1.5 -3.1,-1.6 -5.3,-5.6 -3.8,-8.8 -2.6,1.9 -6.2,2.3 -9.2,1.2 -3,-1.1 -5.4,-3.9 -6.1,-7 -1.8,3.1 -7.6,5.3 -12.9,3.3 0,0 0,0 0,0 0,0 0,0 0.1,0.1 0.9,0.4 1.7,0.9 2.5,1.5 0.3,0.2 0.5,0.4 0.8,0.6 0.2,0.2 0.4,0.3 0.6,0.5 0.4,0.3 0.8,0.7 1.2,1 1.1,0.9 2.2,1.7 3.5,2.1 4.4,-0.5 10,1.2 13.8,3.6 6.4,3.3 11.9,8.2 16.1,14 3.3,4.6 5.8,9.7 7.2,15.2 0.9,3.6 1.5,7.2 1.7,10.9 0.6,9.5 -0.8,19.2 -1.4,28.8 -0.1,1.1 -0.1,2.1 -0.2,3.2 -0.1,3.1 -0.1,6.4 0.4,9.5 0.2,1.5 0.6,3 1.1,4.4 0.3,0.8 0.6,1.5 1,2.3 0.2,0.3 0.4,0.6 0.5,0.9 0.2,0.3 0.4,0.6 0.6,0.9 0.3,0 0.7,0 1,0 4,-0.3 7.6,-1.2 11,-2.6 -2.5,0.8 -5.1,0.7 -7.2,-0.7 z"
   class="st64" />
		</g>
		<g
   id="g115">
			<path
   id="path113"
   d="m 158.3,122.6 c -0.9,2.5 -0.6,10.3 2.3,14.4 0.4,0.6 0.9,1.2 1.6,1.3 1.1,0.1 1.8,-1.1 2.2,-2.1 1.5,-4.7 -1.7,-11.7 -3.6,-13.7 -1.9,-2 -2.5,0.1 -2.5,0.1 z m 4.1,9.4 c 0.4,-0.1 1,0.8 1.2,1.9 0.2,1.2 0,2.2 -0.4,2.2 -0.4,0.1 -1,-0.8 -1.2,-1.9 -0.3,-1.1 -0.1,-2.1 0.4,-2.2 z" />
		</g>
		
			<ellipse
   id="ellipse117"
   ry="2.0999999"
   rx="0.80000001"
   cy="134.10001"
   cx="162.8"
   class="st7"
   transform="matrix(0.9844,-0.1759,0.1759,0.9844,-21.0477,30.7131)" />
		<g
   id="g121">
			<path
   id="path119"
   d="m 146.6,138.6 c 1.1,0.1 1.8,-1.1 2.2,-2.1 1.5,-4.7 -1.7,-11.7 -3.6,-13.7 -1.9,-2 -2.5,0.1 -2.5,0.1 -0.9,2.5 -0.6,10.3 2.3,14.4 0.4,0.6 0.9,1.2 1.6,1.3 z m 0.3,-6.7 c 0.4,-0.1 1,0.8 1.2,1.9 0.2,1.2 0,2.2 -0.4,2.2 -0.4,0.1 -1,-0.8 -1.2,-1.9 -0.2,-1.1 0,-2.1 0.4,-2.2 z" />
		</g>
		<ellipse
   id="ellipse123"
   ry="2.0999999"
   rx="0.80000001"
   cy="134"
   cx="147.3"
   class="st7"
   transform="matrix(0.9844,-0.1759,0.1759,0.9844,-21.2664,27.9929)" />
		<g
   id="g127">
			<ellipse
   id="ellipse125"
   ry="3.8"
   rx="1.8"
   cy="158.5"
   cx="125.7"
   transform="matrix(0.8465,-0.5325,0.5325,0.8465,-65.1105,91.2496)" />
		</g>
		<g
   id="g131">
			<ellipse
   id="ellipse129"
   ry="1.8"
   rx="3.8"
   cy="159"
   cx="145.7"
   transform="matrix(0.6366,-0.7712,0.7712,0.6366,-69.6984,170.1298)" />
		</g>
	</g>
	<g
   id="g145">
		<g
   id="g137">
			
		</g>
		<g
   id="g143">
			<g
   id="g141">
				
			</g>
		</g>
	</g>
</g>
</svg>
