<?xml version="1.0" encoding="UTF-8" standalone="no"?>
<svg
   xmlns:dc="http://purl.org/dc/elements/1.1/"
   xmlns:cc="http://creativecommons.org/ns#"
   xmlns:rdf="http://www.w3.org/1999/02/22-rdf-syntax-ns#"
   xmlns:svg="http://www.w3.org/2000/svg"
   xmlns="http://www.w3.org/2000/svg"
   xmlns:sodipodi="http://sodipodi.sourceforge.net/DTD/sodipodi-0.dtd"
   xmlns:inkscape="http://www.inkscape.org/namespaces/inkscape"
   sodipodi:docname="elephant.svg"
   inkscape:version="1.0 (4035a4fb49, 2020-05-01)"
   id="svg8"
   version="1.1"
   viewBox="0 0 203.13019 138.6264"
   height="138.6264mm"
   width="203.13019mm">
  <defs
     id="defs2" />
  <sodipodi:namedview
     inkscape:window-maximized="0"
     inkscape:window-y="0"
     inkscape:window-x="76"
     inkscape:window-height="728"
     inkscape:window-width="1274"
     showgrid="false"
     inkscape:document-rotation="0"
     inkscape:current-layer="layer1"
     inkscape:document-units="mm"
     inkscape:cy="516.98075"
     inkscape:cx="391.06496"
     inkscape:zoom="0.35"
     inkscape:pageshadow="2"
     inkscape:pageopacity="0.0"
     borderopacity="1.0"
     bordercolor="#666666"
     pagecolor="#ffffff"
     id="base" />
  <metadata
     id="metadata5">
    <rdf:RDF>
      <cc:Work
         rdf:about="">
        <dc:format>image/svg+xml</dc:format>
        <dc:type
           rdf:resource="http://purl.org/dc/dcmitype/StillImage" />
        <dc:title></dc:title>
      </cc:Work>
    </rdf:RDF>
  </metadata>
  <g
     transform="translate(-2.3640624,-11.382176)"
     id="layer1"
     inkscape:groupmode="layer"
     inkscape:label="Layer 1">
    <path
       id="path38"
       d="m 107.27135,149.88384 c -0.43656,-0.0516 -1.95075,-0.2253 -3.36487,-0.38595 -1.68324,-0.19122 -2.68622,-0.43076 -2.9044,-0.69367 -0.66184,-0.79746 -0.36436,-2.24803 1.04534,-5.09724 1.63659,-3.30778 2.18122,-5.26636 2.18122,-7.84403 0,-4.06643 -1.1741,-7.48083 -9.895578,-28.77725 -0.94823,-2.31541 -1.852416,-4.57759 -2.009309,-5.02708 -0.28253,-0.80943 -0.304422,-0.78049 -2.28387,3.0192 -2.390941,4.58957 -11.177716,20.89795 -12.221596,22.68345 -1.658881,2.83744 -2.867612,7.1661 -2.588217,9.26883 0.08246,0.62058 0.518033,1.9898 0.967941,3.04271 0.449911,1.05291 0.838904,2.38574 0.864431,2.96184 0.05601,1.26413 -0.31087,1.49886 -3.427811,2.19303 -2.627069,0.58506 -10.341493,0.65098 -12.463851,0.10649 -3.220852,-0.82631 -3.501207,-2.04633 -1.163325,-5.0624 2.0726,-2.67384 2.54446,-3.67201 3.06642,-6.48666 0.761444,-4.10606 2.757096,-10.57784 4.364937,-14.15521 2.725216,-6.06348 4.380915,-13.33334 6.086101,-26.72291 1.295968,-10.17631 1.551754,-18.27878 0.758023,-24.011805 l -0.302328,-2.18368 -1.610876,1.53326 c -3.574208,3.401985 -6.175309,5.080705 -7.874428,5.082065 -1.532118,0.001 -2.594332,-0.80623 -3.555288,-2.702575 -0.752377,-1.48474 -2.02614,-6.20202 -2.502779,-9.26883 -0.175281,-1.12778 -0.402957,-2.05052 -0.505952,-2.05052 -0.102994,0 -0.949862,0.4948 -1.881928,1.09955 -3.212376,2.08428 -4.780717,2.66678 -7.573405,2.81286 l -2.514041,0.1315 -0.343639,0.82232 c -0.523618,1.253 -1.421172,2.27087 -2.739932,3.1072 -1.345157,0.85308 -2.034836,0.94378 -2.687185,0.35341 -0.40546,-0.36693 -0.628044,-0.30144 -2.402083,0.70674 -1.075367,0.61112 -3.154669,1.67397 -4.620667,2.36188 l -2.66545,1.250745 -0.573629,1.94512 c -0.815668,2.76586 -1.08452,4.39088 -1.353074,8.17843 -0.608558,8.58274 1.152586,15.76018 4.845968,19.74947 3.082914,3.32992 6.724239,4.18103 9.071289,2.12029 1.160873,-1.01926 1.674722,-2.16175 1.674722,-3.72358 0,-1.52295 -0.53227,-2.13781 -2.513541,-2.90359 l -1.5875,-0.61358 0.08454,-1.20246 c 0.07827,-1.11324 0.01016,-1.26377 -0.918213,-2.02901 -0.956733,-0.78862 -0.9814,-0.84788 -0.537437,-1.2912 0.363831,-0.3633 0.91036,-0.46407 2.505715,-0.46201 1.762403,0.002 2.233755,0.10937 3.459673,0.7861 2.668452,1.47304 4.279402,4.18988 4.474183,7.54565 0.248132,4.27485 -2.23757,8.40774 -6.158049,10.23877 -1.436889,0.67109 -1.85107,0.73935 -4.365625,0.71946 -2.294991,-0.0181 -3.088323,-0.13883 -4.561827,-0.69395 -3.713681,-1.39907 -6.612072,-3.71635 -9.528952,-7.61845 -4.170701,-5.57942 -6.999645,-14.57601 -7.761396,-24.68275 -0.132157,-1.75343 -0.220892,-2.04223 -0.594807,-1.93589 -2.199677,0.62559 -11.4780766,1.06441 -13.0733286,0.61829 -0.474186,-0.13261 -0.727604,-0.38248 -0.727604,-0.71741 0,-0.61021 0.904912,-0.89365 4.233333,-1.32594 1.908172,-0.24783 8.4062036,-1.70556 8.6385686,-1.93793 0.04152,-0.0415 -2.093529,-0.0694 -4.744559,-0.062 -3.7980106,0.0106 -4.9883576,-0.0714 -5.6138016,-0.38698 -1.796136,-0.90613 -0.629618,-1.590025 3.576328,-2.096685 2.9946756,-0.36074 6.6513256,-1.20006 7.9308106,-1.82036 l 0.923809,-0.44787 0.564665,-3.30586 c 0.688684,-4.03192 1.135566,-5.75681 2.371125,-9.15219 1.721321,-4.73028 2.098055,-6.19286 2.889895,-11.2193 0.435666,-2.7655 1.223015,-4.56557 3.456903,-7.90327 0.717867,-1.07259 1.424276,-2.14415 1.569797,-2.38125 0.568838,-0.92684 3.140551,-4.67178 3.293991,-4.79672 0.08935,-0.0728 0.516601,-0.62232 0.949446,-1.22123 1.649272,-2.28204 6.00207,-7.20001 7.332556,-8.28462 4.124796,-3.36252 9.70166,-4.30645 17.26359,-2.92201 7.436841,1.36154 8.899794,1.11647 18.058326,-3.02509 4.05421,-1.83335 5.726962,-2.32341 7.874304,-2.30693 2.697014,0.0207 5.012216,1.51819 6.682935,4.32258 0.377058,0.63291 0.821013,0.81058 3.749808,1.50067 5.41508,1.27592 12.491538,2.50473 24.356498,4.22945 6.68566,0.97184 8.60015,1.12533 14.08594,1.12928 5.08831,0.004 7.04126,-0.23205 13.95988,-1.68493 4.77071,-1.00182 5.47829,-1.08431 9.39271,-1.09504 3.91868,-0.0107 4.37704,0.04 6.16671,0.68323 2.39765,0.86168 4.96263,2.37043 7.64801,4.49865 3.29266,2.60951 10.05192,9.56133 12.25123,12.60025 2.48867,3.43875 5.82596,7.92642 10.07562,13.54875 6.57046,8.69276 6.66333,8.95048 6.66962,18.50823 0.004,5.402115 -0.0869,6.807705 -0.6895,10.715625 -1.98701,12.88578 -2.02726,21.27889 -0.16493,34.39583 0.64698,4.55689 1.52425,8.05893 3.01516,12.03639 2.07373,5.53233 3.53107,10.17117 4.07689,12.97705 0.29612,1.5223 0.73416,3.33625 0.97343,4.03102 0.23926,0.69477 0.36821,1.5294 0.28655,1.85475 -0.47231,1.88183 -6.88863,3.00422 -14.45775,2.52906 -6.21264,-0.39001 -6.53244,-0.63658 -5.46474,-4.21331 1.08879,-3.64738 1.32841,-5.22372 1.34408,-8.84205 0.0178,-4.10987 -0.2964,-5.29917 -3.00147,-11.36085 -2.10914,-4.72631 -2.63345,-5.59147 -5.05144,-8.33549 -1.72809,-1.96109 -11.57547,-11.01846 -11.7654,-10.82152 -0.0481,0.0499 -0.45102,1.34094 -0.89527,2.86891 -0.44424,1.52797 -1.59444,5.2189 -2.556,8.20208 -3.11358,9.6597 -3.74757,13.6211 -3.26231,20.38395 0.36922,5.14553 0.0778,6.5385 -1.68355,8.04611 -1.87527,1.60516 -3.67116,1.9905 -9.42662,2.02262 -9.52507,0.0532 -10.72677,-1.32217 -6.30306,-7.21371 1.92663,-2.56591 3.33138,-5.44825 4.80515,-9.85947 1.65925,-4.96637 2.05164,-7.75566 2.06827,-14.70242 0.0121,-5.05188 -0.0508,-5.92201 -0.56194,-7.77462 -1.12891,-4.0916 -3.8468,-9.22548 -6.44862,-12.18096 l -0.91369,-1.03787 -8.97763,-0.19332 c -6.6767,-0.14377 -9.45231,-0.30127 -10.82971,-0.61454 -1.64307,-0.37369 -6.73309,-1.81944 -7.66592,-2.1774 -0.25589,-0.0982 -0.52052,0.57466 -0.96869,2.46295 -0.50656,2.1343 -0.60618,3.21204 -0.55809,6.03764 0.0691,4.06006 0.66606,10.35434 1.41079,14.8753 0.82981,5.0374 1.03154,8.6895 0.85308,15.44392 -0.15518,5.87346 -0.12998,6.38634 0.42663,8.68366 0.66497,2.74452 1.05341,3.69549 2.44109,5.97628 2.5456,4.18395 2.01621,5.20403 -3.08264,5.93993 -1.75104,0.25272 -5.9378,0.30981 -7.67292,0.10464 z"
       style="fill:#000000;stroke-width:0.264583" />
  </g>
</svg>
