<?xml version="1.0" encoding="UTF-8" standalone="no"?>
<svg
   xmlns:dc="http://purl.org/dc/elements/1.1/"
   xmlns:cc="http://creativecommons.org/ns#"
   xmlns:rdf="http://www.w3.org/1999/02/22-rdf-syntax-ns#"
   xmlns:svg="http://www.w3.org/2000/svg"
   xmlns="http://www.w3.org/2000/svg"
   xmlns:sodipodi="http://sodipodi.sourceforge.net/DTD/sodipodi-0.dtd"
   xmlns:inkscape="http://www.inkscape.org/namespaces/inkscape"
   sodipodi:docname="evangelion.svg"
   inkscape:version="1.0 (4035a4fb49, 2020-05-01)"
   id="svg8"
   version="1.1"
   viewBox="0 0 56.969339 150.3129"
   height="150.3129mm"
   width="56.969337mm">
  <defs
     id="defs2" />
  <sodipodi:namedview
     inkscape:window-maximized="0"
     inkscape:window-y="2"
     inkscape:window-x="38"
     inkscape:window-height="728"
     inkscape:window-width="1274"
     showgrid="false"
     inkscape:document-rotation="0"
     inkscape:current-layer="layer1"
     inkscape:document-units="mm"
     inkscape:cy="429.94262"
     inkscape:cx="54.836513"
     inkscape:zoom="0.49497475"
     inkscape:pageshadow="2"
     inkscape:pageopacity="0.0"
     borderopacity="1.0"
     bordercolor="#666666"
     pagecolor="#ffffff"
     id="base" />
  <metadata
     id="metadata5">
    <rdf:RDF>
      <cc:Work
         rdf:about="">
        <dc:format>image/svg+xml</dc:format>
        <dc:type
           rdf:resource="http://purl.org/dc/dcmitype/StillImage" />
        <dc:title />
      </cc:Work>
    </rdf:RDF>
  </metadata>
  <g
     transform="translate(-43.046471,-76.554922)"
     id="layer1"
     inkscape:groupmode="layer"
     inkscape:label="Layer 1">
    <path
       id="path58"
       d="m 62.096471,90.144176 c -2.18979,0.520382 -3.82719,1.70344 -4.89743,3.704166 -0.52166,0.975175 -0.8068,3.445543 -2.03174,3.752773 -1.02513,0.25709 -2.51481,-0.86881 -3.38958,-1.306197 -2.65559,-1.327811 -5.74077,-3.463184 -8.73125,-3.769492 l 3.43959,2.807732 8.73125,5.394362 c -1.19867,0.53075 -3.12838,0.65749 -4.07369,1.58617 -1.03827,1.01971 -0.24516,4.64397 0.27745,5.82216 0.51794,1.16761 1.53725,4.6064 2.51251,5.26812 2.25374,1.52929 5.34148,0.77232 6.44985,3.9923 0.83852,2.43628 1.68963,6.47885 0.97523,8.99583 -0.63045,2.22118 -2.10466,4.12565 -2.77546,6.35 -1.50074,4.97655 -2.50467,10.29256 -3.69294,15.34583 -1.123028,3.03382 -1.221563,4.48665 -0.885259,7.98945 0.61741,2.09524 2.330813,5.18449 4.916469,6.87406 l -1.05833,9.21358 c -1.72649,-0.86545 -5.37509,1.66634 -5.08077,3.70417 0.21537,1.49145 1.65286,3.20436 2.39533,4.49791 1.88084,3.2766 3.86707,6.45636 5.14773,10.03036 2.00734,5.60228 0.37709,11.08366 -0.081,16.69256 -1.38946,-0.66543 -2.26097,0.0587 -2.99413,1.32397 -0.77311,1.33403 -0.87095,2.95223 -1.72979,4.23122 -2.04721,3.04906 -5.06077,4.73631 -8.24045,6.27433 -1.089,0.52679 -2.45875,1.52797 -1.94662,2.95831 0.54959,1.53485 3.0739,1.08717 4.32766,1.08717 2.87904,-2.6e-4 6.03853,-0.0595 8.72082,-1.22502 1.40227,-0.60907 2.49021,-2.07963 3.97918,-2.46274 1.93622,-0.49795 4.69556,0.59319 6.19046,-1.39594 2.24234,-2.98397 -1.32266,-6.50928 -1.16338,-9.46838 h 1.05834 c 0.32782,-2.59477 -0.99272,-4.39367 -0.77365,-6.87917 0.30375,-3.45043 2.08069,-6.82255 1.7526,-10.31875 -0.52546,-5.59753 -3.13213,-10.39839 -3.16891,-16.13958 -0.0145,-2.2524 1.23137,-5.34141 2.11587,-7.40834 2.14286,-5.0075 3.943994,-9.78029 8.162764,-13.33311 0,0 0.574664,0.57467 0.521751,1.77 -0.06168,1.39346 -0.0073,2.21844 -0.266612,3.65396 0.688753,1.1876 1.043208,-1.44075 1.643522,-1.44075 0.654898,2.50543 -1.115869,4.98712 -0.340851,5.90893 0.283482,0.56696 1.348538,0.72353 1.348538,0.72353 0.44556,3.52584 0.99245,6.35282 1.2729,9.86119 0.14367,1.79837 -0.72919,3.49832 -0.10609,5.29167 0.99959,2.87628 2.95804,5.39909 4.15316,8.20208 0.87657,2.05608 1.13744,4.46829 1.85314,6.61459 1.67138,5.01359 3.70232,9.9441 3.70232,15.34583 0,2.55323 -1.19618,4.86304 -1.22793,7.40833 -0.0251,1.99999 -5.32404,3.94995 -5.32404,3.94995 -1.961233,1.87679 -3.502028,2.01165 -1.995837,4.38057 0,0 4.759041,1.45075 8.437647,0.59236 3.056232,-2.23766 6.81201,-3.78902 6.81201,-3.78902 2.41591,-0.10848 3.246477,-1.3728 2.93401,-3.28177 -0.31644,-1.93252 -1.22211,-3.46869 -1.7698,-5.29167 -1.42266,-4.7334 -2.22568,-10.17482 -1.7354,-15.08125 0.53631,-5.36681 -1.37875,-10.07189 -3.68856,-14.81667 -0.86254,-1.77244 -3.19299,-3.04112 -3.25543,-5.02708 -0.20823,-6.6249 0.10954,-13.45274 0.10954,-20.10834 0,-2.52571 -0.83133,-6.09811 -0.009,-8.46666 1.3044,-3.75735 3.52928,-7.02072 5.12842,-10.58334 0.84243,-1.87722 1.06548,-4.12035 1.69227,-6.08541 0.52229,-1.63857 1.48617,-6.15448 0.40032,-7.63244 -1.49225,-2.03094 -2.29923,1.58697 -2.44951,2.60535 h -0.26459 c -0.005,-1.7354 -0.62494,-3.32263 -0.70167,-5.02708 -0.0455,-1.01177 0.69982,-1.68381 0.80777,-2.64583 0.17648,-1.57084 -0.60272,-3.24036 -0.87789,-4.7625 -0.26008,-1.43934 -0.28098,-3.68512 -1.60946,-4.49792 0.99854,-1.38827 0.6813,-2.89983 1.09961,-4.49792 1.82801,-6.98309 -0.77735,-15.666857 -1.82139,-22.754171 -0.31115,-2.11119 -0.42095,-4.243547 -0.71358,-6.349789 -0.10134,-0.728239 -0.0907,-1.740979 -0.98505,-1.889858 -1.21655,-0.202491 -5.03555,0.106582 -5.76394,1.231654 -0.53579,0.827511 0.0526,2.650464 0.17224,3.568409 0.38735,2.973256 0.67627,6.002497 0.87154,8.996046 0.0987,1.516935 0.0341,4.699053 -1.60629,5.444146 -1.14855,0.521811 -3.01413,-0.63881 -4.21772,-0.830289 -2.13704,-0.339963 -5.23399,-0.07734 -6.71962,-2.027449 -1.74863,-2.294917 -1.55469,-7.955704 -2.03305,-10.788704 -0.1532,-0.907785 -0.16616,-3.100625 -0.93187,-3.696599 -0.91202,-0.709957 -2.79347,0.124618 -3.8092,0.243549 -1.10729,0.129645 -3.76558,-0.0067 -4.48017,0.999754 -0.47162,0.66429 0.0215,1.989138 0.13454,2.71788 0.38796,2.501424 0.44974,5.256689 1.17063,7.672917 m 6.87916,26.722924 c 0.7964,5.88619 3.43324,11.60833 1.98993,17.72311 -0.45852,1.94284 -2.6416,3.39117 -3.488,5.29167 -1.07103,2.4048 -1.52267,5.19536 -2.58365,7.67689 -1.64148,3.83804 -4.14697,6.66019 -5.09534,10.75752 -0.190518,-1.32848 -0.594596,-3.49065 -0.01812,-4.8847 0.609067,-2.07578 -0.613617,-5.52652 0.804275,-10.10616 1.306162,-4.21877 5.1241,-6.40609 6.84019,-10.31875 0.86095,-1.96321 2.89586,-6.4643 0.49239,-7.67291 l -0.52917,1.32291 h -0.26458 l 1.50363,-5.56022 0.34845,-4.22936 m 15.875,1.85208 c 5.35199,3.60019 1.60099,12.26106 1.5875,17.19792 h -0.26459 l -1.85208,-7.9375 v -0.26458 c 1.24751,-2.00951 2.13016,-6.90431 0.26458,-8.73125 l 0.26459,-0.26459 m 9.17231,10.49523 -0.0884,0.17621 0.0884,-0.17621"
       style="fill:#030303;stroke:none;stroke-width:0.264583"
       sodipodi:nodetypes="cccccccccccsccccccccccccccccccccccscsccccccccscccccccsccsccccccccccccccccccccccccccccccccscccccccccccccccc" />
  </g>
</svg>
