<?xml version="1.0" encoding="UTF-8" standalone="no"?>
<svg
   xmlns:dc="http://purl.org/dc/elements/1.1/"
   xmlns:cc="http://creativecommons.org/ns#"
   xmlns:rdf="http://www.w3.org/1999/02/22-rdf-syntax-ns#"
   xmlns:svg="http://www.w3.org/2000/svg"
   xmlns="http://www.w3.org/2000/svg"
   xmlns:sodipodi="http://sodipodi.sourceforge.net/DTD/sodipodi-0.dtd"
   xmlns:inkscape="http://www.inkscape.org/namespaces/inkscape"
   sodipodi:docname="godzilla.svg"
   inkscape:version="1.0 (4035a4fb49, 2020-05-01)"
   id="svg8"
   version="1.1"
   viewBox="0 0 136.69565 106.17844"
   height="106.17844mm"
   width="136.69565mm">
  <defs
     id="defs2">
    <clipPath
       clipPathUnits="userSpaceOnUse"
       id="clipPath26">
      <path
         d="M 0,980 H 1400 V 0 H 0 Z"
         id="path24" />
    </clipPath>
  </defs>
  <sodipodi:namedview
     inkscape:window-maximized="0"
     inkscape:window-y="0"
     inkscape:window-x="76"
     inkscape:window-height="728"
     inkscape:window-width="1274"
     showgrid="false"
     inkscape:document-rotation="0"
     inkscape:current-layer="g22"
     inkscape:document-units="mm"
     inkscape:cy="454.93789"
     inkscape:cx="246.89396"
     inkscape:zoom="0.35"
     inkscape:pageshadow="2"
     inkscape:pageopacity="0.0"
     borderopacity="1.0"
     bordercolor="#666666"
     pagecolor="#ffffff"
     id="base" />
  <metadata
     id="metadata5">
    <rdf:RDF>
      <cc:Work
         rdf:about="">
        <dc:format>image/svg+xml</dc:format>
        <dc:type
           rdf:resource="http://purl.org/dc/dcmitype/StillImage" />
        <dc:title></dc:title>
      </cc:Work>
    </rdf:RDF>
  </metadata>
  <g
     transform="translate(-40.509306,-27.797684)"
     id="layer1"
     inkscape:groupmode="layer"
     inkscape:label="Layer 1">
    <g
       id="g22"
       clip-path="url(#clipPath26)"
       transform="matrix(0.35277777,0,0,-0.35277777,-286.18905,320.64515)">
      <g
         transform="translate(1287.5497,823.17017)"
         id="g36">
        <path
           id="path38"
           style="fill:#000000;fill-opacity:1;fill-rule:nonzero;stroke:none"
           d="M 0,0 C -1.272,-0.795 -8.422,-3.946 -8.422,-3.946 L -10.81,-3.02 C -9.061,-2.385 0,0 0,0 m 12.756,-80.934 c -1.941,0.087 -3.866,-0.332 -5.764,-0.748 -7.869,-1.727 -15.738,-3.454 -23.607,-5.18 -2.672,-0.587 -5.3,-1.441 -7.972,-2.027 1.325,4.288 2.188,9.419 4.263,13.399 2.671,5.126 8.209,7.985 12.265,12.103 7.465,7.579 9.781,19.311 17.822,26.276 1.486,1.288 3.202,2.406 5.139,2.749 2.104,0.372 4.334,-0.193 6.375,0.443 3.013,0.939 4.717,4.318 4.731,7.474 0.013,2.916 -0.847,7.415 -1.985,10.362 -0.05,-1.046 -0.806,-2.833 -1.347,-2.542 -0.743,0.4 -0.748,1.457 -0.569,2.281 -0.553,-1.256 -1.106,-2.513 -1.659,-3.769 -0.559,1.249 -1.12,2.499 -1.679,3.748 -0.565,-1.155 -1.129,-2.31 -1.693,-3.465 -0.309,1.404 -0.618,2.809 -0.926,4.213 -0.574,-1.1 -1.148,-2.199 -1.722,-3.299 -0.767,1.073 -1.534,2.145 -2.3,3.218 -0.103,-1.437 -0.01,-2.887 0.275,-4.299 -4.482,1.941 -8.249,5.485 -10.46,9.84 1.161,-0.416 2.322,-0.833 3.482,-1.249 1.305,1.217 2.611,2.435 3.916,3.653 1.517,-0.013 3.034,-0.025 4.551,-0.038 -0.793,0.698 -1.238,1.774 -1.171,2.829 1.123,-0.607 2.479,-0.765 3.712,-0.434 0.069,0.882 -0.327,1.788 -1.021,2.336 1.254,-0.752 2.734,-1.122 4.194,-1.048 -0.388,1.157 -0.776,2.315 -1.164,3.472 1.005,-0.783 2.009,-1.565 3.013,-2.348 2.71,3.501 -0.673,9.089 -5.039,9.825 C 12.05,7.577 6.382,4.408 3.201,1.328 2.142,3.167 -0.341,3.769 -2.407,3.283 -4.473,2.797 -9.342,1.722 -11.022,0.424 c -6.525,-5.041 -9.931,-10.338 -16.456,-15.378 -2.354,-1.819 -5.732,-4.222 -8.591,-3.4 -0.662,-1.069 -2.189,-1.308 -3.37,-0.876 -1.18,0.432 -2.093,1.368 -2.962,2.275 -0.321,-1.511 -0.642,-3.022 -0.962,-4.532 -2.947,0.422 -5.752,1.776 -7.916,3.82 -2.094,-1.281 0.037,-5.989 -2.388,-6.369 -0.586,-0.091 -1.154,0.207 -1.667,0.502 -2.673,1.535 -5.244,3.246 -7.691,5.118 0.211,-2.892 0.422,-5.784 0.633,-8.676 -1.665,-0.12 -3.362,0.232 -4.842,1.004 0.912,-1.179 1.016,-3.284 0.751,-4.751 -2.312,0.63 -4.492,1.741 -6.36,3.242 -0.852,0.685 -1.699,1.48 -2.775,1.675 -1.075,0.195 -2.722,2.844 -2.594,1.759 0.075,-0.637 0.616,-5.105 -0.018,-5.009 -2.62,1.533 -5.24,3.066 -7.86,4.599 1.845,-5.495 3.69,-10.989 5.535,-16.484 -4.616,2.581 -8.914,5.727 -12.77,9.347 0.316,-1.178 0.632,-2.355 0.948,-3.532 -4.758,0.642 -9.312,2.732 -12.901,5.922 -0.461,0.41 -0.983,0.866 -1.598,0.823 -0.483,-0.034 -1.955,0.973 -2.318,1.264 2.506,-7.315 7.405,-17.7 11.557,-24.203 -5.373,2.117 -10.544,4.746 -15.42,7.841 -0.119,-2.174 -0.237,-4.348 -0.356,-6.522 -5.58,3.409 -11.438,6.364 -17.497,8.824 0.671,-2.269 1.342,-4.537 2.014,-6.806 -2.163,0.197 -4.147,4.643 -5.909,3.374 1.908,-5.032 5.29,-7.472 6.125,-10.325 -0.844,0.095 -1.688,0.19 -2.532,0.285 1.353,-3.47 2.706,-6.941 4.059,-10.411 -1.138,0.354 -2.392,0.319 -3.508,-0.097 3.367,-4.059 6.096,-8.646 8.058,-13.541 -4.115,2.301 -8.23,4.601 -12.345,6.902 -0.749,0.419 -1.601,0.851 -2.427,0.618 -0.753,-0.214 -1.277,-0.936 -2.028,-1.157 -0.973,-0.287 -1.956,0.342 -2.776,0.939 -4.462,3.246 -8.923,6.492 -13.385,9.738 -0.363,-1.535 -0.252,-3.179 0.313,-4.651 -1.764,0.564 -3.529,1.129 -5.294,1.694 3.944,-7.267 8.676,-14.106 14.085,-20.359 -1.511,0.404 -3.022,0.809 -4.533,1.213 3.12,-5.268 6.239,-10.537 9.359,-15.805 -4.771,3.255 -9.542,6.511 -14.313,9.767 -0.543,-0.788 -0.8,-1.769 -0.713,-2.722 -5.074,4.798 -10.97,8.725 -17.353,11.558 4.154,-6.682 8.119,-13.481 11.892,-20.385 -2.993,2.949 -6.354,5.524 -9.981,7.646 0.672,-5.42 2.665,-11.733 6.096,-15.983 3.37,-4.172 6.467,-8.564 9.265,-13.139 -7.008,-0.77 -12.336,5.636 -19.298,4.531 3.117,-1.539 5.13,-5.071 4.866,-8.537 -0.972,0.463 -2.141,0.49 -3.134,0.074 1.614,-2.207 3.227,-4.414 4.84,-6.621 -3.02,-1.055 -6.241,-1.531 -9.437,-1.397 1.524,-1.205 0.658,-3.909 -1.089,-4.76 -1.747,-0.85 -3.821,-0.423 -5.698,0.079 -1.877,0.503 -3.881,1.064 -5.721,0.439 0.853,-1.843 1.705,-3.686 2.558,-5.529 -1.76,0.297 -2.385,-0.159 -5.246,1.12 1.272,-3.346 7.556,-7.08 7.818,-11.281 -2.001,-0.278 -4.057,-0.151 -6.009,0.369 0.841,-3.944 2.066,-7.806 3.653,-11.514 -2.789,-2.032 -6.495,-2.75 -9.841,-1.906 1.923,-3.623 3.495,-7.433 4.685,-11.359 -1.821,0.76 -12.221,5.803 -12.706,3.89 -0.25,-0.989 4.282,-7.122 5.523,-8.656 -4.673,-0.12 -9.346,-0.24 -14.02,-0.361 2.818,-3.379 4.71,-7.522 5.419,-11.864 l -0.304,-0.05 h -0.636 c -2.236,0.549 -4.35,1.589 -6.129,3.051 0.444,-1.595 1.182,-3.107 2.166,-4.439 -4.758,1.674 -9.699,2.831 -14.706,3.442 2.131,-5.503 3.99,-11.11 5.569,-16.796 -4.205,0.802 -8.411,1.603 -12.617,2.405 0.984,-3.294 1.968,-6.587 2.953,-9.881 -3.209,1.03 -6.418,2.06 -9.627,3.09 0.177,-3.533 0.042,-7.081 -0.403,-10.59 -0.088,-0.691 -0.233,-1.458 -0.799,-1.865 -0.595,-0.427 -1.41,-0.284 -2.125,-0.123 -2.781,0.628 -5.562,1.257 -8.343,1.885 1.185,-1.912 2.161,-3.07 1.734,-5.279 -2.317,-0.721 -4.941,-0.386 -7.003,0.895 -1.45,-1.442 1.312,-4.712 -0.495,-5.669 -0.566,-0.3 -1.256,-0.084 -1.857,0.136 -2.941,1.075 -5.882,2.15 -8.823,3.225 0.648,-2.821 0.922,-5.727 0.812,-8.619 -5.891,2.376 -11.288,6.528 -16.006,10.779 1.695,-3.109 3.02,-6.42 3.938,-9.84 -1.353,1.152 -2.706,2.303 -4.059,3.455 -0.702,-1.326 -1.405,-2.652 -2.108,-3.978 -4.922,2.016 -9.845,4.031 -14.767,6.047 -0.548,-1.332 -0.053,-2.835 0.001,-4.274 0.054,-1.439 -10.051,4.967 -12.863,8.461 -0.745,-1.882 1.883,-8.232 0.046,-7.379 -1.836,0.853 -8.306,8.466 -9.437,10.145 -0.702,-0.678 -1.099,-1.66 -1.066,-2.635 -2.635,2.928 -5.082,6.026 -7.32,9.267 -0.398,-1.101 -0.797,-2.202 -1.195,-3.303 -1.402,5.104 -2.805,10.208 -4.208,15.311 -0.765,-0.87 -1.531,-1.741 -2.297,-2.612 1.699,7.357 5.17,14.298 10.038,20.07 -1.74,0.551 -3.766,0.07 -5.071,-1.206 6.056,5.367 12.94,9.798 20.333,13.087 -1.39,0.331 -2.78,0.663 -4.169,0.995 10.072,5.257 23.54,8.382 34.87,7.541 1.571,0.009 3.142,0.017 4.712,0.025 -11.499,8.898 -27.886,9.073 -41.608,4.266 -11.984,-4.197 -22.815,-11.969 -29.989,-22.446 -7.174,-10.477 -10.515,-23.677 -8.424,-36.201 2.742,-16.414 14.607,-30.468 29.34,-38.205 14.733,-7.738 31.999,-11.076 48.476,-8.743 11.489,1.627 23.185,3.315 33.65,8.328 21.178,10.145 28.975,19.21 26.794,6.184 -0.97,-5.796 -8.672,-31.265 -13.097,-35.132 8.357,1.753 23.435,-0.753 39.425,-0.627 26.999,0.212 56.576,1.862 60.625,0 -1.702,3.975 -6.505,6.79 -12.576,8.971 -3.19,1.146 -6.531,4.402 -10.155,5.273 -4.829,1.162 -10.008,-0.137 -14.508,0.854 -4.768,1.05 -8.997,2.106 -11.941,3.382 3.92,2.662 12.987,14.437 17.13,16.737 5.16,2.866 10.475,5.441 15.787,8.014 8.052,3.901 35.757,29.51 14.138,70.206 11.445,-19.5 15.261,-40.272 5.087,-54.685 1.755,0.25 29.709,9.976 31.369,10.598 2.483,0.93 6.952,1.455 9.448,2.345 3.931,1.403 9.697,-1.157 11.002,-5.122 2.075,-6.307 -5.411,-22.022 -4.52,-28.602 1.214,-8.976 -1.052,-18.379 -6.223,-25.816 -0.82,-1.179 -1.72,-2.331 -2.208,-3.681 -0.615,-1.703 -0.505,-3.655 0.297,-5.277 7.197,2.719 10.253,1.97 16.109,2.145 7.821,0.234 15.495,0.19 23.316,0.424 3.594,0.108 7.007,0.655 10.597,0.848 5.633,0.302 13.139,-0.871 18.632,0.41 3.32,0.775 6.172,-0.165 9.559,0.226 4.68,0.54 9.922,3.033 14.201,1.06 -4.184,7.19 -13.091,9.837 -21.157,11.876 -6.992,1.767 -15.734,6.936 -22.824,5.616 -1.803,-0.336 -3.805,-0.837 -5.363,0.132 -2.317,1.441 -1.929,4.871 -1.253,7.515 0.853,3.334 10.66,16.517 12.427,19.47 7.2,12.03 14.575,24.578 15.925,38.533 0.562,5.815 -7.701,16.763 -8.88,17.808 -8.463,7.494 -16.332,16.655 -19.275,26.433 -5.364,-5.7 -13.155,-13.208 -25.646,-22.256 15.482,14.546 27.044,28.471 34.78,40.333 5.621,-3.333 13.084,-9.402 14.607,-12.361 2.073,-4.026 2.865,-8.569 3.631,-13.032 1.648,4.242 1.967,8.989 0.902,13.412 2.175,-3.261 3.545,-7.055 3.955,-10.954 2.337,3.148 0.59,7.575 -1.209,11.058 3.435,-1.468 5.986,-4.832 6.473,-8.536 0.104,5.362 -0.414,10.877 -2.781,15.689 -2.367,4.812 -6.867,8.826 -12.193,9.454 l 0.043,-0.319 -7.29,6.068 c 3.264,6.368 5.111,11.8 5.547,15.955 -14.778,-3.18 -44.028,1.272 -51.34,13.989 27.024,-18.122 59.65,-9.457 63.412,-6.93 6.682,4.488 14.174,7.598 21.609,10.679 2.323,0.962 5.701,1.552 6.74,-0.738 -0.028,1.177 -0.056,2.354 -0.084,3.531 3.394,-3.953 5.23,-9.209 5.035,-14.416 1.383,4.709 0.886,9.942 -1.358,14.306 1.974,-3.502 3.947,-7.004 5.921,-10.507 -0.824,4.516 -2.167,8.937 -3.994,13.148 4.802,-4.574 6.105,-12.412 3.042,-18.293 4.322,4.242 7.142,10.331 6.339,16.334 -0.803,6.003 -5.829,11.513 -11.879,11.784" />
      </g>
    </g>
  </g>
</svg>
