<?xml version="1.0" encoding="UTF-8" standalone="no"?>
<svg
   xmlns:dc="http://purl.org/dc/elements/1.1/"
   xmlns:cc="http://creativecommons.org/ns#"
   xmlns:rdf="http://www.w3.org/1999/02/22-rdf-syntax-ns#"
   xmlns:svg="http://www.w3.org/2000/svg"
   xmlns="http://www.w3.org/2000/svg"
   xmlns:sodipodi="http://sodipodi.sourceforge.net/DTD/sodipodi-0.dtd"
   xmlns:inkscape="http://www.inkscape.org/namespaces/inkscape"
   sodipodi:docname="gundam.svg"
   inkscape:version="1.0 (4035a4fb49, 2020-05-01)"
   id="svg8"
   version="1.1"
   viewBox="0 0 131.46706 195.56483"
   height="195.56483mm"
   width="131.46706mm">
  <defs
     id="defs2" />
  <sodipodi:namedview
     inkscape:window-maximized="0"
     inkscape:window-y="0"
     inkscape:window-x="76"
     inkscape:window-height="728"
     inkscape:window-width="1274"
     showgrid="false"
     inkscape:document-rotation="0"
     inkscape:current-layer="layer1"
     inkscape:document-units="mm"
     inkscape:cy="206.61543"
     inkscape:cx="279.98847"
     inkscape:zoom="0.35"
     inkscape:pageshadow="2"
     inkscape:pageopacity="0.0"
     borderopacity="1.0"
     bordercolor="#666666"
     pagecolor="#ffffff"
     id="base" />
  <metadata
     id="metadata5">
    <rdf:RDF>
      <cc:Work
         rdf:about="">
        <dc:format>image/svg+xml</dc:format>
        <dc:type
           rdf:resource="http://purl.org/dc/dcmitype/StillImage" />
        <dc:title></dc:title>
      </cc:Work>
    </rdf:RDF>
  </metadata>
  <g
     transform="translate(-33.464784,-54.727813)"
     id="layer1"
     inkscape:groupmode="layer"
     inkscape:label="Layer 1">
    <path
       id="path26"
       d="m 122.59812,54.727813 -14.55208,8.73125 c -0.15558,-1.95072 -2.91703,-5.201576 -4.7551,-2.531084 -0.56276,0.817616 -0.27199,2.377546 -0.27199,3.324834 -5.293779,-1.272011 -9.063039,-6.694197 -14.287499,-8.202083 1.90209,2.677768 5.1607,4.712282 7.67292,6.814026 0.93424,0.781605 2.70351,1.81229 3.14801,2.985981 0.729189,1.925453 -2.06216,4.091252 -2.7477,5.569506 -1.07897,2.32664 -0.66489,5.682747 -0.66489,8.178403 h -0.26459 c -0.0537,-1.249892 -0.31882,-2.467346 -0.49477,-3.704167 -0.18124,-1.275953 -0.33152,-2.900045 -1.24328,-3.895037 -0.91281,-0.996262 -2.49449,-0.955648 -2.90962,0.467069 -0.77047,2.63988 0.73184,6.180164 1.37372,8.719635 0.26114,1.032933 0.81597,2.360348 -0.44953,2.902744 -1.38986,0.595577 -5.15408,1.702858 -6.59527,1.254125 -1.26709,-0.394494 -2.03729,-1.564746 -3.43958,-1.721644 -1.80023,-0.201613 -3.7383,0.65061 -5.55625,0.739775 -2.08942,0.102394 -5.72982,0.265112 -6.83181,2.386012 -1.64862,3.173148 3.37318,8.463227 4.04892,11.636904 0.43498,2.042848 -0.47625,4.089138 -0.81174,6.085418 -0.67204,3.99706 -0.99536,7.49459 -2.2262,11.37708 h -0.26459 c -0.69638,-2.37622 -2.86596,-3.4753 -4.5765,-1.04669 -0.7993,1.1348 -0.55006,2.56487 -1.38244,3.69253 -1.13692,1.53987 -2.78739,2.56381 -4.02246,3.99256 -1.642008,1.89918 -2.301349,5.08344 -3.250674,7.38452 -1.973528,4.78393 -5.495661,9.90574 -6.112934,15.08125 -0.4699,3.93991 1.99734,10.06131 -1.027906,13.49374 l -2.116667,-3.70416 c -3.554095,-1.0234 -7.552769,-1.99442 -9.257347,2.11667 -0.380233,0.91705 -1.019863,2.12221 -0.480986,3.09562 1.203642,2.17408 5.128842,3.05779 7.357083,3.51895 l 1.031187,3.175 -3.063531,8.46667 -4.663889,14.2875 -2.97352,5.55625 -2.159529,6.61458 -0.310304,2.51011 2.350003,0.92948 4.771496,-9.78959 0.975228,-3.96478 1.951513,-2.41273 5.795513,-12.4079 c 3.856831,2.35955 3.993885,-3.90525 5.576094,-6.03568 0.652991,-0.87947 1.707091,-0.37491 2.486025,-1.00409 1.236133,-0.9988 1.852615,-3.38958 2.256635,-4.86648 0.7567,0.82417 2.09867,3.79095 3.02392,4.10183 1.81927,0.61119 3.18585,-3.64569 2.99746,-4.89558 -0.70247,-4.65561 -5.16969,-6.26109 -2.45136,-11.37681 1.75763,-3.30756 5.39723,-0.28416 7.9875,-2.38284 1.37055,-1.11045 0.64823,-5.64832 1.14248,-7.40701 h -2.38125 l -0.26459,-3.175 c 1.4822,0 3.92166,0.46329 5.23531,-0.31194 2.07883,-1.22688 2.95778,-6.27698 3.87192,-8.41931 3.64516,-8.54234 2.76383,-18.00992 6.50319,-26.45833 2.08915,4.04865 4.95988,7.31732 3.70417,12.17083 -5.96345,-1.41975 -6.41377,4.85193 -7.35251,9.26042 -0.58076,2.72626 -1.29593,5.90656 -0.81042,8.70267 0.20585,1.18428 1.65814,1.35732 1.65762,2.67573 -10e-4,2.33178 -0.89827,4.80193 -1.12263,7.14243 -0.3691,3.84598 -0.12409,7.54142 -0.045,11.37708 -3.80656,0.17701 -4.71514,6.20183 -5.55334,9.26041 -2.12619,7.75811 -1.44674,15.40193 -0.49107,23.28333 0.35481,2.92497 2.18652,6.65639 1.6338,9.525 -0.6088,3.16019 -1.633,6.37911 -3.06334,9.26042 -1.29461,2.60826 -3.0943,4.72228 -2.31564,7.67292 -1.76,-0.0365 -4.47754,-1.56369 -6.08144,-0.78264 -1.34276,0.65405 -2.20372,2.36617 -3.20278,3.42741 -2.40877,2.55985 -5.807873,5.82189 -0.24078,7.14481 v 0.52917 c -4.28942,2.02882 -8.06132,4.61645 -11.377078,7.9375 -0.998802,1.00039 -2.853479,2.44131 -3.022098,3.95843 -0.138377,1.24486 1.601206,2.04205 2.492931,2.53973 2.559315,1.42875 6.860381,3.25993 9.789585,3.49647 3.52213,0.28469 7.58772,-0.86624 11.1125,-1.21867 8.78893,-0.87868 17.22543,-1.79652 25.66458,-4.54263 -0.38761,-2.40321 -0.29766,-5.0763 -1.14935,-7.38452 -0.4273,-1.15808 -1.58988,-1.68619 -1.90182,-2.9382 -0.78132,-3.13743 -0.50456,-7.39616 -3.828,-8.99186 2.6379,-4.19868 0.26221,-10.57011 1.18216,-15.34584 0.57177,-2.96703 3.39275,-5.40834 4.89929,-7.9375 2.10053,-3.52663 3.01281,-7.59142 3.39858,-11.64166 0.15636,-1.64068 0.3683,-3.96452 -0.09,-5.55625 -0.30428,-1.05701 -1.22317,-1.83013 -1.45574,-2.91042 -0.58738,-2.7268 0.1643,-5.66658 -0.71729,-8.44206 -0.35454,-1.11601 -1.89389,-1.48272 -2.07274,-2.60641 -0.22569,-1.41764 2.67493,-2.76066 3.41841,-3.77216 2.759339,-3.75417 1.10226,-9.71708 3.834079,-13.14211 0.97764,-1.22555 2.9554,-0.76782 4.27197,-0.65829 1.76556,0.14711 3.58828,-0.26537 5.02708,-1.27688 0.40058,4.90538 2.57096,9.8933 4.05977,14.55208 0.37782,1.18242 2.01824,3.13161 2.0111,4.20581 -0.007,1.0168 -1.62931,1.51686 -1.79732,2.67441 -0.31115,2.14233 1.45283,3.683 1.54596,5.66738 0.11827,2.52783 -1.26788,5.07762 -1.53643,7.56073 -0.2204,2.03967 0.6813,4.42383 1.27979,6.35 1.11521,3.58801 2.47782,7.1411 4.50559,10.31875 1.49992,2.35029 3.75549,4.08993 4.50373,6.87917 1.69122,6.30343 -0.52017,12.62062 1.56739,18.78541 -1.02843,0.29422 -2.52888,0.70909 -3.12763,1.67746 -1.28244,2.07407 -0.31539,5.84571 1.80472,6.78921 -1.65338,2.38734 -3.9587,9.25195 -2.17779,12.08484 1.58433,2.52042 5.42502,4.064 7.99862,5.3094 8.78549,4.25079 19.05529,3.1234 28.575,1.92034 -0.87101,-3.76475 -2.60297,-8.3992 -4.76091,-11.61812 -1.18216,-1.76318 -3.13478,-2.92655 -3.85868,-5.04666 -0.56463,-1.65391 1.88145,-2.05555 1.98569,-3.70919 0.19024,-3.01969 -2.23599,-7.03369 -3.77825,-9.51892 -1.37874,-2.2217 -3.16812,-0.15637 -4.53416,-1.43668 -0.75512,-0.70776 -0.97896,-2.1426 -1.397,-3.06626 -1.03214,-2.28044 -2.52386,-4.50824 -3.30227,-6.87917 -1.10675,-3.37132 -2.96201,-8.3775 -2.83236,-11.90625 0.0696,-1.89732 1.06257,-3.69252 1.4142,-5.55625 0.62997,-3.33904 0.54319,-6.70851 0.006,-10.05416 -0.31273,-1.94787 -0.45693,-4.58312 -1.50495,-6.2947 -1.20068,-1.96083 -2.91385,-3.43535 -3.95208,-5.61155 -0.86069,-1.80393 -0.78263,-3.76608 -1.49172,-5.55625 -0.77893,-1.96639 -2.06586,-3.39805 -2.50851,-5.55624 -0.8845,-4.31298 -0.61172,-8.86328 -1.34409,-13.22917 -0.34104,-2.03464 -1.7645,-5.14509 -1.447,-7.14375 0.21616,-1.36022 1.67402,-2.28838 1.98252,-3.70417 0.50535,-2.32066 -0.69347,-4.16903 -0.71199,-6.35 -0.0111,-1.32238 1.07844,-2.32939 0.99271,-3.70416 -0.14499,-2.32886 -0.72257,-6.35794 -2.40479,-8.0989 -1.46527,-1.51632 -5.04349,-1.10887 -5.12763,-3.80762 -0.17224,-5.53191 5.59964,-6.34709 6.03197,-11.641401 h 3.70417 c 0.37809,2.804581 1.48881,5.765801 2.91041,8.202081 -3.0218,1.70048 0.45191,4.65535 0.97447,6.63814 0.51884,1.96929 0.34237,4.03013 0.9517,6.06186 1.12951,3.76529 1.95342,7.65017 3.19485,11.37709 0.47968,1.43986 1.49701,2.80194 1.87748,4.23333 0.41116,1.54649 -1.16999,3.45625 -1.29328,5.02708 -0.42254,5.39354 4.5794,6.36165 8.84687,6.35 0.372,4.70721 1.77668,9.32921 2.34024,14.02291 0.25876,2.15662 0.26458,5.53403 1.65126,7.3242 0.63236,0.8165 1.75287,0.34872 2.42676,1.03743 1.02367,1.04669 -0.0519,3.27607 1.55734,3.99097 2.16799,0.96309 5.56286,-1.27714 7.63481,-1.76927 0,-4.58708 -1.32265,-8.97943 -1.32291,-13.49375 -8e-4,-10.37456 1.23851,-21.2029 -0.38074,-31.4854 -2.16985,-13.77924 -6.87758,-27.11133 -9.40885,-40.745838 2.36459,-1.3081 -0.42412,-8.414543 -0.95937,-10.583333 -0.22543,-0.913738 -0.25242,-2.825247 -1.04855,-3.432228 -0.91202,-0.695351 -2.17884,0.1152 -2.84744,-1.104873 -1.47532,-2.691897 -1.09644,-7.004288 -3.04351,-9.372097 -1.63935,-1.993556 -6.74052,-1.875923 -9.03446,-1.701218 l 1.32292,16.139583 -8.46667,0.79375 c 1.01256,-2.644378 2.57334,-5.880656 2.64187,-8.73125 0.0426,-1.762522 -0.90938,-3.503348 -2.87788,-2.144845 -1.28772,0.888709 -1.53432,2.860278 -1.95474,4.261512 -1.06071,3.53605 -2.39527,7.029185 -3.3655,10.583333 l -9.26042,-0.264583 c 0.9959,-2.659063 1.09512,-7.657227 -0.22595,-10.250144 -0.77893,-1.52863 -3.90684,-3.207147 -3.14986,-5.359267 0.95885,-2.727061 6.2357,-5.509525 8.4029,-7.374837 0.94694,-0.815102 2.67441,-1.857666 2.64583,-3.209502 z"
       style="fill:#000000;stroke:none;stroke-width:0.264583" />
  </g>
</svg>
