<?xml version="1.0" encoding="UTF-8" standalone="no"?>
<svg
   xmlns:dc="http://purl.org/dc/elements/1.1/"
   xmlns:cc="http://creativecommons.org/ns#"
   xmlns:rdf="http://www.w3.org/1999/02/22-rdf-syntax-ns#"
   xmlns:svg="http://www.w3.org/2000/svg"
   xmlns="http://www.w3.org/2000/svg"
   xmlns:sodipodi="http://sodipodi.sourceforge.net/DTD/sodipodi-0.dtd"
   xmlns:inkscape="http://www.inkscape.org/namespaces/inkscape"
   inkscape:version="1.0 (4035a4fb49, 2020-05-01)"
   height="53.544628"
   width="22.627449"
   sodipodi:docname="man.svg"
   xml:space="preserve"
   viewBox="0 0 22.62745 53.54463"
   y="0px"
   x="0px"
   id="Capa_1"
   version="1.1"><metadata
   id="metadata45"><rdf:RDF><cc:Work
       rdf:about=""><dc:format>image/svg+xml</dc:format><dc:type
         rdf:resource="http://purl.org/dc/dcmitype/StillImage" /></cc:Work></rdf:RDF></metadata><defs
   id="defs43" /><sodipodi:namedview
   inkscape:current-layer="Capa_1"
   inkscape:window-maximized="0"
   inkscape:window-y="0"
   inkscape:window-x="0"
   inkscape:cy="23.69489"
   inkscape:cx="12.899959"
   inkscape:zoom="5.0238119"
   showgrid="false"
   id="namedview41"
   inkscape:window-height="661"
   inkscape:window-width="1047"
   inkscape:pageshadow="2"
   inkscape:pageopacity="0"
   guidetolerance="10"
   gridtolerance="10"
   objecttolerance="10"
   borderopacity="1"
   bordercolor="#666666"
   pagecolor="#ffffff" />
<g
   transform="translate(-15.45901)"
   id="g8">
	<g
   id="g6">
		<circle
   id="circle2"
   r="4.507"
   cy="4.507"
   cx="26.686001"
   style="fill:#000000" />
		<path
   id="path4"
   d="m 28.256,11.163 c -1.123,-0.228 -2.344,-0.218 -3.447,0.042 -7.493,0.878 -9.926,9.551 -9.239,16.164 0.298,2.859 4.805,2.889 4.504,0 -0.25,-2.41 -0.143,-6.047 1.138,-8.632 0,3.142 0,6.284 0,9.425 0,0.111 0.011,0.215 0.016,0.322 -0.003,0.051 -0.015,0.094 -0.015,0.146 0,7.479 -0.013,14.955 -0.322,22.428 -0.137,3.322 5.014,3.309 5.15,0 0.242,-5.857 0.303,-11.717 0.317,-17.578 0.244,0.016 0.488,0.016 0.732,0.002 0.015,5.861 0.074,11.721 0.314,17.576 0.137,3.309 5.288,3.322 5.15,0 -0.309,-7.473 -0.32,-14.949 -0.32,-22.428 0,-0.232 -0.031,-0.443 -0.078,-0.646 -0.007,-3.247 -0.131,-6.497 -0.093,-9.742 1.534,2.597 1.674,6.558 1.408,9.125 -0.302,2.887 4.206,2.858 4.504,0 0.703,-6.75 -1.847,-15.648 -9.719,-16.204 z"
   style="fill:#000000" />
	</g>
</g>
<g
   transform="translate(-15.45901)"
   id="g10">
</g>
<g
   transform="translate(-15.45901)"
   id="g12">
</g>
<g
   transform="translate(-15.45901)"
   id="g14">
</g>
<g
   transform="translate(-15.45901)"
   id="g16">
</g>
<g
   transform="translate(-15.45901)"
   id="g18">
</g>
<g
   transform="translate(-15.45901)"
   id="g20">
</g>
<g
   transform="translate(-15.45901)"
   id="g22">
</g>
<g
   transform="translate(-15.45901)"
   id="g24">
</g>
<g
   transform="translate(-15.45901)"
   id="g26">
</g>
<g
   transform="translate(-15.45901)"
   id="g28">
</g>
<g
   transform="translate(-15.45901)"
   id="g30">
</g>
<g
   transform="translate(-15.45901)"
   id="g32">
</g>
<g
   transform="translate(-15.45901)"
   id="g34">
</g>
<g
   transform="translate(-15.45901)"
   id="g36">
</g>
<g
   transform="translate(-15.45901)"
   id="g38">
</g>
</svg>
