<?xml version="1.0" encoding="UTF-8" standalone="no"?>
<svg
   xmlns:dc="http://purl.org/dc/elements/1.1/"
   xmlns:cc="http://creativecommons.org/ns#"
   xmlns:rdf="http://www.w3.org/1999/02/22-rdf-syntax-ns#"
   xmlns:svg="http://www.w3.org/2000/svg"
   xmlns="http://www.w3.org/2000/svg"
   xmlns:sodipodi="http://sodipodi.sourceforge.net/DTD/sodipodi-0.dtd"
   xmlns:inkscape="http://www.inkscape.org/namespaces/inkscape"
   inkscape:version="1.0 (4035a4fb49, 2020-05-01)"
   sodipodi:docname="optimus.svg"
   viewBox="0 0 394.9865 497.35259"
   height="497.3526"
   width="394.98648"
   id="svg1729"
   version="1.1">
  <metadata
     id="metadata1735">
    <rdf:RDF>
      <cc:Work
         rdf:about="">
        <dc:format>image/svg+xml</dc:format>
        <dc:type
           rdf:resource="http://purl.org/dc/dcmitype/StillImage" />
        <dc:title></dc:title>
      </cc:Work>
    </rdf:RDF>
  </metadata>
  <defs
     id="defs1733" />
  <sodipodi:namedview
     inkscape:current-layer="g1737"
     inkscape:window-maximized="0"
     inkscape:window-y="57"
     inkscape:window-x="115"
     inkscape:cy="326.28256"
     inkscape:cx="352.65415"
     inkscape:zoom="0.52836591"
     showgrid="false"
     id="namedview1731"
     inkscape:window-height="651"
     inkscape:window-width="1072"
     inkscape:pageshadow="2"
     inkscape:pageopacity="0"
     guidetolerance="10"
     gridtolerance="10"
     objecttolerance="10"
     borderopacity="1"
     bordercolor="#666666"
     pagecolor="#ffffff"
     inkscape:document-rotation="0" />
  <g
     transform="translate(158.86004,-437.90762)"
     id="g1737"
     inkscape:label="Image"
     inkscape:groupmode="layer">
    <path
       id="path198"
       d="m 81.344506,437.90762 2,28 h -1 l -6,-13 h -1 v 4 c -3.673,-2.1021 -8.445,-7.1299 -12.208,-8.223 -5.369,-1.5598 -13.29,8.8983 -16.792,12.223 l -1,-5 h -1 l -1,10 h -2 v -24 h -2 c -1.007,12.7612 -8.083,45.6489 5,53 v 2 l -28,5.5216 -13.9999998,0.0725 -20.0000002,8.4059 c 3.244,-10.2614 5.056,-32.6557 2,-43 -11.211,4.756 -7.679,17.8331 -9.325,28 -0.828,5.1153 -0.592,12.1664 -2.403,16.9105 -1.27,3.3297 -4.276,5.443 -4.943,9.0933 -1.52,8.3148 -0.769,17.5312 -1.488,25.9922 -0.395,4.647 -2.95,14.438 0.187,18.401 2.051,2.59 8.89,2.214 11.972,2.603 -0.75,5.933 -0.454,13.311 -2.585,18.91 -3.034,7.974 -11.743,17.154 -16.893,24.09 -2.69,3.622 -6.849,11.838 -11.191,13.458 -4.176,1.557 -7.843,-3.366 -11.37,-4.55 -3.548,-1.19 -17.922,2.455 -20.428,5.241 -6.762703,7.518 2.543,11.233 0.751,18.275 -2.4063,9.455 -7.940703,15.821 -12.006203,24.576 -2.7225,5.863 -1.8257,11.054 -5.466803,17.001 -3.4431,5.623 -6.0811,12.175 -10.9846,16.739 -3.8354,3.569 -8.358,3.763 -12.5262,6.283 -9.434,5.705 -15.5068,18.949 -8.3002,27.977 -5.3924,2.906 -8.7504,9.169 -12.3735,14 -3.2855,4.381 -6.6386,8.695 -10.0223,13 -6.4236,8.172 -5.6151,25.992 9.3811,20.396 4.075,-1.521 6.4713,-6.044 8.8743,-9.396 6.2099,-8.661 17.7024,-19.188 19.1404,-30 10.069,0.515 9.3963,-11.286 16.3758,-16.357 6.636603,-4.822 18.701206,2.857 22.560206,-8.648 1.84,-5.485 -3.956,-8.351 -5.344,-12.995 -1.4091,-4.713 4.156,-10.312 7.408,-13 0.563,10.834 16.398,21.192 27,18.337 8.062,-2.171 15.431,-9.256 11,-17.337 l 16.815,1.393 10.185,-9.393 c 1.338,-12.317 13.7870002,-22.98 19,-34 l 9,3 c -9.785,19.147 -12.4479998,38.762 -13.9099998,60 -0.568,8.244 0.811,19.015 -1.408,26.891 -2.058,7.306 -14.8860002,4.587 -18.4540002,12.152 -2.915,6.182 1.893,11.736 0.457,17.957 -1.594,6.909 -8.295,12.016 -10.187,19 -3.431,12.67 -1.16,30.788 -1.483,44 -0.111,4.498 -1.533,12.856 1.588,16.505 3.213,3.754 15.464,6.002 14.627,12.394 -0.399,3.05 -4.507,4.132 -6.056,6.491 -6.716,10.227 -15.413,18.017 -26.174,24.918 -4.246,2.723 -13.622,5.656 -13.639,11.707 -0.019,6.942 6.21,9.817 11.639,11.985 10.093,4.03 31.758,6.272 41.0000002,-1 h 1 c 5.723,5.776 19.7109998,2.805 19.9999998,-6 h 1 c 6.554,12.328 27.699,3.918 39,3.089 3.878,-0.285 11.206,0.435 14.397,-2.116 9.301,-7.438 -1.076,-19.651 -6.973,-23.403 -4.615,-2.936 -9.456,-4.368 -14.424,-6.57 3.482,-1.178 9.606,-2.35 11.821,-5.51 2.976,-4.245 0.69,-12.291 1.105,-17.205 1.453,-17.206 -0.924,-31.54 -2.605,-48.285 -0.652,-6.493 2.203,-15.335 2.849,-22 1.278,-13.205 8.58,-20.039 4.121,-33.985 -2.355,-7.366 -13.394,-12.028 -20.291,-14.015 4.931,-11.844 9.226,-23.86 13.456,-36 1.461,-4.192 1.542,-10.157 4.398,-13.682 3.038,-3.749 18.826,-3.882 22.727,-1.29 4.457,2.961 6.376,14.079 8.075004,18.972 5.307,15.287 10.813,28.3 19.344,42 -11.466,3.303 -14.434,10.361 -12.3,22 1.369,7.467 7.418,13.13 10.288,20 6.052,14.486 9.677,29.407 15.204,44 3.007,7.941 5.02,22.58 12.808,27 -1.255,7.74 2.638,21.378 10,25 v 1 l -10,1 c 0.055,6.515 1.799,22.892 6.318,27.61 5.104,5.327 13.937,5.528 20.682,6.711 12.622,2.213 26.201,9.302 39,7.833 7.124,-0.817 25.959,-0.106 29.566,-7.213 4.213,-8.3 -3.499,-14.229 -8.262,-19.941 -4.175,-5.007 -9.253,-15.459 -9.665,-22 -0.623,-9.877 12.664,-14.438 11.021,-26 -2.062,-14.507 -10.568,-30.223 -15.607,-44 -6.919,-18.919 -10.533,-37.674 -18.242,-56 -3.98,-9.462 -6.847,-26.256 -14.448,-33.297 -8.657,-8.019 -24.127,0.351 -31.363,6.297 -1.607,-20.362 -5.888,-46.956 -15.861,-65 -2.976,-5.384 -5.639,-12.902 -11.139,-16 v -1 c 11.161,-3.216 9.263,-7.32 10.289,-17 0.306,-2.879 1.861,-7.789 -0.892,-9.972 -2.267,-1.797 -6.695,-1.028 -9.397,-1.028 l 3,-30 c 17.071,-0.744 13.968,-13.188 16,-27 h 5 l -5,-8 h 20 l 3,19 c -9.268,2.811 -6.198,19.493 -6.015,27 0.529,21.641 6.125,43.608 9.601,65 1.356,8.349 -2.358,14.696 0.842,23 2.635,6.838 18.477,25.363 26.572,20 h 1 c 3.66,2.093 18.726,-3.751 20.307,-8.213 1.297,-3.661 -0.307,-9.824 -0.307,-13.787 10.519,-3.096 6.003,-21.279 6,-30 -0.001,-4.613 1.08,-11.417 -0.599,-15.741 -1.064,-2.74 -3.499,-4.262 -4.261,-7.278 -1.358,-5.375 0.703,-10.548 -0.248,-15.942 -1.229,-6.967 -4.915,-13.797 -6.281,-21.039 -0.83,-4.403 -2.454,-9.518 -2.297,-14 0.097,-2.748 2.633,-5.917 1.363,-8.585 -2.338,-4.914 -10.271,-4.878 -14.677,-4.415 l -2,-20 c 5.472,-0.712 14.865,-3.313 17.972,-8.34 3.308,-5.353 -0.126,-14.9226 -0.826,-20.6454 -2.319,-18.968 -6.885,-34.0201 -12.246,-52.0146 -2.999,-10.0628 -0.063,-22.6447 -9.9,-29 l -1,3 -1,-3 h -1 l 6,49 c -10.633,-5.8199 -26.446,0.6474 -38,1.9498 -5.547,0.6252 -11.457,0.4348 -14,6.0502 -17.916,-5.7288 -33.18,-9.5928 -52.000004,-10 4.913,-12.5663 0.484,-23.1261 -1.421,-36 -0.765,-5.1663 -0.593,-11.63556 -3.579,-16 m -66,474 -1,1 z"
       style="fill:#020202;stroke:none" />
  </g>
</svg>
