<?xml version="1.0" encoding="UTF-8" standalone="no"?>
<svg
   xmlns:dc="http://purl.org/dc/elements/1.1/"
   xmlns:cc="http://creativecommons.org/ns#"
   xmlns:rdf="http://www.w3.org/1999/02/22-rdf-syntax-ns#"
   xmlns:svg="http://www.w3.org/2000/svg"
   xmlns="http://www.w3.org/2000/svg"
   xmlns:sodipodi="http://sodipodi.sourceforge.net/DTD/sodipodi-0.dtd"
   xmlns:inkscape="http://www.inkscape.org/namespaces/inkscape"
   sodipodi:docname="ostrich.svg"
   inkscape:version="1.0 (4035a4fb49, 2020-05-01)"
   id="svg8"
   version="1.1"
   viewBox="0 0 110.8196 130.33519"
   height="130.33519mm"
   width="110.8196mm">
  <defs
     id="defs2" />
  <sodipodi:namedview
     inkscape:window-maximized="0"
     inkscape:window-y="0"
     inkscape:window-x="76"
     inkscape:window-height="728"
     inkscape:window-width="1274"
     showgrid="false"
     inkscape:document-rotation="0"
     inkscape:current-layer="layer1"
     inkscape:document-units="mm"
     inkscape:cy="493.46967"
     inkscape:cx="350.29874"
     inkscape:zoom="0.35"
     inkscape:pageshadow="2"
     inkscape:pageopacity="0.0"
     borderopacity="1.0"
     bordercolor="#666666"
     pagecolor="#ffffff"
     id="base" />
  <metadata
     id="metadata5">
    <rdf:RDF>
      <cc:Work
         rdf:about="">
        <dc:format>image/svg+xml</dc:format>
        <dc:type
           rdf:resource="http://purl.org/dc/dcmitype/StillImage" />
        <dc:title></dc:title>
      </cc:Work>
    </rdf:RDF>
  </metadata>
  <g
     transform="translate(-13.150125,-17.602815)"
     id="layer1"
     inkscape:groupmode="layer"
     inkscape:label="Layer 1">
    <path
       id="path54"
       d="m 65.463573,147.57114 c 0.305843,-0.33795 1.004687,-0.5545 2.203892,-0.68292 1.330746,-0.14252 2.215277,-0.4449 3.652177,-1.24854 2.276364,-1.27312 2.552312,-1.74666 3.138299,-5.38548 0.91459,-5.67929 6.369125,-20.7982 9.329647,-25.85998 1.424891,-2.43621 1.987025,-3.74953 1.987025,-4.64234 0,-0.37451 0.177243,-0.95143 0.39386,-1.28205 0.690797,-1.05429 0.588952,-3.04073 -0.23788,-4.63964 -0.450313,-0.87081 -0.572598,-2.43227 -0.190485,-2.43227 0.126894,0 0.840437,0.90249 1.585617,2.00554 1.241957,1.83836 1.617756,2.70772 2.014829,4.66101 0.0781,0.38437 0.567154,1.33052 1.086699,2.10256 1.170033,1.73866 1.835468,4.14096 2.383191,8.6035 0.232761,1.8964 0.584331,4.04476 0.781267,4.77415 0.196937,0.72939 0.440024,1.86325 0.540199,2.51969 0.100145,0.65644 0.461087,2.62578 0.802019,4.37631 0.340923,1.75053 0.75183,4.67468 0.913119,6.49814 0.161293,1.82347 0.34938,3.58019 0.41798,3.90382 0.15216,0.71785 -0.582728,1.14759 -3.028562,1.77097 -0.928727,0.2367 -2.041908,0.72768 -2.473735,1.09103 -0.431815,0.36336 -0.886164,0.66066 -1.009657,0.66066 -0.323307,0 -1.85662,1.32908 -1.85662,1.60932 0,0.12996 1.758065,0.20877 3.912156,0.17536 3.704592,-0.0574 3.907574,-0.0342 3.825914,0.4396 -0.07051,0.40907 0.02623,0.46841 0.530461,0.32536 0.339183,-0.0961 1.213465,-0.29389 1.94285,-0.43927 0.923477,-0.18405 1.591288,-0.52919 2.199335,-1.13665 0.77397,-0.77322 0.89008,-1.08148 1.02196,-2.71333 0.13139,-1.62585 0.006,-2.36798 -1.06971,-6.34994 -1.380202,-5.10732 -3.295953,-14.52072 -4.151128,-20.39738 -0.500556,-3.43976 -0.532474,-4.15471 -0.245782,-5.50567 0.373002,-1.75767 0.235159,-3.52633 -0.410477,-5.26681 -0.242436,-0.65355 -0.432142,-1.42698 -0.421578,-1.71874 0.03114,-0.86108 -0.532276,-2.00631 -1.93796,-3.938799 -1.204501,-1.655914 -1.279114,-1.840754 -0.841832,-2.085465 0.263891,-0.147684 0.734881,-0.523593 1.046641,-0.835355 0.311759,-0.311763 0.62652,-0.576571 0.699454,-0.588465 0.879585,-0.143431 1.656079,-0.531978 1.872944,-0.937191 0.14716,-0.274973 0.398872,-0.499952 0.559358,-0.499952 0.160486,0 0.568326,-0.298386 0.906311,-0.663078 0.337987,-0.364691 0.731047,-0.663076 0.873469,-0.663076 0.405028,0 1.114395,0.810974 0.9467,1.082305 -0.202259,0.327266 0.93073,0.307442 2.99732,-0.05244 2.14118,-0.372873 2.56075,-0.09079 1.58673,1.06677 -1.31669,1.564788 -1.1075,3.974796 0.48306,5.565356 0.5981,0.5981 0.88287,0.71866 1.24269,0.52609 0.25674,-0.1374 0.4668,-0.42465 0.4668,-0.63834 0,-0.21368 0.11935,-0.38851 0.26523,-0.38851 0.14587,0 0.26523,0.2029 0.26523,0.45089 0,0.33325 0.0776,0.37326 0.29755,0.15334 0.16365,-0.16365 0.44618,-0.24051 0.62785,-0.1708 0.21139,0.0811 0.43983,-0.30826 0.63457,-1.081655 0.30176,-1.1984 0.5093,-1.352419 1.6891,-1.253547 0.25529,0.02141 0.46416,-0.124116 0.46416,-0.323348 0,-0.480334 0.70223,-1.046719 1.03941,-0.838333 0.16541,0.102233 0.0689,0.517562 -0.25361,1.091824 -0.71763,1.277676 -0.69985,2.064279 0.0413,1.829029 0.56088,-0.17801 0.561,-0.17678 0.0663,0.67428 -0.27258,0.46894 -0.95291,1.32711 -1.51184,1.90705 -0.55893,0.57994 -0.96621,1.10446 -0.90506,1.16561 0.1644,0.1644 1.78868,-0.68968 1.78868,-0.94053 0,-0.11817 0.23167,-0.27545 0.51482,-0.3495 0.28315,-0.074 0.71421,-0.59521 0.95791,-1.15816 0.2437,-0.56295 0.49939,-0.87434 0.56821,-0.692 0.19347,0.51268 0.61137,0.39153 0.61137,-0.17723 0,-0.27982 0.0805,-0.718678 0.17899,-0.975227 0.1661,-0.432851 0.19342,-0.429638 0.3792,0.04462 0.15982,0.407947 0.20398,0.346687 0.21886,-0.30357 0.0228,-0.996936 1.0366,-3.180465 1.09949,-2.368128 0.0725,0.937056 0.47942,-1.54101 0.49525,-3.016319 0.0134,-1.245719 0.0661,-1.38274 0.41954,-1.089435 0.22234,0.184528 0.46418,0.275577 0.53742,0.202338 0.13845,-0.138454 -0.33626,-7.340083 -0.5492,-8.331512 -0.15119,-0.703987 0.80747,-1.986692 1.33384,-1.784703 0.20936,0.08035 0.73135,-0.009 1.15998,-0.198896 0.58397,-0.258486 0.76868,-0.509539 0.73683,-1.001457 -0.0477,-0.73656 0.56017,-1.019752 2.28658,-1.06526 0.59831,-0.01578 1.06082,-0.177289 1.14642,-0.400347 0.0789,-0.205653 0.43323,-0.446633 0.78737,-0.535514 0.92309,-0.231685 0.83295,-0.947192 -0.11933,-0.947192 -0.98161,0 -1.56149,-0.629522 -1.09626,-1.190091 0.19313,-0.232704 0.25613,-0.67807 0.15367,-1.086295 -0.0955,-0.380541 -0.0652,-0.829666 0.0674,-0.998058 0.33659,-0.427498 0.54838,-1.751609 0.30431,-1.902457 -0.11111,-0.06867 -0.17848,-0.811783 -0.1497,-1.651361 0.0299,-0.871602 -0.1065,-1.854524 -0.31788,-2.291083 -0.26794,-0.553388 -0.28786,-0.815476 -0.0721,-0.94883 0.20648,-0.127608 0.14506,-0.381776 -0.19977,-0.826804 -0.27385,-0.353403 -0.58131,-0.983774 -0.68326,-1.400823 -0.10196,-0.417049 -0.80113,-1.409349 -1.55373,-2.205114 -1.03603,-1.095447 -1.2813,-1.500657 -1.00986,-1.668413 0.40266,-0.24886 -0.0812,-0.76684 -2.23873,-2.396815 -0.67583,-0.510568 -1.4995,-1.192994 -1.83038,-1.516497 -0.33088,-0.323505 -1.39858,-0.945771 -2.37266,-1.382811 -0.97408,-0.43704 -1.73977,-0.888479 -1.70153,-1.003193 0.0382,-0.114711 -0.16919,-0.468565 -0.46094,-0.78633 -0.29175,-0.317767 -0.6736,-0.753834 -0.84856,-0.969031 -0.17495,-0.2152 -0.8314,-0.470677 -1.45877,-0.567731 -0.62737,-0.09705 -1.7261,-0.36301 -2.44163,-0.591016 -1.21824,-0.388199 -1.26409,-0.434294 -0.72106,-0.72491 0.76032,-0.406911 0.44915,-0.680629 -0.77376,-0.680629 -0.54085,0 -1.4908,-0.179031 -2.11099,-0.397847 -0.62018,-0.218814 -1.61986,-0.399672 -2.221496,-0.401905 -1.696255,-0.0064 -1.957568,-0.355375 -0.692925,-0.92565 0.595891,-0.268709 1.152612,-0.600488 1.237161,-0.737288 0.233,-0.376999 -2.5089,0.05503 -3.892579,0.613327 -1.794772,0.724179 -1.907938,0.737341 -3.017184,0.350884 -0.565385,-0.196973 -1.3654,-0.358136 -1.77782,-0.358136 -0.412433,0 -1.024031,-0.109904 -1.359121,-0.244242 -2.608527,-1.04573 -6.929191,-1.928775 -10.157551,-2.075971 -2.782058,-0.126847 -4.80203,0.213967 -7.536516,1.271571 -1.932293,0.747345 -2.970798,0.788782 -2.001277,0.07985 0.424541,-0.310428 0.205457,-0.357362 -1.668165,-0.357362 -1.252396,0 -2.230798,-0.119594 -2.333128,-0.285178 -0.115222,-0.1864 -0.37327,-0.109391 -0.745045,0.222326 -0.743562,0.663451 -2.408564,1.654236 -2.779914,1.654236 -0.160552,0 -0.223207,-0.179031 -0.139251,-0.397846 0.191069,-0.497908 -0.267066,-0.521382 -0.671228,-0.03439 -0.311386,0.375205 -2.012835,0.759827 -3.255452,0.735914 -0.388964,-0.0075 -0.851148,0.159833 -1.027082,0.371822 -0.175935,0.211984 -0.471389,0.385427 -0.656567,0.385427 -0.185177,0 -0.797175,0.364504 -1.359993,0.81001 -2.315826,1.833136 -9.486323,5.800905 -9.841469,5.445749 -0.07299,-0.07299 -0.565522,0.08771 -1.094509,0.357112 -0.528975,0.269413 -1.571828,0.670688 -2.317446,0.891724 -1.295917,0.38417 -1.601548,0.509144 -2.950717,1.206605 -0.966314,0.499533 -2.037117,0.356358 -3.77182,-0.504323 -1.45477,-0.721781 -1.78991,-1.049917 -3.04749,-2.983844 -2.10337,-3.234544 -2.89046,-5.878221 -2.89745,-9.731953 -0.009,-4.502611 0.68199,-7.070756 4.33951,-16.147724 1.22348,-3.036295 1.22608,-3.117147 0.21408,-6.607793 -0.50957,-1.757606 -0.75763,-2.1432 -2.70695,-4.207921 l -2.14596,-2.273011 -2.44405,-0.138332 c -2.05862,-0.116518 -2.74878,-0.04308 -4.37632,0.465704 -2.21832,0.693471 -2.9626,1.293525 -3.44559,2.77791 -0.2892,0.888784 -0.59396,1.189756 -1.93465,1.910606 -0.87525,0.4706 -1.80617,0.861178 -2.06871,0.867952 -0.86133,0.02222 -2.08059,0.811562 -1.98874,1.2875 0.0772,0.39938 0.55595,0.448813 4.34785,0.448813 h 4.26126 l 1.10439,0.764438 c 1.56207,1.08124 3.17444,2.906106 3.72562,4.216673 0.7698,1.830344 0.42612,3.937215 -1.15463,7.078435 -1.6535,3.285761 -2.32966,5.18801 -2.6899,7.56752 -0.66227,4.374451 -0.34277,7.558876 1.22322,12.19166 1.48024,4.379132 3.29132,7.0821 7.55884,11.281249 2.6093,2.567497 3.31863,3.528443 3.31863,4.495749 0,0.298999 0.11934,0.543634 0.26524,0.543634 0.14588,0 0.26524,-0.172822 0.26524,-0.384049 0,-0.303845 0.15232,-0.330894 0.72938,-0.129522 0.77399,0.270086 2.453389,1.707554 2.453389,2.09995 0,0.128336 0.268536,0.271481 0.596763,0.318095 0.42729,0.06069 0.620602,0.291898 0.680695,0.814139 0.04812,0.417474 0.246526,0.729385 0.464152,0.729385 0.209131,0 0.380232,0.238707 0.380232,0.530461 0,0.291754 0.164413,0.53046 0.365372,0.53046 0.200947,0 0.510777,0.175215 0.688517,0.389368 0.177729,0.214151 0.44533,0.363344 0.594658,0.331538 0.149341,-0.0318 0.406441,0.320115 0.571352,0.782048 0.366444,1.026603 1.45982,2.07766 2.161267,2.07766 0.301969,0 0.662084,0.299658 0.862408,0.717612 0.350674,0.731669 1.632217,1.80208 2.157517,1.80208 0.159829,0 0.290609,0.125443 0.290609,0.278764 0,0.153319 0.397398,0.444809 0.883099,0.647752 0.485714,0.202945 1.051859,0.572307 1.258087,0.820804 0.206241,0.248501 1.50566,0.976606 2.887613,1.618014 1.933177,0.897247 2.820499,1.164953 3.847619,1.160818 2.803383,-0.01133 4.647235,0.47906 5.453216,1.450201 0.163254,0.196709 0.463604,0.293648 0.667465,0.21542 0.237644,-0.09119 0.533834,0.199982 0.825427,0.811457 0.523045,1.096852 0.81399,1.207929 0.934854,0.35692 0.08345,-0.587805 0.09666,-0.585021 0.878976,0.185395 0.619634,0.61023 1.056904,0.791793 1.989218,0.825968 1.380747,0.05061 2.653782,0.49854 2.653782,0.933748 0,0.187903 0.247784,0.23836 0.661088,0.134625 0.581093,-0.145842 0.821178,0.05128 1.984011,1.628938 0.727605,0.987173 2.347913,3.756681 3.600669,6.154461 2.218317,4.24586 2.272976,4.39434 2.094674,5.69071 -0.100647,0.73211 -0.423954,1.65691 -0.718361,2.05512 -0.435752,0.5894 -0.499317,0.93681 -0.341855,1.86837 0.522061,3.08849 0.458508,3.83934 -0.608123,7.18431 -2.001575,6.27693 -6.218764,17.42211 -7.399285,19.5548 -0.444109,0.80232 -0.963294,2.08983 -1.153739,2.86113 -0.344284,1.39426 -0.358074,1.40827 -2.387688,2.42412 -1.424468,0.71297 -2.550779,1.074 -3.726866,1.19462 -3.12066,0.32006 -3.690181,0.46342 -4.479558,1.12765 -0.432563,0.36398 -0.786649,0.7407 -0.786861,0.83714 -2.11e-4,0.0964 1.687524,0.13617 3.750509,0.0883 l 3.750906,-0.0871 -0.161211,0.8061 c -0.197422,0.9871 0.128177,1.24822 0.728814,0.58453 z"
       style="fill:#000000;stroke-width:0.265231" />
  </g>
</svg>
