<?xml version="1.0" encoding="UTF-8" standalone="no"?>
<svg
   xmlns:dc="http://purl.org/dc/elements/1.1/"
   xmlns:cc="http://creativecommons.org/ns#"
   xmlns:rdf="http://www.w3.org/1999/02/22-rdf-syntax-ns#"
   xmlns:svg="http://www.w3.org/2000/svg"
   xmlns="http://www.w3.org/2000/svg"
   xmlns:sodipodi="http://sodipodi.sourceforge.net/DTD/sodipodi-0.dtd"
   xmlns:inkscape="http://www.inkscape.org/namespaces/inkscape"
   inkscape:version="1.0 (4035a4fb49, 2020-05-01)"
   height="138.02141"
   width="80.239304"
   sodipodi:docname="paris.svg"
   xml:space="preserve"
   viewBox="0 0 80.239304 138.02141"
   y="0px"
   x="0px"
   id="Calque_1"
   version="1.1"><metadata
   id="metadata325"><rdf:RDF><cc:Work
       rdf:about=""><dc:format>image/svg+xml</dc:format><dc:type
         rdf:resource="http://purl.org/dc/dcmitype/StillImage" /></cc:Work></rdf:RDF></metadata><defs
   id="defs323" /><sodipodi:namedview
   inkscape:current-layer="g318"
   inkscape:window-maximized="0"
   inkscape:window-y="62"
   inkscape:window-x="302"
   inkscape:cy="105.45079"
   inkscape:cx="71.99031"
   inkscape:zoom="2.4907407"
   showgrid="false"
   id="namedview321"
   inkscape:window-height="599"
   inkscape:window-width="883"
   inkscape:pageshadow="2"
   inkscape:pageopacity="0"
   guidetolerance="10"
   gridtolerance="10"
   objecttolerance="10"
   borderopacity="1"
   bordercolor="#666666"
   pagecolor="#ffffff" />
<style
   id="style260"
   type="text/css">
	.st0{fill:#000000;}
	.st1{fill:#000000;}
	.st2{fill:#000000;}
	.st3{fill:#000000;}
	.st4{fill:#000000;}
	.st5{fill:#000000;}
	.st6{fill:#000000;}
	.st7{fill:#000000;}
	.st8{fill:#000000;}
	.st9{fill:#000000;}
	.st10{fill:#000000;}
	.st11{fill:#000000;}
	.st12{fill:#000000;}
	.st13{fill:#000000;}
	.st14{fill:#000000;}
	.st15{fill:#000000;}
	.st16{fill:#000000;}
	.st17{fill:#000000;}
	.st18{fill:#000000;}
	.st19{fill:#000000;}
	.st20{fill:#000000;}
	.st21{fill:#000000;}
	.st22{fill:#000000;}
	.st23{fill:#000000;}
	.st24{fill:#000000;}
	.st25{fill:#000000;}
	.st26{fill:#000000;}
	.st27{fill:#000000;}
	.st28{fill:#000000;}
	.st29{fill:#000000;}
	.st30{fill:#000000;}
	.st31{fill:#000000;}
	.st32{fill:#000000;}
	.st33{fill:#000000;}
	.st34{fill:#000000;}
	.st35{fill:#000000;}
	.st36{fill:#000000;}
	.st37{fill:#000000;}
	.st38{fill:#000000;}
	.st39{fill:#000000;}
	.st40{fill:#000000;}
	.st41{fill:#000000;}
	.st42{fill:#000000;}
	.st43{fill:#000000;}
	.st44{fill:#000000;}
	.st45{fill:#000000;}
	.st46{fill:#000000;}
	.st47{fill:#000000;}
	.st48{fill:#000000;}
	.st49{fill:#000000;}
	.st50{fill:#000000;}
	.st51{fill:#000000;}
	.st52{fill:#000000;}
</style>
<g
   transform="translate(-154.20069,-99.332119)"
   id="g318">
	
	<path
   sodipodi:nodetypes="ccccccccscccccccccccccccsccccccccccsccccccscccc"
   id="path316"
   d="m 233.9857,233.76688 c -1.741,-2.392 -11.114,-11.769 -15.629,-18.518 1.009,-0.21 2.008,-0.349 2.768,-0.853 2.375,-1.574 1.178,-5.209 -1.492,-5.073 -1.499,0.076 -3.002,0.083 -4.501,0.162 -0.447,0.023 -0.677,-0.124 -0.897,-0.5 -3.43,-5.857 -6.876,-13.4 -8.382,-17.673 2.261,-0.189 3.525,-0.076 4.53,-1.309 1.505,-1.846 -0.067,-4.335 -2.335,-4.354 -0.593,-0.005 -0.172,0.024 -4.098,0.246 -5.668,-17.181 -7.198,-48.836 -7.198,-65.103 2.31,-0.379 3.149,-2.43 2.149,-4.175 1.308,-1.342 1.168,-3.364 -0.634,-4.446 0.311,-0.585 0.635,-1.144 0.459,-1.971 -0.285,-1.343 -1.388,-2.269 -2.76,-2.305 -0.311,-0.008 -0.623,-0.001 -0.98,-0.001 -0.847,-3.672 -0.482,-7.176 -1.265,-8.264999 -0.419,-0.582 -0.961,-0.226 -1.171,0.363 -0.334,0.936999 -0.291,0.676999 -0.645,3.321999 -0.67,4.997 -0.414,3.423 -0.721,4.742 -1.521,0 -2.165,-0.082 -2.961,0.261 -1.381,0.596 -1.97,2.11 -1.357,3.481 0.037,0.082 0.067,0.166 0.088,0.217 -0.301,0.231 -0.598,0.41 -0.835,0.648 -1.14,1.147 -0.916,3.018 0.464,3.99 0.142,0.1 0.29,0.194 0.44,0.293 -0.611,1.292 -0.405,2.286 0.464,3.072 0.636,0.575 1.328,0.722 1.927,0.882 0.753,14.418 -1.87,47.027 -6.342,64.964 -0.999,0.063 -4.483,-0.397 -5.295,-0.22 -2.448,0.535 -2.915,3.23 -1.115,4.638 1.129,0.883 3.045,0.896 4.908,1.045 0.112,0.682 -3.245,11.027 -7.589,18.267 -0.466,0.776 -0.27,0.793 -1.363,0.671 -4.314,-0.485 -5.239,-0.811 -6.495,-0.118 -2.093,1.154 -1.693,4.163 0.908,4.817 1.245,0.313 2.566,0.49 3.157,0.582 -5.842,8.669 -13.013,14.798 -14.931,16.731 -1.307,1.317 -1.617,3.345 0.324,4.074 3.234,1.215 13.966,1.074 16.408,0.859 5.406,-0.475 5.135,-0.995 7.968,-6.435 2.116,-4.063 6.174,-7.883 10.875,-8.436 7.806,-0.918 14.727,2.17 19.12,9.25 1.388,2.237 1.465,3.131 3.036,3.696 4.054,1.459 18.88,1.634 20.731,0.815 0.542,-0.24 0.759,-0.61 0.716,-1.203 -0.031,-0.426 -0.207,-0.798 -0.449,-1.13 z"
   class="st0" />
</g>
</svg>
