<?xml version="1.0" encoding="UTF-8" standalone="no"?>
<svg
   xmlns:dc="http://purl.org/dc/elements/1.1/"
   xmlns:cc="http://creativecommons.org/ns#"
   xmlns:rdf="http://www.w3.org/1999/02/22-rdf-syntax-ns#"
   xmlns:svg="http://www.w3.org/2000/svg"
   xmlns="http://www.w3.org/2000/svg"
   xmlns:sodipodi="http://sodipodi.sourceforge.net/DTD/sodipodi-0.dtd"
   xmlns:inkscape="http://www.inkscape.org/namespaces/inkscape"
   width="226.13055mm"
   height="308.12238mm"
   viewBox="0 0 226.13056 308.12237"
   version="1.1"
   id="svg8"
   inkscape:version="1.0 (4035a4fb49, 2020-05-01)"
   sodipodi:docname="spring-temple.svg">
  <defs
     id="defs2" />
  <sodipodi:namedview
     id="base"
     pagecolor="#ffffff"
     bordercolor="#666666"
     borderopacity="1.0"
     inkscape:pageopacity="0.0"
     inkscape:pageshadow="2"
     inkscape:zoom="0.175"
     inkscape:cx="-244.08733"
     inkscape:cy="517.91433"
     inkscape:document-units="mm"
     inkscape:current-layer="layer1"
     inkscape:document-rotation="0"
     showgrid="false"
     inkscape:window-width="1207"
     inkscape:window-height="653"
     inkscape:window-x="67"
     inkscape:window-y="30"
     inkscape:window-maximized="0" />
  <metadata
     id="metadata5">
    <rdf:RDF>
      <cc:Work
         rdf:about="">
        <dc:format>image/svg+xml</dc:format>
        <dc:type
           rdf:resource="http://purl.org/dc/dcmitype/StillImage" />
        <dc:title />
      </cc:Work>
    </rdf:RDF>
  </metadata>
  <g
     inkscape:label="Layer 1"
     inkscape:groupmode="layer"
     id="layer1"
     transform="translate(33.393715,-57.877762)">
    <path
       sodipodi:nodetypes="ccccccccsccscccsscccscccccccccccccccccccscccccccccccccscccscccsccccccccccccccccc"
       id="path1013"
       d="m 42.100725,107.41403 -2.11667,-0.70555 -1.41111,4.58611 c -2.69698,-0.6343 -4.570591,0.45014 -6.350001,2.46944 l -2.11666,-3.52778 -1.91524,12.34723 -0.20143,13.05277 c 3.09033,1.1363 1.38853,5.87552 1.6644,8.46667 0.94192,8.84484 1.59809,17.92499 1.85844,26.81111 0.18768,6.40538 -0.079,13.00868 0.38946,19.40277 0.62089,8.46914 1.98191,16.86349 2.08351,25.4 0.12947,10.86873 -1.53635,21.68067 -1.40829,32.45556 0.0487,4.09469 1.07033,8.57497 1.46967,12.7 0.34749,3.59233 2.035531,6.51368 3.104801,9.87777 0.88618,2.78695 1.01529,5.46665 2.40383,8.11389 2.3375,4.45664 5.87481,5.35587 4.96252,10.922 -0.27446,1.67428 -2.19181,2.69628 -3.47556,3.59551 -1.71591,1.20192 -3.35563,0.79975 -5.29167,1.18957 -1.803751,0.36301 -2.671231,1.66476 -4.265081,2.32233 -1.1811,0.48754 -2.6342,0.20497 -3.70241,0.99872 -2.39677,1.78188 -3.82305,6.0579 -4.37973,8.84131 -0.65405,3.27025 -1.8983,7.26864 -1.86161,10.58334 0.03,2.72274 1.11584,5.44124 1.50883,8.11388 -5.54849,0.4378 -11.895309,-0.42827 -17.2861094,1.03259 -2.73544,0.74153 -3.03883,3.36303 -5.31072003,4.29648 -3.41276997,1.40229 -10.73367957,0.86042 -14.44483957,0.66816 0.27528,4.09857 -2.21636,2.45886 -4.8635,3.99274 -1.24093,0.71896 -1.23687,2.29658 -2.29877,3.15524 -2.1784,1.76107 -4.7807,1.40617 -6.91045,3.78848 -2.66591,2.98168 -0.5213,6.15774 -1.22277,9.52429 -0.42799,2.05458 -2.33002,2.44863 -4.10728,2.4698 l 9.66491,2.66841 0.91842,20.91731 127.705545,-13.34987 75.84723,1.40582 c 0,-3.47451 2.58445,-10.76043 -2.46944,-11.64167 v -6.35 l 1.41111,-1.76389 -2.82222,-0.35278 1.05833,-2.82222 c -2.56505,-0.48366 -5.87939,-0.98037 -7.58119,-3.1944 -1.27635,-1.66053 -1.20439,-4.35116 -2.82505,-5.76509 -1.38465,-1.20827 -5.06483,-1.49155 -6.87987,-1.97662 l 0.70556,-1.41111 -11.99445,-1.63583 -5.29166,-1.94733 -14.11112,-0.65017 c 0.69921,-2.18722 0.79869,-4.37409 3.52778,-4.23334 -0.91334,-1.95615 -2.23414,-3.80682 -2.55129,-5.99722 -0.70732,-4.88103 -0.26317,-9.92716 -3.08786,-14.39897 -3.36622,-5.32942 -11.53761,-8.28569 -17.29141,-9.94269 1.31939,-2.21227 3.91266,-3.21275 5.22499,-5.64445 1.37583,-2.54987 0.47872,-7.01675 3.24167,-8.46666 -0.82162,-3.63996 1.60338,-3.90843 2.29906,-7.05697 0.47413,-2.14489 -0.21449,-4.21393 -0.16299,-6.34859 0.0519,-2.15194 0.73837,-4.15043 0.68086,-6.35 -0.10371,-3.99273 -1.42945,-8.00629 -1.72684,-11.99444 -1.00718,-13.51703 -0.48754,-28.72669 2.11349,-41.98055 0.51329,-2.61479 -0.45191,-5.76862 -0.30762,-8.46667 0.14746,-2.75766 1.77165,-5.1442 2.55023,-7.76111 0.532,-1.78682 0.37006,-5.22005 2.66771,-5.29167 0,-3.18628 0.25365,-6.22864 -1.20438,-9.17222 -1.25414,-2.53153 -3.35069,-4.04565 -3.67313,-7.05555 -0.35066,-3.27343 0.30727,-6.55073 -0.21626,-9.87778 -0.91969,-5.84235 -3.09703,-11.31076 -3.66571,-17.28611 -0.85831,-9.01735 -0.45367,-20.6763 -6.91797,-27.83804 -3.44347,-3.81494 -8.72455,-4.63868 -13.250325,-6.54509 -2.33398,-0.98354 -4.19136,-3.51896 -6.70278,-3.71687 1.92758,-2.883947 1.46191,-6.244867 1.86478,-9.524997 0.71367,-5.80778 4.37056,-13.945305 2.47474,-19.755555 -1.01494,-3.110089 -3.76555,-5.269794 -6.08965,-7.362472 -4.51591,-4.066469 -9.28053,-8.179152 -15.88876,-5.882922 -2.69064,0.934861 -4.68171,2.84233 -6.70278,4.764969 -1.70286,1.619956 -3.90066,2.973564 -5.19571,4.966405 -2.60985,4.017081 -2.13748,10.706815 -1.02059,15.155695 1.31587,5.24263 2.10327,8.75029 2.10538,14.11111 7.1e-4,1.25271 1.05481,2.946397 0.30515,4.095747 -2.34738,3.59833 -10.84685,4.03683 -14.53867,5.86951 -1.4344,0.71191 -3.66536,2.51284 -5.27579,2.52413 -1.45945,0.0102 -1.50495,-1.56281 -1.42699,-2.61162"
       style="fill:#010101;stroke:none;stroke-width:0.352778" />
  </g>
</svg>
