<?xml version="1.0" encoding="UTF-8" standalone="no"?>
<svg
   xmlns:dc="http://purl.org/dc/elements/1.1/"
   xmlns:cc="http://creativecommons.org/ns#"
   xmlns:rdf="http://www.w3.org/1999/02/22-rdf-syntax-ns#"
   xmlns:svg="http://www.w3.org/2000/svg"
   xmlns="http://www.w3.org/2000/svg"
   xmlns:sodipodi="http://sodipodi.sourceforge.net/DTD/sodipodi-0.dtd"
   xmlns:inkscape="http://www.inkscape.org/namespaces/inkscape"
   width="113.40604mm"
   height="163.66983mm"
   viewBox="0 0 113.40604 163.66983"
   version="1.1"
   id="svg8"
   inkscape:version="1.0 (4035a4fb49, 2020-05-01)"
   sodipodi:docname="stay-puft.svg">
  <defs
     id="defs2" />
  <sodipodi:namedview
     id="base"
     pagecolor="#ffffff"
     bordercolor="#666666"
     borderopacity="1.0"
     inkscape:pageopacity="0.0"
     inkscape:pageshadow="2"
     inkscape:zoom="0.35"
     inkscape:cx="300.32295"
     inkscape:cy="288.49045"
     inkscape:document-units="mm"
     inkscape:current-layer="layer1"
     inkscape:document-rotation="0"
     showgrid="false"
     inkscape:window-width="1207"
     inkscape:window-height="653"
     inkscape:window-x="81"
     inkscape:window-y="40"
     inkscape:window-maximized="0" />
  <metadata
     id="metadata5">
    <rdf:RDF>
      <cc:Work
         rdf:about="">
        <dc:format>image/svg+xml</dc:format>
        <dc:type
           rdf:resource="http://purl.org/dc/dcmitype/StillImage" />
        <dc:title></dc:title>
      </cc:Work>
    </rdf:RDF>
  </metadata>
  <g
     inkscape:label="Layer 1"
     inkscape:groupmode="layer"
     id="layer1"
     transform="translate(-26.880885,-136.99696)">
    <path
       d="m 74.430436,136.99775 c -2.916616,0.0437 -6.114862,1.77833 -8.474417,2.84117 -1.635125,0.73624 -3.372043,-0.25606 -4.872053,0.70279 -1.206148,0.77118 -1.614696,2.29172 -2.52698,3.34089 -5.440537,6.25827 -7.062033,12.98491 -7.417633,21.26743 3.541887,-2.552 0.01024,-10.44046 3.8809,-12.7 -0.02963,1.66723 -0.592441,4.17935 0.857827,5.43171 1.475319,1.27388 3.199125,-0.0255 4.786273,0.0553 1.481666,0.0755 3.267601,2.07461 3.865914,3.33262 2.151944,4.52579 -3.378022,13.64509 3.542419,15.875 v 0.35295 l -12.347051,0.70538 c 0.03281,1.58398 1.340141,4.50049 0.634587,5.89008 -0.670983,1.3208 -2.950747,1.09477 -4.162536,1.44332 -3.810354,1.09537 -5.50636,4.72931 -8.833053,6.14536 -2.621492,1.11548 -5.700514,-1.31093 -6.688998,2.74919 -1.907283,-0.45284 -3.109761,-0.0486 -3.818887,0.83974 a 4.2633219,2.7062824 0 0 0 -1.712558,-1.08675 4.2633219,2.7062824 0 0 0 -4.263305,2.70629 4.2633219,2.7062824 0 0 0 3.712951,2.35696 2.7062824,4.2633219 69.799999 0 0 -2.449979,3.74913 2.7062824,4.2633219 69.799999 0 0 3.812686,1.37201 2.7062824,4.2633219 44.499998 0 0 -0.723985,4.5713 2.7062824,4.2633219 44.499998 0 0 4.625039,-0.863 c 2.029277,1.59655 4.717552,2.05359 7.52099,2.58175 -0.343252,3.34222 3.310112,6.07625 6.35,6.35 -1.627717,8.39294 -3.584596,17.07374 -0.418063,25.4 0.838906,2.20592 2.08312,4.23509 3.654041,5.99757 0.872771,0.97966 2.665196,2.16218 2.904731,3.52743 0.457552,2.60809 -4.231214,5.93266 -4.255553,9.17257 -0.02752,3.67735 3.043298,4.61181 3.833873,7.46931 0.63359,2.2899 -1.390592,5.74681 -1.068152,8.40569 0.372885,3.07162 3.024013,4.99464 3.608565,7.76076 0.886179,4.19523 -4.023458,7.57012 -1.961121,12.34604 2.213682,5.12656 15.559103,4.09072 19.086174,0.98028 4.173715,-3.68052 2.577952,-8.26037 3.313493,-12.87259 0.301273,-1.89124 2.57106,-3.34457 3.086116,-5.39245 0.851607,-3.38383 -0.875234,-6.71245 -0.345715,-9.87794 0.341842,-2.04293 2.972268,-3.67349 3.839043,-5.6441 h 0.352949 c 0.675569,1.61219 2.336139,3.25173 2.629297,4.93872 0.344665,1.98402 -0.957297,4.53476 -0.851112,6.70294 0.120653,2.4638 1.794431,3.79855 2.446364,5.99705 0.507648,1.71238 0.02504,3.52319 0.698148,5.29167 2.821165,7.40976 10.954955,9.65073 18.007685,10.48258 3.12209,0.36864 8.0119,-0.16336 9.79837,-3.07941 2.18933,-3.57293 0.48561,-7.52919 -2.40399,-10.11928 -0.91864,-0.82338 -3.01794,-1.6719 -3.31039,-2.96519 -0.38912,-1.72402 1.84931,-4.49897 2.15129,-6.31332 0.46214,-2.77247 -1.62246,-5.21512 -1.25522,-7.76076 0.24729,-1.71344 2.12792,-3.31928 2.8236,-4.93923 1.92511,-4.48169 1.04541,-10.58335 -3.57032,-13.05244 8.31991,-8.32062 9.40717,-20.48932 5.29166,-31.39756 3.24838,-1.46932 6.11312,-3.0413 7.76128,-6.35 l 3.88039,0.35295 c 1.0627,0.4715 1.7722,0.44918 2.4107,0.0202 a 3.8419997,2.4388344 45.500001 0 0 0.0662,0.0682 3.8419997,2.4388344 45.500001 0 0 4.43229,1.03095 3.8419997,2.4388344 45.500001 0 0 -0.65268,-4.11965 3.8419997,2.4388344 20.2 0 0 3.43649,-1.2361 3.8419997,2.4388344 20.2 0 0 -1.76424,-3.13831 3.8419995,2.4388344 0 0 0 2.90215,-2.36471 3.8419995,2.4388344 0 0 0 -3.84163,-2.43861 3.8419995,2.4388344 0 0 0 -1.98799,0.35192 c -1.68412,-3.60344 -4.77168,-4.88972 -7.77627,-7.2068 -1.5487,-1.19451 -2.3461,-3.12285 -3.94136,-4.35581 -3.22968,-2.49591 -8.3444,-3.41971 -12.33361,-3.42253 0.89394,-1.17227 2.96471,-3.56861 2.48563,-5.18469 -0.32491,-1.09502 -2.26003,-1.27442 -3.19102,-1.39578 -3.05822,-0.39828 -6.06654,-1.15454 -9.17204,-1.18029 3.56764,-5.38269 1.77504,-14.55084 0.5643,-20.46129 -0.51258,-2.5012 -1.265315,-5.51358 -3.74499,-6.73137 -3.121022,-1.53317 -7.840437,-1.8193 -11.283547,-2.05672 -1.832327,-0.12629 -4.020265,0.20965 -5.60741,-0.94464 -3.822348,-2.77954 0.483581,-7.77089 -3.245281,-9.69812 -0.868098,-0.44864 -1.80902,-0.62227 -2.781226,-0.60771 z"
       style="fill:#020102;stroke:none;stroke-width:0.352777"
       id="path92" />
  </g>
</svg>
