<?xml version="1.0" encoding="UTF-8" standalone="no"?>
<svg
   xmlns:dc="http://purl.org/dc/elements/1.1/"
   xmlns:cc="http://creativecommons.org/ns#"
   xmlns:rdf="http://www.w3.org/1999/02/22-rdf-syntax-ns#"
   xmlns:svg="http://www.w3.org/2000/svg"
   xmlns="http://www.w3.org/2000/svg"
   xmlns:sodipodi="http://sodipodi.sourceforge.net/DTD/sodipodi-0.dtd"
   xmlns:inkscape="http://www.inkscape.org/namespaces/inkscape"
   version="1.1"
   id="svg1729"
   width="80.738487"
   height="470.21606"
   viewBox="0 0 80.738491 470.21605"
   sodipodi:docname="taipei.svg"
   inkscape:version="1.0 (4035a4fb49, 2020-05-01)">
  <metadata
     id="metadata1735">
    <rdf:RDF>
      <cc:Work
         rdf:about="">
        <dc:format>image/svg+xml</dc:format>
        <dc:type
           rdf:resource="http://purl.org/dc/dcmitype/StillImage" />
        <dc:title />
      </cc:Work>
    </rdf:RDF>
  </metadata>
  <defs
     id="defs1733" />
  <sodipodi:namedview
     inkscape:document-rotation="0"
     pagecolor="#ffffff"
     bordercolor="#666666"
     borderopacity="1"
     objecttolerance="10"
     gridtolerance="10"
     guidetolerance="10"
     inkscape:pageopacity="0"
     inkscape:pageshadow="2"
     inkscape:window-width="1072"
     inkscape:window-height="651"
     id="namedview1731"
     showgrid="false"
     inkscape:zoom="0.52836591"
     inkscape:cx="314.60927"
     inkscape:cy="309.27433"
     inkscape:window-x="115"
     inkscape:window-y="38"
     inkscape:window-maximized="0"
     inkscape:current-layer="g1737" />
  <g
     inkscape:groupmode="layer"
     inkscape:label="Image"
     id="g1737"
     transform="translate(120.81516,-454.91585)">
    <path
       style="fill:#020202;stroke:none;stroke-width:0.898884"
       d="m -82.742954,454.91585 -0.898884,35.05645 -4.494416,0.89889 3.595532,4.49441 v 0.89888 c -5.268354,6.7766 -10.43963,16.38125 -9.537151,25.38986 0.605847,6.05488 4.098908,11.64324 2.026082,18.13767 -2.163611,6.77668 -5.670159,5.05442 -10.275129,8.28591 -3.16947,2.22383 -8.52861,10.94839 -9.28008,14.70393 -0.90158,4.5079 1.449,10.66345 1.82024,15.28102 0.46023,5.72139 -1.1182,10.77132 -0.92135,16.1799 0.24988,6.86927 2.498,13.75561 2.4198,20.67432 -0.0414,3.68722 -3.13261,6.26701 -3.20722,9.88771 -0.15191,7.41669 2.66249,14.99877 2.4126,22.47209 -0.10786,3.22699 -2.48901,5.74206 -2.40361,8.98883 0.18876,7.12276 2.77934,14.40281 2.39102,21.56961 -0.16899,3.11463 -2.69665,5.15959 -3.17844,8.17445 -1.40855,8.82883 -0.13215,18.83967 -0.13215,27.78444 h 0.89889 v -5.39329 h 0.89888 c 0.36675,5.41667 -2.0036,9.97761 -1.71416,15.28101 0.37302,6.82973 3.18923,14.78844 2.07371,21.57321 -0.53753,3.27283 -3.25036,5.56588 -3.36541,8.98883 -0.54832,16.24642 3.25845,32.37329 3.52901,48.50465 0.0531,3.15777 -1.95777,5.85622 -2.08271,9.02748 -0.67417,17.08598 -1.07776,34.02634 -3.19103,51.23275 -1.75823,14.31472 -3.15958,28.76967 -4.31555,43.1464 -0.33708,4.20139 -2.72541,12.17538 0.61934,15.65047 4.05486,4.21126 15.67473,3.22609 21.031168,3.22609 h 57.528534 c 1.324954,-8.24995 -0.846748,-16.91788 -1.644957,-25.16873 -1.879565,-19.41678 -4.493518,-38.95222 -5.577571,-58.42742 -0.39371,-7.05804 -5.228805,-21.11926 -0.867422,-26.9665 -0.02528,-9.96322 -0.670568,-18.62936 0.645398,-28.76427 0.485397,-3.73396 1.742036,-8.25085 -1.544282,-10.7866 l 0.898884,-35.05646 -0.0098,-17.97766 0.0098,-47.64079 c -3.407667,-2.21754 -2.202264,-5.34566 -1.865184,-8.98884 0.735287,-7.94882 1.171246,-15.44551 0.9663,-23.37096 -4.260707,-5.62342 -0.363149,-15.88507 -0.09439,-22.47209 0.409891,-10.03064 1.213492,-21.37814 0.942031,-31.46002 -0.135732,-5.03824 -2.137546,-9.22613 -1.493047,-14.38663 0.783828,-6.2679 4.024301,-17.98395 -0.854838,-23.24782 -3.443621,-3.71418 -10.138505,-2.63372 -14.679661,-3.71508 l 1.797766,-5.3933 c -12.555602,-3.68992 -4.903408,-15.07787 -4.259808,-24.26985 0.27416,-3.91373 -0.799107,-8.61228 -1.133491,-12.58436 h -6.292184 l 1.797767,-14.38214 h -5.393302 c 2.316424,-8.4256 1.600913,-26.62206 -0.898883,-35.05645 z"
       id="path214" />
  </g>
</svg>
