<?xml version="1.0" encoding="UTF-8" standalone="no"?>
<svg
   xmlns:dc="http://purl.org/dc/elements/1.1/"
   xmlns:cc="http://creativecommons.org/ns#"
   xmlns:rdf="http://www.w3.org/1999/02/22-rdf-syntax-ns#"
   xmlns:svg="http://www.w3.org/2000/svg"
   xmlns="http://www.w3.org/2000/svg"
   xmlns:sodipodi="http://sodipodi.sourceforge.net/DTD/sodipodi-0.dtd"
   xmlns:inkscape="http://www.inkscape.org/namespaces/inkscape"
   inkscape:version="1.0 (4035a4fb49, 2020-05-01)"
   sodipodi:docname="taipei.svg"
   viewBox="0 0 52.324343 351.42061"
   height="351.42062"
   width="52.324341"
   id="svg1729"
   version="1.1">
  <metadata
     id="metadata1735">
    <rdf:RDF>
      <cc:Work
         rdf:about="">
        <dc:format>image/svg+xml</dc:format>
        <dc:type
           rdf:resource="http://purl.org/dc/dcmitype/StillImage" />
        <dc:title />
      </cc:Work>
    </rdf:RDF>
  </metadata>
  <defs
     id="defs1733" />
  <sodipodi:namedview
     inkscape:current-layer="g1737"
     inkscape:window-maximized="0"
     inkscape:window-y="38"
     inkscape:window-x="115"
     inkscape:cy="225.7858"
     inkscape:cx="-194.75648"
     inkscape:zoom="0.74722224"
     showgrid="false"
     id="namedview1731"
     inkscape:window-height="651"
     inkscape:window-width="1072"
     inkscape:pageshadow="2"
     inkscape:pageopacity="0"
     guidetolerance="10"
     gridtolerance="10"
     objecttolerance="10"
     borderopacity="1"
     bordercolor="#666666"
     pagecolor="#ffffff"
     inkscape:document-rotation="0" />
  <g
     transform="translate(-427.83981,-350.60353)"
     id="g1737"
     inkscape:label="Image"
     inkscape:groupmode="layer">
    <path
       sodipodi:nodetypes="ccccccssccssccsscsscccccccccccccccccsscccscccccccccccccccccsscssccssccsscccccccc"
       style="stroke-width:4.0403"
       d="m 453.04273,350.60353 -0.24822,28.90709 c -2.39599,0.48771 -3.12634,2.77786 -1.20747,4.05571 v 2.02786 h 0.49773 v 1.21672 h -1.67563 c -0.96439,0 -1.23706,0.81115 -1.23706,1.21672 l -0.82802,9.55881 h -1.58697 c 0,0 0.5028,7.14922 0.5028,7.55479 0,0.81115 0.80501,1.21672 1.20748,1.21672 h 0.80499 l -0.10026,9.73775 h -4.42745 c -0.80498,0 -1.20749,0.81115 -1.20749,1.21672 v 5.67802 h -5.23243 c -0.80499,0 -1.20749,0.81113 -1.20749,1.2167 v 1.21672 h -1.20748 l 2.41497,25.14548 h -2.41497 l 2.41497,24.73991 h -2.41497 l 2.41497,24.73991 h -2.41497 l 2.81746,24.73991 h -2.81746 l 2.41497,23.92877 h -2.41497 l 2.81746,24.33434 h -2.81746 l 2.81746,25.14548 h -2.81746 l 2.41497,25.95663 h -1.61003 c -0.4025,0 -0.80499,0.81114 -0.80499,1.21672 0,2.02786 -8.0499,76.65313 -8.0499,76.65313 h 52.32434 c 0,0 -8.04991,-74.62527 -8.4524,-75.43642 0,-0.40557 -0.40248,-1.21671 -0.80499,-1.21671 h -1.60998 l 2.41497,-25.95663 h -2.81746 l 2.81746,-25.14549 h -2.81746 l 2.81746,-24.33433 h -2.41497 l 2.41497,-23.92877 h -2.81746 l 2.81746,-24.73991 h -2.41497 l 2.41497,-24.73991 h -2.41497 l 2.41497,-24.73991 h -2.01247 l 2.41496,-26.35818 h -1.20748 v -1.21672 c 0,-0.81115 -0.40264,-1.20117 -1.20748,-1.21672 h -5.23244 v -5.37483 c 0,-0.81115 -0.80498,-1.21672 -1.20747,-1.21672 h -4.42745 v -10.04093 h 0.80498 c 0.80501,0 1.20748,-0.81114 1.20748,-1.21671 0,-0.81115 0.40251,-7.55881 0.40251,-7.55881 h -1.64609 l -0.76888,-9.52117 c -0.0653,-0.80851 -0.72007,-1.21672 -1.20749,-1.21672 h -1.62307 v -1.21671 h 0.41559 v -2.06551 c 2.03385,-1.21744 1.34992,-3.63691 -1.20748,-4.05571 l -0.28369,-28.90709 h -1.88308 z"
       id="path80" />
  </g>
</svg>
