<?xml version="1.0" encoding="UTF-8" standalone="no"?>
<svg
   xmlns:dc="http://purl.org/dc/elements/1.1/"
   xmlns:cc="http://creativecommons.org/ns#"
   xmlns:rdf="http://www.w3.org/1999/02/22-rdf-syntax-ns#"
   xmlns:svg="http://www.w3.org/2000/svg"
   xmlns="http://www.w3.org/2000/svg"
   xmlns:sodipodi="http://sodipodi.sourceforge.net/DTD/sodipodi-0.dtd"
   xmlns:inkscape="http://www.inkscape.org/namespaces/inkscape"
   inkscape:version="1.0 (4035a4fb49, 2020-05-01)"
   sodipodi:docname="voltron.svg"
   viewBox="0 0 640.32577 682.55803"
   height="682.55804"
   width="640.32574"
   id="svg1729"
   version="1.1">
  <metadata
     id="metadata1735">
    <rdf:RDF>
      <cc:Work
         rdf:about="">
        <dc:format>image/svg+xml</dc:format>
        <dc:type
           rdf:resource="http://purl.org/dc/dcmitype/StillImage" />
        <dc:title></dc:title>
      </cc:Work>
    </rdf:RDF>
  </metadata>
  <defs
     id="defs1733" />
  <sodipodi:namedview
     inkscape:current-layer="g1737"
     inkscape:window-maximized="0"
     inkscape:window-y="57"
     inkscape:window-x="115"
     inkscape:cy="377.2534"
     inkscape:cx="630.52698"
     inkscape:zoom="0.37361112"
     showgrid="false"
     id="namedview1731"
     inkscape:window-height="651"
     inkscape:window-width="1072"
     inkscape:pageshadow="2"
     inkscape:pageopacity="0"
     guidetolerance="10"
     gridtolerance="10"
     objecttolerance="10"
     borderopacity="1"
     bordercolor="#666666"
     pagecolor="#ffffff"
     inkscape:document-rotation="0" />
  <g
     transform="translate(204.38507,-316.43688)"
     id="g1737"
     inkscape:label="Image"
     inkscape:groupmode="layer">
    <path
       sodipodi:nodetypes="ccccsccscscccccccccccccccccccccccccccccccccccccccccccsccccccccccccccccccccccccccccccccccccccccccccccccscccscccccccccsccccccccccccccccccccccccccccccsccscccccccccscscccccccccccccccccscscccccccc"
       id="path124"
       d="m 266.35223,426.24595 -14.97801,-7.60348 -24.60672,-3.0951 c 6.69624,-9.19521 0.55312,-14.78714 2.13972,-24.60672 5.10001,0.40804 18.08273,-2.77147 19.09909,-8.67109 0.79491,-4.6144 -1.5331,-19.16361 -9.13979,-16.14865 -6.18378,2.45137 -0.24286,12.67022 -6.74973,16.26088 -9.47038,-20.06935 -34.03003,-24.64514 -52.32352,-13.29887 -4.32009,2.67946 -8.58561,12.91671 -13.05547,13.54493 -7.70833,1.08313 -3.47383,-12.86407 -8.76427,-14.42007 -7.53715,-2.21675 -10.98209,14.4496 -7.89555,19.0593 3.34437,4.99666 13.9841,4.01806 18.68827,8.28893 7.1766,6.51469 -1.15224,18.52459 10.92752,18.9215 -6.17842,5.9452 -21.60898,6.83746 -29.95601,8.55886 -1.79094,-11.10886 -20.40539,-22.53462 -28.41755,-30.16977 -2.64362,-2.51983 -6.73583,-8.42127 -11.01312,-7.45519 -7.6559,1.72953 -3.67603,25.97978 -2.29377,31.20582 -12.286242,0.25355 -35.172642,1.98458 -45.582352,8.88303 -3.78088,2.50667 -4.44847,8.50964 -5.77188,12.51412 -3.63431,10.99814 -9.82878,21.48916 -6.53683,33.16451 2.80303,9.9454 13.85466,16.35278 17.66121,25.86381 2.00919,5.01977 0.7842,17.02143 -0.42474,22.28085 -26.25323,-11.61972 -36.99888,37.50386 -39.58472,56.70245 -7.00971,-2.94745 -7.20442,-13.05012 -15.98475,-13.16245 -7.9255002,-0.10164 0.57559,8.70329 -3.7284502,10.69536 -2.2788,1.05488 -5.18881,-1.37048 -7.03324,-2.39113 -6.46622,-3.5776 -14.1338898,-2.46281 -20.2684498,-6.23299 -5.37497,-3.30479 -4.43991,-8.42299 -6.72192,-13.51551 -3.46206,-7.72544 -11.80588,-18.00356 -20.08336,-20.32729 l 2.13971,10.69857 c -21.92031,-15.5814 -41.91595,-38.79196 -60.981878,-57.77338 -7.68264,-7.64841 -20.19409,-15.98367 -25.0797,-25.67551 -7.29483,-14.47089 -7.78493,-27.96714 -18.95039,-40.65458 -3.86989,-4.39755 -7.35505,-10.53361 -13.74221,-9.62872 3.89578,9.35697 13.9886,20.65253 11.76843,31.02587 -1.85342,-2.41895 -3.35785,-6.77648 -5.89416,-8.45402 -3.07306,-2.03273 -6.5194,-1.15544 -8.72726,-4.86357 -3.84229,-6.45231 -1.86519,-23.02259 -15.33459,-20.91785 l 5.34929,13.90814 c -8.20078,-5.82291 -18.7393,-14.71963 -28.88615,-16.04786 5.00715,9.7035 13.77335,18.19828 20.48991,26.84166 3.83169,4.93204 7.93128,11.0773 -1.23247,10.60335 1.7934,6.11531 8.00659,10.83231 13.90814,12.8383 l 1.06986,-7.48901 6.41914,12.83829 c 6.98307,-0.0246 9.19949,2.81052 8.55886,9.62872 l -17.11772,-1.06986 c 4.00362,5.19202 14.62324,15.66165 21.39715,16.30249 5.37293,0.50926 11.32081,-5.93236 16.50191,-3.49843 8.17371,3.83865 15.83229,13.71557 22.31787,19.92289 13.907078,13.31009 28.650778,25.72686 42.531118,39.05301 6.95728,6.67912 17.7393,13.22665 21.35542,22.36751 l -6.41914,1.06986 c 3.5102,6.09818 10.42897,12.53338 17.11772,14.97907 3.90605,1.42826 8.17478,-0.48571 11.53948,2.435 5.90454,5.12355 7.2868,15.62741 11.51381,22.17066 2.35154,3.63965 6.7721898,7.35313 7.5414198,11.76415 0.72643,4.16175 -3.7038498,6.68126 -3.2459498,10.74458 0.6697298,5.94627 5.9430598,8.70864 11.1661098,7.44728 1.50208,4.93311 7.67943,6.6267 10.0374002,0.84091 2.62329,-6.43627 -4.3008302,-17.19155 8.15017,-13.6792 -0.67936,2.84475 -1.11265,5.63066 -1.2742,8.55886 -0.99282,17.99179 16.78179,14.08146 27.71574,19.10551 8.43154,3.87503 18.71287,15.52685 22.77191,23.68879 l -4.27943,1.06986 c 2.86936,7.40555 9.22645,13.45132 17.11772,14.978 v -6.41914 l 13.90815,2.13971 -7.489,-19.25743 c 11.88718,-2.54733 -17.02251,-26.43618 -12.83829,-9.62872 -3.37433,-2.14507 -20.0256,-13.83433 -16.74327,-18.3074 2.58691,-3.52304 10.54879,-0.86766 13.46201,-5.67667 2.37937,-3.92745 -0.73178,-8.24967 3.52625,-11.78769 5.64885,-4.69346 13.33471,-1.70107 15.80287,-10.23212 l -5.34929,-2.13971 c 3.13468,-8.49574 8.92475,-14.35856 13.49091,-21.79835 10.189322,-16.60098 15.381342,-54.34341 -10.28134,-56.30125 v -2.13972 c 9.0189,-4.21738 8.6819,-15.2016 17.133772,-19.1558 15.95051,-7.46225 36.46396,14.94698 33.23192,30.88251 -2.17395,10.71676 -13.70167,8.77604 -18.97286,15.53647 -3.89107,4.99089 -7.46225,21.36506 -2.93141,26.64373 5.19416,6.05112 15.54289,7.05465 22.89174,7.07497 v 1.06986 c -22.54403,7.34778 -30.69421,16.54535 -29.15361,40.65459 0.28993,4.54368 3.65463,8.39196 3.59044,12.83829 -0.2343,16.51539 -2.65753,36.27459 2.02631,52.42302 l -25.217612,5.23588 -5.25407,15.09141 -5.58038,10.88045 -7.75821,69.26928 -6.10568,23.24373 -6.65558,5.84142 -2.77735,25.51931 10.50386,29.50239 -3.01914,10.08234 c -6.66949,-3.4856 -11.93426,-4.32436 -19.25743,-2.13971 -0.93292,-3.87182 -0.71467,-9.12589 -3.14324,-12.41677 -2.94532,-3.9895 -9.74427,-4.72235 -11.37045,0.71145 -1.44538,4.82506 0.65261,9.25427 1.6754,13.84503 -6.86421,0.46111 -20.33692,7.53608 -25.25934,12.44672 -3.30051,3.29409 -4.30297,8.28712 -8.1341302,11.0955 -6.9958,5.12889 -18.4261498,3.74129 -24.7500798,9.4554 -9.45433,8.54281 2.39327,33.91769 10.45786,39.252 6.8299698,4.51694 16.2832298,-0.016 24.14882,0.55954 4.61002,0.337 8.30959,3.27376 12.83829,3.77231 10.24068,1.12656 20.98847,-2.0798 31.02587,-3.5102 5.20272,-0.74141 10.86012,0.2664 15.88952,-1.63474 6.66629,-2.51952 1.36728,-11.42822 10.85799,-13.19348 10.30273,-1.91719 15.182352,4.50945 24.605652,6.62883 20.22031,4.54797 41.92023,-6.15382 50.2833,-25.28715 l 33.16558,14.97801 c 2.45747,-8.57812 -4.25375,-14.95982 -7.489,-22.46701 12.22419,-5.42204 9.59021,-16.63736 8.25395,-27.8163 -2.65752,-22.21773 -9.29171,-39.97095 -16.82244,-60.98188 -1.81875,-5.07219 -0.0182,-10.78309 0.009,-16.04786 0.12625,-24.19483 21.83861,-61.1619 22.61105,-85.54074 0.37659,-11.88612 -19.85014,-23.44272 -24.13706,-34.9469 -3.47811,-9.33237 2.98062,-13.49305 5.80505,-21.75556 2.57515,-7.53286 1.88937,-15.84138 3.72203,-23.53686 10.21607,3.94135 29.58584,7.45156 35.3053,-4.27943 h 1.06986 c 6.93374,20.53056 14.10282,17.868 14.60672,39.40102 -7.63343,0.0696 -19.73459,3.36043 -18.18758,12.8383 -4.30189,1.17363 -11.41003,2.56123 -13.87819,6.65986 -2.40825,3.99699 -0.95003,10.5381 0.13587,14.73729 3.00095,11.60688 6.88882,32.80076 16.56354,40.8065 6.1367,5.07755 15.88738,-4.68811 20.42144,2.16219 8.19617,12.38253 8.26207,22.50056 10.06264,36.75963 -20.2524,3.16036 -10.25993,38.97919 4.27943,41.72444 -1.04418,11.70531 8.31493,24.50081 12.24024,35.3053 4.76194,13.10576 5.61568,31.02801 6.93696,44.93402 0.70289,7.38843 2.21781,15.39525 10.77881,16.04786 l 4.45489,23.07255 8.80813,5.97195 5.43702,18.5449 10.95106,0.9522 13.23949,12.298 38.41858,2.282 13.66743,-1.2614 5.59,-11.5769 c 14.57146,3.4267 11.90217,-12.9464 10.69858,-22.46698 12.84257,-2.71532 17.79815,-37.63868 11.98347,-47.96174 -9.12267,-16.19443 -6.07893,-37.13903 -14.06327,-53.67475 -1.8102,-3.74664 -5.01549,-11.48599 -8.97076,-13.26302 -3.7766,-1.69573 -8.38233,0.60446 -11.33621,-3.12506 -6.20624,-7.83778 -8.40266,-22.38998 -11.94068,-31.75551 -4.26231,-11.28593 -4.44312,-23.60534 -8.88302,-35.3053 -1.21429,-3.19994 -1.90542,-8.81349 -5.23161,-10.56912 -3.7445,-1.9771 -10.66541,1.46891 -14.67951,2.01026 -1.55023,-10.34659 -4.83104,-13.29552 -8.69858,-23.02587 -1.49673,-3.7659 -4.89994,-9.59983 -4.14997,-13.76586 1.24852,-6.92732 15.58033,-5.10108 19.09374,-11.08158 2.35797,-4.01304 -0.38729,-9.75924 -1.77596,-13.66743 l -10.69858,-29.95601 c -1.43895,-4.04193 -2.76237,-10.21393 -6.27578,-12.98593 -5.86068,-4.62286 -14.5415,2.01989 -20.80017,2.22102 -7.28201,-2.92696 -18.38735,-1.06017 -20.48777,-3.34758 -11.91022,-14.02665 -2.30417,-28.8493 -15.5161,-37.05697 v -2.13972 c 16.39877,-4.88497 8.87874,-20.60331 4.99195,-32.09572 -1.85192,-5.47554 -6.63418,-10.10588 -8.0143,-15.43163 -1.7428,-6.72833 0.93506,-15.26045 -1.90221,-21.78551 -1.9696,-4.52978 -8.5396,-5.85212 -11.89895,-9.19222 -6.69089,-6.65023 -2.24563,-18.42401 2.90894,-24.97261 4.05048,-5.14709 13.89317,-6.09391 19.26385,-10.96497 1.72248,-1.56199 3.78623,-3.83437 6.37315,-3.4749 4.962,0.69113 6.41379,8.51821 10.79058,10.72425 7.91373,3.98843 29.22744,-2.53021 29.91,-11.56088 10.35409,7.99077 19.49281,25.33744 33.16559,27.8163 0.53172,6.73047 -0.2771,16.55177 3.4535,22.35574 6.85457,10.6622 24.71157,13.54226 32.75689,3.262 3.18069,-4.06225 3.16143,-10.02029 4.44419,-14.91916 22.65317,5.17597 26.93473,-21.18853 37.55307,-36.37516 3.87075,-5.53544 14.07933,-15.95051 13.23093,-23.29294 -0.87728,-7.59599 -17.22364,-2.27131 -21.29979,-6.11531 -12.52697,-11.81657 -9.64477,-36.42972 -30.55407,-41.70304 -5.33537,-1.34481 -8.16622,3.54978 -12.83829,4.75123 -6.22229,1.59944 -14.84106,0.58094 -21.39715,1.09875 0.0899,-10.86013 0.12304,-17.74252 -4.9299,-27.8163 -2.18144,-4.34983 -9.49177,-11.12288 -8.72148,-16.04786 0.84947,-5.4306 6.53362,-11.4938 9.42224,-16.04787 9.38907,-14.80308 22.41672,-29.11018 22.41672,-47.07373 0,-4.35935 2.05948,-16.25317 -1.85941,-19.20704 -3.83972,-2.89311 -7.93727,3.53919 -9.90902,5.91556 -7.53394,9.08074 -15.20802,18.04475 -22.67349,27.18401 -6.95193,8.5104 -15.26152,22.39576 -24.49653,28.33379 -4.35753,2.80227 -8.0464,-1.86712 -12.46491,-0.74462 -13.48983,3.42761 -34.12631,14.17689 -35.34167,30.19876 -0.49962,6.59567 4.41423,11.78662 5.10857,18.18758 z"
       style="fill:#020203;stroke:none;stroke-width:1.06986" />
  </g>
</svg>
