<?xml version="1.0" encoding="UTF-8" standalone="no"?>
<svg
   xmlns:dc="http://purl.org/dc/elements/1.1/"
   xmlns:cc="http://creativecommons.org/ns#"
   xmlns:rdf="http://www.w3.org/1999/02/22-rdf-syntax-ns#"
   xmlns:svg="http://www.w3.org/2000/svg"
   xmlns="http://www.w3.org/2000/svg"
   xmlns:sodipodi="http://sodipodi.sourceforge.net/DTD/sodipodi-0.dtd"
   xmlns:inkscape="http://www.inkscape.org/namespaces/inkscape"
   sodipodi:docname="willis.svg"
   inkscape:version="1.0 (4035a4fb49, 2020-05-01)"
   id="svg111"
   version="1.1"
   viewBox="0 0 105.83336 619.12494"
   height="619.12494mm"
   width="105.83336mm">
  <defs
     id="defs105" />
  <sodipodi:namedview
     inkscape:window-maximized="0"
     inkscape:window-y="14"
     inkscape:window-x="67"
     inkscape:window-height="728"
     inkscape:window-width="1274"
     showgrid="false"
     inkscape:document-rotation="0"
     inkscape:current-layer="layer1"
     inkscape:document-units="mm"
     inkscape:cy="1505.2237"
     inkscape:cx="491.77794"
     inkscape:zoom="0.175"
     inkscape:pageshadow="2"
     inkscape:pageopacity="0.0"
     borderopacity="1.0"
     bordercolor="#666666"
     pagecolor="#ffffff"
     id="base" />
  <metadata
     id="metadata108">
    <rdf:RDF>
      <cc:Work
         rdf:about="">
        <dc:format>image/svg+xml</dc:format>
        <dc:type
           rdf:resource="http://purl.org/dc/dcmitype/StillImage" />
        <dc:title></dc:title>
      </cc:Work>
    </rdf:RDF>
  </metadata>
  <g
     transform="translate(-83.517803,162.5631)"
     id="layer1"
     inkscape:groupmode="layer"
     inkscape:label="Layer 1">
    <path
       id="path127"
       d="M 83.517803,301.15483 V 145.74779 l 0.54837,-0.69713 0.54837,-0.69715 h 5.272464 5.272463 V 43.186069 -57.98137 l 0.548371,-0.69714 0.54837,-0.69714 h 4.600309 4.6003 l 0.0769,-2.18281 0.0768,-2.18282 2.57969,-0.0757 2.57969,-0.0757 v -49.33521 -49.33521 h 2.11666 2.11667 v 49.34479 49.34479 h 1.45521 1.45521 v -25.13541 -25.13542 h 0.66146 0.66145 v 25.26771 25.26771 h 7.40834 7.40834 v -24.60625 -24.60625 h 0.92604 0.92604 v 24.47395 24.47396 h 0.92604 0.92604 v -45.24375 -45.24375 h 1.5875 1.5875 v 18.52084 18.52083 h 1.05834 1.05833 v 26.72292 c 0,23.29204 0.0498,26.72291 0.38757,26.72291 0.69059,0 1.00643,1.03418 0.81975,2.68419 l -0.17526,1.54915 h 6.90544 c 7.49864,0 8.06296,0.0941 8.67974,1.44781 0.24099,0.52891 0.31609,11.06376 0.31609,44.337546 v 43.643803 h 8.18486 c 4.50168,0 8.47884,0.111768 8.83814,0.248375 0.3593,0.136607 0.90283,0.516245 1.20785,0.84364 l 0.55457,0.595265 v 56.30631 56.306361 h 4.51827 4.51827 l 0.7734,0.7734 0.7734,0.77341 V 301.0988 456.56185 H 136.43448 83.517803 Z"
       style="fill:#000000;stroke-width:0.264583" />
  </g>
</svg>
