<?xml version="1.0" encoding="UTF-8" standalone="no"?>
<svg
   xmlns:dc="http://purl.org/dc/elements/1.1/"
   xmlns:cc="http://creativecommons.org/ns#"
   xmlns:rdf="http://www.w3.org/1999/02/22-rdf-syntax-ns#"
   xmlns:svg="http://www.w3.org/2000/svg"
   xmlns="http://www.w3.org/2000/svg"
   xmlns:sodipodi="http://sodipodi.sourceforge.net/DTD/sodipodi-0.dtd"
   xmlns:inkscape="http://www.inkscape.org/namespaces/inkscape"
   sodipodi:docname="abrams.svg"
   inkscape:version="1.0 (4035a4fb49, 2020-05-01)"
   id="svg8"
   version="1.1"
   viewBox="0 0 268.58575 138.21928"
   height="138.21928mm"
   width="268.58575mm">
  <defs
     id="defs2" />
  <sodipodi:namedview
     inkscape:window-maximized="0"
     inkscape:window-y="0"
     inkscape:window-x="52"
     inkscape:window-height="728"
     inkscape:window-width="1274"
     showgrid="false"
     inkscape:document-rotation="0"
     inkscape:current-layer="layer1"
     inkscape:document-units="mm"
     inkscape:cy="1.1294921"
     inkscape:cx="465.15612"
     inkscape:zoom="0.35"
     inkscape:pageshadow="2"
     inkscape:pageopacity="0.0"
     borderopacity="1.0"
     bordercolor="#666666"
     pagecolor="#ffffff"
     id="base" />
  <metadata
     id="metadata5">
    <rdf:RDF>
      <cc:Work
         rdf:about="">
        <dc:format>image/svg+xml</dc:format>
        <dc:type
           rdf:resource="http://purl.org/dc/dcmitype/StillImage" />
        <dc:title></dc:title>
      </cc:Work>
    </rdf:RDF>
  </metadata>
  <g
     transform="translate(114.59861,-44.837605)"
     id="layer1"
     inkscape:groupmode="layer"
     inkscape:label="Layer 1">
    <path
       sodipodi:nodetypes="csssscsssssssscccccccsccssccccsssscssscscscccccssscccccscssccssscsssscccccsssscccscssssscssssssscscssscssssssssssssssssssssccssssssscscssssssssssssssscssssssssscssssssscsssssssscc"
       id="path24"
       d="m 17.638889,181.71185 c -7.319673,-2.08849 -17.88155295,-7.98613 -19.506786,-10.89237 -0.939049,-1.6792 -0.0084,-1.46947 -11.361268,-2.56026 -4.171597,-0.40081 -13.617222,-1.5688 -20.990277,-2.59553 -11.298664,-1.5734 -13.793667,-1.82268 -15.874999,-1.58613 -1.358195,0.15435 -5.08882,0.28314 -8.290278,0.28618 -5.405049,0.005 -6.173621,-0.0793 -10.759722,-1.18181 -7.970738,-1.9162 -19.226388,-6.15723 -19.226388,-7.24434 0,-0.19942 -0.210908,-0.36259 -0.468686,-0.36259 -0.759224,0 -3.764647,-2.13878 -3.764647,-2.67908 0,-0.27276 -0.216715,-0.49592 -0.481591,-0.49592 -1.005865,0 -2.349019,-1.48477 -2.736995,-3.02556 -0.229804,-0.91263 -0.597419,-1.56055 -0.885424,-1.56055 -1.163774,0 -2.541084,-3.95858 -1.498254,-4.30619 0.222263,-0.0741 -1.790834,-4.04852 -1.416028,-6.20932 -3.524806,0.30653 -5.318436,-0.15337 -6.858346,-0.57372 -1.96089,-1.36245 -0.39321,-7.15622 -0.27049,-10.25461 0.64622,-3.04507 0.34381,-4.26505 4.01107,-5.20208 12.207006,-5.13746 24.284229,-6.29525 36.682585,-8.19624 8.647354,-1.43986 16.351386,-2.76213 24.873982,-4.09851 0,0 0.467072,-0.51567 0.319218,-0.72038 -0.619734,0.0337 -3.193967,0.23157 -9.978316,1.08713 -6.996702,0.88234 -9.402933,0.74486 -12.558419,-0.57884 -13.342469,1.52484 -28.272501,3.506 -43.87935,5.21159 -4.97914,0.40123 -5.85032,0.68234 -6.72958,-0.59899 -0.79937,-1.16491 -0.70027,-3.68974 -0.20293,-4.58301 0.26717,-0.47986 1.3263,-0.8746 2.81938,-1.25074 12.406362,-1.67295 33.782019,-4.89932 46.781649,-6.7448 1.223114,-1.01355 1.821436,-2.069135 2.904871,-2.631709 2.88017,-2.151734 7.780638,-3.066672 11.083533,-3.24789 0.977307,-0.0247 1.46086,-0.30564 2.319415,-1.34772 1.4891,-1.8074 5.172893,-7.34019 6.104593,-9.16865 0.755484,-1.48264 0.784342,-1.49908 2.226564,-1.26845 1.243415,0.19883 1.429202,0.15037 1.24672,-0.32517 -0.16662,-0.43421 0.154612,-0.64402 1.440664,-0.94093 5.635871,-1.30112 6.230884,-1.66238 5.921791,-3.59536 -0.115747,-0.72383 -0.05547,-1.72368 0.133949,-2.22188 0.297741,-0.78312 0.688548,-1.134002 2.029908,-1.106292 1.571348,0.03246 2.92734,-0.102237 4.548315,-0.03851 0,-2.32251 0.61444,-3.622754 2.50402,-3.784244 0.73358,-0.0627 1.532219,-0.13563 1.774754,-0.16206 0.242535,-0.0264 0.440972,-0.35558 0.440972,-0.73143 0,-0.56461 0.199263,-0.65898 1.146528,-0.54296 0.63059,0.0772 2.16383,-0.184134 3.570532,-0.09082 0,0 1.514591,-0.784083 3.268566,-1.153833 5.9850592,-0.05693 11.37195964,0.143007 17.3613382,-0.02321 L 6.212404,65.007081 5.128858,64.790371 C 3.771549,64.518911 3.310359,63.421601 3.583667,61.113921 3.768995,59.549141 3.706984,59.349671 2.863365,58.796913 2.355669,58.464251 2.2946326,57.68007 2.2710091,57.042235 -3.5828536,56.835535 -10.199519,56.52907 -18.542883,56.127181 c -0.43003,-0.05721 -0.5822,-0.823196 0.09448,-0.949872 6.707752,-0.06022 13.1632978,-0.08919 20.9389945,-0.433026 C 3.2453223,53.722612 3.75927,52.58274 3.75927,52.58274 c 0.576742,-0.711655 0.756133,-0.773557 1.022343,-0.352778 0.177574,0.280677 0.325296,0.703192 0.328267,0.938918 0.0066,0.521293 15.262009,0.31822 16.683099,-0.222077 0.95609,-0.363506 2.367,-1.68329 5.85879,-5.480396 1.23847,-1.346764 2.58784,-2.490682 2.99861,-2.542042 l 6.494803,-0.08676 2.451097,3.617923 c 3.046666,4.497008 3.20425,4.287118 2.08471,5.324676 -0.70395,0.652399 -0.93516,1.207121 -0.93516,2.243706 v 1.377036 l 2.64565,0.200092 c 2.38427,0.180322 2.8809,0.356235 5.02708,1.780672 4.44861,2.95257 4.18796,2.89631 11.39345,2.45897 6.21532,-0.37725 6.36776,-0.40534 7.07417,-1.30339 0.61579,-0.78284 0.99766,-0.91784 2.59632,-0.91784 5.939825,-0.728702 12.922788,-0.793746 18.863222,0.43826 1.26953,0.334087 2.128878,1.94296 2.083428,2.9131 3.354445,0.458505 4.978283,0.272557 4.99724,2.77763 1.61427,0.146472 3.234295,0.07688 6.259121,0.09338 2.57593,0.023 3.62262,0.627692 4.39812,1.193772 0.52572,0.38375 1.13911,0.69772 1.36308,0.69772 0.22397,0 1.017,0.34272 1.76229,0.76159 1.46774,0.82492 2.43526,2.63688 2.51307,4.70643 l 0.0436,1.15966 c 3.26643,0.210774 6.5725,0.16156 9.70011,-0.04227 5.0804,0.52793 8.97322,2.25905 10.62846,3.271934 0.54152,0.34263 0.78636,3.46968 0.29543,3.77309 -0.36037,0.22272 -0.35579,2.85821 0.005,3.0814 0.38645,0.23884 0.2253,3.0059 -0.24537,4.21325 -0.44194,1.13366 -0.4993,2.72009 -0.11716,3.24023 0.14255,0.19403 1.64474,0.37191 3.33819,0.39529 2.19385,0.0303 3.33123,0.20777 3.95634,0.61736 1.0717,0.70221 1.25493,0.71415 1.25493,0.0818 0,-0.3885 0.60532,-0.47526 2.85475,-0.40916 1.57011,0.0461 2.95917,0.2458 3.0868,0.44369 0.12763,0.19789 1.39005,0.4407 2.80537,0.53957 2.36502,0.16521 2.65772,0.2743 3.61597,1.34762 0.86939,0.97378 1.04266,1.47031 1.04266,2.98792 0,1.67063 -0.11586,1.92727 -1.41111,3.125674 -1.33684,1.23689 -1.41111,1.41428 -1.41111,3.37032 0,2.19602 0.23455,2.49296 1.96913,2.49296 0.80372,0 0.85292,0.11741 0.85003,2.02848 -0.002,1.11566 -0.10111,2.84447 -0.22094,3.8418 l -0.21787,1.81333 -2.10132,0.44594 c -1.15573,0.24526 -2.31355,0.65815 -2.57294,0.91754 -0.29274,0.29275 -0.86268,0.3934 -1.50272,0.26539 l -1.03111,-0.20622 0.0967,3.29618 c 0.0532,1.8129 0.21273,3.59694 0.35452,3.96455 0.16248,0.42127 0.0726,0.81255 -0.24322,1.05834 -0.27556,0.21447 -0.4458,0.772 -0.37832,1.23895 0.0675,0.46696 -0.0831,1.77664 -0.33463,2.91042 -0.34991,1.57724 -0.60595,2.06142 -1.09011,2.06142 -0.69437,0 -0.81922,0.37801 -0.29724,0.89999 0.51335,0.51334 -0.89323,3.36073 -1.77394,3.59103 -0.61182,0.16 -0.7033,0.38125 -0.53361,1.29062 0.24716,1.32461 -0.86688,3.39058 -1.82832,3.39058 -0.45957,0 -0.6591,0.307 -0.72013,1.10799 -0.0464,0.60939 -0.35699,1.5694 -0.69012,2.13334 -0.46907,0.79407 -0.78526,0.9803 -1.40173,0.82557 -0.62338,-0.15646 -0.79603,-0.0498 -0.79603,0.49167 0,0.3803 0.14927,0.78371 0.33171,0.89646 0.36186,0.22364 -0.22477,2.31848 -0.62721,2.23977 -0.33495,-0.0655 -1.57665,0.4966 -2.03238,0.92005 -0.21318,0.19808 -0.31982,0.61935 -0.23698,0.93616 0.22086,0.84456 -1.33492,2.43962 -2.46222,2.52438 -1.07591,0.0809 -1.18245,0.26825 -0.52917,0.93058 0.35331,0.3582 0.31825,0.53776 -0.17639,0.9032 -0.83652,1.12655 -0.71938,1.41841 -2.3715,2.67138 -0.95723,0 -1.51136,0.17814 -1.64606,0.52917 -0.13102,0.34144 -0.6769,0.52917 -1.53869,0.52917 -0.86178,0 -1.40766,0.18773 -1.53868,0.52916 -0.13277,0.34598 -0.68232,0.52917 -1.5875,0.52917 -0.90518,0 -1.45473,0.18319 -1.5875,0.52917 -0.13305,0.34673 -0.68325,0.52916 -1.59584,0.52916 -0.76604,0 -1.45264,0.17954 -1.52578,0.39898 -0.076,0.22799 -0.84269,0.38474 -1.78897,0.36574 -1.12293,-0.0225 -1.62897,0.10454 -1.5721,0.39477 0.053,0.27055 -0.4853,0.46878 -1.46325,0.53883 -0.85092,0.0609 -1.77507,0.33876 -2.05367,0.61736 -0.2786,0.2786 -1.01908,0.50655 -1.64551,0.50655 -0.62644,0 -1.31808,0.17911 -1.537,0.39802 -0.21891,0.21892 -1.11653,0.38361 -1.99469,0.36598 -1.26412,-0.0254 -1.55544,0.0754 -1.39868,0.48392 0.15939,0.41536 -0.19176,0.51597 -1.80085,0.51597 -1.09936,0 -1.911,0.14211 -1.80365,0.31581 0.26011,0.42087 -0.646651,0.74252 -2.093281,0.74252 -0.64706,0 -1.23581,0.17801 -1.30833,0.39557 -0.0725,0.21757 -0.91919,0.42396 -1.88148,0.45864 -1.14842,0.0414 -1.71932,0.20852 -1.66143,0.48637 0.0601,0.2886 -0.52924,0.42331 -1.85208,0.42331 -1.48951,0 -1.94028,0.12293 -1.94028,0.52916 0,0.39828 -0.42698,0.52917 -1.72614,0.52917 -1.20892,0 -1.787,0.15856 -1.92921,0.52917 -0.13569,0.3536 -0.70416,0.53289 -1.71344,0.54038 -0.83071,0.006 -1.81853,0.2443 -2.19516,0.52917 -0.37664,0.28487 -1.29882,0.51795 -2.0493,0.51795 -0.75047,0 -1.27833,0.13942 -1.17302,0.30982 0.21096,0.34134 -1.42978,0.74851 -3.01616,0.74851 -0.55783,0 -1.01424,0.14902 -1.01424,0.33116 0,0.18214 -0.75406,0.4284 -1.67569,0.54725 -0.92163,0.11884 -1.95135,0.36669 -2.28827,0.55078 -0.33692,0.18408 -1.41785,0.3347 -2.40207,0.3347 -1.01461,0 -1.70161,0.1422 -1.58653,0.3284 0.3373,0.54576 -0.5418,0.84966 -2.33941,0.80871 -1.26632,-0.0288 -1.70248,0.0917 -1.70248,0.47039 0,0.38713 -0.50732,0.50917 -2.11666,0.50917 -1.6463,0 -2.11667,0.11759 -2.11667,0.52916 0,0.40496 -0.44658,0.52917 -1.90253,0.52917 -1.36571,0 -1.95984,0.14931 -2.1056,0.52917 -0.14699,0.38305 -0.74762,0.52916 -2.17523,0.52916 -1.08469,0 -1.88521,0.1407 -1.77893,0.31267 0.25327,0.4098 -1.01273,0.73483 -2.88563,0.74085 -1.00343,0.003 -1.47013,0.14952 -1.41111,0.44235 0.0571,0.28336 -0.69841,0.56372 -2.14416,0.79565 -1.2278,0.19696 -2.11416,0.47632 -1.96968,0.6208 0.2768,0.2768 -1.3628,0.41927 -3.29496,0.28632 -0.77273,-0.0532 -1.21671,0.10276 -1.36066,0.47789 -0.15489,0.40364 -0.69487,0.55681 -1.963,0.55681 -0.96213,0 -2.03282,0.15171 -2.3793,0.33714 -1.23903,0.66311 -5.89643,1.42555 -8.49588,1.39082 -1.91072,-0.0255 -3.92002,-0.39891 -7.23194,-1.34389 z"
       style="fill:#000000;stroke-width:0.352778" />
  </g>
</svg>
