<?xml version="1.0" encoding="UTF-8" standalone="no"?>
<svg
   xmlns:dc="http://purl.org/dc/elements/1.1/"
   xmlns:cc="http://creativecommons.org/ns#"
   xmlns:rdf="http://www.w3.org/1999/02/22-rdf-syntax-ns#"
   xmlns:svg="http://www.w3.org/2000/svg"
   xmlns="http://www.w3.org/2000/svg"
   xmlns:sodipodi="http://sodipodi.sourceforge.net/DTD/sodipodi-0.dtd"
   xmlns:inkscape="http://www.inkscape.org/namespaces/inkscape"
   sodipodi:docname="barad.svg"
   inkscape:version="1.0 (4035a4fb49, 2020-05-01)"
   id="svg125"
   version="1.1"
   viewBox="0 0 70.104042 121.26332"
   height="121.26332mm"
   width="70.104042mm">
  <defs
     id="defs119" />
  <sodipodi:namedview
     inkscape:window-maximized="0"
     inkscape:window-y="22"
     inkscape:window-x="46"
     inkscape:window-height="707"
     inkscape:window-width="1222"
     showgrid="false"
     inkscape:document-rotation="0"
     inkscape:current-layer="layer1"
     inkscape:document-units="mm"
     inkscape:cy="300.57041"
     inkscape:cx="143.82694"
     inkscape:zoom="0.98994949"
     inkscape:pageshadow="2"
     inkscape:pageopacity="0.0"
     borderopacity="1.0"
     bordercolor="#666666"
     pagecolor="#ffffff"
     id="base" />
  <metadata
     id="metadata122">
    <rdf:RDF>
      <cc:Work
         rdf:about="">
        <dc:format>image/svg+xml</dc:format>
        <dc:type
           rdf:resource="http://purl.org/dc/dcmitype/StillImage" />
        <dc:title></dc:title>
      </cc:Work>
    </rdf:RDF>
  </metadata>
  <g
     transform="translate(-97.199957,-111.59829)"
     id="layer1"
     inkscape:groupmode="layer"
     inkscape:label="Layer 1">
    <path
       sodipodi:nodetypes="ccsccssssssssssssscssssssscscsssssscscsssccssssssssssssssssscsccccssssscssssssssscssscssssssssssssssscccssssssssssssssssscssssssssssscssccccc"
       id="path157"
       d="m 97.302997,230.16592 c 0.408949,-4.32016 1.088619,-5.74896 2.491181,-7.97581 0.220732,-0.88028 0.532532,-1.32292 0.931872,-1.32292 0.82507,0 1.53146,-0.93891 1.55165,-2.06242 0.0147,-0.82034 0.15335,-0.93033 1.12017,-0.88887 1.03903,0.0446 1.10444,-0.0274 1.12219,-1.23473 0.0204,-1.38797 0.5193,-4.0816 0.93983,-5.0744 0.1604,-0.37866 0.64334,-0.61736 1.24907,-0.61736 0.82333,0 0.95597,-0.1208 0.79761,-0.7264 -0.13539,-0.51774 0.006,-0.77764 0.49225,-0.9048 0.63899,-0.1671 0.68424,-0.55766 0.71411,-6.16439 0.0237,-4.45026 -0.0715,-5.90026 -0.37103,-5.65184 -0.56329,0.46714 -0.56231,-7.02075 9.9e-4,-7.6192 0.30952,-0.32884 0.46034,-0.12842 0.64531,0.85754 0.17878,0.953 0.32421,1.15577 0.5608,0.78191 0.17569,-0.27762 0.34027,-0.98101 0.36575,-1.5631 0.0326,-0.7442 0.0967,-0.84891 0.21604,-0.35277 0.29803,1.23908 0.80505,1.44291 0.83361,0.33514 l 0.0268,-1.0407 0.46233,1.23472 c 0.45216,1.20757 0.50094,1.19063 1.0157,-0.35277 0.12254,-0.36743 0.18665,-0.31351 0.20974,0.17638 0.0277,0.58717 0.0906,0.61677 0.37522,0.17639 0.23197,-0.35894 0.34372,0.75422 0.34738,3.46041 0.003,2.19426 -0.12894,3.90654 -0.29314,3.80506 -0.1642,-0.10148 -0.30957,1.21854 -0.32303,2.93337 l -0.0245,3.11789 0.88136,-0.81682 c 0.48474,-0.44924 1.22529,-0.86582 1.64565,-0.92572 0.51959,-0.074 0.89507,-0.50928 1.17272,-1.35935 0.45171,-1.38302 1.94946,-3.1464 3.27269,-3.85313 0.76004,-0.40592 0.92808,-0.37225 1.46766,0.29411 0.77753,0.96021 1.30844,0.94598 2.577,-0.0691 0.84302,-0.67456 0.95698,-0.93503 0.64949,-1.48448 -0.28966,-0.51761 -0.18319,-1.04079 0.47689,-2.34342 0.73256,-1.44563 0.85057,-2.17757 0.85522,-5.30473 0.003,-2.11602 0.12976,-3.43151 0.30384,-3.15691 0.42441,0.66954 0.73829,-0.68199 0.74428,-3.20482 0.003,-1.11566 0.16356,-2.02847 0.35759,-2.02847 0.19403,0 0.35278,-0.635 0.35278,-1.41111 0,-0.95785 0.15484,-1.41111 0.48206,-1.41111 0.37809,0 0.44429,-0.52807 0.3069,-2.44823 -0.0963,-1.34653 -0.0571,-2.73559 0.0873,-3.0868 0.41947,-1.02054 0.64593,-5.0822 0.67976,-12.19185 0.0173,-3.63791 0.12506,-6.61448 0.23943,-6.61459 0.11438,-1e-4 0.39814,0.41719 0.63058,0.92734 0.23243,0.51014 0.51456,0.83557 0.62696,0.72317 0.38249,-0.38248 0.23745,-4.75364 -0.19213,-5.79075 -0.36279,-0.87585 -0.31777,-1.31236 0.29591,-2.86926 0.79252,-2.01065 1.07239,-7.71168 0.35687,-7.26946 -0.24049,0.14863 -0.28308,-0.1073 -0.12359,-0.74274 0.20329,-0.80997 0.14685,-0.93248 -0.343,-0.74451 -0.4852,0.18619 -0.54628,0.0654 -0.35413,-0.70017 0.15261,-0.60805 0.10485,-0.84646 -0.13934,-0.69554 -0.3713,0.22948 -0.74359,-2.90434 -0.49436,-4.16134 0.1093,-0.55123 0.15734,-0.54776 0.59217,0.0428 0.44716,0.60734 0.48641,0.6087 0.71285,0.0246 0.36712,-0.94701 -0.10942,-2.30757 -0.89562,-2.55711 -0.49339,-0.1566 -0.70472,-0.5339 -0.70472,-1.25823 0,-0.56901 -0.15875,-1.03456 -0.35278,-1.03456 -0.20711,0 -0.35055,-1.20172 -0.34737,-2.91042 0.004,-2.00937 0.11127,-2.74659 0.34737,-2.38125 0.18809,0.29104 0.34441,1.03574 0.34738,1.65488 0.006,1.24145 0.54665,1.8679 0.77575,0.89879 0.0798,-0.33736 0.11027,-3.11537 0.0678,-6.17335 -0.0461,-3.32182 0.0537,-5.47908 0.24787,-5.35904 0.1788,0.1105 0.32509,0.84332 0.32509,1.62848 0,3.25864 2.00518,8.49764 3.66987,9.58839 1.11033,0.72751 1.18024,0.72582 1.37862,-0.0333 0.15365,-0.58796 0.16328,-0.58796 0.20226,0 0.0525,0.79155 0.23721,0.77683 1.49551,-0.11916 1.87492,-1.33505 3.1448,-4.90052 3.94681,-11.08153 0.0755,-0.58209 0.16111,1.91823 0.19019,5.55625 0.0533,6.66544 0.40349,8.26559 1.04237,4.7625 0.33665,-1.84592 0.33791,-1.84187 0.37968,1.2139 0.0234,1.71147 -0.11394,3.16231 -0.31086,3.28401 -0.19403,0.11992 -0.35278,0.61491 -0.35278,1.09998 0,0.48507 -0.15178,0.78814 -0.33728,0.67349 -0.53149,-0.32848 -1.51555,1.44749 -1.2557,2.2662 0.31657,0.99744 0.76237,0.90424 1.18295,-0.24731 0.28881,-0.79074 0.35947,-0.42398 0.38218,1.98348 0.0256,2.71637 -0.0194,2.91472 -0.55983,2.46944 -0.52981,-0.43648 -0.56389,-0.38861 -0.34606,0.48597 0.15786,0.63382 0.1017,0.97014 -0.16197,0.97014 -0.26176,0 -0.32798,0.37811 -0.18842,1.07587 0.13345,0.66726 0.0832,0.99431 -0.1323,0.86113 -0.7052,-0.43585 -0.39151,4.94066 0.41055,7.03659 0.61129,1.59739 0.68196,2.14775 0.36509,2.84321 -0.24238,0.53196 -0.30911,1.7601 -0.17416,3.20526 0.20258,2.16941 0.25298,2.28118 0.68075,1.50971 0.45543,-0.82135 0.46324,-0.81566 0.55161,0.40157 0.0493,0.67909 0.10205,2.18722 0.11723,3.35138 0.14804,11.35287 0.14328,11.28236 0.71145,10.56257 0.5115,-0.64799 0.53717,-0.61844 0.47789,0.54993 -0.18754,3.69568 0.0539,6.70278 0.53807,6.70278 0.38665,0 0.45861,0.39927 0.32145,1.78354 -0.14875,1.50138 -0.0601,1.88464 0.56017,2.42262 0.40529,0.35151 0.73688,0.80193 0.73688,1.00095 0,0.19902 0.26191,0.46235 0.58202,0.58519 0.51633,0.19813 0.49503,0.31592 -0.18867,1.04369 -0.63934,0.68054 -0.75959,1.19002 -0.7056,2.9894 0.0724,2.41231 0.37743,2.74743 0.93076,1.02253 1.07472,-1.55214 -0.58735,8.49766 -0.20727,9.62926 0.28467,0.81659 0.2962,1.21803 0.0375,1.30428 -0.20558,0.0685 -0.28924,0.4479 -0.1859,0.84306 0.13524,0.51716 0.26517,0.59339 0.46376,0.27207 0.17536,-0.28374 0.36725,0.0589 0.52666,0.94032 0.32511,1.79779 0.76446,2.62143 1.39832,2.62143 0.77997,0 1.39203,3.4846 0.81685,4.65061 -0.21376,0.43336 -0.10995,0.65172 0.38444,0.80864 0.3725,0.11823 1.18776,1.20045 1.81168,2.40493 1.4405,2.78092 1.92545,3.47828 2.21645,3.18727 0.37043,-0.37042 0.26977,-3.57872 -0.11984,-3.81951 -0.19402,-0.11992 -0.35277,-1.62804 -0.35277,-3.35139 0,-1.72335 0.15875,-3.23147 0.35277,-3.35139 0.19926,-0.12314 0.35278,0.16579 0.35278,0.66392 0,0.48507 0.15875,0.98005 0.35278,1.09997 0.20695,0.1279 0.35278,-0.24592 0.35278,-0.90432 0,-0.95764 0.0777,-1.0579 0.52916,-0.68318 0.43802,0.36352 0.53191,0.32538 0.54508,-0.22139 0.0112,-0.46657 0.15823,-0.34976 0.50052,0.39778 0.26653,0.58208 0.49749,0.80698 0.51325,0.49977 0.0158,-0.30721 0.26678,-0.55857 0.55782,-0.55857 0.43281,0 0.52917,0.60334 0.52917,3.31341 0,2.06407 -0.12979,3.23321 -0.3442,3.10069 -0.21696,-0.13409 -0.32495,1.22758 -0.29214,3.68335 0.0403,3.014 0.16011,3.89607 0.52932,3.89607 0.26249,0 0.62923,0.39972 0.81498,0.88827 0.18574,0.48855 0.71579,1.03201 1.17787,1.2077 1.02766,0.39071 1.28917,1.01739 1.28917,3.08931 0,1.49489 0.0521,1.58407 0.79375,1.36004 0.43656,-0.13186 1.09717,-0.26943 1.46801,-0.30572 0.42112,-0.0412 0.84149,-0.52955 1.11968,-1.30071 0.43887,-1.21653 0.44582,-1.19964 0.47227,1.14653 0.0213,1.89341 -0.0816,2.38125 -0.50233,2.38125 -0.29104,0 -0.52917,0.16418 -0.52917,0.36485 0,0.70156 1.84699,0.11597 2.3371,-0.74098 0.54854,3.03601 0.69307,6.28132 0.75989,9.19557 H 134.20608 97.199957 Z"
       style="fill:#000000;stroke-width:0.352778" />
  </g>
</svg>
