<?xml version="1.0" encoding="UTF-8" standalone="no"?>
<svg
   xmlns:dc="http://purl.org/dc/elements/1.1/"
   xmlns:cc="http://creativecommons.org/ns#"
   xmlns:rdf="http://www.w3.org/1999/02/22-rdf-syntax-ns#"
   xmlns:svg="http://www.w3.org/2000/svg"
   xmlns="http://www.w3.org/2000/svg"
   xmlns:sodipodi="http://sodipodi.sourceforge.net/DTD/sodipodi-0.dtd"
   xmlns:inkscape="http://www.inkscape.org/namespaces/inkscape"
   width="44.851566mm"
   height="265.47931mm"
   viewBox="0 0 44.851566 265.47931"
   version="1.1"
   id="svg125"
   inkscape:version="1.0 (4035a4fb49, 2020-05-01)"
   sodipodi:docname="big-ben.svg">
  <defs
     id="defs119" />
  <sodipodi:namedview
     showguides="false"
     id="base"
     pagecolor="#ffffff"
     bordercolor="#666666"
     borderopacity="1.0"
     inkscape:pageopacity="0.0"
     inkscape:pageshadow="2"
     inkscape:zoom="0.35"
     inkscape:cx="86.024625"
     inkscape:cy="324.84713"
     inkscape:document-units="mm"
     inkscape:current-layer="layer1"
     inkscape:document-rotation="0"
     showgrid="false"
     inkscape:window-width="1222"
     inkscape:window-height="677"
     inkscape:window-x="33"
     inkscape:window-y="9"
     inkscape:window-maximized="0" />
  <metadata
     id="metadata122">
    <rdf:RDF>
      <cc:Work
         rdf:about="">
        <dc:format>image/svg+xml</dc:format>
        <dc:type
           rdf:resource="http://purl.org/dc/dcmitype/StillImage" />
        <dc:title></dc:title>
      </cc:Work>
    </rdf:RDF>
  </metadata>
  <g
     inkscape:label="Layer 1"
     inkscape:groupmode="layer"
     id="layer1"
     transform="translate(-45.01673,-148.61182)">
    <path
       sodipodi:nodetypes="ccsssscsscsssccssssssccccsssccccsccccsssccsssssssccsccsssssssssscccccc"
       id="path40"
       d="m 49.566657,270.69852 c -2.905529,-0.008 -0.491566,-0.37175 -1.933557,-1.76059 -0.645113,-0.60263 -0.660218,-0.66518 -0.660218,-2.73461 0,-2.05657 -0.01593,-2.12394 -0.550181,-2.32705 -0.538285,-0.20466 -0.766064,-0.66022 -0.330109,-0.66022 0.144617,0 0.220072,-5.27458 0.220072,-15.38356 v -15.38356 l -0.660218,-0.23016 c -0.905246,-0.31556 -0.829979,-0.69319 0.138164,-0.69319 h 0.798383 l -0.138642,-0.86701 c -0.0798,-0.49902 -0.04503,-0.92486 0.08191,-1.00331 0.121303,-0.075 0.220549,-0.48019 0.220549,-0.90048 0,-0.42029 0.123791,-0.81144 0.275091,-0.8692 h 1.030603 c 0.31027,0.0811 0.444283,0.29989 0.495163,0.91966 0.0558,0.67975 0.157801,0.84972 0.509906,0.84972 0.422362,0 0.440146,-3.83198 0.440146,-7.31647 0,-1.99716 -0.07706,-3.84174 -0.171225,-4.09908 -0.133914,-0.36592 -0.07397,-0.49332 0.275091,-0.58459 0.414209,-0.10833 0.446315,-0.29066 0.446315,-2.53458 0,-1.94618 0.0644,-2.80311 0.330109,-2.90506 h 0.990327 c 0.371964,0.23229 0.440145,1.60476 0.440145,2.90506 2.66283,-4.61216 4.753334,-10.88821 5.894718,-15.14791 0,-0.32889 -0.208287,-0.67717 -0.531703,-0.88909 -0.780065,-0.51112 -0.854457,-0.94137 -0.335065,-1.93784 0.451232,-0.8657 0.150267,-3.51555 0.352495,-9.13216 l 0.21652,-6.01354 h 0.867676 l 0.8088,4.62152 c 2.54531,-4.08259 4.479391,-9.33571 5.714502,-13.59706 2.485377,-11.06523 1.644041,-24.41234 2.952531,-24.41234 1.208855,0 0.700635,13.02645 2.952531,24.41234 1.09725,4.48817 4.440632,13.59707 5.101101,13.59707 l 0.733512,-4.62153 h 0.959136 l 0.174918,6.19535 c 0.147095,5.2099 -0.167224,8.50285 0.146221,8.95035 0.507256,0.72421 0.720078,1.32217 0.08688,1.82024 -0.119093,0.0937 -0.50189,0.45683 -0.580779,1.00669 1.302096,4.85949 3.642568,10.6972 5.477193,15.14791 0.163594,-0.10111 0.259132,-0.0542 0.259132,-1.15747 0,-1.33609 0.07125,-1.74759 0.3026,-1.74759 h 1.036127 c 0.162769,0 0.23141,1.02227 0.218622,2.67773 -0.01959,2.53643 -0.01571,2.55656 0.520142,2.69105 0.526955,0.13225 0.532118,0.15407 0.21568,0.91143 -0.246822,0.59072 -0.285018,1.5487 -0.263341,4.01508 l 0.06086,6.92442 0.6052,0.0696 c 0.557757,0.0642 0.6052,0.01 0.6052,-0.69724 0,-0.98348 0.18807,-0.92169 0.573728,-0.92169 h 0.887999 c 0.194731,0.0747 0.298858,-0.12368 0.298858,0.56949 0,0.58511 0.09903,1.12503 0.22007,1.19984 0.12104,0.0748 0.220079,0.47678 0.220079,0.89328 0,0.69469 0.05456,0.75727 0.660218,0.75727 0.792378,0 0.867403,0.37226 0.131411,0.65209 -0.290845,0.11057 -0.574953,0.28143 -0.631347,0.37968 -0.05639,0.0982 -0.04001,7.00406 0.03651,15.34626 0.10774,11.75248 0.200349,15.18806 0.411278,15.25837 0.444365,0.14812 0.311215,0.49027 -0.277961,0.71428 -0.537649,0.20441 -0.550183,0.26074 -0.550183,2.4732 0,2.13215 -0.0287,2.27668 -0.492053,2.48126 -2.083509,1.67855 0.978555,1.85606 -1.938085,1.86775 0.0022,12.32408 0,131.28869 0,143.61276 l -36.349758,5e-5 c -0.01728,-12.25157 0.06595,-131.14374 0,-143.39264 z"
       style="fill:#000000;stroke-width:0.220072" />
  </g>
</svg>
