<?xml version="1.0" encoding="UTF-8" standalone="no"?>
<svg
   xmlns:dc="http://purl.org/dc/elements/1.1/"
   xmlns:cc="http://creativecommons.org/ns#"
   xmlns:rdf="http://www.w3.org/1999/02/22-rdf-syntax-ns#"
   xmlns:svg="http://www.w3.org/2000/svg"
   xmlns="http://www.w3.org/2000/svg"
   xmlns:sodipodi="http://sodipodi.sourceforge.net/DTD/sodipodi-0.dtd"
   xmlns:inkscape="http://www.inkscape.org/namespaces/inkscape"
   width="583.37885mm"
   height="723.75397mm"
   viewBox="0 0 583.37886 723.75395"
   version="1.1"
   id="svg8"
   inkscape:version="1.0 (4035a4fb49, 2020-05-01)"
   sodipodi:docname="christ.svg">
  <defs
     id="defs2" />
  <sodipodi:namedview
     id="base"
     pagecolor="#ffffff"
     bordercolor="#666666"
     borderopacity="1.0"
     inkscape:pageopacity="0.0"
     inkscape:pageshadow="2"
     inkscape:zoom="0.12374369"
     inkscape:cx="511.47687"
     inkscape:cy="1373.3032"
     inkscape:document-units="mm"
     inkscape:current-layer="layer1"
     inkscape:document-rotation="0"
     showgrid="false"
     inkscape:window-width="1207"
     inkscape:window-height="653"
     inkscape:window-x="81"
     inkscape:window-y="36"
     inkscape:window-maximized="0" />
  <metadata
     id="metadata5">
    <rdf:RDF>
      <cc:Work
         rdf:about="">
        <dc:format>image/svg+xml</dc:format>
        <dc:type
           rdf:resource="http://purl.org/dc/dcmitype/StillImage" />
        <dc:title />
      </cc:Work>
    </rdf:RDF>
  </metadata>
  <g
     inkscape:label="Layer 1"
     inkscape:groupmode="layer"
     id="layer1"
     transform="translate(245.64087,-20.415356)">
    <path
       sodipodi:nodetypes="cssccccccccccccccccczzcccccccccccccccscccccccccccccccccscscsccccccccczcccccccccczccsccccsccccccccccscccccccccccccccccccccsccscccccccccccccccccczccccccccccccccccccccccccc"
       style="fill:#010101;stroke:none;stroke-width:0.352778"
       d="m 14.893536,46.08097 c -0.895555,3.982026 -0.51944,11.62045 -1.12516,16.632369 -0.95038,7.86412 -1.742367,17.894949 -3.304817,25.713569 -0.6011397,3.00813 2.424287,6.686268 -0.06985,9.004368 -1.7296701,1.60796 -5.0969301,1.198363 -7.2552341,1.724003 -1.87501,0.45685 -3.31787004,1.597031 -5.29166,1.857021 -2.09586,0.27623 -4.20829,-0.57996 -6.35,-0.55174 -11.5986529,0.79201 -24.3763829,1.21298 -34.8650329,4.5279 -8.68892,2.97744 -17.038456,3.30024 -26.165526,3.9691 -5.959064,0.9119 -10.24771,4.12938 -15.52221,5.79579 -7.50747,2.4137 -15.409696,2.4444 -23.193386,3.13337 -13.21188,1.16981 -26.66118,3.00108 -39.95385,2.67547 -5.95559,-0.1457 -12.03219,-1.52012 -17.99131,-2.05105 -2.58128,-0.23001 -4.37056,1.70568 -7.05591,1.23472 -2.64019,-0.46284 -3.71898,-2.47826 -5.80496,-3.76167 -3.14289,-1.93322 -8.22148,-3.16583 -11.83393,-4.08129 -3.22051,-0.81597 -6.59944,-0.39193 -9.87774,-0.46672 -4.71,-0.1076 -9.4979,-0.65864 -14.2117,-0.18944 -3.557,0.35419 -5.4504,2.27365 -4.1328,5.79296 l -16.2278,0.87066 c 0,0 -8.06199,1.78704 -9.1722,4.42101 -1.11021,2.63397 -2.6922,3.88567 2.4695,8.11389 5.1617,4.22822 12.05685,5.91429 18.6972,7.14128 8.1975,1.46332 16.7234,3.06352 25.0472,3.42829 9.90354,0.43357 22.02886,-2.73826 31.39723,1.42487 v 0.35278 c -3.98095,1.62216 3.53212,7.70959 5.19924,10.13919 4.81683,6.61211 9.90529,13.45071 14.68579,20.21346 2.0073,2.83951 4.34834,7.20407 7.28415,9.14611 14.04514,9.29041 31.14569,2.8635 46.561386,1.80764 11.18551,-0.76588 22.33012,3.43006 32.80832,7.07707 3.67559,1.27953 7.301796,2.36256 10.967506,3.7465 5.843377,2.81453 5.981904,1.7328 12.6686,3.9617 -1.844506,5.3582 -0.264049,13.83326 -0.35807,20.10834 -0.31997,13.07253 -0.4004,26.20292 -1.23437,39.15833 0.464465,9.18164 -3.58147,22.47765 -1.22979,30.33889 20.128472,10.35177 8.339208,41.62523 11.57146,59.61944 1.63229,7.67441 0.167165,9.00644 3.597993,15.16945 3.935712,7.06996 0.39969,16.63347 2.46944,23.63611 -1.29223,1.12889 -0.70309,4.02872 -0.70556,5.64444 -1.500521,9.18231 -1.196821,16.22109 -1.75018,25.4 -0.3623,8.26206 -0.38241,16.4465 -0.72601,24.69445 -0.0878,2.09903 -1.10067,3.78178 -1.04634,5.99722 0.39123,16.01964 -1.402293,31.98636 -1.509893,47.99189 -0.13653,20.28825 -0.21802,41.21856 -2.62784,61.36922 -0.36231,3.02684 -0.0642,6.14186 -0.50447,9.1687 -0.44944,3.08328 -1.55364,5.84905 -1.69934,9.17575 -0.2547,5.82083 -1.139973,12.12346 -4.184093,17.21051 -2.467875,4.43085 1.309833,7.79928 -1.486708,9.5565 -6.820764,5.24824 -7.903038,4.48446 -15.295434,5.36097 -5.564263,-0.73685 -10.594407,4.47376 -10.792221,8.08869 l -0.005,13.05277 c -8.215929,-0.77286 -7.613165,1.01834 -9.06513,10.17387 -5.26405,67.02303 -8.43683,104.36963 -8.43683,104.36963 H 183.38296 c 0,0 -9.51262,-96.79145 -11.17715,-107.43607 -1.05973,-6.77689 -3.83652,-7.22354 -9.73754,-7.48541 -0.49118,-8.97503 0.67712,-21.28231 -3.84379,-22.5598 -4.71491,-1.33231 -14.03464,-3.02139 -22.99251,-3.75364 0,0 2.36306,-6.27808 1.72109,-9.41386 -2.72287,-13.30054 -4.58999,-27.16726 -5.8632,-40.4475 0.0761,-17.2679 -2.70341,-24.89789 -3.78884,-39.15833 -0.62441,-8.9288 -0.77964,-17.89642 -1.55222,-26.81111 -0.8035,-11.16343 -2.92344,-20.19361 -3.53483,-31.28081 -0.43949,-2.44833 2.9981,-0.79004 6.40644,-3.76061 1.55575,-1.52753 2.46945,-4.84011 2.52942,-6.93914 0.11994,-4.08516 -1.016,-8.61836 -1.41111,-12.7 -1.09009,-11.22539 -2.1202,-22.78239 -2.52942,-33.98308 -0.11289,-3.13972 -0.33867,-6.60753 -0.64558,-9.76136 -0.99126,-8.05737 2.34722,-12.38074 3.175,-14.11111 0.82778,-1.73038 1.20297,-6.97442 1.04422,-10.58334 -0.80081,-18.26683 -2.93511,-36.52696 -4.50145,-54.68055 -0.55738,-6.46748 -1.16769,-13.10076 -1.98613,-19.55236 -0.88545,-7.26171 -0.96195,-12.33502 -1.67217,-19.54706 -0.68384,-22.45429 -5.85083,-41.92743 -6.29003,-64.26448 1.72719,-12.26264 3.17316,-11.97427 19.40278,-16.93333 1.62278,-1.75225 -2.0046,-6.11263 0.28072,-6.58678 17.5505,-3.96574 32.07432,-2.0594 49.24658,-2.30415 6.28395,-0.0643 12.67994,0.81795 18.98123,0.92016 3.00475,0.0482 9.20178,0.79723 12.62862,0.27723 3.80776,-0.44185 4.3807,0.60242 12.11028,-6.21477 7.72958,-6.8172 16.38036,-18.06733 22.23338,-32.44303 0.46869,-1.17306 0.8613,-3.03801 1.89736,-3.83763 5.15594,-3.9786 15.41657,-0.73911 21.28914,-0.12118 2.38486,0.25094 4.77177,-0.44391 7.07893,0.38437 l 2.96744,-0.73517 8.56491,0.003 c 0.20033,-1.30837 7.69767,-1.53553 9.0916,-1.10619 4.05192,-2.40888 10.84263,-2.0301 15.45178,-3.02032 2.04073,-0.43843 4.31691,-0.61991 5.70633,-2.30546 l 1.34146,0.56229 c 0.31902,-2.08357 4.25345,-2.34983 5.85364,-3.26757 1.38104,-0.79176 2.71267,-2.8691 3.50159,-4.22227 l 0.64403,0.4555 0.34872,0.0534 0.0534,-0.34871 -0.64403,-0.45549 1.3131,-1.5834 1.66181,-1.53 c -2.31499,-2.61855 -5.10159,-5.88641 -8.60434,-6.9477 -3.5812,-1.08509 -7.39954,-0.0851 -10.76679,-1.72845 -1.59859,1.35017 -5.08072,1.97227 -6.89253,0.72911 l -1.69017,-0.61567 0.0534,-0.34871 1.60843,-1.18129 -2.72907,-3.15412 -6.36586,-0.37975 -6.24124,-1.19365 -10.49537,0.95085 -6.81244,0.20605 c -2.44432,2.09541 -6.7992,2.35726 -9.81506,3.50042 -3.8758,1.46832 -6.467,4.75609 -11.05284,4.59178 -1.94148,-0.0699 -2.73732,-2.09792 -4.65037,-2.23701 -5.91166,0.36039 -11.0827,1.045 -16.7059,1.86434 -5.41175,0.8477 -11.77689,1.32566 -17.2305,0.65196 -5.04375,-0.62343 -9.96439,-2.30724 -14.99352,-2.88633 -7.9539,-0.91662 -16.40247,-0.93325 -24.39946,-0.89252 -3.01094,0.0154 -5.59868,1.25272 -8.67395,0.7094 -3.41585,-0.60333 -6.2255,-2.57847 -9.45448,-3.51648 -8.2244,-2.38987 -22.24354,-0.79175 -30.62907,-2.72638 -8.71008,-2.00907 -17.46956,-4.9844 -26.10556,-7.262991 -8.113894,-2.13995 -17.120304,-2.35479 -25.400005,-2.42746 -2.08844,-0.0184 -8.87589,1.622757 -10.32228,0.145677 -1.36842,-1.39877 0.04637,-6.292779 0.07812,-8.012929 0.0882,-4.87856 -2.128252,-8.999408 -2.128252,-14.006028 0,-7.0485 -0.167774,-14.14498 -0.648964,-21.166671 C 65.946695,43.683481 66.188695,33.597564 58.331986,25.478384 50.977158,17.877396 32.512013,19.73214 24.493087,25.148698 18.337528,30.813136 15.87992,39.762588 14.893536,46.08097 Z m 316.052034,66.25081 0.29532,0.40211 -0.29532,-0.40211 m 0.13515,1.44824 0.29532,0.40211 -0.29532,-0.40211 m -16.09424,-2.10732 1.28808,0.911 0.0534,-0.34872 -1.34147,-0.56228 m -2.27853,0.12686 0.21232,0.15171 -0.21232,-0.15171 m -552.75077,7.47463 0.2349,0.11783 -0.2349,-0.11783 m 520.52992,19.5931 0.29533,0.4021 -0.29533,-0.4021 m -1.44824,0.13514 0.29532,0.40211 -0.29532,-0.40211 m -34.45265,17.56579 0.29533,0.40211 -0.29533,-0.40211 m -285.192171,126.27739 0.35278,0.35278 -0.35278,-0.35278 m 170.155321,57.03253 0.11994,0.23495 -0.11994,-0.23495 m -2.82222,149.57884 0.11994,0.23283 -0.11994,-0.23283 m 0.35277,4.58611 0.11995,0.23283 -0.11995,-0.23283 m 5.88081,74.55253 0.35278,0.35277 -0.35278,-0.35277"
       id="path57" />
  </g>
</svg>
