<?xml version="1.0" encoding="UTF-8" standalone="no"?>
<svg
   xmlns:dc="http://purl.org/dc/elements/1.1/"
   xmlns:cc="http://creativecommons.org/ns#"
   xmlns:rdf="http://www.w3.org/1999/02/22-rdf-syntax-ns#"
   xmlns:svg="http://www.w3.org/2000/svg"
   xmlns="http://www.w3.org/2000/svg"
   xmlns:sodipodi="http://sodipodi.sourceforge.net/DTD/sodipodi-0.dtd"
   xmlns:inkscape="http://www.inkscape.org/namespaces/inkscape"
   version="1.1"
   id="Calque_1"
   x="0px"
   y="0px"
   viewBox="0 0 611.61328 998.95363"
   xml:space="preserve"
   sodipodi:docname="eiffel.svg"
   width="611.61328"
   height="998.95361"
   inkscape:version="1.0 (4035a4fb49, 2020-05-01)"><metadata
   id="metadata325"><rdf:RDF><cc:Work
       rdf:about=""><dc:format>image/svg+xml</dc:format><dc:type
         rdf:resource="http://purl.org/dc/dcmitype/StillImage" /></cc:Work></rdf:RDF></metadata><defs
   id="defs323" /><sodipodi:namedview
   inkscape:document-rotation="0"
   pagecolor="#ffffff"
   bordercolor="#666666"
   borderopacity="1"
   objecttolerance="10"
   gridtolerance="10"
   guidetolerance="10"
   inkscape:pageopacity="0"
   inkscape:pageshadow="2"
   inkscape:window-width="1240"
   inkscape:window-height="673"
   id="namedview321"
   showgrid="false"
   inkscape:zoom="0.31134259"
   inkscape:cx="554.25462"
   inkscape:cy="617.44658"
   inkscape:window-x="76"
   inkscape:window-y="21"
   inkscape:window-maximized="0"
   inkscape:current-layer="g318" />
<style
   type="text/css"
   id="style260">
	.st0{fill:#000000;}
	.st1{fill:#000000;}
	.st2{fill:#000000;}
	.st3{fill:#000000;}
	.st4{fill:#000000;}
	.st5{fill:#000000;}
	.st6{fill:#000000;}
	.st7{fill:#000000;}
	.st8{fill:#000000;}
	.st9{fill:#000000;}
	.st10{fill:#000000;}
	.st11{fill:#000000;}
	.st12{fill:#000000;}
	.st13{fill:#000000;}
	.st14{fill:#000000;}
	.st15{fill:#000000;}
	.st16{fill:#000000;}
	.st17{fill:#000000;}
	.st18{fill:#000000;}
	.st19{fill:#000000;}
	.st20{fill:#000000;}
	.st21{fill:#000000;}
	.st22{fill:#000000;}
	.st23{fill:#000000;}
	.st24{fill:#000000;}
	.st25{fill:#000000;}
	.st26{fill:#000000;}
	.st27{fill:#000000;}
	.st28{fill:#000000;}
	.st29{fill:#000000;}
	.st30{fill:#000000;}
	.st31{fill:#000000;}
	.st32{fill:#000000;}
	.st33{fill:#000000;}
	.st34{fill:#000000;}
	.st35{fill:#000000;}
	.st36{fill:#000000;}
	.st37{fill:#000000;}
	.st38{fill:#000000;}
	.st39{fill:#000000;}
	.st40{fill:#000000;}
	.st41{fill:#000000;}
	.st42{fill:#000000;}
	.st43{fill:#000000;}
	.st44{fill:#000000;}
	.st45{fill:#000000;}
	.st46{fill:#000000;}
	.st47{fill:#000000;}
	.st48{fill:#000000;}
	.st49{fill:#000000;}
	.st50{fill:#000000;}
	.st51{fill:#000000;}
	.st52{fill:#000000;}
</style>
<g
   id="g318"
   transform="translate(-379.09913,362.76409)">
	
	
<path
   transform="translate(154.20069,99.332119)"
   d="m 530.60742,-462.0957 c -0.40778,-0.016 -0.83497,0.34348 -1.55859,1.0664 -1.35702,1.35571 -1.6323,5.66156 -1.9043,29.83008 l -0.31836,28.24414 -8.18164,4.57617 -8.18164,4.57618 -0.29101,8.23046 c -0.24477,6.90228 -0.71236,8.86358 -2.9004,12.16993 -2.60681,3.93916 -2.60964,3.95271 -1.92773,18.66601 l 0.68359,14.72266 3.67383,3.11328 3.67383,3.11133 -1.24219,24.38867 c -4.25401,83.51435 -13.52234,184.10625 -24.72851,268.386718 -3.36672,25.32076 -13.23459,86.46606 -15.73438,97.5 l -1.24414,5.5 -5.23242,0.302734 c -4.00408,0.23137 -5.23047,0.678717 -5.23047,1.904297 0,0.88061 -2.1749,3.899465 -4.83203,6.708985 l -4.83008,5.107422 2.83984,23.912109 2.8418,23.912105 -5.63281,18.57618 c -11.02252,36.3467 -27.45631,81.50775 -38.32617,105.32617 l -3.08008,6.75 h -15.99024 c -9.99335,0 -15.99023,0.37503 -15.99023,1 0,0.55 1.125,1 2.5,1 h 2.5 v 10.5 10.5 h -2.88281 c -2.04236,0 -3.03579,0.58335 -3.40625,2 -0.90592,3.46424 0.32227,6 2.90625,6 2.36437,0 2.38281,0.087 2.38281,10.82422 v 10.82422 l -13.09961,20.92578 C 334.67556,381.07848 260.51717,489.85901 231.11719,528.65039 l -6.21875,8.20703 h 104.14844 c 0.22551,-0.72354 2.70423,-6.52593 5.78515,-13.5293 l 5.86914,-13.34179 12.78711,-9.76953 12.78711,-9.76953 4.69922,8.76757 4.70117,8.76563 -3.45508,8.00391 c -1.90059,4.40164 -4.64787,11.03945 -6.10351,14.75195 l -2.40039,6.12109 h 27.71093 c -3.8257,-0.0858 -6.46484,-0.17528 -6.46484,-0.27344 0,-1.29332 6.30287,-19.25449 12.49219,-35.59765 10.50127,-27.72905 18.88674,-47.08783 22.54687,-52.05078 17.7787,-24.10702 42.11974,-42.47392 67.64649,-51.04297 26.2491,-8.81153 58.79795,-8.95785 84.51758,-0.37891 26.28525,8.76761 50.75939,27.04147 68.61523,51.23242 3.81721,5.17153 11.9939,23.99817 22.68945,52.24024 6.18932,16.34316 12.49219,34.30433 12.49219,35.59765 0,0.0982 -2.63914,0.18766 -6.46484,0.27344 h 27.71093 l -2.40039,-6.12109 c -1.45564,-3.7125 -4.20292,-10.3503 -6.10351,-14.75195 l -3.45508,-8.00391 4.70117,-8.76563 4.69922,-8.76757 12.78711,9.76953 12.78711,9.76953 5.86914,13.34179 c 3.08093,7.00337 5.55964,12.80576 5.78516,13.5293 h 104.63281 l -4.30078,-5.16797 C 814.48684,510.39178 727.81493,383.55315 693.06641,328.06055 l -13.10352,-20.92578 v -10.82422 c 0,-10.74946 0.016,-10.82422 2.39258,-10.82422 2.77398,0 3.61054,-1.53625 2.88867,-5.3125 -0.41589,-2.17559 -1.06348,-2.6875 -3.39844,-2.6875 h -2.88281 v -10.5 -10.5 h 2.5 c 1.375,0 2.5,-0.45 2.5,-1 0,-0.62497 -5.99687,-1 -15.99023,-1 h -15.99024 l -3.08008,-6.75 C 638.03248,223.91791 621.59869,178.75686 610.57617,142.41016 l -5.63281,-18.57618 2.88867,-23.923824 2.88867,-23.923828 -4.8789,-5.03125 c -2.68334,-2.76729 -4.87891,-5.780795 -4.87891,-6.697266 0,-1.302239 -1.13458,-1.732529 -5.19141,-1.96875 -6.17795,-0.359729 -5.29077,1.885201 -10.21484,-25.849609 -12.77133,-71.934548 -23.79553,-165.036733 -31.55273,-266.453123 -2.79084,-36.48702 -6.04102,-88.78781 -6.04102,-97.2168 0,-6.88279 0.10055,-7.17144 3.48047,-9.93555 l 3.48242,-2.84765 0.66797,-14.72266 c 0.66827,-14.70389 0.6657,-14.72937 -1.93945,-18.66601 -2.19546,-3.31757 -2.6548,-5.25901 -2.90039,-12.26368 l -0.29102,-8.32421 -8.18164,-4.44727 -8.18164,-4.44727 -0.31836,-28.16211 c -0.2536,-22.44849 -0.60523,-28.50857 -1.73242,-29.86523 -0.64523,-0.77659 -1.03362,-1.1676 -1.44141,-1.18359 z m 9.95117,129.56445 c 0.31786,0.0152 0.7798,0.0787 1.39649,0.16602 1.38882,0.19654 2.63405,1.12432 2.82031,2.10156 0.45083,2.3654 -1.08927,2.20651 -3.4043,-0.35156 -1.41504,-1.56362 -1.76606,-1.96155 -0.8125,-1.91602 z m -21.9414,0.0176 c 2.59164,0 2.61249,0.0477 0.8457,2 -0.99549,1.1 -2.18954,2 -2.6543,2 -0.46475,0 -0.8457,-0.9 -0.8457,-2 0,-1.4978 0.66598,-2 2.6543,-2 z m 7.1914,0 c 1.48832,0 2.1543,0.61872 2.1543,2 0,1.1 -0.15595,2 -0.3457,2 -0.18976,0 -1.15881,-0.9 -2.1543,-2 -1.75677,-1.9412 -1.74594,-2 0.3457,-2 z m 9.3086,0 c 2.09164,0 2.10247,0.0588 0.3457,2 -0.99549,1.1 -1.96454,2 -2.1543,2 -0.18975,0 -0.3457,-0.9 -0.3457,-2 0,-1.38128 0.66598,-2 2.1543,-2 z m 3.56054,2.06836 2.31641,2.46679 2.31641,2.46485 h -5.17383 c -2.84587,0 -5.17383,-0.19409 -5.17383,-0.43164 0,-0.23754 1.28595,-1.34782 2.85742,-2.4668 z m -16.47656,0.0488 2.88086,2.13086 c 1.5843,1.17132 2.88086,2.26983 2.88086,2.4414 0,0.17157 -2.32796,0.31055 -5.17383,0.31055 h -5.17578 l 2.29492,-2.44141 z m 0.85742,6.90625 5.4043,0.0215 -2.5,1.95508 c -3.16966,2.47934 -4.25622,2.47934 -6.5,0 -1.78892,-1.97676 -1.74641,-1.99856 3.5957,-1.97656 z m 14.8086,0 c 5.34211,-0.022 5.38462,-1.8e-4 3.5957,1.97656 -2.24378,2.47934 -3.33034,2.47934 -6.5,0 l -2.5,-1.95508 z m -21.9043,1.88476 2.46875,1.79492 c 1.35771,0.98817 2.46875,2.02188 2.46875,2.29688 0,0.275 -1.11104,1.3087 -2.46875,2.29687 l -2.46875,1.79688 v -4.09375 z m 28.27149,0.64844 c 0.5577,-0.0763 0.65457,0.87252 0.89453,3.38867 0.2127,2.23034 0.15085,4.03979 -0.13868,4.02148 -0.81143,-0.0513 -5.36342,-3.98511 -4.91992,-4.25195 0.21541,-0.12961 1.35442,-1.04231 2.53125,-2.02929 0.79659,-0.66808 1.29819,-1.08312 1.63282,-1.12891 z m -16.72657,0.69726 c 0.41174,-0.0849 0.45508,0.65945 0.45508,2.53321 0,3.64584 -0.23614,3.8388 -2.04101,1.66406 -1.06279,-1.28057 -0.99772,-1.84017 0.37695,-3.21484 0.58205,-0.58205 0.96194,-0.9315 1.20898,-0.98243 z m 5.91602,0.01 c 0.25391,0.0497 0.64676,0.4163 1.2539,1.02344 1.61904,1.61905 1.61904,1.80868 0,3.42773 -1.61909,1.61904 -1.71484,1.52326 -1.71484,-1.71484 0,-2.02381 0.0378,-2.81911 0.46094,-2.73633 z m -11.04688,3.98438 2.79297,2.06445 c 1.53599,1.1356 2.79297,2.20538 2.79297,2.37695 0,0.17157 -2.50097,0.31055 -5.55664,0.31055 h -5.55469 l 2.76367,-2.37695 z m 15.95508,0.9121 c 0.8998,0 1.79782,0.61307 3.35742,1.83985 l 2.54297,2 -5.88476,-0.0215 -5.88477,-0.0215 2.5,-1.95703 c 1.56835,-1.22678 2.46935,-1.83985 3.36914,-1.83985 z m -21.52148,5.83985 h 5.76367 5.76367 l -2.875,3 c -1.5808,1.65 -3.1279,2.97571 -3.4375,2.94531 -0.3096,-0.0304 -1.60934,-1.38043 -2.88867,-3 z m 15.77734,0 h 5.6875 c 3.1279,0 5.6875,0.20508 5.6875,0.45508 0,0.25 -1.14492,1.6 -2.54492,3 -1.4,1.4 -2.66735,2.54492 -2.81445,2.54492 -0.1471,0 -1.55983,-1.35 -3.14063,-3 z m -17.625,1.65234 2.5,2.34766 c 1.375,1.29175 2.5,2.89467 2.5,3.56055 0,0.66587 -1.125,1.94672 -2.5,2.84765 l -2.5,1.63867 v -5.19726 z m 31,0 v 5.17383 c 0,2.84587 -0.1125,5.14999 -0.25,5.12109 -1.31207,-0.27529 -4.75,-3.45574 -4.75,-4.39453 0,-0.66204 1.125,-2.26098 2.5,-3.55273 z m -13,1.9043 2.14649,2.14648 c 1.95395,1.95395 2.00613,2.2888 0.57226,3.72266 -2.30808,2.30809 -2.71875,1.98447 -2.71875,-2.14649 z m -5.49805,0.80273 c 0.47707,-0.0903 0.49805,0.76366 0.49805,2.98633 0,4.04627 -0.90635,4.63685 -2.70312,1.75977 -0.97465,-1.56067 -0.84001,-2.20848 0.75976,-3.65625 0.70915,-0.64178 1.15907,-1.03569 1.44531,-1.08985 z m -5.50195,4.17969 3.23047,3.23047 3.23047,3.23047 h -6.46094 -6.46094 l 3.23047,-3.23047 z m 17,0 3.23047,3.23047 3.23047,3.23047 h -6.46094 -6.46094 l 3.23047,-3.23047 z m -23.34961,8.46094 h 5.67578 c 3.12087,0 5.67383,0.2655 5.67383,0.58984 0,0.32434 -1.0125,1.43444 -2.25,2.4668 -2.98524,2.49038 -3.96342,2.40954 -6.75,-0.55664 z m 24.02344,0 h 5.67383 l -2.34766,2.5 c -1.29175,1.375 -2.83221,2.4851 -3.42383,2.46679 -1.20859,-0.0374 -5.57617,-3.46557 -5.57617,-4.37695 0,-0.32434 2.55296,-0.58984 5.67383,-0.58984 z m -25.4707,1.84375 2.64843,2.32812 c 1.4565,1.28076 2.81271,2.41805 3.01367,2.52735 0.20096,0.10929 -0.92403,1.33292 -2.5,2.71875 -1.57595,1.38582 -3.09023,2.53308 -3.36523,2.55078 -0.275,0.0177 -0.34194,-2.25327 -0.14844,-5.04688 z m 32.29687,0.30273 0.31641,2.42774 c 0.17403,1.3349 0.17403,3.51861 0,4.85351 l -0.31641,2.42774 -2.80664,-2.42774 -2.80469,-2.42773 2.80469,-2.42578 z m -19.95508,2.10742 c 0.41174,-0.0849 0.45508,0.65945 0.45508,2.53321 0,3.64584 -0.23614,3.8388 -2.04101,1.66406 -1.06279,-1.28057 -0.99772,-1.84017 0.37695,-3.21484 0.58205,-0.58205 0.96194,-0.9315 1.20898,-0.98243 z m 7.91602,0.01 c 0.25391,0.0497 0.64676,0.4163 1.2539,1.02344 1.61904,1.61905 1.61904,1.80868 0,3.42773 -1.61909,1.61904 -1.71484,1.52326 -1.71484,-1.71484 0,-2.02381 0.0378,-2.81911 0.46094,-2.73633 z m -12.94727,4.73633 c 1.58011,0 5.65666,4.49568 4.82813,5.32422 -0.3717,0.37169 -3.15907,0.67578 -6.19531,0.67578 h -5.52149 l 2.875,-3 c 1.5808,-1.65 3.38744,-3 4.01367,-3 z m 17.97266,0 c 0.62623,0 2.43287,1.35 4.01367,3 l 2.875,3 h -5.52148 c -3.03624,0 -5.82362,-0.30409 -6.19532,-0.67578 -0.82853,-0.82854 3.24802,-5.32422 4.82813,-5.32422 z m -26.48633,7.65234 2.5918,2.42383 c 1.4255,1.33337 2.99646,3.17643 3.49219,4.0957 0.70369,1.30497 -0.0106,2.39338 -3.25977,4.9668 l -4.16211,3.29688 0.66992,-3.3418 c 0.36768,-1.83836 0.66797,-5.16546 0.66797,-7.39258 z m 34.5,0.006 0.68945,6.89844 c 0.37917,3.79436 0.59361,6.99429 0.47657,7.11133 -0.11704,0.11704 -1.95356,-1.24789 -4.08008,-3.03321 l -3.86524,-3.24609 3.38868,-3.86523 z m -30.63672,0.3418 h 4.56836 c 2.51245,0 4.56836,0.37204 4.56836,0.82617 0,0.45412 -1.07311,1.83418 -2.38477,3.06641 l -2.38476,2.24023 -2.18359,-3.06641 z m 21.39258,0.0898 c 0.53027,0.0153 1.13543,0.0479 1.81641,0.0977 l 4.27929,0.3125 -2.43554,2.82226 -2.4336,2.82032 -2.41211,-2.56641 c -2.61177,-2.78011 -2.52636,-3.59309 1.18555,-3.48633 z m -12.72461,5.29883 c 0.38035,-0.004 0.46875,0.59824 0.46875,1.99023 0,2.98525 -0.29341,3.17842 -1.89062,1.25391 -0.86313,-1.04001 -0.77141,-1.66642 0.3789,-2.62109 0.48165,-0.39973 0.81476,-0.62058 1.04297,-0.62305 z m 9.9375,0 c 0.22821,0.002 0.56132,0.22332 1.04297,0.62305 1.15031,0.95467 1.24204,1.58108 0.37891,2.62109 -1.59721,1.92451 -1.89063,1.73134 -1.89063,-1.25391 0,-1.39199 0.0884,-1.99435 0.46875,-1.99023 z m 4.13281,3.55664 3.94922,3.48633 3.94922,3.48633 -5.69141,0.041 c -6.6768,0.0488 -7.97896,-1.24174 -4.63086,-4.58984 z m -18.24804,0.0391 2.25,2.11328 c 1.23821,1.16324 2.0109,2.74332 1.71679,3.50977 -0.37262,0.97102 -2.24571,1.38056 -6.17773,1.35156 l -5.64258,-0.041 3.92578,-3.4668 z m -8.7461,9.01563 h 6.19727 c 6.907,0 7.81494,1.13029 3.88086,4.82617 -1.27295,1.19587 -2.53553,2.17383 -2.80469,2.17383 -0.26916,0 -2.01508,-1.575 -3.88086,-3.5 z m 28.89258,0 c 3.025,0 5.5,0.36735 5.5,0.81445 0,0.4471 -1.26209,2.0221 -2.80469,3.5 -3.39645,3.25401 -3.3191,3.24765 -6.02148,0.3711 -3.47877,-3.70299 -2.78088,-4.68555 3.32617,-4.68555 z m 7.34375,2.77539 0.67383,4.49609 c 1.12242,7.48486 0.477,8.36954 -3.27539,4.48828 l -3.25781,-3.37109 2.92968,-2.80664 z m -36.3418,0.0957 2.74805,2.86914 2.75,2.86914 -3.5,3.39258 -3.5,3.39063 0.0996,-3.94532 c 0.0548,-2.17039 0.39358,-4.98883 0.75195,-6.26171 z m 12.04688,3.35156 c 0.40131,-0.11899 0.45117,0.50139 0.45117,2.06446 0,2.76169 -1.33137,3.60287 -2.55859,1.61718 -0.37254,-0.60277 0.0494,-1.82476 0.93945,-2.71484 0.55916,-0.55916 0.92718,-0.8954 1.16797,-0.9668 z m 11.90234,0 c 0.24079,0.0714 0.60881,0.40764 1.16797,0.9668 0.89009,0.89008 1.31199,2.11207 0.93945,2.71484 -1.22722,1.98568 -2.55859,1.14451 -2.55859,-1.61718 0,-1.56307 0.0499,-2.18345 0.45117,-2.06446 z m -8.24023,3.20704 c 0.47058,-0.0225 0.78906,0.9501 0.78906,2.51171 0,1.68246 -0.45,3.0586 -1,3.0586 -0.55,0 -1,-1.09691 -1,-2.43945 0,-1.34255 0.45,-2.72063 1,-3.06055 0.0729,-0.0451 0.14371,-0.0671 0.21094,-0.0703 z m 4.57812,0 c 0.0672,0.003 0.13801,0.0252 0.21094,0.0703 0.55,0.33992 1,1.718 1,3.06055 0,1.34253 -0.45,2.43945 -1,2.43945 -0.55,0 -1,-1.37614 -1,-3.0586 0,-1.56161 0.31848,-2.53424 0.78906,-2.51171 z m -13.40625,0.58203 2.3086,2.16797 c 1.26989,1.193 2.30859,2.76697 2.30859,3.49609 0,0.94576 -1.6316,1.32422 -5.69531,1.32422 h -5.69727 l 3.38672,-3.49414 z m 22.23438,0 3.38867,3.49414 3.38672,3.49414 h -5.69727 c -6.38733,0 -7.23418,-1.20581 -3.38672,-4.82031 z m -30.00977,8.98828 h 6.19727 c 6.907,0 7.81494,1.13029 3.88086,4.82617 -1.27295,1.19587 -2.53553,2.17383 -2.80469,2.17383 -0.26916,0 -2.01508,-1.575 -3.88086,-3.5 z m 31.58789,0 h 6.19727 l -3.39258,3.5 c -1.86578,1.925 -3.67525,3.5 -4.02148,3.5 -1.07213,0 -4.97852,-4.56221 -4.97852,-5.81445 0,-0.78652 2.08469,-1.18555 6.19531,-1.18555 z m -15.20117,1.91601 c 0.16999,-0.002 0.35429,0.0984 0.55274,0.29688 0.3004,0.30043 0.41293,3.82329 0.25,7.82812 -0.25929,6.37334 -0.47069,7.07185 -1.68555,5.60157 -0.99372,-1.20264 -1.22335,-3.26593 -0.81055,-7.26563 0.46368,-4.49256 0.95675,-6.45177 1.69336,-6.46094 z m 4.88086,0.084 c 1.03058,0 2.125,4.89535 2.125,9.5039 0,1.7889 -0.675,3.81141 -1.5,4.4961 -1.31102,1.08805 -1.5,0.28518 -1.5,-6.37695 0,-4.19235 0.39375,-7.62305 0.875,-7.62305 z m 17.33203,1.03125 c 0.0743,-0.009 0.13045,0.004 0.16602,0.043 0.21693,0.23491 0.58122,3.46328 0.80859,7.17578 0.22737,3.7125 0.16353,6.75 -0.14062,6.75 -0.59582,0 -6.36721,-6.67413 -6.80664,-7.8711 -0.29753,-0.81041 4.85809,-5.96414 5.97265,-6.09765 z m -39.41992,0.002 c 1.0906,0.14053 6.21289,5.19929 6.21289,6.25391 0,0.5021 -1.53039,2.44445 -3.40039,4.31445 -1.87,1.87 -3.57831,3.39844 -3.79688,3.39844 -0.50063,0 0.28932,-13.34656 0.82422,-13.92578 0.0342,-0.037 0.0875,-0.0504 0.16016,-0.041 z m 11.81055,4.24024 c 0.28613,0.0271 0.40234,0.5177 0.40234,1.52734 0,2.41451 -0.5203,2.78696 -1.55469,1.11328 -0.36954,-0.59793 -0.17066,-1.5891 0.44141,-2.20117 0.30643,-0.30644 0.53926,-0.45572 0.71094,-0.43945 z m 15.8125,0.004 c 0.18359,-0.009 0.43906,0.17344 0.78906,0.52344 0.93333,0.93333 0.93333,1.46706 0,2.40039 -0.93333,0.93333 -1.19922,0.6655 -1.19922,-1.20117 0,-1.16667 0.10417,-1.70834 0.41016,-1.72266 z m -19.42578,3.26367 2.13867,2.13868 c 1.57256,1.57252 1.96646,2.82525 1.48828,4.73046 -0.61251,2.44045 -1.01065,2.58985 -6.86719,2.58985 h -6.21875 l 4.73047,-4.72852 z m 22.78515,0.79297 c 0.86293,-0.0917 1.82371,0.81647 4.25586,3.19141 2.18598,2.13455 3.97461,4.23935 3.97461,4.67773 0,0.95993 -10.38497,1.07987 -11.33398,0.13086 -1.34832,-1.34831 -0.60924,-5.0739 1.35937,-6.85547 0.74369,-0.67302 1.22639,-1.08953 1.74414,-1.14453 z m -15.88672,6.66602 c 0.55,0 1.27727,0.45 1.61719,1 0.33992,0.55 0.16719,1 -0.38281,1 -0.55,0 -1.27727,-0.45 -1.61719,-1 -0.33992,-0.55 -0.16719,-1 0.38281,-1 z m 9.23438,0 c 0.55,0 0.72273,0.45 0.38281,1 -0.33992,0.55 -1.06719,1 -1.61719,1 -0.55,0 -0.72273,-0.45 -0.38281,-1 0.33992,-0.55 1.06719,-1 1.61719,-1 z m -18.61719,4 c 5.35714,0 5.5,0.0735 5.5,2.80078 0,1.54 -0.53922,3.34 -1.19922,4 -0.66,0.66 -1.71321,1.19922 -2.33984,1.19922 -1.09048,0 -7.46094,-6.38033 -7.46094,-7.47266 0,-0.28966 2.475,-0.52734 5.5,-0.52734 z m 9.55859,0 c 0.58246,0 0.78133,0.45 0.44141,1 -0.33992,0.55 -0.81605,1 -1.05859,1 -0.24254,0 -0.44141,-0.45 -0.44141,-1 0,-0.55 0.47613,-1 1.05859,-1 z m 8.88282,0 c 0.58246,0 1.05859,0.45 1.05859,1 0,0.55 -0.19887,1 -0.44141,1 -0.24254,0 -0.71867,-0.45 -1.05859,-1 -0.33992,-0.55 -0.14105,-1 0.44141,-1 z m 9.55859,0 c 3.025,0 5.5,0.16326 5.5,0.36133 0,0.19807 -1.54552,1.99807 -3.43359,4 -1.88806,2.00193 -3.82189,3.63867 -4.29883,3.63867 -1.72292,0 -3.26758,-2.45702 -3.26758,-5.19922 0,-2.7273 0.14286,-2.80078 5.5,-2.80078 z m -35.33984,1.75195 3.92383,3.83203 3.92578,3.83203 -4.21289,4.29297 c -2.31705,2.3609 -4.47964,4.29102 -4.80469,4.29102 -0.59396,0 -0.398,-3.75871 0.61914,-11.875 z m 42.67968,0 0.65625,4.37305 c 0.3606,2.40616 0.50919,6.08722 0.33008,8.17969 l -0.32617,3.80468 -4.25391,-4.34765 -4.25586,-4.34571 3.92579,-3.83203 z m -23.48828,0.80078 c 0.63472,0.002 0.64844,1.77201 0.64844,7.29297 0,4.48525 -0.3375,8.1284 -0.75,8.0957 -0.4125,-0.0327 -1.59193,-0.90997 -2.62109,-1.94921 -1.5119,-1.5267 -1.7445,-2.74206 -1.20703,-6.32618 0.36586,-2.43973 1.54529,-5.23149 2.62109,-6.20507 0.60191,-0.54473 1.02008,-0.9089 1.30859,-0.90821 z m 4.29688,0 c 0.28851,-6.9e-4 0.70472,0.36348 1.30664,0.90821 2.87897,2.60543 3.776,10.07394 1.50976,12.57812 -0.97593,1.07839 -2.15438,1.96094 -2.61914,1.96094 -0.46475,0 -0.8457,-3.66905 -0.8457,-8.1543 0,-5.52096 0.0137,-7.29145 0.64844,-7.29297 z m -11.58985,6.44727 c 0.58246,0 0.78133,0.45 0.44141,1 -0.33992,0.55 -0.81605,1 -1.05859,1 -0.24254,0 -0.44141,-0.45 -0.44141,-1 0,-0.55 0.47613,-1 1.05859,-1 z m 18.88282,0 c 0.58246,0 1.05859,0.45 1.05859,1 0,0.55 -0.19887,1 -0.44141,1 -0.24254,0 -0.71867,-0.45 -1.05859,-1 -0.33992,-0.55 -0.14105,-1 0.44141,-1 z m 1.69922,3.08008 c 1.1517,-0.14615 2.96584,1.04581 5.61914,3.55273 2.60693,2.4631 4.74023,4.69586 4.74023,4.96289 0,0.26699 -1.6875,0.3661 -3.75,0.21875 -7.98287,-0.57034 -8.25,-0.7098 -8.25,-4.26172 0,-2.8436 0.48892,-4.32651 1.64063,-4.47265 z m -22.70118,0.31054 c 1.53147,-0.1558 2.12431,1.29038 1.8711,4.35157 -0.29432,3.55831 -0.49657,3.76154 -3.81055,3.80664 -1.925,0.0262 -4.47248,-0.19878 -5.66016,-0.5 -1.98437,-0.50328 -1.79802,-0.86064 2.28125,-4.39454 2.36914,-2.05238 4.12722,-3.14249 5.31836,-3.26367 z m 5.53907,4.95117 c 0.22715,0.0447 0.55409,0.27031 1.02148,0.65821 0.825,0.68469 1.5,1.56604 1.5,1.95703 0,0.39099 -0.675,0.71094 -1.5,0.71094 -0.825,0 -1.5,-0.88135 -1.5,-1.95703 0,-1.01569 0.0999,-1.44364 0.47852,-1.36915 z m 12.04101,0.01 c 0.38917,-0.0707 0.48047,0.40103 0.48047,1.52734 0,2.3915 -0.0126,2.39943 -1.79687,1.26758 -1.03622,-0.65732 -0.9859,-1.08171 0.25,-2.10742 0.49266,-0.40888 0.8329,-0.64505 1.0664,-0.6875 z m -16.51953,4.54688 v 3.85156 c 0,2.11827 -0.53922,4.39078 -1.19922,5.05078 -0.66,0.66 -1.46553,1.19922 -1.78906,1.19922 -0.60382,0 -8.01172,-8.57094 -8.01172,-9.26953 0,-0.21363 2.475,-0.487 5.5,-0.60938 z m 6.18164,0.0918 c 0.47805,-0.0142 0.81836,0.18947 0.81836,0.69727 0,0.45803 -0.93908,1.41853 -2.08594,2.13476 -1.83881,1.14835 -2.044,1.08944 -1.73828,-0.49804 0.23448,-1.21754 1.95415,-2.30265 3.00586,-2.33399 z m 14.81836,0.01 h 5.58399 c 3.07083,0 5.43334,0.39545 5.25,0.8789 -0.18334,0.48345 -2.02097,2.73345 -4.08204,5 -2.06107,2.26655 -3.88239,4.1211 -4.04882,4.1211 -1.3654,0 -2.70313,-3.06688 -2.70313,-6.19922 z m -5.69531,0.0391 c 1.19414,0.0533 2.69531,1.19985 2.69531,2.42969 0,1.84284 -0.005,1.84262 -2.42773,0.01 -1.05985,-0.80183 -1.6416,-1.74316 -1.29297,-2.09179 0.26285,-0.26285 0.62734,-0.36544 1.02539,-0.34766 z m -28.14258,2.70313 4.42188,4.34179 4.42382,4.33985 -4.71679,4.78906 c -2.59388,2.63347 -5.01525,4.78711 -5.38086,4.78711 -0.64514,0 -0.39316,-4.89246 0.71289,-13.87891 z m 46.67578,0 0.53906,4.3789 c 0.29644,2.4085 0.72864,6.51641 0.95899,9.12891 0.23035,2.6125 0.11952,4.75 -0.2461,4.75 -0.36561,0 -2.78697,-2.15364 -5.38085,-4.78711 l -4.7168,-4.78906 4.42383,-4.33985 z m -21.04297,0.24218 c 1.44539,-0.34655 5.1692,4.84498 5.74414,8.24805 0.60256,3.5665 0.3484,4.34105 -2.27734,6.9668 l -2.95313,2.95507 -0.62109,-8.77734 c -0.34071,-4.82788 -0.40665,-8.98985 -0.14844,-9.24805 0.0745,-0.0745 0.1595,-0.12142 0.25586,-0.14453 z m -4.88672,0.0215 c 0.23159,-0.0449 0.42916,-5.3e-4 0.58008,0.15039 0.27325,0.27325 0.16249,4.4322 -0.24609,9.24219 l -0.74219,8.74609 -2.85351,-2.98438 c -2.50183,-2.61658 -2.76924,-3.47341 -2.17969,-6.96289 0.53824,-3.18583 3.8203,-7.87708 5.4414,-8.1914 z m -10.48242,11.49414 c 1.32626,0 1.94789,3.87736 1.13867,7.10156 -0.55281,2.20257 -1.09921,2.39844 -6.6914,2.39844 h -6.08985 l 5.28321,-4.75 c 2.90572,-2.6125 5.76811,-4.75 6.35937,-4.75 z m 26.21875,0.11523 c 1.16084,0.14143 2.99966,1.55239 5.70508,4.25782 l 5.12695,5.12695 h -5.63086 c -6.0917,0 -6.8457,-0.6616 -6.8457,-6.02149 0,-2.3758 0.4837,-3.50471 1.64453,-3.36328 z m -20.81836,4.97266 c 0.4217,0.10189 1.03576,0.69968 2.12891,1.86328 l 2.39258,2.54883 h -3.17383 c -3.29633,0 -3.50777,-0.29999 -2.32422,-3.29883 0.32409,-0.82117 0.55486,-1.21517 0.97656,-1.11328 z m 15.34766,0 c 0.4217,-0.10189 0.65247,0.29211 0.97656,1.11328 0.3904,0.98919 0.7406,2.13633 0.7793,2.54883 0.0387,0.4125 -1.35765,0.75 -3.10352,0.75 h -3.17578 l 2.39453,-2.54883 c 1.09315,-1.1636 1.70721,-1.76139 2.12891,-1.86328 z m -32.59961,6.41211 H 511.75 c 6.11386,0 6.21262,0.0436 6.19922,2.75 -0.008,1.5125 -0.28555,3.7625 -0.61719,5 -0.33163,1.2375 -0.90441,2.25 -1.27344,2.25 -0.36903,0 -2.88705,-2.25 -5.5957,-5 z m 18.09961,0 h 2.67383 l -2.34766,2.5 c -1.29175,1.375 -2.49471,2.5 -2.67383,2.5 -0.17913,0 -0.32617,-1.125 -0.32617,-2.5 0,-2.04345 0.4879,-2.5 2.67383,-2.5 z m 13.82617,0 c 2,0 2.5,0.5 2.5,2.5 0,2.95523 0.10096,2.93501 -2.75,0.55664 -2.8892,-2.41027 -2.83635,-3.05664 0.25,-3.05664 z m 11.71289,0 h 6.21094 l -4.92383,5 c -2.70865,2.75 -5.22667,5 -5.5957,5 -0.88305,0 -1.87343,-3.7979 -1.89063,-7.25 -0.0134,-2.7064 0.0854,-2.75 6.19922,-2.75 z m -21.21289,1.5957 -0.0586,6.45117 c -0.0317,3.54912 -0.3692,8.02813 -0.75,9.95313 l -0.69141,3.5 -3.25,-3.6211 c -4.33639,-4.83218 -4.17027,-7.57438 0.75,-12.3789 z m 5,0 4,3.9043 c 2.65107,2.5887 3.98659,4.76501 3.95899,6.45312 -0.0232,1.41953 -1.51384,4.21342 -3.36719,6.31055 l -3.32617,3.76172 -0.6211,-3.76172 c -0.34205,-2.06956 -0.62681,-6.66768 -0.63281,-10.2168 z m -28.33789,1.45313 c 0.22461,-0.24847 2.4213,1.56192 4.88281,4.02343 l 4.47657,4.47657 -5.58594,5.47461 -5.58594,5.47656 0.70312,-9.5 c 0.38579,-5.225 0.88478,-9.70271 1.10938,-9.95117 z m 51.41016,0.52734 c 0.0909,-0.003 0.15534,0.0221 0.18945,0.0801 0.27286,0.46395 0.81626,4.78125 1.20703,9.59375 0.39076,4.8125 0.5416,8.75 0.33594,8.75 -0.20566,0 -2.72218,-2.37747 -5.59375,-5.28516 l -5.22071,-5.28711 4.38672,-4.30664 c 2.1119,-2.07266 4.05881,-3.52504 4.69532,-3.54492 z m -11.14454,10.22656 c 0.64112,-0.0532 3.43606,1.99978 6.48438,4.78906 l 5.91211,5.40821 h -6.0332 -6.03125 l -0.55078,-4.75 c -0.30273,-2.6125 -0.24761,-5.04545 0.12109,-5.40821 0.023,-0.0227 0.0549,-0.0355 0.0977,-0.0391 z m -28.77929,0.0508 c 0.0457,0.005 0.0833,0.0203 0.10937,0.0449 0.41651,0.39425 0.46704,2.82916 0.11328,5.41015 l -0.64257,4.69141 h -6.02735 -6.02539 l 5.91211,-5.40821 c 3.04832,-2.78928 5.87574,-4.82023 6.56055,-4.73828 z m 3.66406,4.14649 c 0.4471,0 2.1067,1.35 3.6875,3 l 2.875,3 h -3.6875 c -3.4301,0 -3.6875,-0.2091 -3.6875,-3 0,-1.65 0.3654,-3 0.8125,-3 z m 21.375,0 c 0.4471,0 0.8125,1.35 0.8125,3 0,2.7909 -0.2574,3 -3.6875,3 h -3.6875 l 2.875,-3 c 1.5808,-1.65 3.2404,-3 3.6875,-3 z m -14.69727,7.85156 -2.49609,2.66602 c -1.3721,1.46672 -3.3122,3.1074 -4.3125,3.64648 -1.61193,0.8687 -1.78248,0.60246 -1.5,-2.3418 0.29651,-3.09035 0.59628,-3.34418 4.3125,-3.64648 z m -15.23437,0.14258 c 1.9269,0.018 3.55511,0.14914 3.82813,0.42187 0.22921,0.22889 0.26089,2.70389 0.0703,5.5 -0.19059,2.7961 -0.65897,5.08399 -1.03907,5.08399 -0.90976,0 -10.11523,-9.35828 -10.11523,-10.28321 0,-0.46681 4.04435,-0.75259 7.25586,-0.72265 z m 27.72461,0.006 c 2.3318,0 3.11526,0.53498 3.59766,2.45703 1.02365,4.07855 0.0898,4.62447 -3.32813,1.94531 -4.03886,-3.16587 -4.11491,-4.40234 -0.26953,-4.40234 z m 7.01953,0 h 5.5 c 3.025,0 5.5,0.35589 5.5,0.78906 0,0.43318 -2.15377,2.90814 -4.78516,5.5 -2.63139,2.59183 -5.10639,4.71094 -5.5,4.71094 -0.39361,0 -0.71484,-2.475 -0.71484,-5.5 z m -19.5,2.5 0.26953,5 c 0.14828,2.75 -0.0767,7.61001 -0.5,10.79883 l -0.76953,5.79687 -4.25,-4.33594 c -2.3375,-2.38464 -4.25,-5.27329 -4.25,-6.41992 0,-1.20608 2.00205,-3.92857 4.75,-6.46094 z m 8,0 4.75,4.3789 c 2.85535,2.63135 4.75,5.23993 4.75,6.54102 0,1.23731 -1.88672,4.01552 -4.4043,6.48633 l -4.40429,4.32226 -0.6836,-7.36328 c -0.3762,-4.05019 -0.53162,-8.94023 -0.3457,-10.86523 z m 23.51172,0.32617 c 0.60167,-0.19718 1.16251,2.80869 2.0293,10.58203 0.60059,5.38619 0.93096,9.95379 0.73437,10.15039 -0.1966,0.19659 -3.03913,-2.05837 -6.3164,-5.01172 l -5.95899,-5.36914 4.5,-4.82031 c 2.475,-2.65081 4.6125,-5.01451 4.75,-5.25391 0.0887,-0.15434 0.17577,-0.24917 0.26172,-0.27734 z m -55.16797,0.27539 c 0.36089,0.056 2.62739,2.30207 5.03711,4.99023 3.70135,4.12905 4.18234,5.12744 3.10156,6.42969 -0.70362,0.84781 -3.52496,3.42314 -6.27148,5.72266 l -4.99414,4.17969 0.66406,-5.96094 c 1.4637,-13.14817 1.83346,-15.45893 2.46289,-15.36133 z m 10.81445,12.28711 c 0.0364,-0.006 0.0614,-0.001 0.0762,0.0137 0.23663,0.23663 0.11616,2.94236 -0.26758,6.01367 l -0.69727,5.58399 -6.13476,-0.043 -6.13477,-0.0449 6.40234,-5.97071 c 3.30116,-3.07836 6.2102,-5.46181 6.75586,-5.55273 z m 33.5625,0.0566 c 0.21252,-0.21251 3.28864,2.27925 6.83399,5.53711 l 6.44531,5.92383 -6.13477,0.0469 -6.13476,0.0469 -0.69727,-5.58399 c -0.38372,-3.07131 -0.52501,-5.75819 -0.3125,-5.9707 z m -29.66797,4.61133 c 0.85841,0.0906 2.13247,1.08465 3.95508,2.95117 l 3.89844,3.99219 h -4.70312 c -4.46754,0 -4.702,-0.13766 -4.6875,-2.75 0.0163,-2.93367 0.43344,-4.30992 1.5371,-4.19336 z m 25.89454,0 c 1.10367,-0.11656 1.52079,1.25969 1.53711,4.19336 0.0145,2.61234 -0.21996,2.75 -4.6875,2.75 h -4.70313 l 3.89844,-3.99219 c 1.82261,-1.86652 3.09667,-2.86052 3.95508,-2.95117 z m -42.87305,8.94336 h 5.96289 5.96289 l -0.3457,5 c -0.19059,2.75034 -0.65897,5 -1.03907,5 -0.38009,0 -2.90658,-2.25 -5.61523,-5 z m 47.92578,0 h 5.96289 5.96094 l -4.92383,5 c -2.70865,2.75 -5.23514,5 -5.61523,5 -0.3801,0 -0.84848,-2.24966 -1.03907,-5 z m -7.76953,0.0312 c 3.65389,-0.0258 4.31511,0.29989 4.83984,2.39062 1.30837,5.21293 0.12179,5.61354 -4.57031,1.54297 l -4.5,-3.90429 z m -21.66797,0.0898 c 0.44186,-0.005 0.92728,0.0159 1.46094,0.0605 l 3.82031,0.31836 -4.67187,3.81836 -4.67188,3.8164 0.0156,-2.8164 c 0.0207,-3.81489 0.95387,-5.15979 4.04687,-5.19727 z m -19.80859,1.69727 5.40429,5.33789 5.4043,5.33789 -4.78125,4.265624 c -2.62959,2.34607 -5.63424,4.760244 -6.67578,5.365234 -1.7778,1.03267 -1.8572,0.802801 -1.30078,-3.761719 0.32598,-2.67415 0.89881,-7.490669 1.27148,-10.703129 z m 36.19922,0.44336 c 0.39754,-0.49323 11.0591,9.03557 11.32421,10.12109 0.15218,0.62309 -2.14967,3.530265 -5.11523,6.458985 l -5.39258,5.324219 -0.50586,-10.832034 c -0.27778,-5.95801 -0.41655,-10.94073 -0.31054,-11.07226 z m -9.85547,0.002 c 0.13295,0.13295 -0.0137,4.85416 -0.32422,10.49023 -0.31057,5.636084 -0.85383,10.246098 -1.20703,10.246098 -1.24711,0 -10.2925,-9.817518 -9.93164,-10.779298 0.40317,-1.07455 11.07526,-10.34466 11.46289,-9.95703 z m 36.06836,0.0684 c 0.15551,0.1555 0.7744,4.68998 1.375,10.07617 0.60062,5.386191 0.89702,9.987751 0.66015,10.224611 -0.23686,0.23687 -3.207,-1.91808 -6.59961,-4.78711 l -6.16797,-5.214841 5.22461,-5.29102 c 2.87338,-2.90952 5.35232,-5.16331 5.50782,-5.00781 z m -29.16602,7.90039 c 0.2064,-0.0571 0.46663,2.80502 0.73047,8.517578 0.18417,3.9875 -0.0168,7.25 -0.44727,7.25 -0.43048,0 -0.73177,-3.9375 -0.66797,-8.75 0.0616,-4.644308 0.20265,-6.967228 0.38477,-7.017578 z m -3.9375,0.25 c 0.0526,-0.0236 0.11246,0.39463 0.17578,1.30273 0.20238,2.905944 0.20135,7.405944 -0.004,10.000004 -0.20525,2.59406 -0.37215,0.214844 -0.36915,-5.285156 0.002,-3.781248 0.0816,-5.965618 0.19727,-6.017578 z m -17.84766,4.839844 c 0.4031,0.06581 0.30522,0.831372 -0.0664,2.689453 -0.35632,1.78163 -0.64844,4.307031 -0.64844,5.613281 0,2.24886 -0.33195,2.374969 -6.25,2.355469 l -6.25,-0.02148 5,-4.490234 c 2.75,-2.47034 5.85462,-4.98753 6.89844,-5.59375 0.65317,-0.379342 1.07454,-0.592223 1.3164,-0.552734 z m 39.91407,0.117187 c 0.8904,0.121148 3.03458,1.914908 7.45117,5.810547 l 5.38476,4.75 h -6.23242 c -5.8942,0 -6.23242,-0.12903 -6.23242,-2.375 0,-1.30625 -0.29378,-3.841926 -0.65234,-5.634766 -0.3455,-1.727451 -0.41129,-2.645007 0.28125,-2.550781 z m -36.0293,2.666016 c 0.92045,0.12951 2.32294,1.279536 4.41016,3.40625 l 4.40625,4.488281 h -5.20703 -5.20899 l 0.0156,-3.25 c 0.0155,-3.29225 0.40054,-4.811044 1.58398,-4.644531 z m 31.80078,0 c 1.18343,-0.166513 1.56846,1.35228 1.58399,4.644531 l 0.0156,3.25 h -5.20898 -5.20703 l 4.40624,-4.488281 c 2.08722,-2.126714 3.48971,-3.27674 4.41016,-3.40625 z m -42.90039,9.894531 h 5.5 l -0.0703,3.75 c -0.14243,7.59932 -1.01798,7.933224 -6.2207,2.371094 -2.59029,-2.76923 -4.70899,-5.279565 -4.70899,-5.578125 0,-0.29856 2.475,-0.542969 5.5,-0.542969 z m 8.5,0 h 5.43945 5.44141 l -5.28711,5 c -5.46302,5.16669 -7.25002,6.151219 -6.20117,3.417969 0.33385,-0.86998 0.60742,-3.11998 0.60742,-5 z m 16.12891,0 c 0.47924,0 0.87109,6.525 0.87109,14.5 0,14.08811 -0.06,14.5 -2.11133,14.5 -1.83007,0 -2.03771,-0.43289 -1.55273,-3.25 0.30773,-1.7875 0.86599,-8.3125 1.24023,-14.5 0.37425,-6.1875 1.0735,-11.25 1.55274,-11.25 z m 4.74218,0 c 0.47924,0 1.17849,5.0625 1.55274,11.25 0.37424,6.1875 0.93055,12.7125 1.23828,14.5 0.48498,2.81711 0.27929,3.25 -1.55078,3.25 -2.05129,0 -2.11133,-0.41189 -2.11133,-14.5 0,-7.975 0.39185,-14.5 0.87109,-14.5 z m 4.99024,0 h 5.47266 5.47265 l 0.34766,5.001953 c 0.19058,2.75034 0.1207,4.982238 -0.1543,4.960938 -0.275,-0.02131 -2.89445,-2.27097 -5.82031,-5 z m 14.13867,0 h 5.53516 c 4.96914,0 5.43832,0.17896 4.58007,1.75 h -0.002 c -0.52582,0.9625 -2.72926,3.470746 -4.89844,5.572266 -3.87528,3.75439 -3.9557,3.78052 -4.5664,1.5 -0.34184,-1.27652 -0.62677,-3.784766 -0.63477,-5.572266 z m -27.83984,1.732422 -0.69727,11.884766 c -0.38389,6.5363 -0.98219,12.13293 -1.33008,12.4375 -0.72444,0.63424 -11.13366,-10.247952 -11.13281,-11.638672 3e-4,-0.5037 2.96111,-3.562528 6.58008,-6.798828 z m 12.67968,0 6.57813,5.884766 c 3.61897,3.2363 6.58173,6.292688 6.58203,6.792968 7.9e-4,1.28648 -10.90195,12.567773 -11.36328,11.757813 -0.20908,-0.36708 -0.70025,-6.014481 -1.08984,-12.550781 z m -40.61718,0.712891 c 0.36566,-0.36566 10.77734,11.019716 10.77734,11.785156 0,0.19974 -3.15,3.181916 -7,6.628906 -3.85,3.44699 -6.99523,5.902468 -6.99023,5.455078 0.0257,-2.31258 2.88293,-23.53918 3.21289,-23.86914 z m 68.55664,0.002 c 0.21256,0.21256 1.0372,5.660012 1.83203,12.107422 0.79483,6.44741 1.31889,11.837282 1.16601,11.976562 -0.15288,0.13927 -3.38539,-2.574257 -7.18359,-6.029297 l -6.90625,-6.28125 5.35352,-6.080078 c 2.94369,-3.3442 5.52572,-5.905919 5.73828,-5.693359 z M 554.0918,-67.96536 c 0.20402,-0.19917 3.1963,2.297555 6.64843,5.546875 l 6.27539,5.90625 h -5.95507 -5.95313 l -0.69336,-5.544922 c -0.38106,-3.05015 -0.52627,-5.709023 -0.32226,-5.908203 z m -4.07032,0.289063 c 0.44254,0.02339 0.87632,1.862352 1.42188,5.914062 l 0.70703,5.25 h -6.30664 -6.30664 L 544.5,-61.742188 c 2.72933,-2.87587 5.07539,-5.425215 5.21289,-5.666015 0.1046,-0.183169 0.20647,-0.274929 0.30859,-0.269531 z m -39.10937,0.0059 c 0.0982,-0.0053 0.19842,0.08442 0.30078,0.263672 0.1375,0.2408 2.48356,2.790145 5.21289,5.666015 l 4.96094,5.228516 h -6.2461 -6.24609 l 0.66992,-5.25 c 0.52011,-4.075996 0.92196,-5.885325 1.34766,-5.908203 z m -4.63672,0.283203 c 0.84081,-0.05479 0.85324,2.234672 0.0449,7.125 l -0.61914,3.75 h -5.94922 -5.95117 l 5.71484,-5.25 c 3.14318,-2.8875 6.10588,-5.398701 6.58204,-5.582031 0.0634,-0.02442 0.12168,-0.03932 0.17773,-0.04297 z m -6.8125,12.875 h 5.5 l -0.0703,3.75 c -0.13981,7.45982 -0.97041,7.793015 -6.19922,2.484375 -2.60176,-2.64149 -4.73047,-5.123968 -4.73047,-5.517578 0,-0.39361 2.475,-0.716797 5.5,-0.716797 z m 14.96875,0 c 3.04226,0 5.53125,0.23945 5.53125,0.53125 0,0.2918 -1.4625,1.808061 -3.25,3.369141 -1.7875,1.56107 -4.70901,4.058401 -6.49219,5.550781 l -3.24218,2.714844 0.57617,-4.833985 c 0.88566,-7.41609 0.80821,-7.332031 6.87695,-7.332031 z m 13.03125,0 c 1.08333,0 1.5,1.11111 1.5,4 0,4.82214 -0.44808,5.023263 -1.90234,0.851563 -1.44614,-4.1484 -1.38774,-4.851563 0.40234,-4.851563 z m 6.52539,0 c 1.87977,0 1.92518,0.19809 0.63672,2.75 -0.76367,1.5125 -1.63827,3.425 -1.94531,4.25 -0.30704,0.825 -0.59527,-0.4125 -0.63867,-2.75 -0.0674,-3.62728 0.21839,-4.25 1.94726,-4.25 z m 21.97461,0 h 5.5 c 3.025,0 5.5,0.355893 5.5,0.789063 0,0.43318 -2.18853,2.941692 -4.86328,5.576171 -4.68256,4.61215 -4.88621,4.704051 -5.48633,2.462891 -0.34279,-1.28015 -0.62872,-3.790625 -0.63672,-5.578125 z m -11.48437,0.146484 c 0.68294,-0.0048 1.43534,0.01345 2.2246,0.05469 l 5.74024,0.298828 0.77344,5.404297 c 0.42553,2.97159 0.65535,5.520436 0.50976,5.666016 -0.4357,0.4357 -12.63317,-10.002341 -12.70117,-10.869141 -0.0259,-0.33 1.4043,-0.540384 3.45313,-0.554688 z m 24.27539,2.625 0.55468,2.863282 c 0.30521,1.57578 1.09287,7.037289 1.75,12.136718 0.65713,5.099421 1.01607,9.446827 0.79883,9.660157 -0.21724,0.21334 -3.68129,-2.608725 -7.69922,-6.271485 l -7.30664,-6.660156 5.95117,-5.865234 z m -75.81836,0.05469 c 0.0937,0.02526 0.18588,0.120345 0.27734,0.28125 0.1375,0.24191 2.6356,2.940467 5.55078,5.998047 l 5.29883,5.560547 -7.54883,6.757812 c -8.6712,7.76068 -8.35714,8.16166 -6.07812,-7.78125 1.11018,-7.766229 1.84377,-10.993229 2.5,-10.816406 z m 28.45507,0.28125 c 0.20963,0.21612 -0.14545,5.651052 -0.78906,12.076172 -0.64361,6.42511 -1.38774,11.89525 -1.65429,12.15625 -0.26655,0.261 -3.1269,-2.429296 -6.35547,-5.978516 -3.22856,-3.54921 -5.70356,-6.567851 -5.5,-6.707031 0.20357,-0.13918 3.41898,-2.881863 7.14453,-6.095703 3.72555,-3.21384 6.94469,-5.667292 7.15429,-5.451172 z m 18.12891,0.01953 c 0.40091,-0.42007 14.29948,11.095407 14.33008,11.873047 0.0108,0.275 -2.63386,3.387183 -5.875,6.914063 -5.53619,6.02425 -5.92463,6.26643 -6.42773,4 -0.771,-3.47323 -2.44987,-22.34441 -2.02735,-22.78711 z m -3.58008,2.873047 c 0.40389,0 0.99696,3.476913 1.31836,7.726563 0.32137,4.24965 0.44834,7.86417 0.28125,8.03125 -0.16708,0.16709 -1.2992,-2.010241 -2.51562,-4.837891 -1.8856,-4.38319 -2.03595,-5.566027 -1.01563,-8.029297 0.65822,-1.58908 1.52775,-2.890625 1.93164,-2.890625 z M 525.00781,-48.375 c 0.5079,0.04666 1.17046,0.970599 1.92774,2.798828 1.06781,2.57792 0.89853,3.58517 -1.38672,8.25 l -2.60156,5.3125 0.49609,-4 c 0.27338,-2.2 0.50181,-5.9125 0.50781,-8.25 0.007,-2.782254 0.40363,-4.171321 1.05664,-4.111328 z m 3.60352,9.939453 c 0.19688,0.159323 0.35156,3.060553 0.35156,6.755859 v 7.166016 h -3.4375 -3.4375 l 3.04688,-6.75 c 1.67506,-3.7125 3.22009,-6.936845 3.43554,-7.166016 0.0135,-0.01432 0.0279,-0.01648 0.041,-0.0059 z m 3.70312,0 c 0.0131,-0.01062 0.0276,-0.0085 0.041,0.0059 0.21545,0.22917 1.76049,3.453516 3.43555,7.166016 l 3.04687,6.75 h -3.4375 -3.4375 v -7.166016 c 0,-3.695306 0.15468,-6.596536 0.35156,-6.755859 z m -26.06836,1.785156 4.43555,4.31836 c 2.43921,2.37536 4.86554,5.105859 5.39258,6.068359 0.86473,1.57921 0.37001,1.75 -5.07617,1.75 -6.71817,0 -6.74954,-0.047 -5.38282,-8.318359 z m 48.4336,0 0.63086,3.81836 c 0.34706,2.10036 0.63462,4.830859 0.64062,6.068359 0.0102,2.08601 -0.42814,2.25 -6.02344,2.25 -7.07685,0 -7.0506,-0.644189 0.31641,-7.818359 z m -51.39453,0.771485 -0.66016,3.308594 c -0.3639,1.819499 -0.66211,4.37539 -0.66211,5.68164 0,2.24825 -0.33354,2.375428 -6.25,2.361328 l -6.25,-0.01563 4,-3.496093 c 2.2,-1.922701 5.31071,-4.473099 6.91211,-5.667969 z m 54.35351,0 2.91211,2.171875 c 1.6014,1.19487 4.71211,3.745268 6.91211,5.667969 l 4,3.496093 -6.25,0.01563 c -5.91646,0.01409 -6.25,-0.113078 -6.25,-2.361328 0,-1.30625 -0.29821,-3.86214 -0.66211,-5.68164 z m -68.86133,13.365234 H 495 h 6.22461 l -0.61914,3.75 c -0.34091,2.0625 -0.62486,4.5375 -0.63086,5.5 -0.0172,2.72815 -1.14301,2.055353 -6.35547,-3.804687 z m 15.44727,0 6.61914,0.04102 6.61914,0.04102 -3.5,3.033203 c -1.925,1.668141 -5.1875,4.387239 -7.25,6.042969 -3.73399,2.9976 -3.74928,2.999882 -3.73828,0.675781 0.006,-1.28372 0.28995,-4.021484 0.63086,-6.083984 z m 21.73828,0 c 2.88889,0 3,0.16667 3,4.5 0,2.475 -0.16528,4.5 -0.36719,4.5 -0.46546,0 -5.63281,-7.777916 -5.63281,-8.478516 0,-0.286789 1.35,-0.521484 3,-0.521484 z m 9,0 c 1.65,0 3,0.234695 3,0.521484 0,0.28679 -1.18472,2.311791 -2.63281,4.5 -1.44808,2.18821 -2.79808,3.978516 -3,3.978516 -0.20191,0 -0.36719,-2.025 -0.36719,-4.5 0,-4.33333 0.11111,-4.5 3,-4.5 z m 15.14844,0 h 6.57617 l 0.96484,6 c 0.53145,3.3 0.70676,5.990316 0.38868,5.978516 -0.57289,-0.0213 -10.22375,-7.83667 -13.04297,-10.5625 -1.26796,-1.22596 -0.58133,-1.416016 5.11328,-1.416016 z m 9.58984,0 h 6.28125 6.28125 l -4.90039,5.392578 c -5.34334,5.87907 -6.39541,6.511442 -6.41211,3.857422 -0.006,-0.9625 -0.28995,-3.4375 -0.63086,-5.5 z m -38.23828,2.775391 3.19727,4.453125 3.19922,4.453125 -3.58204,5.410156 c -6.04978,9.136408 -6.07014,9.106033 -3.97656,-5.953125 z m 17.97461,0.03516 1.26953,9.345703 c 0.69822,5.1396401 1.15351,9.98944388 1.01172,10.77734388 -0.14179,0.78789802 -2.13952,-1.43187068 -4.43945,-4.93164068 l -4.18164,-6.3632812 3.16992,-4.414062 z m 33.74414,0.208984 c 0.0391,0.0021 0.0697,0.01424 0.0898,0.03906 0.19649,0.24278 1.11402,5.570564 2.04102,11.8398436 0.927,6.26928 1.51942,11.5665213 1.31641,11.7695313 -0.56426,0.56427 -14.12799,-10.7471819 -14.44336,-12.0449219 -0.27518,-1.1323234 9.7827,-11.668289 10.99609,-11.603516 z m -85.46094,0.01172 c 1.13456,0.0429 11.24216,10.2660042 11.23828,11.435547 -0.002,0.56879 -2.76666,3.2832031 -6.14453,6.0332031 -8.80657,7.169638 -9.27773,7.38089 -8.57031,3.84375 0.32186,-1.60925798 1.1326,-6.9574256 1.80274,-11.8847661 0.67013,-4.92735 1.38661,-9.15761 1.59179,-9.40039 0.0173,-0.02045 0.0454,-0.02873 0.082,-0.02734 z m 29.97266,0.457031 c 0.0559,-0.0033 0.0979,0.0061 0.12305,0.03125 0.22973,0.22974 -0.17534,5.407017 -0.90039,11.5039066 -0.72505,6.0969 -1.60999,11.265065 -1.96485,11.484375 -0.35485,0.21932 -3.26633,-2.2501232 -6.4707,-5.4882812 l -5.82617,-5.8886719 3.33789,-2.8144535 c 6.59874,-5.565506 10.86279,-8.779202 11.70117,-8.828125 z m 25.47852,0.04102 c 1.23795,0.189981 14.12182,10.1757656 14.54882,11.3242188 0.14181,0.38142 -2.42951,3.3524424 -5.71289,6.6015624 -4.11599,4.073038 -6.11381,5.4632025 -6.43554,4.4765626 -0.7997,-2.45250005 -2.95936,-21.9156448 -2.48438,-22.3906248 0.0149,-0.01489 0.044,-0.01785 0.084,-0.01172 z M 528.5,-7.5136719 c 0.25451,0 0.46289,3.375 0.46289,7.50000002 V 7.4863281 h -5.10742 c -4.15841,0 -4.99835,-0.2819412 -4.52344,-1.5195312 0.76969,-2.00576 8.57351,-13.4804688 9.16797,-13.4804688 z m 3.92578,0 c 0.59446,0 8.39828,11.4747088 9.16797,13.4804688 0.47491,1.23759 -0.36503,1.5195312 -4.52344,1.5195312 h -5.10742 v -7.49999998 c 0,-4.12500002 0.20838,-7.50000002 0.46289,-7.50000002 z m -30.76172,2.8007813 c 1.01279,0.00747 11.29883,10.4553084 11.29883,11.5410156 0,0.36278 -2.95768,0.6582031 -6.57227,0.6582031 h -6.57226 l 0.69726,-5.75 c 0.38326,-3.162498 0.86937,-6.0489356 1.08008,-6.4160156 0.0127,-0.022151 0.0357,-0.033444 0.0684,-0.033203 z m 57.33985,0.1289062 c 0.0416,-0.00325 0.0738,0.00461 0.0957,0.023437 0.34981,0.3012 0.94305,3.134377 1.32031,6.296875 l 0.6875,5.75 h -7.23828 -7.23633 l 5.91407,-6.296875 c 3.05018,-3.2472075 5.83297,-5.7246547 6.45703,-5.773437 z m 4.4375,1.8144532 c 0.87682,0.075011 3.33117,2.06200632 10.02148,7.6699218 l 3,2.5136719 -6.11914,0.037109 -6.11914,0.035156 -0.61914,-3.75 c -0.34091,-2.0625 -0.62486,-4.57526435 -0.63086,-5.5839843 -0.004,-0.5950751 0.0682,-0.9559711 0.4668,-0.9218744 z m -66.22266,0.3554687 c 1.07076,-0.063641 0.81315,1.84529237 0.10156,6.1503906 l -0.61914,3.75 h -5.92773 c -3.2605,0 -5.70472,-0.3608743 -5.43164,-0.8027343 0.27309,-0.4418601 3.22421,-2.9467763 6.55859,-5.5664063 2.84956,-2.2387391 4.48555,-3.4817513 5.31836,-3.53125 z m 1.9707,11.9003906 h 7.05274 c 3.87922,0 6.86588,0.1590457 6.63672,0.3535157 -0.22917,0.1944702 -3.34102,2.8041282 -6.91602,5.7988282 -8.40577,7.04134 -9.36763,7.620726 -8.66406,5.222656 0.30259,-1.03138 0.85193,-4.0125 1.2207,-6.625 z m 19.58789,0 h 5.0918 c 4.65014,0 5.08263,0.19569 4.97461,2.2499999 -0.0651,1.2375 -0.40258,3.57173 -0.75,5.1875 l -0.63086,2.939453 -4.34375,-5.189453 z m 29.13282,0 h 6.91211 6.91406 l 0.66992,4.7499999 c 0.36877,2.6125 0.9009,5.5375 1.18164,6.5 0.84187,2.88637 -0.76408,1.970052 -8.40039,-4.798828 z M 535.5,9.59375 c 0.56876,0.013216 1.17969,0.041472 1.80664,0.083984 l 4.56055,0.3085937 -4.3086,4.9570313 -4.30664,4.955079 -0.7207,-4.796876 c -0.39565,-2.638429 -0.50714,-5.008484 -0.25,-5.2656249 C 532.47411,9.643075 533.79371,9.5541031 535.5,9.59375 Z m 31.6875,0 c 1.05124,-0.024154 2.4399,0.00371 3.91406,0.087891 l 5.36133,0.3046875 -5.09961,5.4101555 -5.10156,5.408204 -0.69922,-5.275391 c -0.38489,-2.90149 -0.50142,-5.473204 -0.25977,-5.7148435 0.12082,-0.120825 0.83353,-0.1965493 1.88477,-0.2207035 z m -75.17383,0.00586 c 1.95398,-0.036929 3.45122,0.056679 3.64844,0.2539062 0.26296,0.2629608 0.0999,2.8408688 -0.36133,5.7304688 l -0.83789,5.253907 -4.88477,-5.425782 -4.88671,-5.4257813 5.24609,-0.3046875 c 0.72131,-0.04209 1.42485,-0.069722 2.07617,-0.082031 z m 51.44141,1.492188 1.73242,12.884765 c 0.9533,7.08667 1.5883,13.030845 1.41016,13.208985 -0.4348,0.4348 -12.63477,-13.330489 -12.63477,-14.255859 0,-0.400011 2.13573,-3.227734 4.74609,-6.283204 z m -26.13867,0.02539 4.8125,5.433593 c 2.64646,2.98947 4.80587,5.885547 4.79687,6.435547 -0.009,0.55 -2.96136,4.15 -6.56055,8 -6.01859,6.43796 -6.50487,6.75913 -6.05468,4 0.26922,-1.65 1.05583,-7.696077 1.74804,-13.435547 z m 29.33203,0.03125 8.13281,6.808593 8.13477,6.808594 -3.87696,4.611328 c -2.13171,2.53571 -4.9893,5.648439 -6.35156,6.917969 l -2.47852,2.308594 -1.11328,-7.808594 c -0.61241,-4.29453 -1.41406,-10.471163 -1.78125,-13.726563 z m 31.31836,0.376953 c 0.0235,0.0043 0.0359,0.0191 0.0391,0.04883 0.0239,0.22654 1.10379,6.262109 2.40039,13.412109 1.29659,7.15 2.24957,13.116743 2.11719,13.257813 -0.57655,0.61434 -15.55623,-12.93793 -15.51563,-14.03711 0.0399,-1.078868 10.23092,-12.813936 10.95899,-12.68164 z M 483.70312,12.5625 c 0.89772,0.09003 2.25081,1.843549 4.76172,4.564453 2.97448,3.22324 5.42833,6.384401 5.45313,7.025391 0.0248,0.64099 -2.76758,3.580723 -6.20508,6.533203 -9.99301,8.58306 -9.96959,8.569852 -9.33008,5.726562 0.29993,-1.33355 1.24158,-6.475781 2.09375,-11.425781 1.57283,-9.136025 1.91451,-12.555414 3.22656,-12.423828 z m 29.21485,0.396484 c 1.57757,-0.121852 0.86614,3.741545 -0.52735,13.732422 -0.86479,6.20039 -1.6805,11.381672 -1.8125,11.513672 -0.23822,0.23822 -6.10474,-5.850505 -10.40234,-10.796875 l -2.24023,-2.580078 8.01367,-6.707031 c 3.73883,-3.129665 5.88936,-5.078737 6.96875,-5.16211 z m -16.01953,14.527344 c 0.76048,0 12.06445,12.517335 12.06445,13.359375 0,0.5167 -7.29756,0.414515 -12.29492,-0.171875 -2.07031,-0.24293 -2.6681,-0.763932 -2.30664,-2.007812 0.26838,-0.92358 0.78943,-3.817188 1.1582,-6.429688 0.36878,-2.6125 0.98903,-4.75 1.37891,-4.75 z m 67.11523,0 c 0.65761,0 2.3212,8.5791 2.42383,12.5 0.0151,0.57708 -3.03863,1 -7.2207,1 -3.98581,0 -7.248,-0.155223 -7.25,-0.345703 -0.007,-0.79748 11.30941,-13.154297 12.04687,-13.154297 z m -37.94336,0.5 -0.58789,4 c -0.32323,2.2 -0.82916,5.222747 -1.125,6.716797 -0.49667,2.508 -0.87741,2.69987 -4.96289,2.5 -2.43347,-0.11905 -4.42489,-0.441797 -4.42578,-0.716797 -8.9e-4,-0.275 2.49541,-3.2 5.54883,-6.5 z m 9.27539,0.759766 c 0.21529,0.02506 0.54807,0.269209 1.02149,0.662109 0.9114,0.75639 3.48447,3.557963 5.71875,6.226563 l 4.0625,4.851562 h -4.52539 c -4.95536,0 -4.96995,-0.01914 -6.21289,-7.976562 -0.43956,-2.814027 -0.53808,-3.818799 -0.0645,-3.763672 z m 32.47852,0.486328 2.35156,1.876953 c 8.37841,6.68913 10.78711,8.794584 10.78711,9.427734 0,0.704 -2.87667,0.753292 -8.20312,0.138672 -2.79187,-0.32216 -3.16454,-0.982696 -4.2793,-7.566406 z m -74.72656,0.02344 -0.6543,3.865235 c -0.35989,2.1262 -0.87073,4.652734 -1.13477,5.615234 -0.3871,1.41112 -1.58186,1.743191 -6.16406,1.712891 l -5.68164,-0.03711 4,-3.501953 c 2.2,-1.92606 5.26704,-4.436125 6.81641,-5.578125 z m 35.66015,3.730469 0.10352,4.25 c 0.0563,2.3375 -0.0973,4.25 -0.33985,4.25 -1.11827,0 -1.32971,-1.836277 -0.58007,-5.023437 z m 3.59375,0.640625 c 0.22949,-0.09555 0.52969,1.030852 0.8086,3.419922 0.22863,1.95839 0.0528,3.786477 -0.39063,4.060547 -0.44346,0.27407 -0.80664,-1.328087 -0.80664,-3.560547 0,-2.505195 0.15918,-3.824373 0.38867,-3.919922 z m -47.88867,8.859375 c 5.33664,0 5.49953,0.08168 5.48633,2.75 -0.008,1.5125 -0.28555,3.7625 -0.61719,5 -0.33163,1.2375 -0.90601,2.25 -1.27734,2.25 -0.89472,0 -9.0918,-8.373079 -9.0918,-9.287109 0,-0.39168 2.475,-0.712891 5.5,-0.712891 z m 43.51953,0 c 0.57587,0 0.98047,4.12948 0.98047,10 0,9.80952 -0.0451,10 -2.33398,10 -1.28334,0 -2.56301,-0.229025 -2.84375,-0.509766 -0.28074,-0.28074 0.0905,-3.768239 0.82422,-7.75 1.94196,-10.53924 2.28722,-11.740234 3.37304,-11.740234 z m 4.98047,0 c 0.55,0 1.0127,0.1125 1.0293,0.25 0.0166,0.1375 0.84375,4.411024 1.83789,9.496094 0.99415,5.08507 1.58212,9.47257 1.30469,9.75 -0.27743,0.27743 -1.55456,0.503906 -2.83789,0.503906 -2.28893,0 -2.33399,-0.19048 -2.33399,-10 0,-6 0.4,-10 1,-10 z m 43.5,0 c 3.025,0 5.5,0.251284 5.5,0.558594 0,0.30731 -1.87264,2.55731 -4.16211,5 -2.28948,2.44269 -4.48838,4.441406 -4.88476,4.441406 -0.92654,0 -1.92196,-3.72249 -1.93946,-7.25 -0.0132,-2.6683 0.14969,-2.75 5.48633,-2.75 z M 520.33203,42.5 c 3.37793,0.03288 3.12845,1.675891 1.66016,10.138672 l -1.6211,9.347656 -4.83984,0.310547 -4.83789,0.310547 0.67969,-6.90625 c 1.14045,-11.57374 1.64476,-12.66632 6.01172,-13.03125 1.19544,-0.0999 2.16774,-0.17751 2.94726,-0.169922 z m 20.27149,0.002 c 0.78165,-0.0026 1.75094,0.06881 2.9375,0.167969 4.36315,0.36461 4.87184,1.462253 6.00586,12.970703 l 0.67382,6.845703 h -4.60937 c -5.18268,0 -4.68295,0.842536 -7.01953,-11.833984 -1.23914,-6.722642 -1.37546,-8.139034 2.01172,-8.150391 z m 19.3457,0.04687 c 1.35115,0 2.69998,0.0416 3.71875,0.126953 l 3.70508,0.310547 1.12304,6.25 c 0.61865,3.4375 1.05646,6.25 0.97266,6.25 -0.0838,0 -3.94322,-2.8125 -8.57813,-6.25 l -8.42773,-6.25 3.75,-0.310547 c 1.03125,-0.08535 2.38518,-0.126953 3.73633,-0.126953 z m -56.39649,0.09375 c 2.57494,0.01558 4.3803,0.223339 4.35938,0.550781 -0.0279,0.4366 -3.49354,3.267969 -7.70117,6.292969 -4.20763,3.025 -7.93477,5.626297 -8.28321,5.779297 -0.34843,0.153 -0.12472,-2.547 0.49805,-6 l 1.13281,-6.279297 7.20118,-0.292969 c 0.9903,-0.0404 1.93465,-0.05597 2.79296,-0.05078 z m -26.56054,2.003906 c 0.28299,-0.03611 2.63476,2.039138 5.4707,4.839844 3.025,2.98742 5.5,6.204598 5.5,7.148438 0,0.94383 -1.3069,2.645743 -2.9043,3.783203 -2.8099,2.00082 -11.09608,2.985429 -11.0957,1.318359 10e-5,-0.4125 0.6751,-4.277011 1.5,-8.58789 0.82491,-4.31088 1.5,-8.119514 1.5,-8.464844 0,-0.02158 0.0104,-0.0347 0.0293,-0.03711 z m 106.9414,0 c 0.0189,0.0024 0.0293,0.01553 0.0293,0.03711 0,0.34533 0.67509,4.153964 1.5,8.464844 0.8249,4.31088 1.4999,8.17539 1.5,8.58789 9e-5,0.4125 -1.9125,0.73615 -4.25,0.71875 -4.72379,-0.03521 -9.75,-3.043707 -9.75,-5.835937 0,-0.93541 2.475,-4.145393 5.5,-7.132813 2.83594,-2.800706 5.18771,-4.875953 5.4707,-4.839844 z m -74.62109,0.97461 c 0.0438,-0.0065 0.0735,-9.32e-4 0.0879,0.01563 0.16769,0.19259 -0.20143,3.949609 -0.82031,8.349609 l -1.125,8 -4.55078,0.296875 c -3.43481,0.22401 -5.21285,-0.222906 -7.2461,-1.822265 -1.48193,-1.16569 -2.69531,-2.457324 -2.69531,-2.871094 0,-0.838221 14.9931,-11.76821 16.34961,-11.96875 z m 42.29102,0.0039 c 1.34596,0.229788 16.35937,11.221909 16.35937,12.025391 0,0.38067 -1.1856,1.623752 -2.63477,2.763671 -3.00128,2.36081 -11.15644,2.927836 -11.82421,0.822266 -0.6471,-2.04038 -2.32709,-15.220269 -1.98829,-15.599609 0.014,-0.01569 0.0445,-0.01913 0.0879,-0.01172 z m -60.52149,13.046875 c 0.22852,-0.0042 0.76211,0.300936 1.38086,0.814453 0.825,0.68469 1.5,1.640397 1.5,2.123047 0,0.48266 -0.94857,0.876953 -2.10742,0.876953 -1.5104,0 -1.93514,-0.448081 -1.5,-1.582031 0.33385,-0.86998 0.60742,-1.823734 0.60742,-2.121094 0,-0.07434 0.043,-0.109919 0.11914,-0.111328 z m 78.71094,0.347656 c 0.70671,0.08399 1.16992,0.83761 1.16992,2.134766 0,0.73333 -0.9,1.332031 -2,1.332031 -2.30734,0 -2.59658,-1.26043 -0.6582,-2.86914 0.55291,-0.458873 1.06425,-0.648049 1.48828,-0.597657 z M 456.46289,134.41406 c 0.75584,-0.19904 1.17698,3.23355 1.95703,10.51758 0.63629,5.94156 0.54451,6.32225 -1.89453,7.89844 -1.40958,0.91091 -3.77764,2.44329 -5.26367,3.4043 -2.59718,1.67959 -2.67456,1.67547 -1.99414,-0.0977 0.38931,-1.01454 2.1611,-6.8033 3.9375,-12.86524 1.66392,-5.67806 2.5909,-8.68179 3.25781,-8.85742 z m 147.90625,0.16797 c 0.72466,-0.0502 1.76728,3.32065 3.77734,10.06641 2.01892,6.77544 3.58082,12.40747 3.47071,12.51758 -0.11011,0.11011 -2.36139,-1.14357 -5.00196,-2.78711 l -4.80078,-2.98829 0.67969,-6.35156 c 0.74284,-6.93655 1.15034,-10.40681 1.875,-10.45703 z m -145.19922,19.58399 c 0.0877,-0.004 0.14918,0.0105 0.1836,0.0449 0.33486,0.33486 0.60937,1.66002 0.60937,2.94336 0,2.09876 -0.45238,2.33203 -4.5,2.33203 -2.475,0 -4.5,-0.16528 -4.5,-0.36719 0,-0.81813 6.89196,-4.89974 8.20703,-4.95312 z m 142.58594,0 c 1.31507,0.0534 8.20703,4.13499 8.20703,4.95312 0,0.20191 -2.025,0.36719 -4.5,0.36719 -4.04762,0 -4.5,-0.23327 -4.5,-2.33203 0,-1.28334 0.27452,-2.6085 0.60938,-2.94336 0.0344,-0.0344 0.0959,-0.0485 0.18359,-0.0449 z m -91.29297,6.32031 c 0.83333,0 1.5,0.88889 1.5,2 0,1.1 0.45,2 1,2 0.55,0 1,-0.9 1,-2 0,-1.11111 0.66667,-2 1.5,-2 0.83333,0 1.5,0.88889 1.5,2 0,1.1 0.39696,2 0.88281,2 0.48585,0 1.11859,-0.9 1.40625,-2 0.28766,-1.1 1.0157,-2 1.61719,-2 0.60149,0 1.09375,0.9 1.09375,2 0,1.1 0.45,2 1,2 0.55,0 1,0.9 1,2 0,1.1 -0.45,2 -1,2 -0.55,0 -1,-0.9 -1,-2 0,-1.11111 -0.66667,-2 -1.5,-2 -0.83333,0 -1.5,0.88889 -1.5,2 0,1.1 -0.45,2 -1,2 -0.55,0 -1,-0.9 -1,-2 0,-1.11111 -0.66667,-2 -1.5,-2 -0.83333,0 -1.5,0.88889 -1.5,2 0,1.1 -0.45,2 -1,2 -0.55,0 -1,-0.9 -1,-2 0,-1.11111 -0.66667,-2 -1.5,-2 -0.83333,0 -1.5,0.88889 -1.5,2 0,1.1 -0.45,2 -1,2 -0.55,0 -1,-0.9 -1,-2 0,-1.11111 -0.66667,-2 -1.5,-2 -0.83333,0 -1.5,0.88889 -1.5,2 0,1.1 -0.45,2 -1,2 -1.59188,0 -1.15673,-3.72574 0.50977,-4.36524 0.8301,-0.31854 1.3926,-1.09641 1.25,-1.73047 -0.14261,-0.63405 0.30273,-1.35924 0.99023,-1.61132 0.74667,-0.27378 1.25,0.38055 1.25,1.625 0,1.14583 0.45,2.08203 1,2.08203 0.55,0 1,-0.9 1,-2 0,-1.11111 0.66667,-2 1.5,-2 z m 15.5,0 c 0.55,0 1,0.9 1,2 0,1.1 -0.45,2 -1,2 -0.55,0 -1,-0.9 -1,-2 0,-1.1 0.45,-2 1,-2 z m 9,0 c 0.55,0 1,0.9 1,2 0,1.1 -0.45,2 -1,2 -0.55,0 -1,-0.9 -1,-2 0,-1.1 0.45,-2 1,-2 z m 5.09375,0 c 0.60149,0 1.32953,0.9 1.61719,2 0.28766,1.1 0.9204,2 1.40625,2 0.48585,0 0.88281,-0.9 0.88281,-2 0,-1.11111 0.66667,-2 1.5,-2 0.83333,0 1.5,0.88889 1.5,2 0,1.1 0.45,2 1,2 0.55,0 1,-0.9 1,-2 0,-1.11111 0.66667,-2 1.5,-2 0.83333,0 1.5,0.88889 1.5,2 0,2.69877 1.59458,2.53871 2.49023,-0.25 0.6778,-2.11044 0.75384,-2.12737 1.23047,-0.28711 0.27948,1.07908 0.005,2.12972 -0.60742,2.33398 -0.61278,0.20426 -1.11328,1.23295 -1.11328,2.28711 0,1.05417 -0.45,1.91602 -1,1.91602 -0.55,0 -1,-0.9 -1,-2 0,-1.11111 -0.66667,-2 -1.5,-2 -0.83333,0 -1.5,0.88889 -1.5,2 0,1.1 -0.45,2 -1,2 -0.55,0 -1,-0.9 -1,-2 0,-1.11111 -0.66667,-2 -1.5,-2 -0.83333,0 -1.5,0.88889 -1.5,2 0,1.1 -0.45,2 -1,2 -0.55,0 -1,-0.9 -1,-2 0,-1.11111 -0.66667,-2 -1.5,-2 -0.83333,0 -1.5,0.88889 -1.5,2 0,1.1 -0.45,2 -1,2 -0.55,0 -1,-0.9 -1,-2 0,-1.1 0.45,-2 1,-2 0.55,0 1,-0.9 1,-2 0,-1.1 0.49226,-2 1.09375,-2 z m -9.62695,0.46289 c 0.0603,0.0225 0.12596,0.11523 0.19531,0.28711 0.27741,0.6875 0.27741,1.8125 0,2.5 -0.27741,0.6875 -0.50391,0.125 -0.50391,-1.25 0,-1.03125 0.12773,-1.60449 0.3086,-1.53711 z m -81.88281,0.53711 h 5.70703 c 4.78691,0 5.70186,0.28245 5.66406,1.75 -0.0248,0.9625 -0.58731,3.00963 -1.25,4.54883 l -1.20508,2.79882 -4.45898,-4.54882 z m 156.30859,0.11914 c 0.64495,0.009 1.33903,0.0341 2.04883,0.0762 l 5.16211,0.30469 -4.47266,4.38086 -4.47266,4.38086 -1.23828,-4.13672 c -0.6818,-2.2753 -0.99371,-4.3852 -0.6914,-4.6875 0.22672,-0.22676 1.72922,-0.3444 3.66406,-0.31836 z m 8.7832,1.72851 5.16992,14.82618 c 2.84281,8.1545 5.16611,15.16367 5.16211,15.57617 -0.0133,1.42327 -1.53342,0.65203 -8.92968,-4.53906 -6.71491,-4.71288 -7.59861,-5.73209 -9.26563,-10.6836 l -1.8418,-5.47265 4.85352,-4.85352 z m -166.39062,0.53516 c 0.18461,-0.18462 2.45074,1.81168 5.03515,4.43555 l 4.69727,4.76953 -1.83594,5.45703 c -1.6603,4.93172 -2.55103,5.95748 -9.25976,10.66602 -7.43677,5.21953 -8.92188,5.96838 -8.92188,4.5039 0,-0.92963 9.79605,-29.34291 10.28516,-29.83203 z m 110.71484,0.61719 c 0.55,0 1,0.9 1,2 0,1.1 -0.45,2 -1,2 -0.55,0 -1,-0.9 -1,-2 0,-1.1 0.45,-2 1,-2 z m -29.79883,0.41797 c 0.45459,-0.0881 0.79883,0.53253 0.79883,1.52343 0,1.13246 -0.45,2.0586 -1,2.0586 -0.55,0 -1,-0.64692 -1,-1.43945 0,-0.79255 0.45,-1.72063 1,-2.06055 0.0688,-0.0425 0.13623,-0.0694 0.20117,-0.082 z m 4.59766,0 c 0.0649,0.0126 0.13242,0.0395 0.20117,0.082 0.55,0.33992 1,1.26801 1,2.06055 0,0.79254 -0.45,1.43945 -1,1.43945 -0.55,0 -1,-0.92614 -1,-2.0586 0,-0.9909 0.34424,-1.61155 0.79883,-1.52343 z m -71.08594,6.04882 c 0.1307,-0.0112 0.2639,0.0181 0.39258,0.0977 0.49237,0.3043 0.89453,1.20356 0.89453,1.9961 0,1.47259 -1.19065,1.91482 -2.26367,0.84179 -0.78876,-0.78875 0.0617,-2.85709 0.97656,-2.93555 z m 137.75977,0.51758 c 0.53785,-0.0907 1.02734,0.27927 1.02734,1.1836 0,0.64166 -0.60568,1.36856 -1.3457,1.61523 -0.84112,0.28038 -1.21599,-0.17799 -1,-1.2207 0.1941,-0.93708 0.78051,-1.48739 1.31836,-1.57813 z m -98.19727,0.0156 h 29.22461 29.22461 l 0.66602,6.75 c 1.28079,12.96179 6.63874,47.86025 9.44336,61.5039 1.55484,7.56384 2.60373,13.97634 2.33007,14.25 -0.65039,0.65038 -82.67773,0.65038 -83.32812,0 -0.27366,-0.27366 0.77524,-6.68616 2.33008,-14.25 2.80462,-13.64365 8.16257,-48.54211 9.44336,-61.5039 z m 99.83008,4.50976 c 0.50821,0.0273 1.24104,1.04901 1.74414,2.49219 1.08784,3.12059 0.41015,3.85937 -1.65039,1.79883 -1.42045,-1.42045 -1.56281,-3.45784 -0.29688,-4.24023 0.0621,-0.0384 0.13053,-0.0547 0.20313,-0.0508 z m -141.18164,0.27149 c 0.17426,0.002 0.34639,0.0905 0.51758,0.26172 0.68475,0.68474 0.67351,1.55232 -0.0352,2.67578 -1.9619,3.11027 -3.38341,2.68097 -2.12891,-0.64258 0.58299,-1.54453 1.12372,-2.30163 1.64649,-2.29492 z m -0.81445,7.23437 c 0.33571,-0.008 -0.31543,3.13438 -1.44922,6.98438 -1.56333,5.30864 -2.49704,7 -3.86133,7 -2.19577,0 -2.2121,0.51674 0.2168,-6.54297 1.80717,-5.25266 3.27278,-7.39571 5.09375,-7.44141 z m 143.26953,0.15039 c 0.30855,0.0333 0.7583,0.27109 1.35547,0.65039 0.95401,0.60595 5.26562,11.11898 5.26562,12.83985 0,0.1889 -0.8094,0.34375 -1.79883,0.34375 -1.36429,0 -2.298,-1.69136 -3.86133,-7 -1.53231,-5.20329 -1.88658,-6.93385 -0.96093,-6.83399 z m -151.1836,4.83399 c 0.306,0 -0.17053,2.025 -1.06054,4.5 l -1.61914,4.5 h -5.25782 c -2.89183,0 -5.25781,-0.17241 -5.25781,-0.38281 0,-0.48692 12.4497,-8.61719 13.19531,-8.61719 z m 158.60938,0 c 0.74561,0 13.19531,8.13028 13.19531,8.61719 0,0.2104 -2.36598,0.38281 -5.25781,0.38281 h -5.25781 l -1.61915,-4.5 c -0.89,-2.475 -1.36654,-4.5 -1.06054,-4.5 z m -155.00196,10.88672 -2.05859,7.05664 c -2.14529,7.35411 -2.70134,8.01827 -4.70703,5.60156 -1.78616,-2.15219 1.97056,-11.93005 4.74609,-12.35156 z m 151.39454,0 2.01953,0.30664 c 2.77553,0.42151 6.53225,10.19937 4.74609,12.35156 -2.00569,2.41671 -2.56174,1.75255 -4.70703,-5.60156 z m -170.60352,0.11328 h 6.12305 6.12304 l -1.57226,4 c -0.86418,2.2 -1.86185,4 -2.2168,4 -0.35495,0 -2.40254,-1.8 -4.55078,-4 z m 177.37891,0 h 6.21679 6.2168 l -3.90625,4 c -3.41017,3.49233 -5.5,4.86956 -5.5,3.62305 0,-0.20784 -0.68129,-2.00784 -1.51367,-4 z m -178.56446,2.45508 c 1.70218,-0.0885 8.5918,6.91452 8.5918,8.95703 0,0.8624 -1.15869,4.46016 -2.57422,7.99609 -2.50137,6.24832 -2.81281,6.57321 -11.11523,11.53516 -5.97141,3.56881 -8.34369,4.57199 -7.88282,3.33203 4.3941,-11.82206 12.07535,-30.98058 12.7129,-31.70508 0.0638,-0.0725 0.1541,-0.10934 0.26757,-0.11523 z m 192.20118,0.0137 c 0.11946,0.0142 0.21782,0.0592 0.28906,0.14062 0.42852,0.48984 3.56231,8.04275 6.96484,16.78321 3.40252,8.74045 6.06332,15.98595 5.91211,16.10156 -0.15121,0.1156 -3.87539,-1.95644 -8.27539,-4.60547 -7.53771,-4.5381 -8.1577,-5.17926 -10.71875,-11.10156 -1.49496,-3.45703 -2.7325,-7.20591 -2.75,-8.33008 -0.0351,-2.25248 6.7862,-9.20187 8.57813,-8.98828 z m -11.66211,11.625 c 0.57899,0.07 1.00599,1.28157 2.2832,4.65625 0.88468,2.3375 1.53275,4.24809 1.43945,4.24609 -0.0932,-0.002 -1.63242,-0.89451 -3.41992,-1.98437 -3.54576,-2.16189 -4.09192,-4.06817 -1.72656,-6.03125 0.67421,-0.55955 1.07643,-0.92875 1.42383,-0.88672 z m -167.87696,0.43554 c 0.13808,0.0151 0.28048,0.0529 0.42774,0.10938 0.92729,0.35583 1.47932,1.49465 1.30468,2.68945 -0.16658,1.13965 -1.84711,2.97109 -3.73437,4.07032 -1.88725,1.09924 -3.173,1.57217 -2.85742,1.05078 0.31558,-0.52139 1.27318,-2.63059 2.12695,-4.6875 0.995,-2.39714 1.76589,-3.33795 2.73242,-3.23243 z m -0.89843,8.69141 c 0.2195,-0.0252 0.39247,0.01 0.5,0.11719 0.2736,0.2736 -0.53058,3.68474 -1.78516,7.58008 -2.2205,6.89444 -2.36912,7.08203 -5.59766,7.08203 h -3.3164 l 1.60156,-3.75 c 0.88025,-2.0625 1.9699,-4.68284 2.42187,-5.82422 0.7522,-1.89956 4.63928,-5.02885 6.17579,-5.20508 z m 168.65625,0 c 1.5365,0.17623 5.42358,3.30552 6.17578,5.20508 0.45197,1.14138 1.54162,3.76172 2.42187,5.82422 l 1.60156,3.75 h -3.3164 c -3.22854,0 -3.37716,-0.18759 -5.59766,-7.08203 -1.25458,-3.89534 -2.05875,-7.30648 -1.78515,-7.58008 0.10752,-0.10753 0.2805,-0.14236 0.5,-0.11719 z m -179.03711,6.32031 c 0.16051,0.11509 -0.4497,2.06534 -1.35743,4.33399 l -1.65039,4.125 h -5.60547 -5.60351 L 428.5,233.15234 c 3.82954,-2.38374 7.09339,-4.24009 7.25391,-4.125 z m 189.41797,0 c 0.16052,-0.11509 3.42436,1.74126 7.2539,4.125 l 6.96289,4.33399 h -5.60351 -5.60547 l -1.65039,-4.125 c -0.90773,-2.26865 -1.51794,-4.2189 -1.35742,-4.33399 z m -199.20899,10.45899 c 5.27548,0 5.58298,0.33878 4.02539,4.43555 -0.53639,1.4108 -1.32389,2.55125 -1.75,2.53515 -0.89941,-0.034 -7.27539,-5.69086 -7.27539,-6.45508 0,-0.28276 2.25,-0.51562 5,-0.51562 z m 12.04688,0 c 3.52382,0 3.58047,0.5731 0.81835,8.14844 -1.17369,3.21897 -2.44377,5.85156 -2.82421,5.85156 -0.38043,0 -1.67923,-1.04879 -2.88477,-2.33203 l -2.19141,-2.33399 2.06446,-4.66601 c 1.78543,-4.03626 2.46341,-4.66797 5.01758,-4.66797 z m 184.90625,0 c 2.55417,0 3.23214,0.63172 5.01757,4.66797 l 2.06446,4.66601 -2.19141,2.33399 c -1.20554,1.28324 -2.50433,2.33203 -2.88476,2.33203 -0.74009,0 -4.95899,-10.93371 -4.95899,-12.85156 0,-0.63103 1.32886,-1.14844 2.95313,-1.14844 z m 13.28515,0.11328 c 1.84507,-0.0359 3.26678,0.0597 3.4668,0.25977 0.26669,0.2667 -1.01938,1.85431 -2.85938,3.52734 -1.84001,1.67304 -3.68283,3.05421 -4.09375,3.07031 -0.41092,0.0161 -1.34575,-1.4332 -2.07812,-3.2207 l -1.33203,-3.25 4.93945,-0.30469 c 0.67915,-0.0421 1.34201,-0.0701 1.95703,-0.082 z m -217.45312,1.88672 c 0.44532,0 2.55321,1.787 4.68554,3.9707 3.5117,3.59631 3.7686,4.2087 2.72461,6.5 -1.04726,2.2985 -1.70257,2.5293 -7.17382,2.5293 -3.31179,0 -6.02149,-0.39344 -6.02149,-0.875 0,-1.68236 4.98252,-12.125 5.78516,-12.125 z m 223.42968,0 c 0.80264,0 5.78516,10.44265 5.78516,12.125 0,0.48156 -2.70969,0.875 -6.02148,0.875 -5.47125,0 -6.12657,-0.2308 -7.17383,-2.5293 -1.04399,-2.2913 -0.78709,-2.90369 2.72461,-6.5 2.13233,-2.1837 4.24022,-3.9707 4.68554,-3.9707 z m -211.70703,10.5664 c 0.49236,0.0728 1.03357,0.38095 1.50196,0.94532 1.02837,1.23911 0.87954,1.48828 -0.88672,1.48828 -1.16734,0 -2.12305,-0.42192 -2.12305,-0.93945 0,-1.08279 0.68722,-1.6154 1.50781,-1.49415 z m 199.98438,0 c 0.82059,-0.12125 1.50781,0.41136 1.50781,1.49415 0,0.51754 -0.95571,0.93945 -2.12305,0.93945 -1.76626,0 -1.91508,-0.24917 -0.88672,-1.48828 0.46839,-0.56437 1.0096,-0.87256 1.50196,-0.94532 z m -134.49219,4.31836 v 10.5586 10.55664 h -7 c -3.85,0 -6.98118,-0.3375 -6.95898,-0.75 0.0222,-0.4125 1.28474,-5.025 2.80664,-10.25 l 2.76757,-9.5 4.19141,-0.30664 z m 69,0 4.2207,0.3086 4.21875,0.30664 2.22657,8 c 1.22413,4.4 2.48357,9.0125 2.79882,10.25 0.55385,2.1741 0.33688,2.25 -6.44531,2.25 h -7.01953 v -10.55664 z m -67,0.11524 h 6.5 6.5 v 10.5 10.5 h -6.5 -6.5 v -10.5 z m 15,0 h 17.5 17.5 v 10.5 10.5 h -17.5 -17.5 v -10.5 z m 37,0 h 6.5 6.5 v 10.5 10.5 h -6.5 -6.5 v -10.5 z m -191.10156,94 h 5.56055 5.55859 l -2.25781,3.48828 c -1.24255,1.91819 -2.54341,3.493 -2.89063,3.5 -0.34722,0.007 -1.83251,-1.56328 -3.30078,-3.48828 z m 26.11523,0 -5.12304,8.25 c -2.81808,4.5375 -5.44054,8.59708 -5.82618,9.01953 -0.38564,0.42246 -2.14413,-1.02946 -3.9082,-3.22461 l -3.20703,-3.99023 3.27539,-5.00977 3.27539,-5.00781 5.75586,-0.0176 z m 290.97266,0 5.75586,0.0176 5.75781,0.0195 3.27539,5.00781 3.27539,5.00977 -3.19336,3.97265 c -3.60897,4.49088 -3.47932,4.41193 -4.48047,2.72266 -0.40745,-0.6875 -2.91262,-4.7375 -5.5664,-9 z m 14.99609,0 h 5.5586 5.56054 l -2.66992,3.5 c -1.46827,1.925 -2.95356,3.49528 -3.30078,3.48828 -0.34722,-0.007 -1.64807,-1.58181 -2.89063,-3.5 z m 13.20899,0.99219 c 0.0685,6.9e-4 0.12364,0.0304 0.16992,0.082 0.21035,0.23485 6.49758,9.76328 13.9707,21.17578 7.47312,11.4125 13.26725,20.72702 12.87696,20.69922 -0.39029,-0.0278 -4.57287,-2.02009 -9.29493,-4.42774 l -8.58593,-4.37695 -8.06836,-12.30274 -8.06836,-12.30078 1.88867,-2.51953 c 3.48871,-4.65459 4.63185,-6.03418 5.11133,-6.02929 z m -347.38282,0.002 c 0.4837,-1.5e-4 1.64136,1.39376 5.0918,6.00586 l 1.8711,2.5 -8.22071,12.5 -8.22265,12.5 -8.67774,4.25 c -4.77356,2.3375 -8.88029,4.25 -9.125,4.25 -0.36143,0 25.81343,-40.47459 27.11328,-41.92578 0.0463,-0.0517 0.10083,-0.0801 0.16992,-0.0801 z m 167.05664,7.19531 c 2.07599,-0.0405 4.43882,1.80271 5.58399,5.56055 0.64834,2.12753 0.40875,2.25 -4.38281,2.25 -4.45448,0 -5.06641,-0.24858 -5.06641,-2.06445 0,-3.78017 1.78925,-5.70562 3.86523,-5.7461 z m 13.26954,0 c 2.07598,0.0405 3.86523,1.96593 3.86523,5.7461 0,1.81588 -0.61388,2.06445 -5.06836,2.06445 -4.79156,0 -5.0292,-0.12247 -4.38086,-2.25 1.14517,-3.75784 3.508,-5.60103 5.58399,-5.56055 z m -22.76368,0.81055 c 3.8289,0 5.02503,6.39397 1.37891,7.37109 -4.37669,1.17291 -5.75,0.74287 -5.75,-1.79883 0,-2.58867 2.33998,-5.57226 4.37109,-5.57226 z m 32.25,0.18164 c 2.18008,-0.043 4.37891,2.01341 4.37891,4.79687 0,3.10685 -1.3532,3.61171 -6.25,2.33204 -2.17767,-0.56909 -2.31802,-4.59337 -0.2207,-6.33399 0.64049,-0.53156 1.3651,-0.7806 2.09179,-0.79492 z m 11.02344,1.48047 c 2.89537,-0.14175 5.6708,2.23632 4.82422,5.60937 -0.70997,2.82875 -0.99052,2.91636 -5.95703,1.85352 -3.21251,-0.68748 -4.42505,-3.32022 -2.5625,-5.56445 1.03672,-1.24918 2.37924,-1.83401 3.69531,-1.89844 z m -54.4707,0.0156 c 1.11557,0.0751 2.29373,0.6073 3.57617,1.59961 1.36829,1.05874 1.69535,4.35158 0.5,5.03321 -0.4125,0.23522 -2.38517,0.72168 -4.38477,1.08203 -3.35898,0.60535 -3.6898,0.44561 -4.32812,-2.09766 -0.53461,-2.13006 -0.20907,-3.14093 1.43555,-4.47266 1.0329,-0.83639 2.0856,-1.21965 3.20117,-1.14453 z m -137.17383,1.36133 c 1.21454,0.0845 6.03916,7.5228 5.7832,8.91602 -0.15616,0.84999 -3.8832,3.44309 -8.2832,5.76171 -8.06332,4.24906 -9.94511,4.95165 -9.33398,3.48438 0.8267,-1.98484 11.38767,-18.19321 11.83398,-18.16211 z m 329,0.0254 c 0.275,-0.005 3.25104,4.25294 6.61328,9.46289 3.36224,5.20994 5.61224,9.45835 5,9.43945 -2.39291,-0.0737 -17.12874,-8.55439 -17.39648,-10.01171 -0.25803,-1.40447 4.59749,-8.86913 5.7832,-8.89063 z m -203.63672,2.02734 c 2.39316,0.009 5.15395,1.56525 5.43945,3.54688 0.24998,1.73501 -0.47598,2.29443 -4.19335,3.23047 -2.4723,0.62254 -4.77394,1.13086 -5.11524,1.13086 -1.35809,0 0.11497,-6.36521 1.70313,-7.35938 0.61059,-0.38222 1.36829,-0.55189 2.16601,-0.54883 z m 77.92969,0.0938 c 2.64955,0.0144 4.70703,1.88218 4.70703,4.79296 0,3.2687 -0.37734,3.38008 -6.25,1.82032 -4.48625,-1.19154 -5.11866,-4.21779 -1.25,-5.98047 0.96031,-0.43755 1.90979,-0.63762 2.79297,-0.63281 z m -52.16797,3.81445 c 1.95228,0 0.75707,3.79972 -1.375,4.37109 -4.0317,1.08046 -5.75,0.70712 -5.75,-1.24609 0,-1.67276 3.31111,-3.125 7.125,-3.125 z m 13.375,0 c 9.83333,0 10.5,0.12698 10.5,2 0,1.87302 -0.66667,2 -10.5,2 -9.83333,0 -10.5,-0.12698 -10.5,-2 0,-1.87302 0.66667,-2 10.5,-2 z m -50.23047,0.0156 c 3.16366,0.0217 4.98398,1.4263 4.57813,3.53125 -0.19161,0.99385 -1.82115,2.40932 -3.62305,3.14453 -2.83312,1.15595 -3.35637,1.13111 -3.85938,-0.17968 -1.10376,-2.87639 0.52237,-6.5124 2.9043,-6.4961 z m 100.67774,0.0742 c 2.07721,0.0681 3.05273,1.31499 3.05273,3.82031 0,3.80413 -0.78074,4.22189 -4.75977,2.54883 -4.03674,-1.69732 -4.45616,-5.11472 -0.74218,-6.04687 0.94171,-0.23636 1.75681,-0.34495 2.44922,-0.32227 z m -36.44336,0.0332 c 0.41876,0.0293 0.95017,0.11777 1.62109,0.25195 1.71875,0.34375 3.51875,0.625 4,0.625 0.48125,0 0.875,0.9 0.875,2 0,1.53429 -0.64035,1.98247 -2.75,1.92187 -4.03034,-0.1157 -5.25,-0.84223 -5.25,-3.1289 0,-1.31501 0.24761,-1.7579 1.50391,-1.66992 z m 9.51758,1.48828 c 0.55634,-0.0121 1.41226,0.16504 2.72851,0.4707 2.0625,0.47896 4.0875,0.88143 4.5,0.89453 0.4125,0.0131 0.75,0.92344 0.75,2.02344 0,1.1 -0.5625,1.92784 -1.25,1.83984 -0.6875,-0.088 -2.7125,-0.34067 -4.5,-0.5625 -2.62196,-0.32538 -3.25,-0.85355 -3.25,-2.73437 0,-1.36383 0.0942,-1.91147 1.02149,-1.93164 z m -47.75391,0.21289 c 1.09941,-0.002 1.38033,0.43412 1.5625,1.46875 0.18194,1.03335 0.18194,2.01474 0,2.17968 -0.18194,0.16495 -2.24258,0.61578 -4.58008,1.00196 -3.83431,0.63346 -4.25,0.50246 -4.25,-1.32813 0,-1.58684 0.92625,-2.21471 4.25,-2.88086 1.40424,-0.28144 2.35793,-0.44023 3.01758,-0.4414 z m -34.66797,1.17578 c 1.31591,0 5.0579,4.71945 4.28516,5.40429 -0.212,0.1879 -1.81313,1.06774 -3.5586,1.95508 l -3.17383,1.61328 -0.66406,-3.02734 c -0.70464,-3.20822 0.72766,-5.94531 3.11133,-5.94531 z m 117.72656,0.0527 c 0.92188,0.003 1.86631,0.47497 2.68946,1.4668 0.87477,1.05404 0.98953,2.38681 0.37304,4.34766 -0.86865,2.76293 -0.96396,2.79602 -4.19726,1.45312 -2.7625,-1.14736 -3.19435,-1.73966 -2.61524,-3.5957 0.74133,-2.37596 2.21354,-3.67687 3.75,-3.67188 z m -93.07617,0.95313 c 1.9797,-0.0147 0.52491,3.83537 -1.65625,4.38281 -1.3239,0.33228 -3.03541,0.84422 -3.80273,1.13867 -1.60909,0.61747 -2.79102,-0.29136 -2.79102,-2.14648 0,-1.06873 5.58899,-3.3552 8.25,-3.375 z m 68.50586,0.12109 c 0.69446,-0.10276 2.02151,0.23993 4.55469,0.94336 2.65027,0.73595 3.71629,1.54715 3.5,2.66211 -0.4023,2.07374 -1.57522,2.28723 -5.56055,1.01563 -2.12626,-0.67842 -3.25,-1.67876 -3.25,-2.89258 0,-1.07829 0.0614,-1.62575 0.75586,-1.72852 z m -44.75586,1.87305 h 10.5 10.5 v 2.5 2.5 h -10.5 -10.5 v -2.5 z m -3.0625,0.15234 c 0.91139,-0.0108 1.0625,0.67438 1.0625,2.73242 0,2.9694 -0.18896,3.11524 -4,3.11524 -3.6,0 -4,-0.25 -4,-2.5 0,-1.70908 0.55364,-2.50467 1.75,-2.51367 0.9625,-0.008 2.7625,-0.2836 4,-0.61524 0.49526,-0.13272 0.8837,-0.21514 1.1875,-0.21875 z m 27.125,0 c 0.3038,0.004 0.69225,0.086 1.1875,0.21875 1.2375,0.33164 3.0375,0.60724 4,0.61524 1.19636,0.009 1.75,0.80459 1.75,2.51367 0,2.25 -0.4,2.5 -4,2.5 -3.81104,0 -4,-0.14584 -4,-3.11524 0,-2.05804 0.15111,-2.74325 1.0625,-2.73242 z m 9.70117,1.2168 c 0.14942,9.9e-4 0.31446,0.0271 0.48633,0.0801 0.6875,0.2118 2.4875,0.65491 4,0.98633 2.09911,0.45995 2.75,1.19024 2.75,3.08398 0,1.92495 -0.50424,2.46717 -2.25,2.41797 -3.95373,-0.11138 -7.01411,-1.80899 -6.35547,-3.52539 0.33249,-0.86644 0.60547,-1.97319 0.60547,-2.46094 0,-0.36581 0.31543,-0.58502 0.76367,-0.58203 z m -91.88086,0.14062 c 1.92144,-0.0255 3.92579,1.26555 5.11328,3.48438 0.90235,1.68608 0.50845,2.21857 -2.9375,3.97656 -4.88098,2.49009 -4.62018,2.49468 -6.45507,-0.125 -1.73208,-2.47289 -0.79028,-5.13937 2.41992,-6.85742 0.58897,-0.31521 1.21889,-0.47002 1.85937,-0.47852 z m 22.6836,0.10743 c 0.72839,-0.009 1.32394,0.18282 1.61718,0.64453 1.27988,2.01516 0.97835,2.48662 -2.33203,3.64062 -4.24752,1.4807 -4.85156,1.39706 -4.85156,-0.68164 0,-1.7473 3.38122,-3.57753 5.56641,-3.60351 z m 114.24414,0.0625 c 1.2719,-0.004 2.57759,0.6186 3.83789,1.8789 2.29999,2.29999 2.40228,2.73343 1.10742,4.6836 -1.93681,2.91698 -2.65462,2.98146 -7.08594,0.64648 -3.56023,-1.87599 -3.72989,-2.16488 -2.4375,-4.11133 1.36313,-2.05297 2.94283,-3.09247 4.57813,-3.09765 z m -22.15625,0.12695 c 2.22932,0.0669 5.3457,1.61795 5.3457,3.36133 0,2.02202 -1.2505,2.20454 -4.96289,0.72265 -3.15167,-1.25808 -3.19676,-1.31198 -2.49805,-3.13281 0.27053,-0.70499 1.10191,-0.98158 2.11524,-0.95117 z m -71.40821,0.18945 c 0.42943,0.0223 0.87366,0.0769 1.33008,0.16602 2.76334,0.53934 2.61405,3.81602 -0.22265,4.89453 -4.39323,1.6703 -6.35352,1.19529 -6.35352,-1.53711 0,-2.25477 2.24008,-3.67979 5.24609,-3.52344 z m -137.69531,1.2207 c 0.17452,0.17453 -2.17173,4.2476 -5.21289,9.05079 l -5.5293,8.73242 h -6.4121 -6.41211 l 3.23632,-4.89063 c 2.69631,-4.07468 4.63433,-5.58278 11.62305,-9.04882 4.61332,-2.28798 8.5325,-4.01827 8.70703,-3.84376 z m 325.8711,0.0274 c 0.18984,-0.18985 4.14741,1.54078 8.79492,3.8457 6.76677,3.35598 8.98205,5.03132 11.11719,8.40625 1.46645,2.31796 2.66601,4.50455 2.66601,4.85938 0,0.35483 -2.66263,0.64453 -5.91601,0.64453 h -5.91407 l -5.54687,-8.70508 c -3.05041,-4.78786 -5.39102,-8.86093 -5.20117,-9.05078 z m -197.32618,0.83789 c 1.44927,-0.0673 1.9043,0.67332 1.9043,2.35156 0,1.66442 -0.71053,2.63563 -2.25,3.07813 -1.2375,0.3557 -2.98354,0.85053 -3.87891,1.09765 -1.11559,0.30789 -1.77638,-0.33216 -2.10156,-2.0332 -0.39163,-2.04872 0.0499,-2.66566 2.52735,-3.5293 1.70189,-0.59328 2.92926,-0.92446 3.79882,-0.96484 z m 68.80079,0 c 0.86905,0.0385 2.09827,0.36931 3.80664,0.96484 2.46554,0.85949 2.91846,1.48465 2.5332,3.5 -0.25797,1.34949 -0.75513,2.41288 -1.10352,2.36328 -4.70043,-0.66926 -7.13281,-2.18216 -7.13281,-4.4375 0,-1.70398 0.44806,-2.45471 1.89649,-2.39062 z m -88.50391,1.02734 c 0.46809,0.0407 0.6231,0.48716 0.9668,1.38282 0.37227,0.97012 -0.44792,2.01963 -2.34375,3 -3.71461,1.9209 -4.01563,1.89562 -4.01563,-0.33204 0,-1.01172 1.146,-2.36172 2.54688,-3 1.59549,-0.72695 2.37761,-1.0915 2.8457,-1.05078 z m 108.2168,0 c 0.46796,-0.0401 1.24863,0.324 2.84375,1.05078 1.40088,0.63828 2.54687,1.98828 2.54687,3 0,2.19067 -0.6261,2.23387 -4.21289,0.28711 -1.72489,-0.9362 -2.50725,-2.01373 -2.14453,-2.95898 0.34264,-0.8929 0.49883,-1.33879 0.9668,-1.37891 z m -151.33204,0.89063 c 0.32334,0 -1.31768,4.07699 -3.64648,9.05859 -3.71429,7.94533 -4.78168,9.36655 -8.68359,11.57813 -2.44645,1.38663 -5.83164,3.37354 -7.52344,4.41601 -3.10181,1.91132 -5.42383,1.23979 -5.42383,-1.57031 0,-2.07692 23.04159,-23.48242 25.27734,-23.48242 z m 194.44532,0 c 2.28998,0 25.27734,21.42427 25.27734,23.55859 0,3.31795 -2.71062,2.99976 -9.95117,-1.16797 -7.41331,-4.26718 -7.47207,-4.33506 -11.68164,-13.33984 -2.32709,-4.97795 -3.96787,-9.05078 -3.64453,-9.05078 z m -175.85547,0.96875 c 1.15933,-0.006 2.45835,0.65799 3.57617,2.2539 0.85618,1.22237 1.55664,2.70112 1.55664,3.28516 0,0.58404 -1.26793,1.8099 -2.81641,2.72461 -2.77326,1.6382 -2.84089,1.61906 -4.54492,-1.26563 -2.19943,-3.72334 -0.322,-6.98376 2.22852,-6.99804 z m 34.76367,0.12695 c 1.11461,-0.0562 1.36914,0.6473 1.36914,2.30664 0,1.75445 -0.78702,2.6758 -2.91601,3.41797 -3.24838,1.13239 -4.08399,0.72055 -4.08399,-2.01172 0,-1.0744 1.08123,-2.26811 2.56445,-2.83203 1.41835,-0.53925 2.39765,-0.84713 3.06641,-0.88086 z m 122.70117,0 c 1.06084,0.0401 2.01605,0.68612 2.69727,1.95899 0.86616,1.61845 0.70947,2.66684 -0.73438,4.94726 l -1.83203,2.89453 -3.23047,-2.04492 -3.23047,-2.04492 2.06641,-2.9043 c 1.35941,-1.90911 2.89974,-2.85823 4.26367,-2.80664 z m -35.04687,0.084 c 0.37281,0.0313 0.85153,0.13173 1.46484,0.2832 1.5125,0.37355 3.16342,1.08303 3.66797,1.57617 0.5565,0.5439 0.5565,1.64115 0,2.79102 -1.4039,2.90085 -6.41797,0.93109 -6.41797,-2.52149 0,-1.68946 0.16673,-2.2229 1.28516,-2.1289 z m -53.78516,0.32031 h 10 10 l 0.30078,3.08594 0.30078,3.08593 -10.60351,0.0371 -10.60547,0.0371 0.30273,-3.12304 z m -6,0.5 c 3.22222,0 3.5,0.2381 3.5,3 0,2.2907 -0.45329,3 -1.91797,3 -1.05502,0 -2.63002,0.27357 -3.5,0.60742 -1.26222,0.48436 -1.58203,-0.12174 -1.58203,-3 0,-3.45561 0.14689,-3.60742 3.5,-3.60742 z m 32,0 c 3.33333,0 3.5,0.16667 3.5,3.5 0,1.925 -0.3375,3.43396 -0.75,3.35156 -0.4125,-0.0824 -1.9875,-0.33729 -3.5,-0.56641 -2.28038,-0.34545 -2.75,-0.91895 -2.75,-3.35156 0,-2.686 0.29539,-2.93359 3.5,-2.93359 z m 46.35742,1.0039 c 1.33781,0.008 7.14258,4.00967 7.14258,4.92383 0,1.8633 -1.5469,1.85366 -5.2168,-0.0312 -2.51422,-1.29133 -3.53032,-2.39188 -3.14257,-3.40234 0.31521,-0.82142 0.86313,-1.49224 1.21679,-1.49024 z m -124.86719,0.12305 c 0.69697,-0.0672 0.99843,0.40307 1.36915,1.36914 0.39121,1.01948 -0.64911,2.12315 -3.26758,3.45899 -5.79401,2.95588 -7.37599,0.40941 -1.8418,-2.96485 1.95167,-1.18995 3.04327,-1.79609 3.74023,-1.86328 z m 40.05079,0.006 c 0.92031,0.11015 0.95898,0.81791 0.95898,2.64063 0,2.26024 -0.55179,3.14255 -2.25,3.59765 -3.96613,1.06289 -5.59855,0.6803 -6.28125,-1.4707 -0.84916,-2.67547 0.12234,-3.57747 4.78125,-4.4336 1.36946,-0.25165 2.23883,-0.40007 2.79102,-0.33398 z m 44.91406,0 c 0.55197,-0.0673 1.42264,0.0818 2.79492,0.33398 4.65891,0.85612 5.63041,1.75813 4.78125,4.4336 -0.46924,1.47845 -1.46157,2.07708 -3.34961,2.02148 -4.23663,-0.12468 -5.18164,-0.87547 -5.18164,-4.11523 0,-1.84676 0.0351,-2.56175 0.95508,-2.67383 z m -74.84766,1.10742 c 0.60104,0.0575 0.79378,0.74736 1.28321,2.34375 0.48928,1.59593 0.0387,2.35581 -1.92383,3.25 -3.00263,1.36809 -2.94119,1.35959 -3.80078,0.5 -1.48839,-1.48838 -0.51065,-4.08391 1.96289,-5.21093 1.29637,-0.59067 2.01104,-0.92754 2.47851,-0.88282 z m 104.79102,0.002 c 0.47351,-0.0421 1.19926,0.30167 2.51758,0.90234 1.81352,0.8263 2.57943,1.85965 2.3789,3.20898 -0.36373,2.44756 -1.60699,2.8346 -4.56054,1.41602 -1.68618,-0.80988 -2.10366,-1.62497 -1.62696,-3.17969 0.49127,-1.60219 0.68222,-2.29351 1.29102,-2.34765 z m -86.23047,1.13281 c 1.14965,-0.0503 1.52053,0.52631 1.94531,2.21875 0.43664,1.73972 0.19112,2.91564 -0.72851,3.49804 -2.60796,1.65166 -5.6256,1.01121 -6.23633,-1.32421 -0.6843,-2.6168 -0.11049,-3.28146 3.57812,-4.15039 0.58714,-0.13831 1.05819,-0.22542 1.44141,-0.24219 z m 67.66406,0 c 0.38322,0.0168 0.85232,0.10388 1.43946,0.24219 3.68861,0.86893 4.26242,1.53359 3.57812,4.15039 -0.37601,1.43783 -1.34297,2.22875 -2.7168,2.21875 -3.55612,-0.0255 -4.97374,-1.49339 -4.24609,-4.39258 0.42478,-1.69244 0.79566,-2.26906 1.94531,-2.21875 z m -117.92773,1.625 c 0.20057,0 1.1082,1.13464 2.01562,2.51953 1.59256,2.43056 1.55338,2.6015 -1.13476,4.9668 -3.08378,2.71345 -3.88287,2.974 -4.76367,1.54882 -0.53268,-0.86187 2.97961,-9.03515 3.88281,-9.03515 z m 168.18945,0 c 0.9032,0 4.41744,8.17328 3.88477,9.03515 -0.88081,1.42518 -1.6799,1.16463 -4.76368,-1.54882 -2.68814,-2.3653 -2.72732,-2.53624 -1.13476,-4.9668 0.90742,-1.38489 1.8131,-2.51953 2.01367,-2.51953 z m -270.33398,1.04883 c 0.41756,-0.0267 -0.25744,1.52126 -1.5,3.43945 -2.09149,3.22873 -2.63093,3.48467 -7.25977,3.45117 l -5,-0.0352 6.5,-3.40429 c 3.575,-1.87163 6.84222,-3.42447 7.25977,-3.45117 z m 372.48046,0 c 0.41756,0.0267 3.68477,1.57954 7.25977,3.45117 l 6.5,3.40429 -5,0.0352 c -4.62884,0.0335 -5.16827,-0.22244 -7.25977,-3.45117 -1.24256,-1.91819 -1.91755,-3.46615 -1.5,-3.43945 z m -246.91015,0.32812 c 0.58506,-0.0405 0.9355,0.22452 1.28711,0.7793 1.42976,2.25594 0.99848,3.47046 -1.66406,4.68359 -2.92397,1.33225 -3.85295,1.42831 -4.78711,0.49414 -1.46443,-1.46442 -0.50831,-3.36386 2.46679,-4.90234 1.29283,-0.66855 2.1122,-1.01421 2.69727,-1.05469 z m 121.18555,0.19531 c 2.16641,-0.1725 6.15239,2.31774 5.78515,4.22461 -0.39743,2.0637 -2.5636,2.4529 -5.55078,0.9961 -2.38311,-1.1622 -2.75952,-2.43983 -1.36719,-4.63672 0.23034,-0.36344 0.63287,-0.54418 1.13282,-0.58399 z m -103.56641,0.0977 c 1.71925,-0.0124 2.13165,0.51955 2.35547,2.44922 0.23462,2.02278 -0.22086,2.75981 -2,3.23633 -3.42043,0.91612 -3.53185,0.86532 -4.24414,-1.97266 -0.79491,-3.16716 -0.58738,-3.41686 3.06836,-3.67773 0.30221,-0.0216 0.5747,-0.0334 0.82031,-0.0352 z m 86.09961,0 c 0.24641,0.002 0.51857,0.0135 0.82226,0.0352 3.65574,0.26087 3.86327,0.51057 3.06836,3.67773 -0.65044,2.59157 -1.23488,2.82828 -4.74804,1.91797 -1.28572,-0.33314 -1.71919,-1.23958 -1.5,-3.13477 0.22821,-1.97329 0.63254,-2.50891 2.35742,-2.49609 z m 29.2539,0.64844 c 0.66031,0.0487 1.99415,0.72722 3.19727,1.65234 3.45085,2.65347 1.54039,4.54899 -2.25586,2.23828 -2.64836,-1.61201 -3.15224,-3.26595 -1.18164,-3.87304 0.0644,-0.0199 0.14591,-0.0245 0.24023,-0.0176 z m -144.68945,0.0762 c 0.76942,-0.0495 1.3013,0.34921 1.58399,1.19726 0.17714,0.53143 -1.00173,1.7477 -2.61914,2.70313 -3.80709,2.2489 -5.43994,0.25561 -1.97266,-2.4082 1.23052,-0.94538 2.23839,-1.44271 3.00781,-1.49219 z m 21.44141,1.67383 c 1.0232,0.0355 1.82266,0.76528 2.35547,2.18164 0.66812,1.77606 0.39901,2.50611 -1.28125,3.46484 -2.99549,1.70919 -3.57708,1.5864 -4.57032,-0.96484 -0.64246,-1.65023 -0.44838,-2.58321 0.72461,-3.5 1.04527,-0.81696 1.97567,-1.20924 2.77149,-1.18164 z m 101.61719,0.21484 c 0.78075,-0.0825 1.71737,0.12347 2.71289,0.65625 1.57155,0.84107 1.85457,1.59358 1.23242,3.27539 -0.44425,1.20094 -1.21542,2.30308 -1.71289,2.45117 -1.71932,0.51183 -4.4043,-1.77148 -4.4043,-3.74609 0,-1.56093 0.87061,-2.49917 2.17188,-2.63672 z M 461.04883,393.625 c 0.61068,-0.0214 0.95224,0.51711 1.36914,1.60352 0.44126,1.1499 -0.0696,2.33854 -1.50391,3.5 -2.6998,2.18617 -3.83764,2.2183 -4.63867,0.13086 -0.40115,-1.04539 0.23618,-2.29067 1.78125,-3.47852 1.50066,-1.15371 2.3815,-1.73443 2.99219,-1.75586 z m 138.77344,0.0996 c 0.52516,-0.005 1.21763,0.42236 2.51953,1.27539 1.49167,0.97738 2.5785,2.46154 2.41601,3.29883 -0.44089,2.27182 -1.97754,2.38362 -5.03906,0.36523 -2.41037,-1.5891 -2.58413,-2.03018 -1.41797,-3.625 0.63739,-0.87166 0.99632,-1.30941 1.52149,-1.31445 z m -148.40039,0.76172 c 1.44314,0 0.28222,3.06781 -1.68165,4.44336 -2.5201,1.76514 -3.43438,1.9227 -4.17968,0.71679 -0.4667,-0.75515 4.53668,-5.16015 5.86133,-5.16015 z m 158.08203,0 c 1.32464,0 6.32802,4.405 5.86132,5.16015 -0.7453,1.20591 -1.65958,1.04835 -4.17968,-0.71679 -1.96387,-1.37555 -3.12479,-4.44336 -1.68164,-4.44336 z m -136.90625,0.50976 c 0.53364,0.0545 0.84194,0.51514 1.32617,1.41993 0.57108,1.06706 1.03906,2.18342 1.03906,2.48046 0,0.29703 -1.33202,1.22797 -2.96094,2.07032 -2.76239,1.42849 -3.03154,1.40137 -4,-0.40821 -1.44971,-2.70881 -1.39783,-2.83604 1.92188,-4.55273 1.38119,-0.71425 2.14018,-1.06428 2.67383,-1.00977 z m 115.73046,0 c 0.53365,-0.0545 1.29264,0.29552 2.67383,1.00977 1.62892,0.84235 2.96094,1.88566 2.96094,2.31641 0,0.43076 -0.5625,1.51747 -1.25,2.41601 -1.11962,1.46331 -1.53683,1.48088 -4,0.16016 -3.09879,-1.66153 -3.14906,-1.79527 -1.71094,-4.48242 0.48423,-0.90479 0.79253,-1.36542 1.32617,-1.41993 z m -260.42578,2.49024 h 5.54493 5.54296 l -2.64648,4 c -1.45589,2.2 -2.92425,3.99619 -3.26367,3.99219 -0.33941,-0.004 -1.64257,-1.80424 -2.89649,-4 z m 394.03125,0 h 5.54493 5.54492 l -2.28125,3.99219 c -1.25392,2.19576 -2.55708,3.996 -2.89649,4 -0.33942,0.004 -1.80778,-1.79219 -3.26367,-3.99219 z m -373.2207,0.006 c 3.4375,-0.003 6.25,0.23651 6.25,0.53125 0,0.29473 -2.75683,4.90723 -6.12695,10.25 -3.37013,5.34276 -6.41626,10.03574 -6.76758,10.42968 -0.60973,0.6837 -5.59744,-6.40191 -6.2793,-8.91992 -0.17919,-0.66175 1.24883,-3.69624 3.17383,-6.74414 l 3.5,-5.54101 z m 363.5,0.008 c 5.94599,0.0118 6.35199,0.16986 8.33008,3.25 1.14357,1.78069 2.82627,4.38849 3.74023,5.79688 1.60658,2.47568 1.55129,2.73593 -1.6582,7.82617 l -3.32031,5.26562 -6.66992,-10.56445 c -3.66921,-5.81055 -6.67188,-10.7951 -6.67188,-11.07617 0,-0.28107 2.8125,-0.50505 6.25,-0.49805 z m -92.86523,0.3125 c 0.2721,-0.0721 0.67595,0.38823 0.96093,1.13086 0.67618,1.76211 0.0993,2.07202 -0.88671,0.47656 -0.36253,-0.58659 -0.44573,-1.28084 -0.1836,-1.54297 0.0328,-0.0328 0.0705,-0.0541 0.10938,-0.0645 z m -177.84961,0.0723 c 0.10158,-0.0242 0.19451,-8.1e-4 0.27148,0.0762 0.30789,0.30789 0.002,1.11463 -0.68164,1.79297 -0.98762,0.98026 -1.10323,0.86465 -0.56055,-0.56055 0.28165,-0.73967 0.66595,-1.23616 0.97071,-1.30859 z m 12.04687,1.12695 c 0.51535,-0.0465 0.80493,0.34531 1.25,1.14062 0.72974,1.30396 0.41045,2.14358 -1.34375,3.52344 -2.78916,2.19395 -4.09148,2.2877 -4.83594,0.34766 -0.34241,-0.89231 0.56745,-2.26834 2.33008,-3.52344 1.3436,-0.95673 2.08426,-1.44178 2.59961,-1.48828 z m 153.83985,0.002 c 0.51592,0.0479 1.25599,0.53237 2.5957,1.48633 1.76263,1.2551 2.67249,2.63113 2.33008,3.52344 -0.74031,1.92921 -2.36408,1.80187 -4.98828,-0.39063 -1.60497,-1.34094 -1.90007,-2.21347 -1.18555,-3.49023 0.4413,-0.78857 0.73213,-1.17682 1.24805,-1.12891 z m -280.96485,0.51172 c 0.0315,-0.002 0.0559,0.005 0.0762,0.0215 0.56862,0.4539 2.02248,2.58504 3.23047,4.73437 l 2.19727,3.9082 -10.04102,14.66797 -10.04101,14.66992 -8.91992,4.48047 c -4.90569,2.46379 -9.11584,4.47852 -9.35547,4.47852 -0.23962,0 6.83932,-10.74563 15.73047,-23.88086 9.82979,-14.52194 16.14786,-23.03333 17.12304,-23.08008 z m 408.08594,0 c 0.97518,0.0467 7.29325,8.55814 17.12305,23.08008 8.89114,13.13523 15.86614,23.85788 15.5,23.83008 -0.36614,-0.0278 -4.57587,-2.04391 -9.35547,-4.48047 l -8.69141,-4.42969 -10.03906,-14.66797 -10.04102,-14.66797 2.19727,-3.9082 c 1.20799,-2.14933 2.66185,-4.28047 3.23047,-4.73437 0.0203,-0.0162 0.0447,-0.023 0.0762,-0.0215 z m -269.9375,0.043 c 0.84404,0.0242 1.42873,0.5658 1.83594,1.62695 0.43439,1.13202 -0.11983,2.30679 -1.64258,3.47852 -2.93301,2.25689 -3.4996,2.2423 -4.76758,-0.12695 -0.83849,-1.56674 -0.60945,-2.24137 1.1875,-3.5 1.43943,-1.00822 2.54268,-1.50272 3.38672,-1.47852 z m 131.5,0.008 c 0.72036,-0.0868 1.7192,0.27142 3.21094,1.04688 3.02558,1.57281 2.97105,1.45562 1.72851,3.77734 -1.3489,2.52044 -1.88304,2.55164 -4.84375,0.27344 -1.52275,-1.17173 -2.07697,-2.3465 -1.64258,-3.47852 0.38435,-1.00159 0.82652,-1.53231 1.54688,-1.61914 z m -152.19922,1.58789 c 0.68891,-0.0463 1.0991,0.32781 1.0625,1.13282 -0.0173,0.38003 -1.1147,1.47809 -2.43945,2.4414 -3.20941,2.33376 -4.46113,0.32256 -1.36133,-2.1875 1.08083,-0.8752 2.04937,-1.34041 2.73828,-1.38672 z m 173.22852,0.13867 c 0.67698,-0.041 1.71285,0.42688 2.77539,1.29493 1.4339,1.1714 2.04144,2.32846 1.5,2.85742 -0.53497,0.52263 -1.90361,0.0793 -3.32032,-1.07813 -1.4339,-1.1714 -2.04144,-2.33041 -1.5,-2.85937 0.13375,-0.13066 0.31926,-0.20116 0.54493,-0.21485 z m 19.84961,0.0117 3.25781,1.98047 c 1.792,1.08973 4.72636,2.85955 6.52148,3.9336 l 3.26367,1.95312 -2.18554,2.90234 c -1.20176,1.59636 -2.52283,3.29603 -2.93555,3.7754 -0.69553,0.80783 -4.7414,-6.17851 -6.96289,-12.02149 z m -213.0293,0.0371 -1.58985,3.81836 c -0.87444,2.09959 -2.44886,5.50391 -3.49804,7.56641 -1.04917,2.0625 -2.05254,3.75 -2.22852,3.75 -0.17598,0 -1.49965,-1.65728 -2.9414,-3.6836 l -2.6211,-3.68359 3.21289,-1.92187 c 1.76641,-1.05659 4.66257,-2.80364 6.4375,-3.88282 z m 32.82422,3.08399 c 1.27763,-0.005 2.2207,0.91237 2.2207,2.55859 0,2.079 -4.52416,4.56959 -5.86523,3.22852 -1.65392,-1.65392 -1.40973,-2.69186 1.11523,-4.73828 0.87529,-0.70941 1.76272,-1.04566 2.5293,-1.04883 z m 147.49219,0.0195 c 1.80532,0.1494 4.72851,2.26159 4.72851,3.82031 0,2.21313 -2.50261,2.99245 -4.75,1.48047 -2.51466,-1.69179 -2.87359,-3.50812 -1,-5.06055 0.24791,-0.20541 0.60487,-0.27471 1.02149,-0.24023 z m -158.08594,0.0312 c 1.86497,0 1.99711,3.14874 0.18945,4.51758 -2.27702,1.72425 -3.05664,1.80726 -3.91406,0.41992 -0.68582,-1.10968 2.20147,-4.9375 3.72461,-4.9375 z m 168.6289,0 c 1.52314,0 4.41043,3.82782 3.72461,4.9375 -0.85742,1.38734 -1.63704,1.30433 -3.91406,-0.41992 -1.80766,-1.36884 -1.67552,-4.51758 0.18945,-4.51758 z m -208.57031,1.14258 c 0.46449,0.0318 0.79102,0.5082 1.11914,1.36328 0.38616,1.00631 -0.73274,2.33325 -3.37305,4 -5.35332,3.3794 -5.62099,3.16281 -1.86914,-1.50586 2.19232,-2.72805 3.34891,-3.91052 4.12305,-3.85742 z m 248.51172,0 c 0.7741,-0.0526 1.93107,1.12979 4.12305,3.85742 3.67367,4.5714 3.18573,4.9074 -2.09961,1.44531 -2.4514,-1.60575 -3.52295,-2.94824 -3.14258,-3.93945 0.32788,-0.85446 0.65468,-1.33174 1.11914,-1.36328 z m -216.88477,1.26953 c 0.18387,0.0199 0.35233,0.14284 0.49219,0.36914 0.33769,0.5464 -0.0561,1.54884 -0.875,2.22851 -1.6259,1.34938 -1.96441,0.2918 -0.59765,-1.86523 0.32638,-0.51509 0.67403,-0.76553 0.98046,-0.73242 z m 185.39063,0.0859 c 0.43415,0.0403 0.89707,0.47692 1.15625,1.15234 0.84811,2.21014 0.13866,2.72555 -1.32422,0.96289 -0.71013,-0.85565 -0.81075,-1.66981 -0.24805,-2.01758 0.12977,-0.0802 0.2713,-0.11108 0.41602,-0.0976 z m -173.74609,2.50195 c 2.16326,0 2.75993,3.32631 0.84765,4.72461 -2.29456,1.67782 -3.02104,1.60917 -3.77344,-0.35156 -0.70286,-1.83162 0.99757,-4.37305 2.92579,-4.37305 z m 161.96875,0 c 1.92822,0 3.62864,2.54144 2.92578,4.37305 -0.74828,1.94999 -1.35251,1.98711 -3.67774,0.22265 -1.91226,-1.45109 -1.39774,-4.5957 0.75196,-4.5957 z m -171.14063,0.55078 c 0.35113,0.0682 0.60754,0.39802 0.91602,0.94922 0.50832,0.90826 0.75925,1.72987 0.55859,1.82617 -0.20066,0.0962 -2.94204,2.63441 -6.0918,5.64062 -3.14976,3.00622 -5.72656,5.12461 -5.72656,4.70899 0,-2.05004 4.27766,-8.73076 7.12305,-11.125 1.78648,-1.50323 2.63548,-2.11363 3.2207,-2 z m 180.36524,0.0293 c 0.60092,-0.0472 1.49106,0.55968 3.16796,1.9707 1.76624,1.48619 4.12208,4.48775 5.23633,6.67187 1.11425,2.18411 1.87608,4.12198 1.69336,4.30469 -0.18272,0.18272 -2.9138,-2.15027 -6.07031,-5.18359 -4.18758,-4.02415 -5.51483,-5.9184 -4.90625,-7.00586 0.26131,-0.46695 0.51835,-0.72951 0.87891,-0.75781 z m -211.57032,0.41992 c 0.28727,0 1.96937,2.01533 3.73828,4.47851 2.80343,3.9037 3.06237,4.77003 2.01954,6.75 -0.65802,1.24932 -1.69172,2.60374 -2.29688,3.00782 v -0.002 c -1.17274,0.78307 -16.91334,0.84351 -19.84961,0.0762 -2.16302,-0.56526 -2.15554,-1.24514 0.041,-3.8711 1.52981,-1.82889 15.01328,-10.43945 16.34765,-10.43945 z m 242.72266,0 c 0.28728,0 3.47309,1.7584 7.08008,3.90625 7.00535,4.17146 11.85897,8.62736 10.67968,9.80664 -1.02381,1.02381 -19.89527,1.54319 -21.2207,0.58398 -0.60516,-0.43795 -1.63885,-1.81904 -2.29687,-3.06836 -1.04284,-1.97997 -0.7839,-2.8463 2.01953,-6.75 1.76891,-2.46318 3.45101,-4.47851 3.73828,-4.47851 z m -318.38477,0.86133 2.18164,2.73437 c 4.06451,5.09737 4.88415,7.30086 3.27735,8.81641 -2.45485,2.31544 -21.31932,12.02361 -20.4336,10.51562 0.46103,-0.78493 4.0185,-6.07014 7.90625,-11.74609 z m 393.91797,0.13867 c 0.45663,0 14.60547,20.74456 14.60547,21.41406 0,1.15187 -1.62293,0.46856 -10.82422,-4.55273 -5.12877,-2.79885 -9.55498,-5.68776 -9.83594,-6.41993 -0.41538,-1.08247 5.01148,-10.4414 6.05469,-10.4414 z m -110.0625,3 c 2.0378,0 16.32885,15.21809 18.63867,19.84765 1.19283,2.39079 2.02548,4.44301 1.84961,4.56055 -0.17587,0.11753 -5.40275,-4.88622 -11.61523,-11.11914 -10.30827,-10.3422 -12.27638,-13.28906 -8.87305,-13.28906 z m -172.98242,0.13281 c 0.4796,0.0571 0.8405,0.36756 1.16016,0.88477 0.34554,0.5591 -4.57833,6.13679 -10.94141,12.39453 -6.36309,6.25774 -11.56836,11.18211 -11.56836,10.94336 0,-2.40017 5.64097,-10.32094 11.82617,-16.60547 5.58739,-5.67712 8.08463,-7.78843 9.52344,-7.61719 z m -49.83984,11.96484 c 1.72524,0.0244 3.79711,0.1659 6.25781,0.39649 l 7.3418,0.6875 -8.66016,5.91015 c -4.76311,3.25026 -8.7756,5.90821 -8.91797,5.90821 -0.14236,0 -1.06021,-2.09708 -2.03906,-4.66016 -2.39896,-6.28157 -1.45848,-8.34789 6.01758,-8.24219 z m 272.80468,0.0605 c 6.98327,-0.0436 7.58505,1.92015 5.14454,8.31055 -0.95187,2.49244 -2.00793,4.48599 -2.34571,4.42969 -0.33778,-0.0564 -4.35147,-2.71455 -8.91992,-5.90625 l -8.30664,-5.80274 8.5332,-0.71094 c 2.33229,-0.19427 4.28301,-0.31023 5.89453,-0.32031 z m -18.33203,0.74609 10.00977,6.78711 c 5.50476,3.73324 10.00781,7.23136 10.00781,7.77344 0,0.54208 -1.1963,4.0356 -2.6582,7.76172 -1.46189,3.72612 -2.97213,6.77344 -3.35547,6.77344 -0.63356,0 -5.58449,-10.1093 -11.6543,-23.79688 z m -313.03515,0.60547 c 0.0352,0 0.0527,0.007 0.0527,0.0254 0,0.28773 -2.91198,5.01017 -6.4707,10.49414 l -6.47071,9.97071 h -7.57226 -7.57227 l 3.79297,-5.38086 c 3.32295,-4.71593 5.062,-6.0153 14.04297,-10.49414 5.28516,-2.63573 9.66988,-4.61518 10.19727,-4.61524 z m 389.10546,0 c 0.52739,1.1e-4 4.91211,1.97904 10.19727,4.61524 9.05223,4.51518 10.68343,5.74159 13.95703,10.49414 l 3.70703,5.38086 h -7.48633 -7.48632 l -6.47071,-9.97071 c -3.55872,-5.48397 -6.4707,-10.20641 -6.4707,-10.49414 0,-0.018 0.0176,-0.0254 0.0527,-0.0254 z m -314.65429,0.95508 c 1.5177,-0.0573 -0.84181,4.36714 -6.42578,16.28516 -2.89904,6.1875 -5.56205,11.25 -5.91797,11.25 -0.35593,0 -2.04406,-3.39383 -3.75196,-7.54297 l -3.10546,-7.54492 10.43359,-6.99805 c 4.87621,-3.27158 7.72915,-5.41003 8.76758,-5.44922 z m -25.32422,3.53516 c 0.60326,0 4.14642,8.21401 3.66406,8.49414 -0.13159,0.0764 -4.00473,2.74367 -8.60742,5.92773 -4.60268,3.18405 -8.20268,5.36247 -8,4.83985 0.79865,-2.05929 12.35831,-19.26172 12.94336,-19.26172 z m 290.87109,0 c 0.35316,0 3.46458,4.32097 6.91407,9.60156 3.44948,5.2806 6.1306,9.70311 5.95703,9.82813 -0.17357,0.12502 -3.46641,-1.97653 -7.31641,-4.66993 -3.85,-2.6934 -7.56348,-5.22202 -8.25195,-5.61914 -0.98039,-0.56551 -0.89266,-1.63488 0.40234,-4.93164 0.9094,-2.31509 1.94177,-4.20898 2.29492,-4.20898 z m 76.50782,9.21484 c 0.43378,-0.43378 13.54687,6.70124 13.54687,7.3711 0,0.22768 -0.1125,0.33347 -0.25,0.23437 -0.1375,-0.0991 -2.275,-0.34705 -4.75,-0.55078 -3.69599,-0.30424 -4.89633,-0.93274 -6.7207,-3.51563 -1.22168,-1.72962 -2.04382,-3.32141 -1.82617,-3.53906 z m -444.09375,0.0234 c 0.11566,-0.023 0.18748,-0.0235 0.21289,0.002 0.20328,0.20328 -0.62989,1.7989 -1.85157,3.54688 -1.99982,2.86134 -2.71912,3.17518 -7.2207,3.14648 l -5,-0.0312 6.85156,-3.51562 c 3.29735,-1.69201 6.19813,-2.98719 7.00782,-3.14844 z m 81.29687,0.87109 3.55859,8.69532 c 2.56584,6.27003 3.30148,9.18348 2.63672,10.44531 -0.81573,1.54841 -2.65651,1.75 -15.98437,1.75 h -15.06446 l 2.0586,-3.25 c 1.13167,-1.7875 6.72288,-6.48767 12.42578,-10.44531 z m 282.31055,1.14844 c 0.15747,-0.0116 0.316,0.0221 0.48242,0.0859 3.90021,1.49665 20.29619,13.90603 21.82617,16.51953 l 1.77734,3.0332 -14.64843,0.30274 c -13.39501,0.27589 -14.75743,0.14034 -15.95899,-1.57813 -1.10632,-1.58225 -1.02153,-2.60894 0.53711,-6.5 3.80393,-9.49629 4.88207,-11.78215 5.98438,-11.86328 z m -374.9668,6.74219 c 2.75,0 5,0.34525 5,0.76758 0,0.42232 -1.14033,2.44732 -2.53516,4.5 -1.39483,2.05267 -2.63233,3.72861 -2.75,3.72461 -0.34511,-0.0124 -4.71484,-7.83397 -4.71484,-8.43946 0,-0.30353 2.25,-0.55273 5,-0.55273 z m 10.01172,0 h 6.99414 c 3.84655,0 6.99414,0.28353 6.99414,0.6289 0,0.34537 -3.2625,5.73712 -7.25,11.98243 -3.9875,6.24532 -7.475,11.35551 -7.75,11.35351 -0.275,-0.002 -1.9942,-2.55846 -3.82031,-5.68164 -3.69678,-6.32259 -3.65025,-6.70511 1.71875,-14.0332 z m 456.98828,0 c 2.75,0 4.98595,0.3375 4.96875,0.75 -0.0172,0.4125 -1.09545,2.48269 -2.39648,4.59961 l -2.36524,3.84961 -2.60351,-3.83203 c -1.4318,-2.10709 -2.60352,-4.17729 -2.60352,-4.59961 0,-0.42233 2.25,-0.76758 5,-0.76758 z m -16.75,0.01 7.25,0.008 3.92188,6.08789 c 3.8567,5.98552 3.89448,6.1338 2.20898,8.74218 -0.94291,1.4592 -2.45342,4.11485 -3.35742,5.90235 -0.90401,1.7875 -1.89836,3.23404 -2.20899,3.21484 -0.64909,-0.0401 -15.06445,-22.36116 -15.06445,-23.32617 0,-0.35071 3.2625,-0.63391 7.25,-0.62891 z m -457.41601,1.99024 c 0.38876,0 1.80943,2.01695 3.15624,4.48242 l 2.44922,4.48437 -7.41015,10.76563 c -4.07525,5.92203 -8.56069,12.40367 -9.96875,14.40234 -1.84442,2.61806 -5.14644,4.92326 -11.81055,8.24414 -5.0875,2.53522 -9.25,4.38627 -9.25,4.11524 0,-0.97674 32.14419,-46.49414 32.83399,-46.49414 z m 481.06835,1.39844 c 2.10913,0.15388 5.46323,5.0468 14.67579,18.30468 7.56653,10.88906 15.06999,21.48438 16.67382,23.54688 1.60382,2.0625 2.54075,3.7236 2.08204,3.6914 -0.45873,-0.0322 -4.88399,-2.10882 -9.83399,-4.61523 -6.39027,-3.23568 -9.73775,-5.61098 -11.54492,-8.19141 -1.39986,-1.99885 -5.88221,-8.48489 -9.96094,-14.41406 l -7.41601,-10.78125 1.87695,-3.48437 c 1.36578,-2.5361 2.18179,-4.14897 3.44726,-4.05664 z m -473.66406,10.31445 3.35742,5.39453 c 1.84702,2.96665 3.366,5.61758 3.375,5.89258 0.009,0.275 -4.94278,3.01588 -11.00586,6.08984 -6.06308,3.07395 -10.89796,5.23258 -10.74414,4.79688 0.15382,-0.43569 3.59538,-5.60252 7.64844,-11.48243 z m 466.45703,0.10742 4.81641,6.83984 c 2.64908,3.76219 6.35678,8.97735 8.23828,11.58985 1.88149,2.6125 3.04528,4.68652 2.58594,4.60742 -1.47494,-0.25391 -22.33175,-11.33877 -22.31055,-11.85742 0.0112,-0.275 1.51686,-2.90266 3.3457,-5.83985 z m -399.72461,1.17969 h 14.45508 c 7.95063,0 14.70277,0.39945 15.00391,0.88672 0.30115,0.48726 -5.49098,5.41985 -12.8711,10.96093 l -13.41796,10.07422 -3.57032,-6.49414 c -4.15419,-7.55763 -4.19779,-7.88758 -1.58203,-12.17773 z m 311.25196,0.16211 c 1.93066,-0.007 4.23194,0.0138 6.93359,0.0625 l 15.3418,0.27539 1.94922,3.64062 1.94922,3.63867 -3.33399,6.36133 c -1.83419,3.49853 -3.61175,6.6455 -3.94922,6.99414 -0.70369,0.72698 -26.37626,-18.42371 -26.93164,-20.08984 -0.19337,-0.58014 2.24903,-0.86045 8.04102,-0.88281 z m -4.8125,7.19336 c 0.79456,0.1879 5.6257,3.52481 11.22656,7.76953 5.97425,4.52769 11.00556,8.33093 11.17969,8.45312 0.17414,0.12219 -1.71322,3.96078 -4.19532,8.5293 -4.21381,7.75589 -4.57472,8.14317 -5.44726,5.84961 -0.51396,-1.351 -3.72651,-8.68149 -7.13672,-16.29102 -3.41021,-7.60954 -5.98835,-14.0468 -5.73047,-14.30468 0.0161,-0.0161 0.0505,-0.0184 0.10352,-0.006 z m -279.66797,0.0547 c 0.23077,0.23076 -2.36487,6.64632 -5.76953,14.25586 -9.24261,20.65761 -7.76992,19.48696 -12.78125,10.14649 -2.36925,-4.41597 -4.16925,-8.13547 -4,-8.26563 10.06324,-7.73937 22.23685,-16.45066 22.55078,-16.13672 z m 312.07226,2.24414 7.15235,14.2793 c 3.93431,7.85362 7.01,14.42359 6.83398,14.59961 -0.40852,0.40852 -20.21337,-14.38814 -20.56055,-15.36133 -0.14273,-0.40014 1.27728,-3.60627 3.15626,-7.12304 z m -344.65039,0.0469 3.41797,6.16602 c 1.87999,3.39198 3.41797,6.50851 3.41797,6.92578 0,0.41727 -3.2625,3.18709 -7.25,6.15429 -3.9875,2.9672 -8.7125,6.49742 -10.5,7.84375 -1.7875,1.34634 -3.25,2.16207 -3.25,1.81446 0,-0.34761 3.18702,-6.9924 7.08203,-14.76758 z m -55.66015,4.29883 c 0.29432,0 -3.08219,5.4 -7.50391,12 l -8.03906,12 h -8.53906 c -6.56857,0 -8.36563,-0.28848 -7.78321,-1.25 5.39383,-8.90468 7.72859,-10.91756 19.48438,-16.81055 6.51567,-3.26621 12.08654,-5.93945 12.38086,-5.93945 z m 455.99218,0 c 0.29432,0 5.86519,2.67324 12.38086,5.93945 11.75579,5.89299 14.09056,7.90587 19.48438,16.81055 0.58243,0.96152 -1.21463,1.25 -7.7832,1.25 h -8.53907 l -8.03906,-12 c -4.42172,-6.6 -7.79823,-12 -7.50391,-12 z M 270.5,495.59766 c 1.10912,-0.0972 0.11985,1.36703 -2.33594,4.63867 -2.23911,2.98299 -2.89416,3.25 -7.98633,3.25 -3.05139,0 -5.36003,-0.17174 -5.13085,-0.38281 0.22917,-0.21106 4.17161,-2.26208 8.76171,-4.5586 3.69757,-1.84996 5.82876,-2.87164 6.69141,-2.94726 z m 519.92578,0 c 0.86265,0.0756 2.99384,1.0973 6.69141,2.94726 4.5901,2.29652 8.53255,4.34754 8.76172,4.5586 0.22916,0.21107 -2.07948,0.38281 -5.13086,0.38281 -5.09218,0 -5.74916,-0.26701 -7.98828,-3.25 -2.4558,-3.27164 -3.44311,-4.73591 -2.33399,-4.63867 z"
   style="fill:#000000"
   id="path153" /></g>
</svg>
