<?xml version="1.0" encoding="UTF-8" standalone="no"?>
<svg
   xmlns:dc="http://purl.org/dc/elements/1.1/"
   xmlns:cc="http://creativecommons.org/ns#"
   xmlns:rdf="http://www.w3.org/1999/02/22-rdf-syntax-ns#"
   xmlns:svg="http://www.w3.org/2000/svg"
   xmlns="http://www.w3.org/2000/svg"
   xmlns:sodipodi="http://sodipodi.sourceforge.net/DTD/sodipodi-0.dtd"
   xmlns:inkscape="http://www.inkscape.org/namespaces/inkscape"
   inkscape:version="1.0 (4035a4fb49, 2020-05-01)"
   sodipodi:docname="empire.svg"
   id="svg22"
   version="1.1"
   clip-rule="evenodd"
   fill-rule="evenodd"
   height="363.47852"
   width="85.693512">
  <metadata
     id="metadata28">
    <rdf:RDF>
      <cc:Work
         rdf:about="">
        <dc:format>image/svg+xml</dc:format>
        <dc:type
           rdf:resource="http://purl.org/dc/dcmitype/StillImage" />
        <dc:title />
      </cc:Work>
    </rdf:RDF>
  </metadata>
  <defs
     id="defs26" />
  <sodipodi:namedview
     inkscape:current-layer="svg22"
     inkscape:window-maximized="0"
     inkscape:window-y="0"
     inkscape:window-x="0"
     inkscape:cy="230.05094"
     inkscape:cx="33.22675"
     inkscape:zoom="0.70052083"
     showgrid="false"
     id="namedview24"
     inkscape:window-height="678"
     inkscape:window-width="1160"
     inkscape:pageshadow="2"
     inkscape:pageopacity="0"
     guidetolerance="10"
     gridtolerance="10"
     objecttolerance="10"
     borderopacity="1"
     bordercolor="#666666"
     pagecolor="#ffffff"
     inkscape:document-rotation="0" />
  <path
     sodipodi:nodetypes="cscssccccccccccccccccccccccccccccccsscscc"
     d="m 42.770125,0 c 0,4.81867 -0.856751,42.61191 -0.856751,48.625 0,2.0817 -0.968241,3.79677 -1.975585,5.33203 h -1.25524 c -1.2917,0 -2.386337,1.39495 -2.386337,3.04101 v 2.80664 c 0,6.50734 0.263494,24.61522 -2.213147,37.31836 -3.240474,0.0336 -7.449603,3.38039 -7.442548,12.01563 h -1.701239 v 7.22656 h -3.397885 v 26.20703 h -3.402484 l -0.56708,143.98242 h -4.535111 v 9.75 h -2.833871 v 53.09571 H 0 v 14.07812 h 85.693515 v -14.07812 c -3.129163,0.0587 -6.368909,-0.0888 -10.340787,0 0.119602,-17.69805 0,-35.39703 0,-53.09571 h -3.200173 v -9.75 H 67.166846 V 142.57226 H 63.931422 V 116.36523 H 61.06843 v -7.22656 h -1.653728 c 0,-8.64122 -3.450109,-12.01563 -7.497723,-12.01563 C 49.567772,84.4368 50.125311,65.8174 50.125311,59.80468 v -2.80664 c 0,-1.64606 -1.096169,-3.04101 -2.387868,-3.04101 H 46.230848 C 45.34468,52.38814 44.50815,50.6179 44.50815,48.625 44.50815,43.51997 43.243714,4.80708 43.243714,0 Z"
     style="fill:#060505;stroke:none;stroke-width:0.639843"
     id="path248" />
</svg>
