<?xml version="1.0" encoding="UTF-8" standalone="no"?>
<svg
   xmlns:dc="http://purl.org/dc/elements/1.1/"
   xmlns:cc="http://creativecommons.org/ns#"
   xmlns:rdf="http://www.w3.org/1999/02/22-rdf-syntax-ns#"
   xmlns:svg="http://www.w3.org/2000/svg"
   xmlns="http://www.w3.org/2000/svg"
   xmlns:sodipodi="http://sodipodi.sourceforge.net/DTD/sodipodi-0.dtd"
   xmlns:inkscape="http://www.inkscape.org/namespaces/inkscape"
   sodipodi:docname="grizzly.svg"
   inkscape:version="1.0 (4035a4fb49, 2020-05-01)"
   id="svg8"
   version="1.1"
   viewBox="0 0 207.42857 451.39047"
   height="451.39047mm"
   width="207.42857mm">
  <defs
     id="defs2" />
  <sodipodi:namedview
     inkscape:window-maximized="0"
     inkscape:window-y="4"
     inkscape:window-x="98"
     inkscape:window-height="728"
     inkscape:window-width="1207"
     showgrid="false"
     inkscape:document-rotation="0"
     inkscape:current-layer="layer1"
     inkscape:document-units="mm"
     inkscape:cy="530.16422"
     inkscape:cx="480.56245"
     inkscape:zoom="0.35"
     inkscape:pageshadow="2"
     inkscape:pageopacity="0.0"
     borderopacity="1.0"
     bordercolor="#666666"
     pagecolor="#ffffff"
     id="base" />
  <metadata
     id="metadata5">
    <rdf:RDF>
      <cc:Work
         rdf:about="">
        <dc:format>image/svg+xml</dc:format>
        <dc:type
           rdf:resource="http://purl.org/dc/dcmitype/StillImage" />
        <dc:title></dc:title>
      </cc:Work>
    </rdf:RDF>
  </metadata>
  <g
     transform="translate(21.315482,113.05833)"
     id="layer1"
     inkscape:groupmode="layer"
     inkscape:label="Layer 1">
    <path
       style="fill:#000000;stroke:none;stroke-width:0.0352778"
       id="path26"
       d="m 70.963541,-112.58638 c -0.88194,0.28223 -3.386667,1.51695 -5.538611,2.78695 -6.420556,3.66889 -9.313333,4.445 -16.756944,4.445 -3.563056,0 -4.339167,-0.10583 -7.126111,-1.09361 -2.434167,-0.84667 -3.457222,-1.02306 -4.621389,-0.84667 -3.316111,0.49389 -6.35,3.59833 -7.478889,7.620001 l -0.564444,1.975556 -2.822222,1.199444 c -4.162778,1.763889 -6.385278,3.316111 -9.877778,6.985 -3.421944,3.633611 -4.480277,5.362222 -4.480277,7.373055 0,1.340556 -0.07056,1.446389 -1.658056,2.116667 -2.8222216,1.199444 -7.3377776,2.434166 -14.3933326,3.986389 -8.5372224,1.834444 -11.7827774,2.857499 -12.9116664,4.056944 -0.705556,0.776111 -0.846667,1.234722 -0.846667,3.245555 0,2.293056 0.07056,2.504723 2.293056,6.208889 2.434166,4.092222 5.8208334,8.043333 8.3255554,9.771944 0.917222,0.599723 1.552222,1.340556 1.552222,1.728611 0,0.352778 -0.493889,1.869723 -1.093611,3.386667 -1.058333,2.610555 -1.093611,2.8575 -0.670278,4.691944 0.352778,1.552223 0.776111,2.257778 2.257778,3.739445 2.116667,2.151944 5.43277796,3.845277 8.854722,4.621388 1.446389,0.3175 5.538611,0.635 9.8777776,0.811389 8.466666,0.3175 10.054166,0.740834 12.347221,3.280834 1.552223,1.693333 1.975556,2.751666 2.010834,4.903611 0,1.763888 -0.564445,3.139722 -2.398889,5.644444 -1.340556,1.834444 -1.411111,2.151944 -0.670278,2.786944 0.776111,0.635 0.670278,1.234722 -0.705555,3.316111 -2.328334,3.492496 -1.940278,5.5033358 1.234722,6.0324958 2.928055,0.49389 1.975555,2.29306 -1.234722,2.29306 -3.280834,0 -3.986389,2.04611 -1.622778,4.48028 1.305278,1.34054998 1.375833,1.48165998 1.093611,2.78694 -0.176389,0.74084 -0.705556,2.43417 -1.199444,3.77472 -0.529167,1.30528 -0.917223,2.89278 -0.917223,3.52778 0,0.74083 -0.564444,1.9755602 -1.5875,3.5630602 -1.658055,2.57527 -1.975555,4.02166 -1.023055,4.93889 0.881944,0.88194 2.187222,0.67027 4.938889,-0.84667 1.552222,-0.84667 2.645833,-1.27 2.786944,-1.05833 0.141111,0.21166 -0.352778,1.69333 -1.023056,3.31611 -0.705555,1.62277 -1.27,3.13972 -1.27,3.38666 0,0.74084 -1.904999,3.95111 -4.374444,7.3025 -1.234722,1.69334 -2.610555,3.81 -3.033889,4.65667 -2.081389,4.1275 -3.527777,9.34861 -3.527777,12.73528 0,1.12889 -0.3175,3.59833 -0.705556,5.50333 l -0.670278,3.45722 0.705556,0.77611 c 0.705555,0.77611 0.705555,0.84667 0.176389,4.58611 -1.128889,7.40834 -2.293056,11.00667 -4.8683326,14.67556 -1.693334,2.39889 -3.563056,4.05694 -11.359445,10.01889 -11.3947224,8.67833 -15.6986104,14.146392 -17.3566664,22.119162 -0.917222,4.33917 0.03528,8.81945 2.363611,11.35945 0.740833,0.81139 2.293056,3.28083 3.386667,5.50333 1.940277,3.84528 2.151944,4.09222 4.445,5.64445 1.3052774,0.91722 3.9511114,2.96333 5.8913884,4.58611 4.76249996,3.98639 7.055556,5.43278 10.230556,6.49111 5.4327766,1.79916 7.8669436,1.48166 10.5480546,-1.41111 2.046111,-2.2225 2.751667,-3.73945 3.704167,-8.04334 0.141111,-0.635 0.458611,-0.9525 0.917222,-0.9525 1.093611,0 1.305278,-1.5875 0.388055,-2.82222 -0.529166,-0.74083 -0.740833,-1.55222 -0.740833,-2.8575 v -1.83444 l 2.928056,0.21166 c 3.316111,0.21167 6.103055,0.98778 7.44361,2.04612 0.776112,0.59972 0.917223,0.98777 0.917223,2.43416 0,0.9525 -0.3175,3.10445 -0.705556,4.7625 -0.388055,1.65806 -0.705555,4.05695 -0.705555,5.36222 0,2.01084 0.07055,2.25778 0.529166,1.86973 0.635,-0.52917 0.635,-0.70556 0,3.70416 -0.282222,1.94028 -0.529166,5.22111 -0.529166,7.3025 0,3.4925 0.07055,3.84528 0.881944,4.79778 0.670278,0.77611 0.881944,1.44639 0.881944,2.64583 0,1.12889 0.423334,2.61056 1.375834,4.72723 1.128889,2.64583 1.905,4.79777 3.563055,10.05416 0.282222,0.84667 0.141111,1.02306 -1.411111,1.97556 -0.9525,0.59972 -2.046111,1.16416 -2.434167,1.30528 -0.423333,0.10583 -0.740833,0.35277 -0.740833,0.52916 0,0.3175 1.552222,1.62278 2.2225,1.86972 0.493889,0.14112 0.03528,0.91723 -3.139722,5.22112 -2.328333,3.13972 -2.575278,3.73944 -1.834444,4.48027 0.635,0.635 1.481666,0.52917 2.575277,-0.35277 0.529167,-0.42334 0.917222,-0.635 0.846667,-0.42334 -1.234722,2.92806 -1.446389,3.73945 -1.234722,4.90361 0.3175,1.72861 1.164166,1.97556 2.2225,0.67028 0.740833,-0.9525 0.811389,-0.98778 0.811389,-0.24694 0,0.42333 0.282222,0.91722 0.599722,1.12888 0.529166,0.28223 0.529166,0.38806 0.141111,0.88195 -0.423333,0.49389 -0.423333,0.81139 -0.03528,1.94028 0.246945,0.81139 0.352778,1.905 0.211667,2.64583 -0.211667,1.02306 -0.141111,1.27 0.3175,1.27 0.9525,0 0.599722,1.94028 -1.234722,7.02028 -2.081389,5.64444 -2.716389,9.48972 -3.033889,18.02694 -0.176389,4.09222 -0.07056,6.45584 0.352778,9.34861 0.776111,5.36222 1.128888,6.59695 1.940277,6.35 0.529167,-0.17639 1.128889,0.81139 3.563056,5.82084 2.151944,4.33916 3.104444,5.99722 3.563055,5.99722 0.458611,0 0.917222,0.91722 1.869722,3.81 0.705556,2.11666 1.834445,4.62139 2.469445,5.57389 1.058333,1.51694 1.340555,2.50472 2.504722,8.43139 3.104444,15.87499 1.552222,21.13138 -6.35,21.58999 -1.340555,0.0706 -4.374444,0.52917 -6.702778,0.98778 -2.328333,0.45861 -5.961944,1.12889 -8.113888,1.51695 -2.116667,0.38805 -4.797778,1.05833 -5.891389,1.48166 -6.067778,2.25778 -10.230555,7.26723 -11.0419436,13.26445 -0.282222,2.08139 0.105833,2.57528 1.3052776,1.76389 0.705555,-0.49389 0.811388,-0.45861 2.010833,0.77611 1.5875,1.62278 5.573889,4.05694 8.784166,5.36222 6.455833,2.61056 12.523611,2.96333 19.826111,1.09361 2.434167,-0.59972 7.337778,-1.48167 10.936111,-1.97555 3.598333,-0.49389 8.008055,-1.12889 9.807222,-1.44639 4.092222,-0.74084 7.337784,-0.52917 12.594164,0.74083 2.11667,0.52917 4.7625,0.9525 5.85612,0.9525 4.72722,0 8.36083,-3.35139 10.58333,-9.70139 0.56444,-1.5875 1.27,-2.99861 1.69333,-3.31611 0.88195,-0.59972 0.9525,-1.76389 0.14111,-3.42194 -0.49389,-1.09362 -0.52916,-1.44639 -0.10583,-2.64584 0.3175,-0.9525 0.38805,-2.18722 0.21167,-3.81 -0.56445,-5.85611 -0.635,-7.47889 -0.24695,-9.27805 0.45861,-2.2225 1.02306,-3.28084 1.34056,-2.50473 0.3175,0.74084 1.48166,1.79917 2.01083,1.79917 0.38806,0 0.45861,-1.19944 0.42333,-6.45583 -0.0353,-6.24417 0,-6.45583 0.84667,-7.97278 0.49389,-0.88194 1.05833,-1.62278 1.23472,-1.69333 0.21167,-0.0706 0.81139,0.77611 1.375839,1.83444 1.05833,2.04611 2.50472,3.4925 3.24555,3.21028 0.24695,-0.10583 0.98778,1.19944 1.905,3.35139 1.94028,4.58611 5.43278,9.91305 6.38528,9.77194 0.52917,-0.0705 0.98778,0.42334 1.905,2.01084 2.39889,4.05694 2.75167,5.15055 2.92805,8.21972 0.17639,3.21028 0,2.99861 2.15195,2.32833 0.52917,-0.14111 0.9525,0.35278 2.2225,2.57528 3.06917,5.29167 4.86833,8.53722 4.86833,8.67833 0,0.49389 -2.71639,0.42334 -5.96194,-0.17639 -3.175,-0.56444 -4.19806,-0.59972 -6.73806,-0.28222 -12.87639,1.65806 -17.956389,4.51556 -22.013329,12.45306 -2.11667,4.1275 -2.25778,5.715 -0.77611,7.26722 2.11666,2.18722 5.92666,3.77472 15.910279,6.56166 6.0325,1.65806 6.91444,1.76389 10.26583,1.09362 6.13833,-1.27 11.1125,-1.65806 25.01194,-1.97556 20.91972,-0.45861 23.24806,-0.84667 26.42306,-4.23333 1.94028,-2.04611 2.89278,-3.91584 3.70416,-7.16139 0.35278,-1.37583 0.88195,-2.57528 1.12889,-2.68111 0.28223,-0.0706 0.59973,-0.3175 0.74084,-0.52917 0.45861,-0.70555 0.28222,-4.86833 -0.42334,-9.91305 -0.84666,-5.92667 -0.88194,-7.90223 -0.17639,-12.62945 0.77612,-5.04472 1.19945,-6.31472 1.97556,-6.06778 1.09361,0.35278 2.08139,-1.69333 2.08139,-4.40972 0,-1.72861 0.24694,-2.78694 0.91722,-4.23333 1.5875,-3.35139 2.2225,-5.60917 3.31611,-11.60639 1.12889,-6.06778 2.36361,-10.97139 2.82222,-10.97139 0.14111,0 0.49389,0.35278 0.81139,0.77611 0.84667,1.30528 1.12889,0.45861 1.09361,-3.35139 -0.0353,-2.64583 -0.35277,-4.90361 -1.16416,-8.50194 -1.02306,-4.65667 -1.41111,-8.36083 -0.81139,-8.29028 1.72861,0.28222 1.48166,-1.905 -1.16417,-10.61861 -0.42333,-1.44639 -0.88194,-3.175 -1.02305,-3.81 -0.21167,-1.16417 -0.17639,-1.16417 0.84666,-0.9525 0.59972,0.14111 1.05834,0.10583 1.05834,-0.0353 0,-0.77611 -1.79917,-6.0325 -3.88056,-11.43 -3.06917,-7.9375 -3.81,-10.33639 -4.30389,-14.25222 -0.35278,-2.82222 -0.28222,-3.81 0.38806,-8.255 0.9525,-6.31472 1.72861,-9.24278 3.70416,-14.56972 2.89278,-7.69056 3.73945,-11.81806 4.83306,-23.74194 0.49389,-5.53862 0.21167,-16.29834 -0.56445,-21.20195 -1.30527,-8.18444 -3.31611,-15.66333 -8.46666,-31.57361 -1.27,-3.986392 -2.89278,-9.172222 -3.56306,-11.571112 -0.67027,-2.39889 -1.55222,-5.15055 -1.94027,-6.17361 -0.84667,-2.15194 -4.33917,-16.89806 -6.31473,-26.70528 -2.92805,-14.64027 -3.81,-27.05805 -2.64583,-37.21805 1.72861,-14.7461102 0.91722,-23.4597202 -2.89278,-31.04445 -2.39889,-4.797773 -4.62139,-7.196662 -11.21833,-12.029718 -9.38389,-6.879166 -20.70806,-16.898055 -24.02417,-21.237221 -1.69333,-2.257778 -3.52777,-5.538611 -6.91444,-12.417778 -2.54,-5.150555 -5.18583,-10.195277 -5.85611,-11.253611 -0.77611,-1.128889 -2.54,-2.892777 -4.445,-4.445 -5.60917,-4.480277 -10.336389,-9.630833 -15.451669,-16.827499 -0.88194,-1.27 -2.71639,-3.175 -4.05694,-4.268611 -1.34056,-1.058334 -2.96334,-2.504722 -3.59834,-3.245556 -1.16416,-1.340555 -1.16416,-1.411111 -0.88194,-3.492504 0.14111,-1.19944 0.28222,-3.28083 0.28222,-4.62138 0,-4.05695 -1.72861,-6.45584 -5.53861,-7.72584 -2.01083,-0.67028 -3.42194,-0.67028 -5.53861,-0.0353 z" />
  </g>
</svg>
