<?xml version="1.0" encoding="UTF-8" standalone="no"?>
<svg
   xmlns:dc="http://purl.org/dc/elements/1.1/"
   xmlns:cc="http://creativecommons.org/ns#"
   xmlns:rdf="http://www.w3.org/1999/02/22-rdf-syntax-ns#"
   xmlns:svg="http://www.w3.org/2000/svg"
   xmlns="http://www.w3.org/2000/svg"
   xmlns:sodipodi="http://sodipodi.sourceforge.net/DTD/sodipodi-0.dtd"
   xmlns:inkscape="http://www.inkscape.org/namespaces/inkscape"
   sodipodi:docname="liberty.svg"
   inkscape:version="1.0 (4035a4fb49, 2020-05-01)"
   id="svg165"
   version="1.1"
   viewBox="0 0 199.54646 517.90131"
   height="517.90131mm"
   width="199.54646mm">
  <defs
     id="defs159" />
  <sodipodi:namedview
     inkscape:window-maximized="0"
     inkscape:window-y="4"
     inkscape:window-x="79"
     inkscape:window-height="728"
     inkscape:window-width="1273"
     showgrid="false"
     inkscape:document-rotation="0"
     inkscape:current-layer="layer1"
     inkscape:document-units="mm"
     inkscape:cy="1141.4359"
     inkscape:cx="497.06653"
     inkscape:zoom="0.175"
     inkscape:pageshadow="2"
     inkscape:pageopacity="0.0"
     borderopacity="1.0"
     bordercolor="#666666"
     pagecolor="#ffffff"
     id="base" />
  <metadata
     id="metadata162">
    <rdf:RDF>
      <cc:Work
         rdf:about="">
        <dc:format>image/svg+xml</dc:format>
        <dc:type
           rdf:resource="http://purl.org/dc/dcmitype/StillImage" />
        <dc:title></dc:title>
      </cc:Work>
    </rdf:RDF>
  </metadata>
  <g
     transform="translate(371.29516,70.557067)"
     id="layer1"
     inkscape:groupmode="layer"
     inkscape:label="Layer 1">
    <path
       transform="scale(0.26458333)"
       d="m -1150.752,-266.67188 c -6.5447,-0.0556 -18.5234,4.52828 -20.9902,8.51954 -1.2951,2.09913 -2.5709,2.08585 -5.1406,-0.0469 -2.7625,-2.29303 -3.418,-1.83424 -3.418,2.39063 0,2.8748 -1.7746,7.93424 -3.9433,11.24414 -2.5815,3.94251 -3.4894,8.81611 -2.627,14.1289 1.2457,7.67641 0.8232,8.25687 -7.9023,10.8711 -11.8299,3.54428 -18.2277,12.71964 -15.1192,21.68164 1.4625,4.2147 1.3415,8.50623 -0.3457,12.26953 -2.2641,5.05064 -1.6488,6.59309 4.8399,12.11328 8.0442,6.84339 10.8734,14.52011 11.8652,32.20508 0.3499,6.24019 1.5218,12.78176 2.6055,14.53515 1.083,1.75328 1.6604,6.13291 1.2832,9.73243 -0.3776,3.59939 1.1631,10.44092 3.4238,15.20507 2.5819,5.439969 3.6216,11.685982 2.793,16.79102 -0.7254,4.470814 -0.2051,9.244082 1.1582,10.607422 1.4083,1.408278 2.7835,18.533631 3.1836,39.652344 0.5249,27.7313965 1.9354,41.7959222 5.5547,55.373046 2.6681,10.009886 5.6051,24.226779 6.5253,31.591797 1.5274,12.224535 1.0238,14.435851 -5.7695,25.404297 -11.473,18.524361 -20.3748,46.333314 -18.5723,58.015624 2.7537,17.84571 6.342,25.41251 13.9063,29.32422 5.87,3.03552 6.9735,4.8078 5.6289,9.04297 -4.3743,13.77677 -4.2981,18.87089 0.3008,20.17773 2.4949,0.70896 7.0452,4.42539 10.1113,8.25782 4.4326,5.54023 5.0521,7.94314 3.0274,11.72656 -3.1441,5.87422 -3.3055,15.43912 -0.3125,18.52148 1.3687,1.40971 0.9145,6.05666 -1.1739,11.99219 -4.402,12.50915 -4.3602,17.98395 0.1504,19.71484 1.9986,0.76696 3.6328,2.96231 3.6328,4.87891 0,1.91659 2.6567,6.14106 5.9024,9.38672 8.6642,8.66421 10.4312,24.46511 4.1191,36.83789 -11.4012,22.34826 -22.0963,55.22876 -22.1152,67.98047 -0.021,15.46171 7.1893,24.7207 19.2519,24.7207 6.5115,0 7.377,0.81857 7.377,6.9668 0,3.83138 -2.6623,12.98641 -5.916,20.34375 -10.6925,24.17764 -13.4665,38.91706 -9.795,52.04101 4.9418,17.66404 8.8236,39.06671 9.9922,55.09961 0.5827,7.99435 1.9097,22.52898 2.9493,32.29883 1.5377,14.45125 1.0693,20.09724 -2.5137,30.28125 -3.3599,9.54883 -4.0759,16.54136 -3.0215,29.47656 0.9289,11.39524 0.1445,22.12189 -2.3887,32.70313 -3.8852,16.22857 -4.645,52.82107 -1.7109,82.36719 1.1571,11.65137 0.662,17.21382 -1.9024,21.39257 -2.8548,4.65162 -4.3822,20.50048 -1.998,29.81641 3.1093,12.14879 1.5303,21.01581 -4.459,30.79102 h -35.2598 c -8.3149,0 -15.4726,7.14943 -15.4726,15.46484 v 123.51758 c -11.0569,13.96663 -27.1192,20.94307 -26.0391,41.36719 1.3524,25.5726 18.2305,35.5616 18.2305,53.5527 1.6081,70.2544 2.2894,153.5057 0,213.9688 0,41.8426 -48.0332,56.2236 -48.0332,153.1973 -2.3336,27.6276 0.1953,83.1777 0.1953,83.1777 h -87.1602 v 74.6309 h -47.4765 V 1690.75 h 754.19139 v -100.1191 h -42.01953 V 1516 h -93.55273 c 0,0 1.75509,-55.5075 0,-83.1777 1.42857,-81.6272 -47.03409,-108.7592 -48.73047,-153.1973 -6.09538,-71.1319 2.00737,-142.6229 0,-213.9688 0,-22.1351 18.19155,-32.0925 17.66211,-53.5527 -0.37233,-15.09199 -12.90862,-26.27062 -25.26367,-35.71678 v -79.36914 -49.79883 c 0,-8.3156 -7.15725,-15.46484 -15.47266,-15.46484 h -51.43164 c -1.02563,-9.47486 -1.98945,-23.49918 -3.44531,-45.37305 l -2.47852,-37.25391 6.04688,-5.60351 6.04687,-5.60547 -0.97265,-38.72266 c -0.79778,-31.77505 -0.35732,-38.96133 2.45117,-40.03906 2.43953,-0.93608 3.42383,-5.62803 3.42383,-16.33789 0,-10.68816 1.17754,-16.32789 4.08007,-19.53516 3.69808,-4.08627 3.79629,-6.83093 1.05469,-29.26367 -1.66382,-13.6142 -2.32502,-26.57366 -1.4707,-28.80078 0.85459,-2.22709 -0.83103,-22.24097 -3.7461,-44.47461 -5.87902,-44.83842 -5.04011,-52.00976 6.08594,-52.00976 3.35951,0 8.24383,-2.13442 10.85352,-4.74415 6.28195,-6.28183 14.25384,-33.24759 16.47851,-55.73242 l 1.78907,-18.08203 9.34961,-2.20703 c 9.96917,-2.35385 15.41083,-8.57366 33.64648,-38.45703 8.69866,-14.25478 8.91609,-15.13063 5.18555,-20.82422 -3.6387,-5.55337 -3.54045,-6.75581 1.49218,-18.3418 2.9622,-6.81969 6.45249,-14.45459 7.75586,-16.96484 1.70029,-3.27483 1.45216,-5.18711 -0.88086,-6.76953 -4.51574,-3.06299 -59.82083,-31.06055 -61.35547,-31.06055 -0.68632,0 -1.24804,2.18091 -1.24804,4.8457 0,2.98758 -1.62613,4.85768 -4.24024,4.87696 -2.49642,0.0181 -7.71296,5.56069 -12.6875,13.48242 -7.94982,12.65963 -8.66488,13.19182 -12.11328,9.00195 -2.01555,-2.44887 -7.23645,-6.97877 -11.60351,-10.06445 -9.94772,-7.02877 -17.8164,-22.83133 -23.25782,-46.71094 -5.27702,-23.15805 -13.9668,-37.06103 -26.23242,-41.96875 -6.25777,-2.50388 -9.18945,-5.18918 -9.18945,-8.41992 0,-2.60939 -1.47791,-5.61612 -3.2832,-6.68164 -1.80518,-1.06548 -5.77011,-9.47838 -8.81055,-18.69336 -4.36705,-13.23604 -4.94279,-17.68948 -2.74609,-21.20703 2.13838,-3.42399 1.8855,-8.38884 -1.09571,-21.4961 -2.96096,-13.018013 -3.21409,-17.844683 -1.07031,-20.427729 1.97458,-2.379039 2.07207,-4.754948 0.32812,-8.013672 -1.42555,-2.662821 -1.68334,-7.621874 -0.60546,-11.66211 l 1.875,-7.029297 26.44531,-0.693359 c 14.54464,-0.381373 27.49513,-1.7432 28.7793,-3.027344 1.49801,-1.497996 1.07603,-2.393101 -1.17774,-2.496093 -1.9319,-0.0883 -14.95915,-1.478353 -28.94922,-3.087891 -22.41011,-2.578269 -25.43554,-3.47618 -25.43554,-7.556641 0,-3.596326 4.96732,-6.561696 22.22461,-13.265625 34.92777,-13.568504 33.11093,-15.865256 -5.5254,-6.990234 l -22.9707,5.275391 -4.99023,-4.990235 -4.99024,-4.990234 16,-17.435547 c 25.24936,-27.513867 19.90605,-27.133779 -14.28125,1.0136719 -11.31306,9.3143181 -12.69776,9.8208721 -20.97066,7.6933591 l -8.8575,-2.277343 -3.0039,-24.458985 c -3.1429,-25.597525 -6.6354,-26.776663 -6.9707,-2.353515 -0.3112,22.6890813 -1.9766,26.605232 -12.6816,29.8125 -9.5653,2.865854 -9.6795,2.819364 -25.8008,-10.1699224 -8.9065,-7.1760561 -19.4627,-15.1437111 -23.457,-17.7070316 l -7.2617,-4.660156 6.0507,7.5781251 c 3.3281,4.1681137 11.3568,13.6999977 17.8418,21.1835939 l 11.791,13.607422 -5.7343,4.77539 c -4.7092,3.922817 -9.465,4.79546 -26.5977,4.859375 l -20.8633,0.08203 -1.6621,-16.353516 c -0.9145,-8.9935698 -4.4378,-28.3436726 -7.83,-43 -4.4405,-19.184608 -6.6162,-37.197106 -7.7657,-64.314453 -1.4425,-34.032965 -2.1985,-38.828415 -7.8496,-49.720705 l -6.2558,-12.05468 4.6835,-9.02539 c 2.6614,-5.1282 6.491,-9.0254 8.8692,-9.02539 2.3019,0 6.6853,-2.66027 9.7402,-5.91211 4.8525,-5.16519 5.221,-6.86828 2.918,-13.47461 -1.9573,-5.61505 -1.8937,-8.74954 0.2461,-12.17578 2.3642,-3.78558 1.9968,-5.79749 -2.0391,-11.20313 -2.7057,-3.62412 -8.1229,-7.62488 -12.039,-8.89063 -9.3354,-3.01716 -9.5545,-3.30198 -5.9278,-7.67187 1.7016,-2.05022 3.6296,-11.22467 4.2852,-20.38867 1.0893,-15.22399 0.7637,-16.79975 -3.7813,-18.24219 -0.6696,-0.21252 -1.4947,-0.31432 -2.4297,-0.32227 z m 28.7305,307.357427 c 3.3348,-0.08574 10.2564,0.59045 17.832,1.8125 14.6899,2.369767 18.3653,3.806397 18.3653,7.173828 0,2.777008 -2.5766,4.723871 -7.5703,5.722656 -4.1638,0.832778 -9.8855,1.397603 -12.7168,1.253907 -5.5833,-0.283427 -20.3861,-13.168656 -17.9395,-15.615235 0.2059,-0.205943 0.9177,-0.319077 2.0293,-0.347656 z m 25.084,23.492187 c 10.505,0 10.7106,0.155399 11.9883,9.083985 1.7085,11.940238 0.6486,22.343011 -2.9629,29.070311 -3.5475,6.60814 -5.6259,6.80244 -10.8594,1.01953 -2.6301,-2.90625 -4.0098,-8.690073 -4.0097,-16.814451 -1e-4,-6.811532 -1.0895,-13.057349 -2.4219,-13.880859 -1.3324,-0.823446 -2.4239,-3.06833 -2.4239,-4.988281 0,-2.511957 2.9982,-3.490235 10.6895,-3.490235 z"
       style="fill:#000000;stroke-width:0.999999"
       id="path181" />
  </g>
</svg>
