<?xml version="1.0" encoding="UTF-8" standalone="no"?>
<svg
   xmlns:dc="http://purl.org/dc/elements/1.1/"
   xmlns:cc="http://creativecommons.org/ns#"
   xmlns:rdf="http://www.w3.org/1999/02/22-rdf-syntax-ns#"
   xmlns:svg="http://www.w3.org/2000/svg"
   xmlns="http://www.w3.org/2000/svg"
   xmlns:sodipodi="http://sodipodi.sourceforge.net/DTD/sodipodi-0.dtd"
   xmlns:inkscape="http://www.inkscape.org/namespaces/inkscape"
   width="233.15025mm"
   height="343.01157mm"
   viewBox="0 0 233.15025 343.01157"
   version="1.1"
   id="svg125"
   inkscape:version="1.0 (4035a4fb49, 2020-05-01)"
   sodipodi:docname="notre.svg">
  <defs
     id="defs119" />
  <sodipodi:namedview
     id="base"
     pagecolor="#ffffff"
     bordercolor="#666666"
     borderopacity="1.0"
     inkscape:pageopacity="0.0"
     inkscape:pageshadow="2"
     inkscape:zoom="0.175"
     inkscape:cx="693.65186"
     inkscape:cy="650.7957"
     inkscape:document-units="mm"
     inkscape:current-layer="layer1"
     inkscape:document-rotation="0"
     showgrid="false"
     inkscape:window-width="1222"
     inkscape:window-height="707"
     inkscape:window-x="46"
     inkscape:window-y="0"
     inkscape:window-maximized="0" />
  <metadata
     id="metadata122">
    <rdf:RDF>
      <cc:Work
         rdf:about="">
        <dc:format>image/svg+xml</dc:format>
        <dc:type
           rdf:resource="http://purl.org/dc/dcmitype/StillImage" />
        <dc:title></dc:title>
      </cc:Work>
    </rdf:RDF>
  </metadata>
  <g
     inkscape:label="Layer 1"
     inkscape:groupmode="layer"
     id="layer1"
     transform="translate(98.142169,14.647906)">
    <path
       sodipodi:nodetypes="sssssssscsssccccccccscccccccccccccccccccsssssscssssssscccs"
       id="path22"
       d="m -96.142977,255.33863 c 0,-48.44815 -0.118729,-73.025 -0.352778,-73.025 -0.194028,0 -0.684546,-0.33177 -1.09004,-0.73727 -0.734991,-0.73499 -0.735113,-0.73961 -0.03984,-1.4993 1.108715,-1.21145 2.882061,-4.60006 3.017905,-5.76678 0.06835,-0.58706 0.228596,-1.23617 0.356094,-1.44247 0.127498,-0.20629 -0.0077,-0.61457 -0.300387,-0.90728 -0.474417,-0.47442 -0.414518,-0.6243 0.551676,-1.38047 l 1.083877,-0.84826 0.02057,-5.10498 c 0.01471,-3.65191 -0.112215,-5.3176 -0.445929,-5.85196 -0.416107,-0.6663 -0.316318,-0.98817 0.923819,-2.9798 l 1.390318,-2.23282 -0.07712,-6.95684 c 0,-9.57649 0.62514,-16.66351 0.606287,-26.95302 0,-5.21414 -0.13829,-9.30542 -0.314533,-9.30542 -3.126325,-2.40743 -2.904253,-19.652072 -2.315458,-30.069392 h 6.82981 c 0,0 0.649246,-39.229708 0.645075,-56.948515 -0.264196,-0.82393 -0.441682,-1.586075 -1.324458,-2.118892 -1.13393,-0.669827 -1.144204,-1.998504 -0.312069,-2.590775 0.937254,-0.66709 2.350311,-1.088172 4.90548,-1.088172 v -32.17912 h 14.640316 l 2.116667,3.815697 h 57.6791608 c 1.00975,33.878043 0,54.83223 0,91.109777 H 46.026466 c 0.10107,-30.099191 -0.40234,-61.038007 1.18432,-91.109777 l 57.069054,1.4699821 3.88144,-3.8156961 h 14.02603 V 19.06397 c 3.3879,0 3.84617,-0.712245 5.02351,1.383508 -0.69042,3.07705 -2.07925,2.160765 -2.76404,4.901092 l -0.62216,56.398978 h 6.24432 c 0,11.5413 -0.47505,21.576682 -3.11927,30.069392 l 0.15781,10.08983 c 0.20031,4.84632 -0.0143,21.98767 -0.0143,30.30745 -0.26367,0.98596 -0.1201,1.38339 1.18866,3.29051 1.26976,1.85028 1.42674,2.26811 1.06798,2.84257 -0.28269,0.4527 -0.42056,2.64085 -0.42056,6.67546 0,5.20091 0.0734,6.00201 0.54999,6.00201 0.30249,0 0.45187,-0.15875 0.33196,-0.35278 -0.25178,-0.40738 0.52332,-0.46654 1.08475,-0.0828 0.20855,0.14255 0.38293,1.34619 0.3875,2.67476 0.005,1.32857 0.16875,2.51919 0.36484,2.64583 0.19609,0.12664 0.57734,0.85193 0.84722,1.61176 0.26988,0.75983 0.92725,1.81918 1.46083,2.35411 0.90335,0.90566 1.36417,2.0176 0.65432,1.5789 -0.17369,-0.10735 -0.42816,0.0817 -0.56548,0.42015 -0.40743,1.00415 -0.19556,23.15223 0.23421,24.48271 0.26403,0.81739 0.43449,19.73901 0.5549,61.59304 l 0.17379,60.4132 H 19.432556 -96.142977 Z"
       style="fill:#000000;stroke-width:0.352778" />
  </g>
</svg>
