<?xml version="1.0" encoding="UTF-8" standalone="no"?>
<svg
   xmlns:dc="http://purl.org/dc/elements/1.1/"
   xmlns:cc="http://creativecommons.org/ns#"
   xmlns:rdf="http://www.w3.org/1999/02/22-rdf-syntax-ns#"
   xmlns:svg="http://www.w3.org/2000/svg"
   xmlns="http://www.w3.org/2000/svg"
   xmlns:sodipodi="http://sodipodi.sourceforge.net/DTD/sodipodi-0.dtd"
   xmlns:inkscape="http://www.inkscape.org/namespaces/inkscape"
   sodipodi:docname="one-world.svg"
   inkscape:version="1.0 (4035a4fb49, 2020-05-01)"
   id="svg125"
   version="1.1"
   viewBox="0 0 39.558071 268.93958"
   height="268.93958mm"
   width="39.558071mm">
  <defs
     id="defs119" />
  <sodipodi:namedview
     inkscape:window-maximized="0"
     inkscape:window-y="22"
     inkscape:window-x="46"
     inkscape:window-height="707"
     inkscape:window-width="1222"
     showgrid="false"
     inkscape:document-rotation="0"
     inkscape:current-layer="layer1"
     inkscape:document-units="mm"
     inkscape:cy="572.59179"
     inkscape:cx="74.475472"
     inkscape:zoom="0.35"
     inkscape:pageshadow="2"
     inkscape:pageopacity="0.0"
     borderopacity="1.0"
     bordercolor="#666666"
     pagecolor="#ffffff"
     id="base" />
  <metadata
     id="metadata122">
    <rdf:RDF>
      <cc:Work
         rdf:about="">
        <dc:format>image/svg+xml</dc:format>
        <dc:type
           rdf:resource="http://purl.org/dc/dcmitype/StillImage" />
        <dc:title></dc:title>
      </cc:Work>
    </rdf:RDF>
  </metadata>
  <g
     transform="translate(-88.863769,-19.179098)"
     id="layer1"
     inkscape:groupmode="layer"
     inkscape:label="Layer 1">
    <path
       sodipodi:nodetypes="ccccccccccccccccc"
       id="path141"
       d="m 88.863769,265.63803 c 0.714833,-64.29543 3.404957,-179.712548 3.404957,-179.712548 1.497083,-0.47247 3.268113,-0.847904 4.537643,-0.981539 0,0 -0.0059,-3.898926 -0.0059,-5.541676 0.654367,-2.953616 5.294171,-3.184976 8.594811,-4.067773 0.51794,-14.934538 1.03317,-28.406311 1.79745,-44.485818 0.001,-6.082158 0.39383,-11.669578 1.14598,-11.669578 0.71679,0 0.88264,5.487222 1.14598,11.607352 0.56592,15.809724 0.96683,29.845857 1.36314,44.525189 3.58022,1.065056 8.43379,1.675426 8.72951,4.090628 0.2409,1.802825 0.10891,3.641451 0.10891,5.541676 0.95256,0.149817 3.57965,0.65081 5.04431,0.981539 0,0 3.69404,137.306328 3.69128,202.193178 H 108.65839 88.895229 l -0.03142,-22.48063 z"
       style="fill:#000000;stroke-width:0.988159" />
  </g>
</svg>
