<?xml version="1.0" encoding="UTF-8" standalone="no"?>
<svg
   xmlns:dc="http://purl.org/dc/elements/1.1/"
   xmlns:cc="http://creativecommons.org/ns#"
   xmlns:rdf="http://www.w3.org/1999/02/22-rdf-syntax-ns#"
   xmlns:svg="http://www.w3.org/2000/svg"
   xmlns="http://www.w3.org/2000/svg"
   xmlns:sodipodi="http://sodipodi.sourceforge.net/DTD/sodipodi-0.dtd"
   xmlns:inkscape="http://www.inkscape.org/namespaces/inkscape"
   sodipodi:docname="spring-temple.svg"
   inkscape:version="1.0 (4035a4fb49, 2020-05-01)"
   id="svg8"
   version="1.1"
   viewBox="0 0 207.98111 314.09439"
   height="314.09439mm"
   width="207.98111mm">
  <defs
     id="defs2" />
  <sodipodi:namedview
     inkscape:window-maximized="0"
     inkscape:window-y="30"
     inkscape:window-x="67"
     inkscape:window-height="653"
     inkscape:window-width="1207"
     showgrid="false"
     inkscape:document-rotation="0"
     inkscape:current-layer="layer1"
     inkscape:document-units="mm"
     inkscape:cy="854.04305"
     inkscape:cx="275.22478"
     inkscape:zoom="0.49497475"
     inkscape:pageshadow="2"
     inkscape:pageopacity="0.0"
     borderopacity="1.0"
     bordercolor="#666666"
     pagecolor="#ffffff"
     id="base" />
  <metadata
     id="metadata5">
    <rdf:RDF>
      <cc:Work
         rdf:about="">
        <dc:format>image/svg+xml</dc:format>
        <dc:type
           rdf:resource="http://purl.org/dc/dcmitype/StillImage" />
        <dc:title />
      </cc:Work>
    </rdf:RDF>
  </metadata>
  <g
     transform="translate(-1.5516341,-73.913934)"
     id="layer1"
     inkscape:groupmode="layer"
     inkscape:label="Layer 1">
    <path
       sodipodi:nodetypes="csccscccccscccccccccccccccccccccscccsccscccccccccccccccc"
       id="path105"
       d="m 72.680158,122.88324 c 0,0 -1.001425,-2.46355 -2.494646,-0.13859 -0.988572,1.53922 -0.749652,4.23385 -0.749652,4.23385 -2.830615,-0.90157 -7.294941,1.3098 -7.294941,1.3098 0,0 -0.465385,-1.91714 -1.833178,-2.01588 -2.008552,-0.145 -1.91524,12.34723 -1.91524,12.34723 0,0 0.06437,13.20379 4.074882,14.12185 -3.13945,11.53588 -1.024556,24.79825 -0.753472,34.2087 0.18768,6.40538 -0.079,13.00868 0.38946,19.40277 0.62089,8.46914 1.98191,16.86349 2.08351,25.4 0.12947,10.86873 -1.53635,21.68067 -1.40829,32.45556 0.0487,4.09469 1.07033,8.57497 1.46967,12.7 0.34749,3.59233 2.035531,6.51368 3.104801,9.87777 0.88618,2.78695 1.01529,5.46665 2.40383,8.11389 2.3375,4.45664 5.87481,5.35587 4.96252,10.922 -6.026768,1.92922 -12.258166,5.7607 -15.131104,10.35707 -3.832038,4.84299 -3.437624,20.31848 0.61288,24.48041 -5.54849,0.4378 -18.844316,0.37891 -24.235117,1.83977 -2.73544,0.74153 -3.573369,2.16032 -5.845259,3.09377 -9.03226,-0.82864 -13.814885,3.00995 -18.7738,5.86361 -2.9784481,2.83874 -6.1496971,7.1572 -9.7953779,6.94372 v 29.60779 H 209.53274 v -28.90259 c -5.55502,-0.94836 -7.97321,-5.36228 -11.81735,-8.95949 -2.78842,-2.34159 -4.30656,-1.10969 -6.17431,-3.38773 l -11.99445,-1.63583 c -6.07732,-2.84957 -12.82934,-2.57729 -19.40278,-3.12667 3.1857,-6.59882 2.85779,-20.22801 -0.50775,-25.81676 -3.36622,-5.32942 -13.14123,-6.56929 -18.89503,-8.22629 1.31939,-2.21227 3.91266,-3.21275 5.22499,-5.64445 0.92365,-6.58476 4.34443,-10.69858 5.54073,-15.52363 0.47413,-2.14489 -0.21449,-4.21393 -0.16299,-6.34859 0.0519,-2.15194 0.73837,-4.15043 0.68086,-6.35 -0.10371,-3.99273 -1.42945,-8.00629 -1.72684,-11.99444 -1.00718,-13.51703 -0.48754,-28.72669 2.11349,-41.98055 0.51329,-2.61479 -0.45191,-5.76862 -0.30762,-8.46667 0.14746,-2.75766 1.77165,-5.1442 2.55023,-7.76111 1.75154,-5.32147 3.99638,-9.11273 1.46333,-14.46389 -1.25414,-2.53153 -3.35069,-4.04565 -3.67313,-7.05555 -0.35066,-3.27343 0.30727,-6.55073 -0.21626,-9.87778 -0.91969,-5.84235 -3.09703,-11.31076 -3.66571,-17.28611 -0.85831,-9.01735 -0.45367,-20.6763 -6.91797,-27.83804 -3.44347,-3.81494 -8.72455,-4.63868 -13.25033,-6.54509 -2.33398,-0.98354 -4.19136,-3.51896 -6.70278,-3.71687 1.92758,-2.88395 1.46191,-6.24487 1.86478,-9.525 0.71367,-5.80778 4.37056,-13.9453 2.47474,-19.75555 -1.01494,-3.110089 -3.76555,-5.269794 -6.08965,-7.362472 -4.51591,-4.066469 -9.28053,-8.179152 -15.88876,-5.882922 -2.69064,0.934861 -4.681708,2.84233 -6.702778,4.764969 -1.70286,1.619956 -3.90066,2.973564 -5.19571,4.966405 -2.60985,4.017081 -2.13748,10.706815 -1.02059,15.155695 1.31587,5.242625 2.10327,8.750285 2.10538,14.111105 7.1e-4,1.25271 1.05481,2.9464 0.30515,4.09575 -2.34738,3.59833 -10.84685,4.03683 -14.53867,5.86951 -1.4344,0.71191 -3.948842,2.79632 -5.559272,2.80761"
       style="fill:#010101;stroke:none;stroke-width:0.352778" />
  </g>
</svg>
