<?xml version="1.0" encoding="UTF-8" standalone="no"?>
<svg
   xmlns:dc="http://purl.org/dc/elements/1.1/"
   xmlns:cc="http://creativecommons.org/ns#"
   xmlns:rdf="http://www.w3.org/1999/02/22-rdf-syntax-ns#"
   xmlns:svg="http://www.w3.org/2000/svg"
   xmlns="http://www.w3.org/2000/svg"
   xmlns:sodipodi="http://sodipodi.sourceforge.net/DTD/sodipodi-0.dtd"
   xmlns:inkscape="http://www.inkscape.org/namespaces/inkscape"
   width="255.82918mm"
   height="154.07967mm"
   viewBox="0 0 255.82918 154.07967"
   version="1.1"
   id="svg8"
   inkscape:version="1.0 (4035a4fb49, 2020-05-01)"
   sodipodi:docname="tyrannosaurus.svg">
  <defs
     id="defs2" />
  <sodipodi:namedview
     id="base"
     pagecolor="#ffffff"
     bordercolor="#666666"
     borderopacity="1.0"
     inkscape:pageopacity="0.0"
     inkscape:pageshadow="2"
     inkscape:zoom="0.35"
     inkscape:cx="566.51544"
     inkscape:cy="308.89049"
     inkscape:document-units="mm"
     inkscape:current-layer="layer1"
     inkscape:document-rotation="0"
     showgrid="false"
     inkscape:window-width="1274"
     inkscape:window-height="728"
     inkscape:window-x="76"
     inkscape:window-y="0"
     inkscape:window-maximized="0" />
  <metadata
     id="metadata5">
    <rdf:RDF>
      <cc:Work
         rdf:about="">
        <dc:format>image/svg+xml</dc:format>
        <dc:type
           rdf:resource="http://purl.org/dc/dcmitype/StillImage" />
        <dc:title />
      </cc:Work>
    </rdf:RDF>
  </metadata>
  <g
     inkscape:label="Layer 1"
     inkscape:groupmode="layer"
     id="layer1"
     transform="translate(44.057211,-66.439392)">
    <path
       style="fill:#000000;stroke-width:0.352778"
       d="m 114.31931,220.42517 c 2.88904,-0.26052 7.11173,-3.20322 7.56629,-5.27277 0.12085,-0.55024 -0.0345,-2.02453 -0.34526,-3.27621 -0.31074,-1.25169 -0.71999,-2.89771 -0.90945,-3.65783 -0.18946,-0.76011 -0.23819,-1.63324 -0.1083,-1.94027 0.1299,-0.30704 0.44294,-2.06638 0.69565,-3.90964 0.47515,-3.46569 1.7571,-7.26716 3.80691,-11.28889 1.56402,-3.06862 1.61784,-4.68161 0.24366,-7.3038 -0.58938,-1.12464 -1.32912,-2.402 -1.64386,-2.83856 -0.55579,-0.77092 -0.54311,-0.7946 0.44092,-0.82315 0.55724,-0.0162 1.41004,-0.0917 1.89511,-0.16791 3.5084,-0.55104 8.71808,0.41827 10.72261,1.99503 1.3622,1.07151 1.92799,2.70103 2.92799,8.43284 1.08563,6.22257 1.04123,5.66633 0.68066,8.52829 -0.17797,1.41265 -0.16214,2.75344 0.0396,3.35139 0.43506,1.28966 -0.33958,2.58421 -1.54635,2.58421 -1.3509,0 -3.10135,0.87978 -3.76467,1.89214 -0.33518,0.51155 -0.9144,0.93008 -1.28716,0.93008 -0.97885,0 -2.54618,1.47395 -2.65886,2.50044 -0.0951,0.86644 -0.0641,0.87733 2.10217,0.73939 1.58942,-0.1012 2.5161,0.0241 3.34405,0.45227 0.62993,0.32576 1.36284,0.50881 1.62868,0.4068 0.26584,-0.10201 2.03745,-0.0298 3.93691,0.16037 6.07182,0.60805 7.3837,0.43528 7.74201,-1.01959 0.12823,-0.52064 0.5891,-1.42288 1.02415,-2.00496 1.03275,-1.38176 3.33046,-5.67011 3.33046,-6.21581 0,-0.23386 0.46335,-1.15347 1.02967,-2.04358 1.23924,-1.94778 1.47021,-3.21404 1.02902,-5.6414 -0.41781,-2.29881 -1.54307,-4.43313 -3.61717,-6.86089 -0.88909,-1.04069 -1.61652,-2.01262 -1.61652,-2.15984 0,-0.14722 0.43354,-0.1848 0.96343,-0.0835 0.88227,0.16865 0.90839,0.14392 0.31001,-0.29363 -0.47084,-0.34428 -0.59075,-0.7275 -0.42914,-1.3714 0.18532,-0.7384 -0.20224,-1.43358 -2.23152,-4.00265 -2.26204,-2.86374 -3.4032,-4.78237 -3.25255,-5.46849 0.0332,-0.15099 -0.633,-0.94831 -1.48034,-1.77184 -1.48145,-1.4398 -4.21286,-2.65223 -6.57989,-2.9207 -0.86626,-0.0982 -3.68873,-0.54027 -4.43857,-0.69512 -0.71211,-0.14704 -5.17361,-2.98826 -6.80977,-4.33667 -1.99397,-1.64327 -8.2554,-4.71591 -9.01562,-4.42419 -0.38977,0.14957 -0.69956,-0.13625 -1.05443,-0.97286 -0.47862,-1.12832 -0.4576,-1.232 0.44197,-2.18046 1.28389,-1.35366 8.44949,-5.33988 10.82225,-6.02041 0.38806,-0.1113 2.64382,-0.34575 5.0128,-0.521 3.37575,-0.24974 4.55828,-0.47731 5.46805,-1.05232 0.63845,-0.40353 2.03394,-1.20881 3.1011,-1.78953 1.06715,-0.58071 2.57528,-1.6217 3.35139,-2.31331 2.19123,-1.95263 6.29044,-2.75538 11.36899,-2.22638 1.50816,0.15709 5.59962,0.18045 9.09212,0.0519 3.4925,-0.12854 11.31487,-0.24921 17.38305,-0.26815 9.06659,-0.0283 11.57735,0.0727 14.0869,0.56663 1.67962,0.33058 3.49723,0.78472 4.03914,1.00918 2.2059,0.91372 4.07308,3.76708 3.69667,5.64913 -0.35022,1.75109 -2.58168,4.75187 -5.59666,7.52614 -4.36817,4.01944 -6.6603,5.18148 -17.79803,9.02309 -4.9868,1.72003 -7.16802,2.68337 -7.16802,3.16578 0,0.43049 0.90441,0.27285 4.05695,-0.70716 1.16416,-0.36189 3.86292,-1.07704 5.99722,-1.5892 8.44732,-2.02709 11.7842,-3.46915 16.79489,-7.25804 4.75091,-3.59244 6.60469,-5.74959 8.88125,-10.33463 2.58633,-5.20896 2.2705,-12.48761 -0.71151,-16.39722 -2.80702,-3.68019 -7.38786,-7.34329 -11.53403,-9.22325 -3.64978,-1.65489 -10.75639,-4.04682 -19.95699,-6.71708 -2.8134,-0.81653 -6.3059,-1.96097 -7.76111,-2.5432 -1.45521,-0.58224 -3.36021,-1.26661 -4.23333,-1.52082 -0.87313,-0.25421 -2.93688,-0.95584 -4.58611,-1.55919 -1.64924,-0.60334 -4.03354,-1.46159 -5.29844,-1.90722 -1.2649,-0.44563 -2.93177,-1.12916 -3.70416,-1.51897 -0.77239,-0.3898 -3.49843,-1.37799 -6.05788,-2.19598 -3.3977,-1.0859 -5.25415,-1.90323 -6.87916,-3.02869 -6.54908,-4.535777 -15.08933,-8.175903 -21.95999,-9.360047 -2.91148,-0.501788 -7.73511,-0.23534 -10.25176,0.566289 -3.26572,1.040226 -5.232,1.214084 -7.639379,0.675471 -2.236459,-0.500374 -3.130649,-0.75161 -8.764795,-2.462612 -1.64923,-0.500848 -3.63361,-1.041287 -4.40972,-1.200976 -0.77611,-0.159689 -2.68111,-0.570884 -4.23333,-0.913767 -3.88671,-0.858567 -15.517936,-0.791139 -17.815276,0.103278 -0.48507,0.188851 -1.99319,0.454282 -3.35139,0.589847 -2.04515,0.204132 -4.7864,0.853024 -7.9375,1.878913 -1.32017,0.429803 -4.59644,0.457407 -6.52613,0.05499 -2.83109,-0.590402 -4.75302,-1.437547 -6.25675,-2.757842 -0.68474,-0.601211 -1.39642,-1.09311 -1.58151,-1.09311 -0.59148,0 -4.87419,-4.687131 -6.28561,-6.879167 -1.544,-2.397938 -4.35666,-5.884506 -5.89082,-7.302227 -0.56673,-0.523726 -2.80408,-1.814229 -4.97189,-2.867785 -4.29617,-2.087948 -5.46233,-2.330611 -11.26948,-2.345036 l -3.4474603,-0.0086 -1.53088,-1.411111 c -0.84198,-0.776111 -1.83856,-1.411111 -2.21462,-1.411111 -0.37605,0 -0.83455,-0.143997 -1.01888,-0.319994 -0.18432,-0.175997 -0.95196003,-0.48664 -1.70585003,-0.690318 -1.58170997,-0.427326 -2.91628997,-0.0011 -4.59606997,1.467861 -0.90379,0.790367 -2.53835,1.399365 -5.01307,1.867754 -2.5551097,0.483604 -5.1115497,0.689168 -5.5005997,0.442305 -0.24908,-0.158048 -1.24789,-0.28979 -2.21958,-0.292762 -1.21213,-0.0037 -2.30104,-0.289855 -3.46899,-0.911605 -1.49926,-0.798116 -1.83554,-0.856624 -2.81942,-0.490533 -0.61441,0.228618 -2.22836,0.474259 -3.58656,0.545869 -5.85806,0.308861 -8.80178,1.100454 -12.23214,3.289327 -1.2696,0.810114 -1.80792,1.54481 -3.20189,4.369918 -1.95586,3.963877 -2.12237,5.435316 -0.79375,7.014291 0.48507,0.576473 0.88195,1.24573 0.88195,1.487239 0,0.241509 0.31117,1.062767 0.6915,1.825017 l 0.6915,1.385909 0.0716,-1.058334 c 0.0418,-0.618915 0.15754,-0.264107 0.27864,0.854553 0.21964,2.028902 1.08041,2.97031 1.10024,1.203318 0.0101,-0.901996 0.0566,-0.939827 0.47585,-0.38766 0.25555,0.336533 0.55218,0.524334 0.65918,0.417336 0.107,-0.106999 0.38625,0.386334 0.62056,1.096295 0.48842,1.479941 0.95376,1.256102 1.11846,-0.538008 l 0.11334,-1.234723 0.56542,1.020504 c 0.34162,0.616596 0.66026,0.867041 0.80504,0.632769 0.1318,-0.213255 0.47268,-0.29831 0.75751,-0.189011 0.32291,0.123912 0.51787,-0.0147 0.51787,-0.368185 0,-0.3118 0.28575,-0.56691 0.635,-0.56691 0.48358,0 0.635,0.278434 0.635,1.167713 0,1.283576 0.76372,3.418398 1.22291,3.418398 0.15986,0 0.33903,-0.741653 0.39817,-1.648118 0.0591,-0.906465 0.26628,-1.699611 0.46031,-1.762546 0.19402,-0.06293 0.8187,0.749311 1.38818,1.804992 0.56947,1.05568 1.14386,1.852389 1.27641,1.770464 0.13256,-0.08193 0.34679,-0.946269 0.47606,-1.920763 0.26963,-2.032583 0.67291,-2.264548 1.13512,-0.652918 0.46936,1.636575 1.08518,1.617405 1.36562,-0.04251 0.18539,-1.097294 0.40066,-1.429156 0.92707,-1.429156 0.37709,0 0.77974,0.245279 0.89479,0.545065 0.17608,0.458884 0.28905,0.430995 0.71448,-0.176389 0.50937,-0.727228 1.52365,-0.994639 1.52365,-0.401703 0,0.175863 0.3175,0.236722 0.70556,0.135244 0.38806,-0.101479 0.70556,-0.404117 0.70556,-0.672529 0,-0.268412 0.15875,-0.488022 0.35277,-0.488022 0.19403,0 0.35278,0.238125 0.35278,0.529167 0,0.291042 0.19844,0.532706 0.44097,0.537033 0.24254,0.0043 0.79816,1.092847 1.23473,2.418935 0.98874,3.003385 1.15424,8.509314 0.25577,8.509314 -1.36877,0 -4.68683,1.54736 -6.77528,3.15963 -1.26528,0.97678 -2.91553,1.94157 -3.66723,2.14398 -0.75171,0.20242 -1.36674,0.51507 -1.36674,0.6948 0,0.67867 1.50994,1.12244 3.03896,0.89315 1.47604,-0.22135 2.07671,0.14785 1.16116,0.71369 -0.2123,0.13121 -0.31369,0.61683 -0.22531,1.07916 0.0884,0.46232 0.0239,0.84059 -0.14317,0.84059 -0.16712,0 -0.30386,-0.12841 -0.30386,-0.28535 0,-0.15695 -0.24896,-0.59351 -0.55326,-0.97014 -0.51118,-0.63272 -0.53928,-0.48681 -0.36946,1.91867 l 0.1838,2.60346 -0.86526,-0.81287 -0.86526,-0.81287 v 0.76705 c 0,0.92777 -0.29174,0.97496 -0.92545,0.14969 -0.44262,-0.5764 -0.48889,-0.5647 -0.6974,0.17639 -0.28323,1.00662 -0.72848,1.0161 -1.04392,0.0223 -0.22775,-0.71758 -0.27624,-0.72861 -0.6937,-0.15769 -0.33826,0.4626 -0.4942,0.50057 -0.633,0.15414 -0.11897,-0.29694 -0.19402,-0.24112 -0.21202,0.15769 -0.0153,0.33955 -0.34535,0.93486 -0.7334,1.32292 -0.38806,0.38805 -0.70556,0.92442 -0.70556,1.19192 0,0.2675 -0.47625,0.68364 -1.05833,0.92474 -0.58208,0.24111 -1.05833,0.5565 -1.05833,0.70087 0,0.86888 3.17431,4.00413 4.91821,4.85769 2.14356,1.04916 5.24896,1.29429 6.78036,0.5352 0.45377,-0.22492 1.77754,-0.79692 2.9417,-1.2711 1.16417,-0.47418 4.18042,-1.81514 6.70278,-2.97992 3.9387797,-1.81885 4.9844697,-2.15263 7.4083297,-2.36475 1.55223,-0.13584 3.77473,-0.60865 4.93889,-1.05071 2.5696,-0.97572 7.56161,-2.19926 8.29028,-2.03195 0.29104,0.0668 0.87981,0.86553 1.30837,1.7749 0.62807,1.33268 1.31233,2.00698 3.5277803,3.47636 1.51172,1.00264 3.3042,2.09335 3.9833,2.42379 0.67909,0.33045 1.47284,0.80446 1.76389,1.05336 0.99505,0.85098 7.58049,3.64 11.28888,4.78099 4.33684,1.33434 6.82287,2.55995 7.34757,3.62235 0.20656,0.41824 0.66187,1.707 1.01179,2.86392 0.46273,1.52987 1.12334,2.6362 2.42247,4.05694 1.39795,1.52882 1.80276,2.23782 1.86226,3.26164 0.0902,1.55132 -0.5057,2.04666 -3.49183,2.90273 -1.07813,0.30909 -2.81903,1.11526 -3.86866,1.7915 -2.59871,1.67426 -5.04884,1.78662 -6.80144,0.31191 -0.61699,-0.51918 -1.45587,-0.84629 -2.17031,-0.84629 -1.36834,0 -3.40931,0.78787 -4.05433,1.56506 -0.39585,0.47697 -0.31854,0.53168 0.60016,0.42471 0.57999,-0.0675 1.40878,0.0668 1.84176,0.29852 0.778,0.41638 0.77246,0.43002 -0.47249,1.16456 -1.45451,0.85818 -1.71614,1.60482 -1.56688,4.47148 0.11303,2.17097 0.84996,3.12277 1.05268,1.35961 0.0768,-0.6677 0.42844,-1.13863 1.08378,-1.45128 0.71903,-0.34302 0.97014,-0.71992 0.97014,-1.45606 0,-0.87083 0.18478,-1.04234 1.49931,-1.39166 0.82461,-0.21914 2.21368,-0.30895 3.0868,-0.19958 3.19588,0.4003 6.84622,-0.0881 10.58334,-1.41592 2.24118,-0.79632 2.95606,-1.26705 4.6743,-3.07793 1.11566,-1.1758 2.02847,-2.26365 2.02847,-2.41743 0,-0.15379 1.03188,0.0559 2.29306,0.46592 1.26118,0.41004 2.29305,0.89837 2.29305,1.08517 0,0.18681 -0.0995,0.24015 -0.22111,0.11853 -0.53249,-0.53249 -4.01222,1.89775 -4.01222,2.80212 0,0.3531 0.22018,0.37523 0.95476,0.0959 0.52511,-0.19965 1.35855,-0.32569 1.85208,-0.28009 0.49353,0.0456 1.25131,-0.0349 1.68396,-0.17895 0.43265,-0.14402 1.05551,-0.11139 1.38415,0.0725 0.53226,0.29787 0.48488,0.43916 -0.43386,1.29364 -0.56725,0.5276 -1.7,1.27457 -2.51722,1.65994 -0.83577,0.39412 -1.58666,1.03372 -1.71624,1.4619 -0.12671,0.41867 -0.51907,1.07872 -0.8719,1.46677 -0.78478,0.86313 -1.47044,2.58963 -1.20135,3.02502 0.10877,0.17599 0.62422,-0.0755 1.14544,-0.55877 0.52123,-0.48331 1.02869,-0.89449 1.12769,-0.91374 0.099,-0.0193 0.58371,-0.0724 1.07714,-0.11801 1.27235,-0.11774 1.80547,-0.49573 3.51582,-2.49283 1.06672,-1.24556 2.23623,-2.107 3.97987,-2.9315 1.35809,-0.64219 2.96216,-1.54266 3.5646,-2.00105 1.03862,-0.79027 1.18667,-0.8096 2.85923,-0.37329 0.97014,0.25306 2.79576,0.94405 4.05694,1.53552 1.261176,0.59146 3.024626,1.39418 3.918776,1.78381 2.22076,0.96771 8.71754,3.13078 10.01595,3.33476 0.58208,0.0914 2.4077,0.49071 4.05694,0.88726 1.64924,0.39656 3.6458,0.81916 4.4368,0.93913 1.36916,0.20765 1.5008,0.34144 2.742597,2.78741 0.717423,1.41311 2.173675,3.95379 3.236115,5.64595 1.750963,2.78879 1.931995,3.26439 1.934764,5.08294 0.0025,1.55262 0.261623,2.52361 1.146528,4.29408 1.053327,2.10743 1.321047,2.37564 3.39593,3.40211 1.23885,0.61287 2.83233,1.20703 3.54107,1.32036 1.48165,0.23693 2.2522,0.87954 4.3457,3.62417 2.25984,2.9627 3.38414,4.80736 3.41499,5.60304 0.0152,0.39339 0.26192,1.04962 0.54816,1.45828 1.08565,1.54998 0.63034,4.37065 -1.62925,10.09319 -1.36218,3.4498 -1.77736,4.1273 -3.64987,5.95593 -1.16206,1.13484 -3.14938,2.60804 -4.41627,3.27376 -2.0655,1.08539 -2.68053,1.23076 -5.954472,1.40743 -2.774897,0.14974 -3.922476,0.36476 -4.782083,0.89602 -0.62206,0.38446 -1.921229,0.86849 -2.887049,1.07562 -2.43611,0.52245 -3.85606,1.48061 -4.72848,3.1907 -0.80703,1.5819 -0.71605,2.16758 0.19516,1.25637 0.65882,-0.65882 2.72529,-0.7498 4.32939,-0.1906 0.97831,0.34104 1.05705,0.47165 0.7582,1.25768 -0.18342,0.48242 -0.33349,1.2936 -0.33349,1.80263 v 0.9255 l 0.7193,-0.77208 c 0.907404,-0.97398 2.575005,-1.00555 3.514036,-0.0665 0.572414,0.57241 1.175925,0.70556 3.198192,0.70556 1.370951,0 2.839386,-0.19692 3.263196,-0.43761 0.4238,-0.24068 1.96118,-0.62334 3.41639,-0.85035 1.45521,-0.22701 3.32052,-0.52724 4.14514,-0.66718 1.3524,-0.2295 1.4993,-0.18471 1.4993,0.45707 0,0.39133 0.21915,1.23271 0.487,1.86973 0.51006,1.21308 0.87439,1.33166 3.39356,1.1045 z"
       id="path24" />
  </g>
</svg>
