<?xml version="1.0" encoding="UTF-8" standalone="no"?>
<svg
   xmlns:dc="http://purl.org/dc/elements/1.1/"
   xmlns:cc="http://creativecommons.org/ns#"
   xmlns:rdf="http://www.w3.org/1999/02/22-rdf-syntax-ns#"
   xmlns:svg="http://www.w3.org/2000/svg"
   xmlns="http://www.w3.org/2000/svg"
   xmlns:sodipodi="http://sodipodi.sourceforge.net/DTD/sodipodi-0.dtd"
   xmlns:inkscape="http://www.inkscape.org/namespaces/inkscape"
   inkscape:version="1.0 (4035a4fb49, 2020-05-01)"
   sodipodi:docname="voltron.svg"
   viewBox="0 0 636.77712 660.07927"
   height="660.07928"
   width="636.7771"
   id="svg1729"
   version="1.1">
  <metadata
     id="metadata1735">
    <rdf:RDF>
      <cc:Work
         rdf:about="">
        <dc:format>image/svg+xml</dc:format>
        <dc:type
           rdf:resource="http://purl.org/dc/dcmitype/StillImage" />
        <dc:title />
      </cc:Work>
    </rdf:RDF>
  </metadata>
  <defs
     id="defs1733" />
  <sodipodi:namedview
     inkscape:current-layer="g1737"
     inkscape:window-maximized="0"
     inkscape:window-y="26"
     inkscape:window-x="86"
     inkscape:cy="576.63031"
     inkscape:cx="9.6180112"
     inkscape:zoom="0.26418296"
     showgrid="false"
     id="namedview1731"
     inkscape:window-height="651"
     inkscape:window-width="1219"
     inkscape:pageshadow="2"
     inkscape:pageopacity="0"
     guidetolerance="10"
     gridtolerance="10"
     objecttolerance="10"
     borderopacity="1"
     bordercolor="#666666"
     pagecolor="#ffffff"
     inkscape:document-rotation="0" />
  <g
     transform="translate(200.83639,-316.43688)"
     id="g1737"
     inkscape:label="Image"
     inkscape:groupmode="layer">
    <path
       sodipodi:nodetypes="cccsccsccccccccccccccccccccccccccccccccccccccccscccccccccccccccccccccccccccccccccccccccccccscccsccccccccsccccccccccccccccccccccccccccsccccccccccccccccccccccccccccscscccccccc"
       id="path124"
       d="m 266.35223,426.24595 c -15.74077,-9.80854 -21.23735,-7.62483 -39.58473,-7.68743 6.69624,-9.19521 0.55312,-17.79829 2.13972,-27.61787 20.49034,2.0809 18.08273,-2.77147 19.09909,-8.67109 0.79491,-4.6144 -1.5331,-19.16361 -9.13979,-16.14865 -6.18378,2.45137 9.13979,16.14865 -9.76088,14.92259 -9.47038,-20.06935 -29.09395,-19.35011 -49.31237,-11.96058 -7.33124,2.67946 -5.23989,11.91299 -9.70975,12.54121 -15.33756,2.00018 -3.44595,-14.0245 -10.10999,-15.41635 -7.38492,-2.68059 -9.63637,17.45332 -6.54983,22.06302 3.34437,4.99666 11.6421,0.003 16.34627,4.27406 3.16173,6.84926 -2.49053,21.52087 4.23607,27.27094 -10.86244,0.59204 -15.92125,1.49917 -24.26828,3.22057 -1.79094,-11.10886 -20.40539,-22.53462 -28.41755,-30.16977 -2.64362,-2.51983 -6.73583,-8.42127 -11.01312,-7.45519 -7.6559,1.72953 -3.67603,25.97978 -2.29377,31.20582 -12.286242,0.25355 -35.172642,1.98458 -45.582352,8.88303 -3.78088,2.50667 -4.44847,8.50964 -5.77188,12.51412 -3.63431,10.99814 -9.82878,21.48916 -6.53683,33.16451 2.80303,9.9454 13.85466,16.35278 17.66121,25.86381 2.00919,5.01977 0.7842,17.02143 -0.42474,22.28085 -26.25323,-11.61972 -36.99888,37.50386 -39.58472,56.70245 -7.00971,-2.94745 -7.20442,-13.05012 -15.98475,-13.16245 -7.9255002,-0.10164 3.887689,13.43486 -0.416352,15.42693 -2.2787996,1.05488 -11.57642835,-3.49969 -13.4208584,-4.52034 -6.46622,-3.5776 -11.0583696,-5.06517 -17.1929296,-8.83535 -5.37497,-3.30479 -4.43991,-8.42299 -6.72192,-13.51551 -3.46206,-7.72544 -11.80588,-18.00356 -20.08336,-20.32729 l 2.13971,10.69857 c -21.92031,-15.5814 -41.91595,-38.79196 -60.981878,-57.77338 -7.68264,-7.64841 -20.19409,-15.98367 -25.0797,-25.67551 -1.34704,-14.44489 -4.82095,-32.5942 -12.11028,-29.22782 -1.19065,1.66817 -3.87307,10.24308 -6.92126,12.80933 -1.85342,-2.41895 -5.25048,-9.61542 -7.78679,-11.29296 -0.02,-7.57042 0.93214,-11.59188 -5.489,-14.9681 0,0 -6.77361,9.27949 -12.79592,5.76648 -8.20078,-5.82291 -17.27431,-13.84261 -25.76511,-17.30005 5.00715,9.7035 10.22467,16.77881 16.94123,25.42219 3.83169,4.93204 7.93128,11.0773 -1.23247,10.60335 3.27848,7.52761 7.24209,8.07985 14.03169,5.34929 4.00884,9.2308 10.71888,10.14025 10.36472,13.8319 -1.77434,2.1292 -9.19235,3.66171 -11.55813,7.56525 5.32176,13.24048 24.23588,4.4488 33.16749,8.07249 8.17371,3.83865 20.56386,18.44714 27.04944,24.65446 13.907078,13.31009 28.650778,25.72686 42.531118,39.05301 6.95728,6.67912 17.7393,13.22665 21.35542,22.36751 l -6.41914,1.06986 c 3.5102,6.09818 10.42897,12.53338 17.11772,14.97907 3.90605,1.42826 6.83649,-0.48571 10.20119,2.435 5.90454,5.12355 11.970815,13.95455 16.197825,20.4978 2.3515399,3.63965 3.4264648,9.02599 4.1956948,13.43701 0.72643,4.16175 -4.3729948,4.00468 -3.9150948,8.068 0.66973,5.94627 5.9430598,8.70864 11.16610983,7.44728 6.40629867,11.2704 15.25643617,-5.05233 18.85671517,-10.16171 -0.67936,2.84475 -1.11265,5.63066 -1.2742,8.55886 1.014615,9.96205 11.094058,7.72458 22.028008,12.74863 9.014912,9.01492 24.400602,21.88373 28.459642,30.04567 l -4.27943,1.06986 c 2.86936,7.40555 9.22645,13.45132 17.11772,14.978 v -6.41914 l 13.90815,2.13971 -7.489,-19.25743 c 11.88718,-2.54733 -17.02251,-26.43618 -12.83829,-9.62872 -3.37433,-2.14507 -12.044196,-13.60833 -16.74327,-18.3074 2.58691,-3.52304 10.54879,-0.86766 13.46201,-5.67667 2.37937,-3.92745 1.668047,-4.46441 5.655456,-8.00243 4.955152,-4.06791 7.899056,-6.42572 9.507266,-12.37183 2.484846,-8.49574 7.741858,-18.14382 12.308018,-25.58361 10.189322,-16.60098 18.220292,-50.67645 5.569422,-55.11836 3.76171,-4.69001 10.13074,-10.40094 16.18745,-13.72501 0.44742,8.44626 10.93421,19.24415 8.3446,28.6756 -3.89107,4.99089 -9.06089,17.93816 -5.53377,25.22426 1.07881,7.72049 3.5706,16.42507 9.64334,19.02744 -16.15641,6.40147 -20.99449,20.09402 -22.29283,40.18143 0.28993,4.54368 3.65463,8.39196 3.59044,12.83829 -0.2343,16.51539 -3.13069,36.74775 1.55315,52.89618 l -24.744452,4.76272 -5.25407,15.09141 -5.58038,10.88045 -7.75821,69.26928 -6.10568,23.24373 -6.65558,5.84142 -2.77735,25.51931 10.50386,29.50239 -3.01914,10.08234 c -6.66949,-3.4856 -11.93426,-4.32436 -19.25743,-2.13971 -0.93292,-3.87182 -0.71467,-9.12589 -3.14324,-12.41677 -2.94532,-3.9895 -9.74427,-4.72235 -11.37045,0.71145 -1.44538,4.82506 0.65261,9.25427 1.6754,13.84503 -6.86421,0.46111 -20.33692,7.53608 -25.25934,12.44672 -3.30051,3.29409 -4.30297,8.28712 -8.1341302,11.0955 -6.9958,5.12889 -18.4261498,3.74129 -24.7500798,9.4554 -9.45433,8.54281 2.39327,33.91769 10.45786,39.252 6.8299698,4.51694 16.2832298,-0.016 24.14882,0.55954 4.61002,0.337 8.30959,3.27376 12.83829,3.77231 10.24068,1.12656 20.98847,-2.0798 31.02587,-3.5102 5.20272,-0.74141 10.86012,0.2664 15.88952,-1.63474 14.734501,-4.40621 16.01783,-11.32542 35.463642,-6.56465 20.22031,4.54797 41.92023,-6.15382 50.2833,-25.28715 l 33.16558,14.97801 c 2.45747,-8.57812 -4.25375,-14.95982 -7.489,-22.46701 12.22419,-5.42204 9.59021,-16.63736 8.25395,-27.8163 -2.65752,-22.21773 -9.29171,-39.97095 -16.82244,-60.98188 -1.81875,-5.07219 -0.0182,-10.78309 0.009,-16.04786 0.12625,-24.19483 21.83861,-61.1619 22.61105,-85.54074 0.37659,-11.88612 -19.85014,-21.07694 -24.13706,-32.58112 2.64722,-9.87956 5.10983,-16.33199 7.93426,-24.5945 2.57515,-7.53286 -0.23984,-15.36822 1.59282,-23.0637 14.32389,8.32807 31.97736,3.08116 36.70973,3.08116 6.93374,20.53056 7.41138,14.85686 12.26472,30.033 -10.64459,4.08446 -17.72716,5.36786 -16.18015,14.84573 -4.30189,1.17363 -11.41003,2.56123 -13.87819,6.65986 -2.40825,3.99699 -0.95003,10.5381 0.13587,14.73729 3.00095,11.60688 6.88882,32.80076 16.56354,40.8065 6.1367,5.07755 13.57909,-0.96012 17.81908,-2.09622 3.37066,12.5795 10.82636,22.83435 14.55763,36.75963 -20.2524,3.16036 -16.15256,31.2376 -1.6132,33.98285 -1.04418,11.70531 8.31493,24.50081 12.24024,35.3053 4.76194,13.10576 6.95397,20.32169 8.27525,34.2277 0.70289,7.38843 2.21781,15.39525 10.77881,16.04786 l 4.45489,23.07255 8.80813,5.97195 5.43702,18.5449 10.95106,0.9522 13.23949,12.298 c 14.57493,5.10035 42.42416,1.63068 52.75515,-3.32884 l 5.59,-11.5769 c 8.54916,0.41555 11.23303,-8.59696 10.02944,-18.11754 12.84257,-2.71532 17.79815,-37.63868 11.98347,-47.96174 -9.12267,-16.19443 -7.41722,-26.43271 -15.40156,-42.96843 -1.8102,-3.74664 -5.01549,-11.48599 -8.97076,-13.26302 -3.7766,-1.69573 -8.38233,0.60446 -11.33621,-3.12506 -6.20624,-7.83778 -4.40266,-10.38998 -7.94068,-19.75551 -4.26231,-11.28593 -4.44312,-23.60534 -8.88302,-35.3053 -1.21429,-3.19994 -1.90542,-8.81349 -5.23161,-10.56912 -3.7445,-1.9771 -10.66541,1.46891 -14.67951,2.01026 -3.17437,-11.84693 -10.46052,-27.87949 -12.84855,-36.79173 4.96631,-2.8673 15.58033,-5.10108 19.09374,-11.08158 2.35797,-4.01304 -0.38729,-9.75924 -1.77596,-13.66743 l -10.69858,-29.95601 c -1.43895,-4.04193 -2.76237,-10.21393 -6.27578,-12.98593 -5.8611,-4.6232 -15.16258,-4.03088 -16.7853,-0.12099 -5.27457,-4.59982 -11.02676,-3.40212 -19.14948,-0.671 -7.89535,-18.37609 -12.83952,-32.70753 -16.51982,-39.73355 3.84758,-5.52045 7.48926,-11.93087 0.64251,-31.89343 -1.85192,-5.47554 -6.63418,-10.57904 -8.0143,-15.90479 8.27553,-10.69189 9.36003,-25.95584 -4.81117,-33.34352 -3.14221,-7.59654 -7.21379,-18.89716 -6.08105,-22.13366 4.05048,-5.14709 13.89317,-6.09391 19.26385,-10.96497 11.03093,-9.64512 10.94549,3.75072 17.16373,7.24935 7.91373,3.98843 29.22744,-2.53021 29.91,-11.56088 10.35409,7.99077 19.49281,25.33744 33.16559,27.8163 0.53172,6.73047 -0.2771,16.55177 3.4535,22.35574 6.85457,10.6622 24.71157,13.54226 32.75689,3.262 3.18069,-4.06225 3.16143,-10.02029 4.44419,-14.91916 22.65317,5.17597 26.93473,-21.18853 37.55307,-36.37516 3.87075,-5.53544 14.07933,-15.95051 13.23093,-23.29294 -0.87728,-7.59599 -21.29979,-6.11531 -21.29979,-6.11531 0,0 -9.64477,-36.42972 -30.55407,-41.70304 -5.33537,-1.34481 -8.16622,3.54978 -12.83829,4.75123 -6.22229,1.59944 -14.84106,0.58094 -21.39715,1.09875 0.0899,-10.86013 0.12304,-17.74252 -4.9299,-27.8163 -2.18144,-4.34983 -9.49177,-11.12288 -8.72148,-16.04786 0.84947,-5.4306 6.53362,-11.4938 9.42224,-16.04787 9.38907,-14.80308 22.41672,-29.11018 22.41672,-47.07373 0,-4.35935 2.05948,-16.25317 -1.85941,-19.20704 -3.83972,-2.89311 -7.93727,3.53919 -9.90902,5.91556 -7.53394,9.08074 -15.20802,18.04475 -22.67349,27.18401 -6.95193,8.5104 -15.26152,22.39576 -24.49653,28.33379 -4.35753,2.80227 -8.0464,-1.86712 -12.46491,-0.74462 -13.48983,3.42761 -34.12631,14.17689 -35.34167,30.19876 -0.49962,6.59567 4.41423,11.78662 5.10857,18.18758 z"
       style="fill:#020203;stroke:none;stroke-width:1.06986" />
  </g>
</svg>
