<?xml version="1.0" encoding="utf-8"?>
<!-- Generator: Adobe Illustrator 13.0.0, SVG Export Plug-In . SVG Version: 6.00 Build 14948)  -->
<!DOCTYPE svg PUBLIC "-//W3C//DTD SVG 1.1//EN" "http://www.w3.org/Graphics/SVG/1.1/DTD/svg11.dtd">
<svg version="1.1" id="Layer_1" xmlns="http://www.w3.org/2000/svg" xmlns:xlink="http://www.w3.org/1999/xlink" x="0px" y="0px"
	 width="200px" height="200px" viewBox="0 0 200 200" enable-background="new 0 0 200 200" xml:space="preserve">
<g id="Shape_4_2_">
	<g>
		<path fill-rule="evenodd" clip-rule="evenodd" fill="#D19869" d="M167.454,69.058c-1.011-10.414-21.438-22.748-42.204-32.426
			c-20.767-9.678-43.115,2-49.544,5.816c-6.43,3.815-26.145,61.095-25.091,68.304c1.054,7.211-2.349,51.018,49.751,67.781
			c11.341,2.027,21.66-4.095,26.69-8.536c7.189-6.344,15.306-14.25,20.978-24.727c5.672-10.478,6.156-17.454,7.929-27.955
			C157.734,106.815,168.466,79.473,167.454,69.058z"/>
	</g>
</g>
<g id="Shape_23">
	<g>
		<path fill-rule="evenodd" clip-rule="evenodd" fill="#D19869" d="M132.451,157.327c-4.792,6.013-6.542-0.414-5.743-2.959
			c2.439-7.767-7.799-12.507-19.93-17.117c-13.048-4.959-23.543-4.894-27.984,0.488c-4.671,5.663-7.837,1.645-7.955-0.73
			c-0.314-6.262-5.649-7.854-9.539-12.087c-11.509-12.532-3.899-40.619-7.188-28.895c-3.288,11.724-11.687,38.756,9.221,65.005
			c13.633,17.117,21.587,22.325,33.212,24.868c16.174,3.538,18.924-6.905,28.711-13.736c9.871-6.892,17.568-19.496,17.568-19.496
			C140.645,153.731,137.243,151.313,132.451,157.327z"/>
	</g>
</g>
<g id="Shape_44_2_">
	<g>
		<path fill-rule="evenodd" clip-rule="evenodd" fill="#AA8261" d="M86.136,147.942c0.435,3.068,2.706,11.032,13.826,15.203
			c12.233,4.589,18.271-2.373,18.271-2.373C112.688,160.902,85.152,141.05,86.136,147.942z"/>
	</g>
</g>
<g id="Shape_43">
	<g>
		<path fill-rule="evenodd" clip-rule="evenodd" fill="#AA8261" d="M167.792,75.593c-0.28-13.672-30.735-35.418-46.253-39.616
			c-15.515-4.196-48.5,9.265-35.925,7.146c33.69-5.675,64.427,14.762,73.07,30.656c4.663,8.577,3.73,22.033,3.73,22.033
			C163.723,92.987,168.087,89.93,167.792,75.593z"/>
	</g>
</g>
<g id="Shape_40_2_">
	<g>
		<path fill-rule="evenodd" clip-rule="evenodd" fill="#AA8261" d="M131.396,101.159c-3.543,0.438-3.009,1.461-6.665-0.764
			c0.517,2.032,0.086,3.586-0.397,8.984c-0.691,7.711-1.887,14.716-0.764,17.864c2.577,7.213-0.186,9.045-1.233,9.855
			c3.574-1.96,3.813-5.087,3.336-6.376c-2.07-5.596-0.126-18.729,2.019-16.066c2.9,3.604,8.058,5.968,11.057,6.981
			c-1.901-1.52-5.339-3.154-3.471-4.22c4.238,1.598,8.134,1.413,11.066-0.63c0.07-2.397,0.37-5.565,3.373-2.699
			c2.556,2.438-0.919-6.861,6.011-7.09C158.79,106.897,139.034,100.215,131.396,101.159z"/>
	</g>
</g>
<g id="Shape_42">
	<g>
		<path fill-rule="evenodd" clip-rule="evenodd" fill="#AA8261" d="M110.534,96.347c-3.398-2.427-3.291-6.979-8.899-9.352
			c-5.607-2.372-19.837-7.572-23.085-4.628c-2.208,2.002,8.225,5.756,4.708,8.553c-0.643,0.511-5.596,0.51-7.234,1.146
			c3.091,2.642,1.47,5.772,7.48,9.023c5.326,2.88,11.948,6.13,18.616,5.168c1.786-0.257,2.6-4.831,4.176-6.354
			C109.266,97.023,115.65,99.999,110.534,96.347z"/>
	</g>
</g>
<g id="Shape_16_1_">
	<g>
		<path fill-rule="evenodd" clip-rule="evenodd" fill="#AA8261" d="M112.105,135.984c-3.291-4.622-5.066-4.804-7.626-4.233
			c-2.832,0.635-3.914-2.246-3.184-4.227c-2.399,3.992,0.833,6.106,3.274,6.083c2.776-0.024,4.93,1.866,6.863,3.548
			c2.85,2.48,6.546,3.193,9.426,0.274C117.023,139.246,113.751,138.297,112.105,135.984z"/>
	</g>
</g>
<g id="Shape_29_1_">
	<g>
		<path fill-rule="evenodd" clip-rule="evenodd" fill="#D19869" d="M49.625,76.905c-6.421-1.581-6.41,3.362-7.146,5.439
			c-0.738,2.077-3.996,15.232-2.827,19.374c1.17,4.142,1.623,13.355,7.8,10.383c5.121-2.465,6.23-11.575,6.746-18.656
			C54.199,93.445,56.045,78.487,49.625,76.905z"/>
	</g>
</g>
<g id="Shape_30_1_">
	<g>
		<path fill-rule="evenodd" clip-rule="evenodd" fill="#AA8261" d="M46.4,80.764c-2.709,1.371-2.035,6.399-4.07,11.647
			c3.9-5.722,4.797-11.773,8.656-8.547C50.986,83.864,49.803,79.043,46.4,80.764z"/>
	</g>
</g>
<g id="Shape_31_1_">
	<g>
		<path fill-rule="evenodd" clip-rule="evenodd" fill="#AA8261" d="M52.439,90.505c-3.963-4.407-9.656,8.821-6.282,8.683
			c3.372-0.136,2.729,3.922,4.163,4.121c1.433,0.203-0.56-8.093,1.022-8.767C52.924,93.866,52.439,90.505,52.439,90.505z"/>
	</g>
</g>
<g id="Shape_21_1_">
	<g>
		<path fill-rule="evenodd" clip-rule="evenodd" fill="#B87B60" d="M85.547,145.047c-0.045,5.961,3.726,13.613,18.548,17.786
			c14.073,3.96,16.44-5.444,16.44-5.444C93.722,158.008,85.577,141.672,85.547,145.047z"/>
	</g>
</g>
<g id="Shape_8_1_">
	<g>
		<path fill-rule="evenodd" clip-rule="evenodd" d="M103.991,152.362c-13.103-4.847-20.652-11.248-19.915-9.131
			c0.878,2.51,3.133,8.131,19.012,14.341c11.433,4.47,17.059,2.363,18.119,0.037C121.611,156.724,116.806,157.104,103.991,152.362z"
			/>
	</g>
</g>
<path fill-rule="evenodd" clip-rule="evenodd" fill="#FFFFFF" d="M120.648,155.227c0,0-1.391,2.848-2.647,3.121
	c-2.553,0.558-10.273-1.355-14.244-2.786c-4.865-1.755-14.917-7.463-15.667-9.129c-0.748-1.667,0.894-1.974,0.894-1.974
	S118.937,155.551,120.648,155.227z"/>
<g id="Shape_19_1_">
	<g>
		<path fill-rule="evenodd" clip-rule="evenodd" fill="#B87B60" d="M112.065,149.929c-3.78-0.615-4.942-0.951-7.166-2.398
			c-4.695-3.058-17.91-3.779-21.952-5.293c2.43,3.058,9.216,6.18,22.015,10.495c8.863,2.988,14.392,4.953,17.191,5.117
			C122.154,157.85,119.666,151.163,112.065,149.929z"/>
	</g>
</g>
<g id="Shape_20_1_">
	<g>
		<path fill-rule="evenodd" clip-rule="evenodd" fill="#BF8879" d="M98.198,157.635c-9.484-4.924-11.792-10.258-11.791-10.258
			c0,0,1.978,6.39,10.444,11.139c7.059,3.957,10.397,3.749,12.336,2.875C109.188,161.391,105.732,161.549,98.198,157.635z"/>
	</g>
</g>
<g id="Shape_12_1_">
	<g>
		<path fill-rule="evenodd" clip-rule="evenodd" fill="#BC911E" d="M156.309,102.636c-2.088-2.236-15.158-6.924-19.291-6.171
			c-4.132,0.752-7.337,4.54-5.889,4.82c1.447,0.28,12.284,1.694,14.841,2.616c2.559,0.92,9.664,3.281,10.781,4.152
			C157.868,108.925,158.395,104.871,156.309,102.636z"/>
	</g>
</g>
<g id="Shape_12_copy_1_">
	<g>
		<path fill-rule="evenodd" clip-rule="evenodd" fill="#BC911E" d="M106.242,85.237c-1.78-3.862-17.983-6.62-21.032-5.926
			c-3.052,0.692-8.491,3.311-7.043,3.209c1.453-0.101,13.413,3.181,16.135,3.846c2.72,0.662,10.03,4.604,11.769,4.183
			C107.335,90.242,107.104,87.104,106.242,85.237z"/>
	</g>
</g>
<g id="Shape_5">
	<g>
		<path fill-rule="evenodd" clip-rule="evenodd" fill="#BC911E" d="M163.346,43.696c0,0-24.92,4.932-17.521,7.842
			c7.4,2.91,16.805,24.252,17.981,30.444c1.159,6.093-9.615,36.64-8.393,37.927c1.224,1.284,4.871-9.34,8.329-14.737
			c3.458-5.396,6.685-16.148,7.653-20.913c0.971-4.765-0.337-8.834,1.478-15.644C174.687,61.806,163.346,43.696,163.346,43.696z"/>
	</g>
</g>
<g id="Shape_26">
	<g>
		<path fill-rule="evenodd" clip-rule="evenodd" fill="#98761A" d="M159.888,46.795c3.734-3.549-22.01,0.596-17.562,2.621
			c4.448,2.024,8.328,7.478,11.784,11.272c4.927,5.41,9.317,19.495,9.317,19.495C169.612,70.548,155.601,50.871,159.888,46.795z"/>
	</g>
</g>
<g id="Shape_7">
	<g>
		<path fill-rule="evenodd" clip-rule="evenodd" fill="#BC911E" d="M164.674,36.971c-24.947-15.705-36.731,7.845-17.941,10.013
			c7-5.713,29.43,6.073,29.43,6.073C171.861,46.711,173.485,45.13,164.674,36.971z"/>
	</g>
</g>
<g id="Shape_6">
	<g>
		<path fill-rule="evenodd" clip-rule="evenodd" fill="#BC911E" d="M169.419,21.159c-1.202,4.006-17.753,0.188-24.709-1.899
			c-6.956-2.087-20.704,3.899-18.109,2.15c2.594-1.749,7.822-8.454-1.033-4.217c-8.856,4.237-20.703,3.899-22.938,3.688
			c-2.234-0.211-2.633-8.833-3.772-5.038c-0.899,2.998-8.287,7.06-10.526,8.54c-0.122,0.337-0.279,0.543-0.48,0.566
			c-0.35,0.04-0.113-0.173,0.48-0.566c0.893-2.453-0.104-11.996-0.122-10.586c-0.021,1.601-5.292,18.404-9.804,14.293
			c-4.511-4.112-14.693,5.813-23.866,25.93c-8.066,17.687-6.727,20.5-6.274,22.821c0.163,0.833,5.652,3.285,5.481,8.135
			c-0.485,13.758,0.388,25.033,0.748,22.803c0.527-3.288,3.627-20.513,10.458-27.195c6.831-6.683,9.403-22.917,17.585-33.33
			c8.18-10.414,26.688-3.941,33.266-5.185c6.579-1.243,25.151,9.615,33.142,11.323c7.99,1.708,19.945-15.157,19.945-15.157
			C172.875,34.147,170.62,17.154,169.419,21.159z"/>
	</g>
</g>
<g id="Shape_27">
	<g>
		<path fill-rule="evenodd" clip-rule="evenodd" fill="#98761A" d="M73.074,65.667c-0.419,0.958-0.657,1.53-0.657,1.53
			S72.662,66.635,73.074,65.667z M171,25.081c-4.471,14.515-14.337,10.635-24.941,14.576c-10.605,3.943-10.562-1.561-8.939-6.589
			c-2.233,4.386-14.567,2.984-16.528,3.773c-1.961,0.791-1.497-2.287,0.758-4.828c-2.74,2.533-13.966,5.229-19.721,2.583
			c-5.755-2.646-10.924,2.496-12.692,2.054c-3.718-0.93-4.756-3.046-7.214-5.763c-1.128-1.247,1.566,3.405,1.489,5.309
			c-0.234,5.828-7.834,24.065-10.137,29.471c1.616-3.689,5.97-13.194,10.223-18.644c5.228-6.704,14.958-5.049,26.731-4.848
			c11.901,0.204,26.121,7.148,32.782,8.688c6.662,1.539,11.849,2.636,20.704-6.196C172.813,35.391,171,25.081,171,25.081z"/>
	</g>
</g>
<g id="Shape_28">
	<g>
		<path fill-rule="evenodd" clip-rule="evenodd" fill="#98761A" d="M152.805,33.639c-5.27-0.048-8.77,4.722-8.77,4.722
			s2.888-3.499,8.812-3.331c10.962,0.313,14.063-7.041,14.063-7.041C163.88,31.448,160.386,33.71,152.805,33.639z"/>
	</g>
</g>
<g id="Layer_2">
	<defs>
		<path id="SVGID_1_" d="M146.665,116.889c-2.079,1.776-12.39-0.485-18.146-4.846c-2.915-2.051-0.236-1.71,0.79-2.374
			C130.929,108.622,145.745,107.214,146.665,116.889z"/>
	</defs>
	<clipPath id="SVGID_2_">
		<use xlink:href="#SVGID_1_"  overflow="visible"/>
	</clipPath>
	<path clip-path="url(#SVGID_2_)" fill-rule="evenodd" clip-rule="evenodd" fill="#FFFFFF" d="M146.704,116.747
		c0.058,2.259-12.365-0.567-18.143-4.853c-2.925-2.017-0.249-1.665,0.769-2.302C130.938,108.588,146.487,108.069,146.704,116.747z"
		/>
	<circle clip-path="url(#SVGID_2_)" fill="#00617F" cx="137.579" cy="113.056" r="5.48"/>
	<circle clip-path="url(#SVGID_2_)" cx="137.957" cy="112.851" r="2.575"/>
	<circle clip-path="url(#SVGID_2_)" fill="#FFFFFF" cx="137.539" cy="111.647" r="0.568"/>
</g>
<g id="Layer_2_copy">
	<defs>
		<path id="SVGID_3_" d="M82.603,95.938c0.639,2.645,10.184,6.736,17.3,6.494c3.514,0.005,1.175-1.26,0.737-2.391
			C99.948,98.253,88.913,88.575,82.603,95.938z"/>
	</defs>
	<clipPath id="SVGID_4_">
		<use xlink:href="#SVGID_3_"  overflow="visible"/>
	</clipPath>
	<path clip-path="url(#SVGID_4_)" fill-rule="evenodd" clip-rule="evenodd" fill="#FFFFFF" d="M82.651,95.801
		c-1.347,1.811,10.216,6.654,17.306,6.485c3.498,0.038,1.158-1.215,0.71-2.32C99.96,98.22,87.827,88.847,82.651,95.801z"/>
	<path clip-path="url(#SVGID_4_)" fill="#00617F" d="M97.179,99.78c-0.974,2.865-4.05,4.41-6.87,3.452
		c-2.818-0.96-4.313-4.062-3.337-6.925c0.973-2.865,4.05-4.411,6.868-3.452C96.659,93.813,98.155,96.915,97.179,99.78z"/>
	
		<ellipse transform="matrix(0.9467 0.3221 -0.3221 0.9467 36.3552 -24.3951)" clip-path="url(#SVGID_4_)" cx="91.892" cy="97.657" rx="2.533" ry="2.575"/>
	
		<ellipse transform="matrix(0.9467 0.3221 -0.3221 0.9467 36.1709 -24.7653)" clip-path="url(#SVGID_4_)" fill="#FFFFFF" cx="92.92" cy="96.917" rx="0.559" ry="0.568"/>
</g>
<g id="Shape_46_1_">
	<g>
		<polygon fill-rule="evenodd" clip-rule="evenodd" fill="#242424" points="63.81,81.046 61.258,86.133 76.996,93.839 79.11,87.895 
					"/>
	</g>
</g>
<path opacity="0.18" fill="#FFFFFF" d="M125.345,114.666c-0.352,1.17,0.087,3.504,1.363,3.887l26.652,8.142
	c1.278,0.384,2.929-1.323,3.28-2.492l3.024-10.08c0.351-1.17-0.407-2.44-1.685-2.824l-29.656-6.58
	c-1.276-0.383-2.608,0.261-2.96,1.432L125.345,114.666z"/>
<path opacity="0.18" fill="#FFFFFF" d="M109.897,110.92c-0.411,1.261-2.181,3.097-3.478,2.674l-28.583-7.98
	c-1.295-0.422-1.648-2.948-1.238-4.208l2.59-11.813c0.409-1.262,1.807-1.949,3.104-1.527l28.733,11.879
	c1.296,0.421,2.022,1.799,1.611,3.062L109.897,110.92z"/>
<g id="Shape_45_1_">
	<g>
		<path fill-rule="evenodd" clip-rule="evenodd" d="M161.071,112.02c-1.177-0.828-19.224-6.724-31.261-7.602
			c-6.412-0.467-12.272-2.265-16.993-4.94c-12.108-6.862-33.392-13.801-34.846-11.443c-0.801,1.3-2.018,4.79-2.389,6.169
			c-0.388,1.438,2.111,1.857,2.816,1.356c0.707-0.502,0.79-6.439,3.33-5.816c12.884,3.161,27.949,9.899,30.129,10.553
			c1.654,0.497,1.685,2.163,1.495,3.057c-0.258,1.224,4.882,1.635,7.229,2.247c3.45,0.902,3.872,2.022,4.456,2.051
			c1.238,0.059,1.532-1,3.583-1.382c6.385-1.187,27.33,5.032,29.445,5.904c2.115,0.873-0.538,5.312-0.757,6.507
			c-0.124,0.677,1.9,1.126,2.097,0.472S162.249,112.849,161.071,112.02z"/>
	</g>
</g>
</svg>
